# Blender 4.5.3 LTS
# www.blender.org
mtllib player.mtl
o Cube
v 0.354102 0.346083 -0.369660
v 0.354102 -0.346083 -0.369660
v 0.354102 0.346083 0.369660
v 0.354102 -0.346083 0.369660
v -0.354102 0.346083 -0.369660
v -0.354102 -0.346083 -0.369660
v -0.354102 0.346083 0.369660
v -0.354102 -0.346083 0.369660
v 0.354102 0.346083 -0.369660
v 0.354102 -0.346083 -0.369660
v 0.354102 0.346083 -0.369660
v 0.354102 -0.346083 -0.369660
v 0.354102 0.346083 0.369660
v 0.354102 -0.346083 0.369660
v 0.354102 0.346083 -0.369660
v 0.354102 -0.346083 -0.369660
v 0.354102 0.346083 0.369660
v 0.354102 -0.346083 0.369660
v 0.354102 0.346083 -0.369660
v 0.354102 -0.346083 -0.369660
v 0.354102 0.346083 0.369660
v 0.354102 -0.346083 0.369660
v 0.354102 0.346083 -0.369660
v 0.354102 -0.346083 -0.369660
v 0.354102 0.346083 0.369660
v 0.354102 -0.346083 0.369660
v 0.354102 0.346083 -0.369660
v 0.354102 -0.346083 -0.369660
v 0.354102 0.346083 0.369660
v 0.354102 -0.346083 0.369660
v 0.354102 0.346083 -0.369660
v 0.354102 -0.346083 -0.369660
v 0.354102 0.346083 0.369660
v 0.354102 -0.346083 0.369660
v 0.354102 0.346083 -0.369660
v 0.354102 -0.346083 -0.369660
v 0.354102 0.346083 0.369660
v 0.354102 -0.346083 0.369660
v 0.421462 0.363681 -0.853089
v 0.421462 -0.328485 -0.853089
v 0.421462 0.363681 -0.113769
v 0.421462 -0.328485 -0.113769
v -0.433672 -0.353990 -0.834265
v -0.433672 -0.353990 -0.094944
v -0.433672 0.338177 -0.094944
v -0.433672 0.338177 -0.834265
v -0.433672 -0.353990 -0.834265
v -0.433672 -0.353990 -0.094944
v -0.433672 0.338177 -0.094944
v -0.433672 0.338177 -0.834265
v -0.433672 -0.353990 -0.834265
v -0.433672 -0.353990 -0.094944
v -0.433672 0.338177 -0.094944
v -0.433672 0.338177 -0.834265
v -0.433672 -0.353990 -0.834265
v -0.433672 -0.353990 -0.094944
v -0.433672 0.338177 -0.094944
v -0.433672 0.338177 -0.834265
v -0.433672 -0.353990 -0.094944
v -0.433672 0.338177 -0.094944
v -0.354102 -0.346083 0.369660
v -0.354102 0.346083 0.369660
v -0.433672 -0.353990 -0.094944
v -0.433672 0.338177 -0.094944
v -0.354102 -0.346083 0.369660
v -0.354102 0.346083 0.369660
v -0.433672 -0.353990 -0.094944
v -0.433672 0.338177 -0.094944
v -0.354102 -0.346083 0.369660
v -0.354102 0.346083 0.369660
v -0.433672 -0.353990 -0.094944
v -0.433672 0.338177 -0.094944
v 0.354102 0.346083 0.361104
v 0.337710 0.330062 0.369660
v 0.337710 -0.330062 0.369660
v 0.354102 -0.346083 0.361104
v -0.354102 -0.346083 0.361104
v -0.337710 -0.330062 0.369660
v -0.337710 0.330062 0.369660
v -0.354102 0.346083 0.361104
v 0.154785 0.346083 0.490851
v 0.136460 0.330062 0.490556
v 0.136460 -0.330062 0.490556
v 0.154785 -0.346083 0.490851
v -0.473688 -0.346083 0.150049
v -0.462919 -0.330062 0.165530
v -0.462919 0.330062 0.165530
v -0.473688 0.346083 0.150049
v -0.079384 0.346083 0.510075
v -0.095516 0.330062 0.500995
v -0.095516 -0.330062 0.500995
v -0.079384 -0.346083 0.510075
v -0.486615 -0.346083 -0.094792
v -0.483895 -0.330062 -0.075872
v -0.483895 0.330062 -0.075872
v -0.486615 0.346083 -0.094792
v -0.295679 0.346083 0.414449
v -0.305985 0.330062 0.398628
v -0.305985 -0.330062 0.398628
v -0.295679 -0.346083 0.414449
v -0.389974 -0.346083 -0.318289
v -0.395915 -0.330062 -0.300190
v -0.395915 0.330062 -0.300190
v -0.389974 0.346083 -0.318289
v -0.445397 0.346083 0.225502
v -0.447557 0.330062 0.206503
v -0.447557 -0.330062 0.206503
v -0.445397 -0.346083 0.225502
v -0.205524 -0.346083 -0.470119
v -0.218788 -0.330062 -0.456916
v -0.218788 0.330062 -0.456916
v -0.205524 0.346083 -0.470119
v -0.494827 0.346083 -0.014219
v -0.488355 0.330062 -0.032119
v -0.488355 -0.330062 -0.032119
v -0.494827 -0.346083 -0.014219
v 0.025203 -0.346083 -0.516094
v 0.007602 -0.330062 -0.510760
v 0.007602 0.330062 -0.510760
v 0.025203 0.346083 -0.516094
v -0.432840 0.346083 -0.250739
v -0.419192 0.330062 -0.263508
v -0.419192 -0.330062 -0.263508
v -0.432840 -0.346083 -0.250739
v 0.250255 -0.346083 -0.445862
v 0.232281 -0.330062 -0.449599
v 0.232281 0.330062 -0.449599
v 0.250255 0.346083 -0.445862
v -0.273392 0.346083 -0.430801
v -0.255642 0.330062 -0.435565
v -0.255642 -0.330062 -0.435565
v -0.273392 -0.346083 -0.430801
v 0.418958 -0.346083 -0.275238
v 0.404658 -0.330062 -0.287204
v 0.404658 0.330062 -0.287204
v 0.418958 0.346083 -0.275238
v -0.052385 0.346083 -0.513862
v -0.034530 0.330062 -0.509548
v -0.034530 -0.330062 -0.509548
v -0.052385 -0.346083 -0.513862
v 0.493327 -0.346083 -0.042640
v 0.485920 -0.330062 -0.060140
v 0.485920 0.330062 -0.060140
v 0.493327 0.346083 -0.042640
v 0.180417 0.346083 -0.481219
v 0.194357 0.330062 -0.468798
v 0.194357 -0.330062 -0.468798
v 0.180417 -0.346083 -0.481219
v 0.456615 -0.346083 0.199559
v 0.457770 -0.330062 0.180465
v 0.457770 0.330062 0.180465
v 0.456615 0.346083 0.199559
v 0.372595 0.346083 -0.340222
v 0.379481 0.330062 -0.322491
v 0.379481 -0.330062 -0.322491
v 0.372595 -0.346083 -0.340222
v 0.317090 -0.346083 0.396825
v 0.326546 -0.330062 0.380435
v 0.326546 0.330062 0.380435
v 0.317090 0.346083 0.396825
v 0.480878 0.346083 -0.122619
v 0.479160 0.330062 -0.103571
v 0.479160 -0.330062 -0.103571
v 0.480878 -0.346083 -0.122619
v 0.106167 -0.346083 0.504739
v 0.121795 -0.330062 0.494745
v 0.121795 0.330062 0.494745
v 0.106167 0.346083 0.504739
v 0.480884 0.346083 0.122594
v 0.470948 0.330062 0.138671
v 0.470948 -0.330062 0.138671
v 0.480884 -0.346083 0.122594
v -0.128662 -0.346083 0.499003
v -0.110380 -0.330062 0.497655
v -0.110380 0.330062 0.497655
v -0.128662 0.346083 0.499003
v 0.493327 0.346083 -0.042640
v 0.493327 -0.346083 -0.042640
v 0.456615 0.346083 0.199559
v 0.456615 -0.346083 0.199559
v 0.644765 0.405794 -0.351292
v 0.644765 -0.286373 -0.351292
v 0.608054 0.405794 -0.109093
v 0.608054 -0.286373 -0.109093
v -0.651285 0.403977 -0.151972
v -0.651285 -0.288190 -0.151972
v -0.664212 0.403977 -0.396813
v -0.664212 -0.288190 -0.396813
vn -0.2528 0.9675 -0.0000
vn -0.0000 -0.0000 -1.0000
vn -0.0000 1.0000 -0.0000
vn 1.0000 -0.0000 -0.0000
vn -0.9904 -0.0000 -0.1380
vn 0.2528 -0.9675 -0.0000
vn 0.9904 -0.0000 0.1380
vn -1.0000 -0.0000 -0.0000
vn 0.9856 -0.0000 -0.1688
vn -0.9856 -0.0000 0.1688
vn 0.5456 -0.0000 0.8381
vn -0.0000 -0.0000 1.0000
vn -0.0000 -1.0000 -0.0000
vn 0.0989 -0.9951 -0.0000
vn -0.0989 0.9951 -0.0000
vn 0.0818 -0.0000 0.9966
vn -0.5150 -0.0000 -0.8572
vn 0.8700 -0.0000 -0.4930
vn -0.8524 -0.0000 0.5229
vn -0.9310 -0.0000 -0.3651
vn 0.9179 -0.0000 0.3969
vn -0.0450 -0.0000 -0.9990
vn -0.3371 -0.9413 0.0178
vn -0.9962 -0.0000 0.0866
vn 0.6355 -0.0000 0.7721
vn 0.8050 -0.0000 -0.5932
vn -0.7838 -0.0000 0.6210
vn -0.4044 -0.0000 0.9146
vn 0.4374 -0.0000 -0.8993
vn 0.9857 -0.0000 -0.1685
vn -0.9794 -0.0000 0.2020
vn -0.6627 -0.0000 -0.7489
vn 0.1954 -0.0000 0.9807
vn -0.2314 -0.0000 -0.9729
vn 0.6857 -0.0000 -0.7279
vn -0.7111 -0.0000 0.7031
vn 0.7248 -0.0000 0.6890
vn -0.9673 -0.0000 -0.2535
vn 0.9581 -0.0000 0.2864
vn -0.2979 -0.0000 0.9546
vn 0.2627 -0.0000 -0.9649
vn 0.3173 -0.0000 0.9483
vn -0.3518 -0.0000 -0.9361
vn -0.7487 -0.0000 -0.6630
vn -0.1753 -0.0000 0.9845
vn 0.1389 -0.0000 -0.9903
vn -0.9525 -0.0000 0.3045
vn 0.9415 -0.0000 -0.3370
vn 0.8361 -0.0000 0.5486
vn -0.4942 0.8661 -0.0749
vn 0.9932 -0.0000 0.1162
vn 0.4875 -0.0000 0.8731
vn -0.4555 -0.0000 -0.8902
vn -0.9101 -0.0000 0.4144
vn 0.8953 -0.0000 -0.4455
vn 0.5915 -0.0000 -0.8063
vn -0.6201 -0.0000 0.7846
vn -0.8164 -0.0000 -0.5775
vn -0.9994 -0.0000 -0.0339
vn 0.0735 -0.0000 0.9973
vn 0.8507 -0.0000 0.5257
vn 0.4646 0.4669 0.7524
vn 0.4646 -0.4669 0.7524
vn 0.0244 -0.0000 -0.9997
vn 0.0125 -0.0000 0.9999
vn -0.9887 -0.0000 -0.1499
vn 0.8978 -0.0000 0.4405
vn 0.4942 -0.8661 0.0749
vn -0.8978 -0.0000 -0.4405
vn 0.9986 -0.0000 -0.0527
vn 0.3371 0.9413 -0.0178
vn 0.8620 -0.0000 -0.5069
vn -0.8620 -0.0000 0.5069
vt 0.258892 0.941100
vt 0.264198 0.925431
vt 0.260096 0.943475
vt 0.654891 0.740116
vt 0.772700 0.623938
vt 0.771884 0.740931
vt 0.087800 0.011162
vt 0.087807 0.017536
vt 0.087800 0.017539
vt 0.087794 0.011166
vt 0.087794 0.017543
vt 0.985320 0.492173
vt 0.868479 0.492189
vt 0.868411 0.492072
vt 0.240509 0.960698
vt 0.304293 0.822794
vt 0.300054 0.834458
vt 0.297802 0.924458
vt 0.271725 0.945467
vt 0.271689 0.945453
vt 0.087788 0.011170
vt 0.087788 0.017547
vt 0.985253 0.492056
vt 0.868344 0.491955
vt 0.243879 0.957120
vt 0.295789 0.846117
vt 0.297766 0.924444
vt 0.271652 0.945439
vt 0.087781 0.011173
vt 0.087781 0.017550
vt 0.985185 0.491939
vt 0.868276 0.491838
vt 0.247237 0.953549
vt 0.291497 0.857771
vt 0.297730 0.924430
vt 0.271616 0.945425
vt 0.087775 0.011177
vt 0.087775 0.017554
vt 0.985118 0.491822
vt 0.868209 0.491721
vt 0.250583 0.949985
vt 0.287177 0.869420
vt 0.297694 0.924416
vt 0.271580 0.945411
vt 0.087768 0.011181
vt 0.087768 0.017558
vt 0.985050 0.491705
vt 0.868142 0.491604
vt 0.253917 0.946428
vt 0.282831 0.881064
vt 0.297658 0.924402
vt 0.271544 0.945397
vt 0.087762 0.011184
vt 0.087762 0.017561
vt 0.984983 0.491588
vt 0.868074 0.491487
vt 0.257239 0.942878
vt 0.278457 0.892704
vt 0.297622 0.924388
vt 0.271508 0.945383
vt 0.271487 0.945368
vt 0.276253 0.898541
vt 0.297595 0.924397
vt 0.280004 0.936948
vt 0.269737 0.945199
vt 0.508538 0.130368
vt 0.622068 0.028696
vt 0.622024 0.148129
vt 0.655706 0.814812
vt 0.209379 0.113295
vt 0.294483 0.024839
vt 0.294470 0.126446
vt 0.622333 0.028538
vt 0.622453 0.148296
vt 0.622333 0.148296
vt 0.109245 0.011180
vt 0.109252 0.017554
vt 0.109245 0.017558
vt 0.130728 0.017558
vt 0.130722 0.011184
vt 0.130728 0.011180
vt 0.508274 0.130526
vt 0.508154 0.010768
vt 0.508274 0.010768
vt 0.622213 0.028538
vt 0.622213 0.148296
vt 0.109239 0.011184
vt 0.109239 0.017561
vt 0.130735 0.017554
vt 0.130735 0.011177
vt 0.508394 0.130526
vt 0.508394 0.010768
vt 0.508583 0.010935
vt 0.109258 0.017550
vt 0.109252 0.011177
vt 0.109258 0.011173
vt 0.880725 0.012242
vt 0.711689 0.015743
vt 0.711588 0.015576
vt 0.109264 0.017547
vt 0.109264 0.011169
vt 0.294614 0.126661
vt 0.209235 0.113588
vt 0.209248 0.113502
vt 0.209248 0.011473
vt 0.294627 0.024547
vt 0.294614 0.024632
vt 0.880624 0.012074
vt 0.711487 0.015408
vt 0.109271 0.017543
vt 0.109271 0.011166
vt 0.294627 0.126576
vt 0.209261 0.113417
vt 0.209235 0.011559
vt 0.294601 0.024718
vt 0.209392 0.011688
vt 0.985386 0.493643
vt 0.868444 0.532317
vt 0.868477 0.493542
vt 0.604632 0.435498
vt 0.604634 0.435497
vt 0.604629 0.435500
vt 0.604634 0.435495
vt 0.604635 0.435496
vt 0.604635 0.435496
vt 0.144525 0.739205
vt 0.304063 0.751088
vt 0.304960 0.818448
vt 0.985387 0.492290
vt 0.604634 0.435497
vt 0.073805 0.897029
vt 0.233476 0.968578
vt 0.237126 0.964283
vt 0.271745 0.945493
vt 0.318552 0.950855
vt 0.292740 0.971607
vt 0.297557 0.924741
vt 0.880826 0.012409
vt 0.711727 0.017700
vt 0.304815 0.966755
vt 0.278701 0.987750
vt 0.294601 0.126747
vt 0.210715 0.114097
vt 0.082358 0.829618
vt 0.210826 0.011347
vt 0.294641 0.024461
vt 0.985353 0.532419
vt 0.868410 0.571093
vt 0.604634 0.435499
vt 0.604624 0.435503
vt 0.604633 0.435491
vt 0.604636 0.435495
vt 0.136095 0.674821
vt 0.298801 0.681262
vt 0.880865 0.014366
vt 0.712833 0.073799
vt 0.308557 0.923157
vt 0.329552 0.949271
vt 0.127524 0.611390
vt 0.289826 0.620569
vt 0.340552 0.947687
vt 0.330557 0.919989
vt 0.351552 0.946103
vt 0.604625 0.435465
vt 0.604631 0.435486
vt 0.881971 0.293252
vt 0.719809 0.347117
vt 0.717135 0.292046
vt 0.078770 0.600448
vt 0.070199 0.537017
vt 0.319557 0.921573
vt 0.875763 0.351037
vt 0.723695 0.399149
vt 0.604641 0.435491
vt 0.604642 0.435525
vt 0.604636 0.435506
vt 0.985285 0.609970
vt 0.868343 0.648644
vt 0.868377 0.609868
vt 0.604608 0.435516
vt 0.604560 0.435558
vt 0.985319 0.571194
vt 0.604656 0.435480
vt 0.604665 0.435574
vt 0.985252 0.648745
vt 0.868309 0.687419
vt 0.604436 0.435680
vt 0.604603 0.435376
vt 0.604675 0.435446
vt 0.341557 0.918405
vt 0.362552 0.944519
vt 0.118550 0.550697
vt 0.280851 0.559876
vt 0.604740 0.435727
vt 0.604076 0.436064
vt 0.604530 0.435247
vt 0.604793 0.435333
vt 0.100600 0.429311
vt 0.262902 0.438490
vt 0.271876 0.499183
vt 0.373552 0.942935
vt 0.363557 0.915237
vt 0.384552 0.941351
vt 0.866907 0.404688
vt 0.729155 0.446862
vt 0.352557 0.916821
vt 0.109575 0.490004
vt 0.374557 0.913653
vt 0.395552 0.939767
vt 0.603641 0.433725
vt 0.604278 0.434550
vt 0.842703 0.494469
vt 0.746251 0.524214
vt 0.736552 0.488977
vt 0.604974 0.436110
vt 0.985218 0.687521
vt 0.868276 0.726195
vt 0.855766 0.452926
vt 0.604921 0.435028
vt 0.605720 0.437313
vt 0.985151 0.765072
vt 0.868209 0.803746
vt 0.868242 0.764970
vt 0.603163 0.437142
vt 0.600590 0.440417
vt 0.605782 0.433885
vt 0.091625 0.368618
vt 0.253927 0.377797
vt 0.985185 0.726296
vt 0.607934 0.440807
vt 0.985117 0.803847
vt 0.868175 0.842521
vt 0.593267 0.450155
vt 0.601852 0.430352
vt 0.608267 0.430612
vt 0.828081 0.528039
vt 0.758613 0.551292
vt 0.385557 0.912070
vt 0.406552 0.938183
vt 0.082650 0.307925
vt 0.244952 0.317104
vt 0.596304 0.420565
vt 0.615268 0.421041
vt 0.037734 0.197509
vt 0.200036 0.206688
vt 0.209010 0.267381
vt 0.417552 0.936600
vt 0.407557 0.908902
vt 0.428552 0.935016
vt 0.579320 0.392203
vt 0.804320 0.553009
vt 0.797700 0.557864
vt 0.795369 0.558809
vt 0.396557 0.910486
vt 0.073676 0.247232
vt 0.572540 0.478987
vt 0.526665 0.307662
vt 0.802460 0.579554
vt 0.771544 0.590651
vt 0.771292 0.580313
vt 0.634516 0.480317
vt 0.614522 0.450919
vt 0.985050 0.881398
vt 0.868108 0.920072
vt 0.868141 0.881297
vt 0.985084 0.842623
vt 0.802209 0.569217
vt 0.771040 0.569975
vt 0.634891 0.392940
vt 0.696601 0.566911
vt 0.985017 0.920174
vt 0.868074 0.958848
vt 0.514045 0.564216
vt 0.351096 0.812288
vt 0.690408 0.309305
vt 0.418557 0.907318
vt 0.439552 0.933432
vt 0.028759 0.136816
vt 0.191061 0.145996
vt 0.329909 0.012537
vt 0.351096 0.031487
vt 0.870778 0.961876
vt 0.984983 0.958949
vt 0.982274 0.961972
vt 0.010810 0.015430
vt 0.179930 0.079253
vt 0.182086 0.085303
vt 0.429557 0.905734
vt 0.450742 0.930700
vt 0.450552 0.931848
vt 0.802712 0.589892
vt 0.771795 0.600989
vt 0.019784 0.076124
vt 0.765752 0.553590
vt 0.812265 0.552355
vt 0.802193 0.569201
vt 0.771037 0.569948
vt 0.769864 0.559095
vt 0.770033 0.562040
vt 0.869422 0.151818
vt 0.701390 0.211250
vt 0.700284 0.155152
vt 0.344697 0.955309
vt 0.870528 0.207917
vt 0.655706 0.623122
vt 0.087807 0.011158
vt 0.297838 0.924472
vt 0.772700 0.815628
vt 0.622453 0.028538
vt 0.130722 0.017561
vt 0.508154 0.130526
vt 0.209261 0.011388
vt 0.294588 0.126832
vt 0.010810 0.989290
vt 0.881971 0.070465
vt 0.329909 0.831238
vt 0.016582 0.012615
vt 0.430718 0.905795
vt 0.802964 0.600230
vt 0.355697 0.953725
s 0
usemtl Material
f 1/1/1 41/2/1 39/3/1
f 5/4/2 10/5/2 6/6/2
f 12/7/3 9/8/3 11/9/3
f 16/10/3 11/9/3 15/11/3
f 17/12/3 14/13/3 18/14/3
f 15/15/3 13/16/3 17/17/3
f 18/18/3 12/19/3 16/20/3
f 20/21/3 15/11/3 19/22/3
f 21/23/3 18/14/3 22/24/3
f 19/25/3 17/17/3 21/26/3
f 22/27/3 16/20/3 20/28/3
f 24/29/3 19/22/3 23/30/3
f 25/31/3 22/24/3 26/32/3
f 23/33/3 21/26/3 25/34/3
f 26/35/3 20/28/3 24/36/3
f 28/37/3 23/30/3 27/38/3
f 29/39/3 26/32/3 30/40/3
f 27/41/3 25/34/3 29/42/3
f 30/43/3 24/36/3 28/44/3
f 32/45/3 27/38/3 31/46/3
f 33/47/3 30/40/3 34/48/3
f 31/49/3 29/42/3 33/50/3
f 34/51/3 28/44/3 32/52/3
f 36/53/3 31/46/3 35/54/3
f 37/55/3 34/48/3 38/56/3
f 35/57/3 33/50/3 37/58/3
f 38/59/3 32/52/3 36/60/3
f 2/61/3 35/57/3 1/1/3
f 3/62/3 38/59/3 4/63/3
f 1/1/3 37/58/3 3/62/3
f 4/63/3 36/60/3 2/61/3
f 39/3/4 42/64/4 40/65/4
f 1/1/5 40/65/5 2/61/5
f 2/61/6 42/64/6 4/63/6
f 3/62/7 42/64/7 41/2/7
f 45/66/8 43/67/8 44/68/8
f 6/6/9 50/69/9 5/4/9
f 8/70/10 49/71/10 48/72/10
f 51/73/3 59/74/3 52/75/3
f 52/76/3 60/77/3 53/78/3
f 54/79/3 47/80/3 51/81/3
f 53/82/3 50/83/3 54/84/3
f 55/85/3 52/75/3 56/86/3
f 56/87/3 53/78/3 57/88/3
f 58/89/3 51/81/3 55/90/3
f 57/91/3 54/84/3 58/92/3
f 43/67/3 56/86/3 44/68/3
f 44/68/3 57/91/3 45/66/3
f 46/93/3 55/85/3 43/67/3
f 45/66/3 58/92/3 46/93/3
f 64/94/3 59/95/3 63/96/3
f 65/97/3 62/98/3 66/99/3
f 68/100/3 63/96/3 67/101/3
f 67/102/3 61/103/3 65/104/3
f 66/105/3 64/106/3 68/107/3
f 69/108/3 66/99/3 70/109/3
f 72/110/3 67/101/3 71/111/3
f 71/112/3 65/104/3 69/113/3
f 70/114/3 68/107/3 72/115/3
f 8/70/3 70/114/3 7/116/3
f 49/71/3 71/112/3 48/72/3
f 48/72/3 69/113/3 8/70/3
f 7/116/3 72/115/3 49/71/3
f 73/117/11 84/118/11 76/119/11
f 79/120/3 82/121/3 87/122/3
f 78/123/3 83/124/3 75/125/3
f 80/126/3 81/127/3 73/128/3
f 13/129/8 76/119/8 14/13/8
f 74/130/12 78/123/12 75/125/12
f 5/131/3 73/128/3 9/132/3
f 11/133/3 73/128/3 13/16/3
f 10/134/13 77/135/13 6/136/13
f 12/19/3 76/137/3 10/134/3
f 61/138/4 80/139/4 62/98/4
f 6/136/14 59/140/14 47/141/14
f 63/142/14 77/143/14 61/103/14
f 5/131/15 60/144/15 80/126/15
f 64/106/3 80/145/3 60/146/3
f 81/147/16 92/148/16 84/118/16
f 87/122/3 90/149/3 95/150/3
f 86/151/3 91/152/3 83/124/3
f 88/153/3 89/154/3 81/127/3
f 75/125/17 82/121/17 74/130/17
f 77/155/18 88/156/18 80/139/18
f 79/120/19 86/151/19 78/123/19
f 77/135/3 84/157/3 85/158/3
f 96/159/3 97/160/3 89/154/3
f 93/161/3 100/162/3 101/163/3
f 95/150/20 102/164/20 94/165/20
f 93/166/21 104/167/21 96/168/21
f 83/124/22 90/149/22 82/121/22
f 96/159/23 185/169/23 187/170/23
f 87/122/24 94/165/24 86/151/24
f 85/158/3 92/171/3 93/161/3
f 101/172/25 112/173/25 104/167/25
f 99/174/26 106/175/26 98/176/26
f 97/177/27 108/178/27 100/179/27
f 103/180/3 106/175/3 111/181/3
f 94/165/3 99/174/3 91/152/3
f 95/150/3 98/176/3 103/180/3
f 89/182/28 100/179/28 92/148/28
f 91/152/29 98/176/29 90/149/29
f 107/183/30 114/184/30 106/175/30
f 105/185/31 116/186/31 108/178/31
f 111/181/3 114/184/3 119/187/3
f 110/188/3 115/189/3 107/183/3
f 103/180/32 110/188/32 102/164/32
f 101/163/3 108/190/3 109/191/3
f 104/192/3 105/193/3 97/160/3
f 102/164/3 107/183/3 99/174/3
f 119/187/3 122/194/3 127/195/3
f 118/196/3 123/197/3 115/189/3
f 120/198/3 121/199/3 113/200/3
f 117/201/3 124/202/3 125/203/3
f 109/204/33 120/205/33 112/173/33
f 111/181/34 118/196/34 110/188/34
f 109/191/3 116/206/3 117/201/3
f 112/207/3 113/200/3 105/193/3
f 125/203/3 132/208/3 133/209/3
f 127/195/35 134/210/35 126/211/35
f 125/212/36 136/213/36 128/214/36
f 123/197/37 130/215/37 122/194/37
f 113/216/38 124/217/38 116/186/38
f 115/189/39 122/194/39 114/184/39
f 117/218/40 128/214/40 120/205/40
f 119/187/41 126/211/41 118/196/41
f 131/219/42 138/220/42 130/215/42
f 129/221/43 140/222/43 132/223/43
f 135/224/3 138/220/3 143/225/3
f 134/210/3 139/226/3 131/219/3
f 128/227/3 129/228/3 121/199/3
f 126/211/3 131/219/3 123/197/3
f 127/195/3 130/215/3 135/224/3
f 121/229/44 132/223/44 124/217/44
f 139/226/45 146/230/45 138/220/45
f 137/231/46 148/232/46 140/222/46
f 143/225/3 146/230/3 151/233/3
f 142/234/3 147/235/3 139/226/3
f 133/236/47 177/237/47 136/213/47
f 135/224/48 142/234/48 134/210/48
f 133/209/3 140/238/3 178/239/3
f 136/240/3 137/241/3 129/228/3
f 150/242/3 155/243/3 147/235/3
f 179/244/3 153/245/3 145/246/3
f 180/247/3 156/248/3 157/249/3
f 151/233/49 158/250/49 150/242/49
f 141/251/50 184/252/50 182/253/50
f 143/225/51 150/242/51 142/234/51
f 178/239/3 148/254/3 180/247/3
f 177/255/3 145/246/3 137/241/3
f 159/256/52 166/257/52 158/250/52
f 157/258/53 168/259/53 160/260/53
f 155/243/54 162/261/54 154/262/54
f 153/263/55 164/264/55 156/265/55
f 151/233/3 154/262/3 159/256/3
f 145/266/56 156/265/56 148/232/56
f 147/235/57 154/262/57 146/230/57
f 180/267/58 160/260/58 179/268/58
f 163/269/59 170/270/59 162/261/59
f 161/271/4 172/272/4 164/264/4
f 167/273/3 170/270/3 175/274/3
f 166/257/3 171/275/3 163/269/3
f 157/249/3 164/276/3 165/277/3
f 160/278/3 161/279/3 153/245/3
f 158/250/3 163/269/3 155/243/3
f 159/256/3 162/261/3 167/273/3
f 175/274/60 173/280/60 174/281/60
f 171/282/61 169/283/61 170/284/61
f 176/285/62 170/286/62 169/287/62
f 172/288/63 174/289/63 173/290/63
f 165/291/64 176/292/64 168/259/64
f 167/273/65 174/281/65 166/257/65
f 165/277/3 172/288/3 173/290/3
f 168/293/3 169/287/3 161/279/3
f 144/294/3 178/295/3 141/251/3
f 149/296/3 179/268/3 152/297/3
f 141/251/3 180/267/3 149/296/3
f 152/297/3 177/237/3 144/294/3
f 182/253/66 183/298/66 181/299/66
f 144/294/67 182/253/67 181/299/67
f 144/294/68 183/298/68 152/297/68
f 152/297/69 184/252/69 149/296/69
f 186/300/70 187/301/70 185/302/70
f 93/161/71 186/303/71 85/158/71
f 88/156/72 186/300/72 185/302/72
f 96/168/73 188/304/73 93/166/73
f 1/1/1 3/62/1 41/2/1
f 5/4/2 9/305/2 10/5/2
f 12/7/3 10/306/3 9/8/3
f 16/10/3 12/7/3 11/9/3
f 17/12/3 13/129/3 14/13/3
f 15/15/3 11/133/3 13/16/3
f 18/18/3 14/307/3 12/19/3
f 20/21/3 16/10/3 15/11/3
f 21/23/3 17/12/3 18/14/3
f 19/25/3 15/15/3 17/17/3
f 22/27/3 18/18/3 16/20/3
f 24/29/3 20/21/3 19/22/3
f 25/31/3 21/23/3 22/24/3
f 23/33/3 19/25/3 21/26/3
f 26/35/3 22/27/3 20/28/3
f 28/37/3 24/29/3 23/30/3
f 29/39/3 25/31/3 26/32/3
f 27/41/3 23/33/3 25/34/3
f 30/43/3 26/35/3 24/36/3
f 32/45/3 28/37/3 27/38/3
f 33/47/3 29/39/3 30/40/3
f 31/49/3 27/41/3 29/42/3
f 34/51/3 30/43/3 28/44/3
f 36/53/3 32/45/3 31/46/3
f 37/55/3 33/47/3 34/48/3
f 35/57/3 31/49/3 33/50/3
f 38/59/3 34/51/3 32/52/3
f 2/61/3 36/60/3 35/57/3
f 3/62/3 37/58/3 38/59/3
f 1/1/3 35/57/3 37/58/3
f 4/63/3 38/59/3 36/60/3
f 39/3/4 41/2/4 42/64/4
f 1/1/5 39/3/5 40/65/5
f 2/61/6 40/65/6 42/64/6
f 3/62/7 4/63/7 42/64/7
f 45/66/8 46/93/8 43/67/8
f 6/6/9 47/308/9 50/69/9
f 8/70/10 7/116/10 49/71/10
f 51/73/3 47/309/3 59/74/3
f 52/76/3 59/95/3 60/77/3
f 54/79/3 50/310/3 47/80/3
f 53/82/3 60/311/3 50/83/3
f 55/85/3 51/73/3 52/75/3
f 56/87/3 52/76/3 53/78/3
f 58/89/3 54/79/3 51/81/3
f 57/91/3 53/82/3 54/84/3
f 43/67/3 55/85/3 56/86/3
f 44/68/3 56/86/3 57/91/3
f 46/93/3 58/92/3 55/85/3
f 45/66/3 57/91/3 58/92/3
f 64/94/3 60/77/3 59/95/3
f 65/97/3 61/138/3 62/98/3
f 68/100/3 64/94/3 63/96/3
f 67/102/3 63/142/3 61/103/3
f 66/105/3 62/312/3 64/106/3
f 69/108/3 65/97/3 66/99/3
f 72/110/3 68/100/3 67/101/3
f 71/112/3 67/102/3 65/104/3
f 70/114/3 66/105/3 68/107/3
f 8/70/3 69/113/3 70/114/3
f 49/71/3 72/115/3 71/112/3
f 48/72/3 71/112/3 69/113/3
f 7/116/3 70/114/3 72/115/3
f 73/117/11 81/147/11 84/118/11
f 79/120/13 74/130/13 82/121/13
f 78/123/13 86/151/13 83/124/13
f 80/126/13 88/153/13 81/127/13
f 13/129/8 73/117/8 76/119/8
f 74/130/12 79/120/12 78/123/12
f 5/131/3 80/126/3 73/128/3
f 11/133/3 9/132/3 73/128/3
f 10/134/13 76/137/13 77/135/13
f 12/19/3 14/307/3 76/137/3
f 61/138/4 77/155/4 80/139/4
f 6/136/14 77/135/14 59/140/14
f 63/142/3 59/313/3 77/143/3
f 5/131/15 50/314/15 60/144/15
f 64/106/15 62/312/15 80/145/15
f 81/147/16 89/182/16 92/148/16
f 87/122/13 82/121/13 90/149/13
f 86/151/13 94/165/13 91/152/13
f 88/153/13 96/159/13 89/154/13
f 75/125/17 83/124/17 82/121/17
f 77/155/18 85/315/18 88/156/18
f 79/120/19 87/122/19 86/151/19
f 77/135/13 76/137/13 84/157/13
f 96/159/13 104/192/13 97/160/13
f 93/161/13 92/171/13 100/162/13
f 95/150/20 103/180/20 102/164/20
f 93/166/21 101/172/21 104/167/21
f 83/124/22 91/152/22 90/149/22
f 96/159/23 88/153/23 185/169/23
f 87/122/24 95/150/24 94/165/24
f 85/158/13 84/157/13 92/171/13
f 101/172/25 109/204/25 112/173/25
f 99/174/26 107/183/26 106/175/26
f 97/177/27 105/185/27 108/178/27
f 103/180/13 98/176/13 106/175/13
f 94/165/13 102/164/13 99/174/13
f 95/150/13 90/149/13 98/176/13
f 89/182/28 97/177/28 100/179/28
f 91/152/29 99/174/29 98/176/29
f 107/183/30 115/189/30 114/184/30
f 105/185/31 113/216/31 116/186/31
f 111/181/13 106/175/13 114/184/13
f 110/188/13 118/196/13 115/189/13
f 103/180/32 111/181/32 110/188/32
f 101/163/13 100/162/13 108/190/13
f 104/192/13 112/207/13 105/193/13
f 102/164/13 110/188/13 107/183/13
f 119/187/13 114/184/13 122/194/13
f 118/196/13 126/211/13 123/197/13
f 120/198/13 128/227/13 121/199/13
f 117/201/13 116/206/13 124/202/13
f 109/204/33 117/218/33 120/205/33
f 111/181/34 119/187/34 118/196/34
f 109/191/13 108/190/13 116/206/13
f 112/207/13 120/198/13 113/200/13
f 125/203/13 124/202/13 132/208/13
f 127/195/35 135/224/35 134/210/35
f 125/212/36 133/236/36 136/213/36
f 123/197/37 131/219/37 130/215/37
f 113/216/38 121/229/38 124/217/38
f 115/189/39 123/197/39 122/194/39
f 117/218/40 125/212/40 128/214/40
f 119/187/41 127/195/41 126/211/41
f 131/219/42 139/226/42 138/220/42
f 129/221/43 137/231/43 140/222/43
f 135/224/13 130/215/13 138/220/13
f 134/210/13 142/234/13 139/226/13
f 128/227/13 136/240/13 129/228/13
f 126/211/13 134/210/13 131/219/13
f 127/195/13 122/194/13 130/215/13
f 121/229/44 129/221/44 132/223/44
f 139/226/45 147/235/45 146/230/45
f 137/231/46 145/266/46 148/232/46
f 143/225/13 138/220/13 146/230/13
f 142/234/13 150/242/13 147/235/13
f 133/236/47 178/295/47 177/237/47
f 135/224/48 143/225/48 142/234/48
f 133/209/13 132/208/13 140/238/13
f 136/240/13 177/255/13 137/241/13
f 150/242/13 158/250/13 155/243/13
f 179/244/13 160/278/13 153/245/13
f 180/247/13 148/254/13 156/248/13
f 151/233/49 159/256/49 158/250/49
f 141/251/50 149/296/50 184/252/50
f 143/225/51 151/233/51 150/242/51
f 178/239/13 140/238/13 148/254/13
f 177/255/13 179/244/13 145/246/13
f 159/256/52 167/273/52 166/257/52
f 157/258/53 165/291/53 168/259/53
f 155/243/54 163/269/54 162/261/54
f 153/263/55 161/271/55 164/264/55
f 151/233/13 146/230/13 154/262/13
f 145/266/56 153/263/56 156/265/56
f 147/235/57 155/243/57 154/262/57
f 180/267/58 157/258/58 160/260/58
f 163/269/59 171/275/59 170/270/59
f 161/271/4 169/283/4 172/272/4
f 167/273/13 162/261/13 170/270/13
f 166/257/13 174/281/13 171/275/13
f 157/249/13 156/248/13 164/276/13
f 160/278/13 168/293/13 161/279/13
f 158/250/13 166/257/13 163/269/13
f 159/256/13 154/262/13 162/261/13
f 175/274/60 176/316/60 173/280/60
f 171/282/61 172/272/61 169/283/61
f 176/285/62 175/317/62 170/286/62
f 172/288/63 171/318/63 174/289/63
f 165/291/64 173/319/64 176/292/64
f 167/273/65 175/274/65 174/281/65
f 165/277/13 164/276/13 172/288/13
f 168/293/13 176/285/13 169/287/13
f 144/294/3 177/237/3 178/295/3
f 149/296/3 180/267/3 179/268/3
f 141/251/3 178/295/3 180/267/3
f 152/297/3 179/268/3 177/237/3
f 182/253/66 184/252/66 183/298/66
f 144/294/67 141/251/67 182/253/67
f 144/294/68 181/299/68 183/298/68
f 152/297/69 183/298/69 184/252/69
f 186/300/70 188/304/70 187/301/70
f 93/161/71 188/320/71 186/303/71
f 88/156/72 85/315/72 186/300/72
f 96/168/73 187/301/73 188/304/73
o Cube.001
v -0.237990 0.309128 0.199750
v -0.281170 -0.400158 0.084056
v -0.303746 0.309263 -0.302114
v -0.300430 -0.400158 -0.353869
v 0.237990 0.309128 0.199750
v 0.281170 -0.400158 0.084056
v 0.303746 0.309263 -0.302114
v 0.300430 -0.400158 -0.353869
v -0.327774 -0.226880 0.227115
v 0.400158 -0.085146 -0.373944
v -0.400158 -0.085146 -0.373944
v 0.327774 -0.226880 0.227115
v 0.330776 -0.400158 -0.119810
v -0.326535 0.316225 -0.119810
v 0.326535 0.316225 -0.119810
v -0.330776 -0.400158 -0.119810
v -0.442994 -0.151143 -0.119810
v 0.442994 -0.151143 -0.119810
v 0.000000 -0.400158 0.317156
v 0.000000 -0.400158 -0.424737
v 0.000000 0.360209 0.268022
v 0.000000 -0.256495 0.426152
v 0.000000 -0.076400 -0.509822
v 0.000000 -0.400158 -0.119810
v 0.000000 0.442602 -0.230626
v 0.400158 0.200079 -0.318664
v -0.351098 0.200079 0.247973
v -0.400158 0.200079 -0.318664
v 0.351098 0.200079 0.247973
v -0.442994 0.200079 -0.119810
v 0.442994 0.200079 -0.119810
v 0.000000 0.057332 0.518809
v 0.000000 0.200079 -0.486347
v -0.261710 -0.326174 0.120610
v -0.265562 -0.269168 -0.334295
v 0.261710 -0.326174 0.120610
v 0.265562 -0.269168 -0.334295
v 0.374753 -0.312666 -0.119810
v -0.374753 -0.312666 -0.119810
v 0.000000 -0.269168 -0.400158
v 0.000000 -0.362013 0.340150
v 0.000000 0.450149 -0.522239
v 0.166579 0.373404 -0.380124
v -0.166579 0.373404 -0.380124
v 0.000000 0.450291 -0.348016
v 0.000000 0.300111 -0.464338
vn -0.4081 0.9123 0.0325
vn 0.3483 0.4335 -0.8311
vn 0.6954 0.6973 0.1738
vn -0.0000 -1.0000 -0.0000
vn -0.7284 0.6670 -0.1569
vn -0.3175 0.6048 0.7304
vn -0.4669 -0.7724 0.4305
vn -0.8079 -0.3413 -0.4805
vn 0.8519 -0.3599 0.3803
vn 0.2107 -0.4834 -0.8497
vn 0.8079 -0.3413 -0.4805
vn -0.8519 -0.3599 0.3803
vn -0.6954 0.6973 0.1738
vn 0.7284 0.6670 -0.1569
vn 0.2503 0.9552 0.1578
vn -0.3257 0.9389 0.1111
vn -0.2107 -0.4834 -0.8497
vn 0.4669 -0.7724 0.4305
vn 0.3175 0.6048 0.7304
vn -0.3483 0.4335 -0.8311
vn -0.3841 0.9195 -0.0831
vn -0.3221 0.0801 -0.9433
vn 0.5195 -0.2420 0.8195
vn 0.9861 -0.0000 -0.1662
vn -0.9512 -0.0667 0.3013
vn -0.5195 -0.2420 0.8195
vn -0.9861 -0.0000 -0.1662
vn 0.9512 -0.0667 0.3013
vn 0.3221 0.0801 -0.9433
vn 0.6243 -0.2079 0.7530
vn -0.2248 0.2023 -0.9532
vn -0.8731 -0.4388 0.2124
vn 0.9542 0.2725 -0.1237
vn 0.2248 0.2023 -0.9532
vn 0.8731 -0.4388 0.2124
vn -0.9542 0.2725 -0.1237
vn -0.6243 -0.2079 0.7530
vn 0.3841 0.9195 -0.0831
vn 0.5078 0.0393 -0.8606
vn 0.6371 0.7462 0.1931
vn -0.7015 0.7034 -0.1146
vn -0.3352 0.6495 0.6825
vn -0.4668 -0.5587 0.6855
vn -0.7442 -0.6052 -0.2826
vn 0.7651 -0.6333 0.1159
vn 0.2872 -0.3978 -0.8714
vn 0.7442 -0.6052 -0.2826
vn -0.7651 -0.6333 0.1159
vn -0.6371 0.7462 0.1931
vn 0.7015 0.7034 -0.1146
vn 0.3257 0.9389 0.1111
vn -0.2503 0.9552 0.1578
vn -0.2872 -0.3978 -0.8714
vn 0.4668 -0.5587 0.6855
vn 0.3352 0.6495 0.6825
vn -0.3707 0.1996 -0.9070
vn 0.4277 0.9020 0.0591
vn -0.3805 0.1760 -0.9079
vn 0.6274 -0.0722 0.7753
vn 0.9768 0.0408 -0.2104
vn -0.9702 -0.0000 0.2424
vn -0.6274 -0.0722 0.7753
vn -0.9768 0.0408 -0.2104
vn 0.9702 -0.0000 0.2424
vn 0.3805 0.1760 -0.9079
vn 0.6195 -0.4053 0.6723
vn -0.2368 0.1792 -0.9549
vn -0.9040 0.0270 0.4266
vn 0.7842 -0.3942 -0.4792
vn 0.2368 0.1792 -0.9549
vn 0.9040 0.0270 0.4266
vn -0.7842 -0.3942 -0.4792
vn -0.6195 -0.4053 0.6723
vn 0.4190 0.9080 -0.0007
vn 0.5331 -0.3046 -0.7893
vn -0.5331 -0.3046 -0.7893
vn -0.4190 0.9080 -0.0007
vn -0.4277 0.9020 0.0591
vn 0.3707 0.1996 -0.9070
vn -0.5078 0.0393 -0.8606
vn 0.4081 0.9123 0.0325
vt 0.515772 0.821781
vt 0.625388 0.756933
vt 0.569689 0.225805
vt 0.457986 0.264329
vt 0.429697 0.225223
vt 0.397931 0.822627
vt 0.389066 0.956474
vt 0.355902 0.823799
vt 0.862494 0.138393
vt 0.750467 0.058770
vt 0.857659 0.028456
vt 0.675641 0.823799
vt 0.660182 0.736860
vt 0.517188 0.737135
vt 0.334838 0.645227
vt 0.517188 0.581217
vt 0.517188 0.388751
vt 0.325537 0.474099
vt 0.359433 0.434307
vt 0.110740 0.657075
vt 0.019329 0.618780
vt 0.106118 0.612450
vt 0.884813 0.688697
vt 0.790866 0.611851
vt 0.882443 0.625998
vt 0.569714 0.153607
vt 0.474942 0.055763
vt 0.570099 0.056092
vt 0.952990 0.629390
vt 0.219683 0.600428
vt 0.642477 0.956474
vt 0.633612 0.822627
vt 0.764355 0.216352
vt 0.870111 0.311580
vt 0.406155 0.756933
vt 0.371361 0.736860
vt 0.429885 0.955374
vt 0.515772 0.954859
vt 0.601658 0.955374
vt 0.967098 0.207436
vt 0.963866 0.133935
vt 0.660581 0.055763
vt 0.691979 0.467962
vt 0.658083 0.418794
vt 0.691979 0.649194
vt 0.967098 0.049243
vt 0.670317 0.264329
vt 0.709424 0.225223
vt 0.710853 0.153090
vt 0.517188 0.442643
vt 0.972185 0.735586
vt 0.882216 0.810991
vt 0.209728 0.792111
vt 0.225626 0.638010
vt 0.102460 0.779974
vt 0.016302 0.709726
vt 0.746115 0.804735
vt 0.756107 0.652225
vt 0.431125 0.153090
vt 0.517188 0.341594
vt 0.691979 0.341801
vt 0.570336 0.008947
vt 0.674689 0.008593
vt 0.207764 0.573581
vt 0.096827 0.574660
vt 0.878201 0.586679
vt 0.962768 0.586949
vt 0.464676 0.008593
vt 0.805420 0.588031
vt 0.019430 0.581906
vt 0.325537 0.348274
vt 0.761122 0.142851
vt 0.371600 0.720303
vt 0.646430 0.725667
vt 0.966017 0.805340
vt 0.016734 0.777480
vt 0.515772 0.758768
vt 0.569066 0.297090
s 1
usemtl Material.001
f 213/321/74 232/322/74 191/322/74
f 221/323/75 195/324/75 214/325/75
f 203/326/76 217/327/76 219/328/76
f 212/329/77 192/330/77 208/331/77
f 218/332/78 191/322/78 216/333/78
f 209/334/79 215/335/79 220/336/79
f 229/337/80 197/338/80 222/339/80
f 205/340/81 223/341/81 227/342/81
f 206/343/82 224/344/82 226/345/82
f 211/346/83 225/347/83 228/348/83
f 225/349/84 206/343/84 226/345/84
f 222/350/85 205/340/85 227/342/85
f 215/351/86 202/352/86 218/332/86
f 190/353/77 212/329/77 207/354/77
f 195/355/87 219/328/87 214/356/87
f 193/357/88 213/321/88 209/358/88
f 189/359/89 213/321/89 202/352/89
f 194/360/77 212/329/77 201/361/77
f 223/362/90 211/346/90 228/348/90
f 200/363/91 229/337/91 224/364/91
f 217/365/92 209/334/92 220/336/92
f 212/329/77 196/366/77 201/361/77
f 191/367/93 221/323/93 216/368/93
f 213/321/94 191/322/94 202/352/94
f 199/369/95 221/323/95 211/346/95
f 200/363/96 220/336/96 210/370/96
f 198/371/97 219/372/97 206/343/97
f 215/373/98 205/340/98 197/374/98
f 220/336/99 197/338/99 210/370/99
f 218/375/100 199/376/100 205/340/100
f 206/343/101 217/377/101 200/378/101
f 221/323/102 198/379/102 211/346/102
f 224/364/103 207/380/103 194/381/103
f 223/362/104 208/382/104 192/383/104
f 190/384/105 227/342/105 204/385/105
f 225/349/106 201/386/106 196/387/106
f 208/382/107 225/347/107 196/388/107
f 226/345/108 194/389/108 201/386/108
f 204/385/109 223/341/109 192/390/109
f 207/380/110 222/339/110 190/391/110
f 213/321/111 203/326/111 195/355/111
f 221/323/112 231/324/112 195/324/112
f 203/326/113 193/357/113 217/327/113
f 212/329/77 204/392/77 192/330/77
f 218/332/114 202/352/114 191/322/114
f 209/334/115 189/393/115 215/335/115
f 229/337/116 210/370/116 197/338/116
f 205/340/117 199/376/117 223/341/117
f 206/343/118 200/378/118 224/344/118
f 211/346/119 198/379/119 225/347/119
f 225/349/120 198/371/120 206/343/120
f 222/350/121 197/374/121 205/340/121
f 215/351/122 189/359/122 202/352/122
f 190/353/77 204/392/77 212/329/77
f 195/355/123 203/326/123 219/328/123
f 193/357/124 203/326/124 213/321/124
f 189/359/125 209/358/125 213/321/125
f 194/360/77 207/354/77 212/329/77
f 223/362/126 199/369/126 211/346/126
f 200/363/127 210/370/127 229/337/127
f 217/365/128 193/394/128 209/334/128
f 212/329/77 208/331/77 196/366/77
f 221/323/129 232/367/129 234/323/129
f 213/321/130 231/355/130 233/321/130
f 199/369/131 216/368/131 221/323/131
f 200/363/132 217/365/132 220/336/132
f 198/371/133 214/395/133 219/372/133
f 215/373/134 218/375/134 205/340/134
f 220/336/135 215/335/135 197/338/135
f 218/375/136 216/396/136 199/376/136
f 206/343/137 219/372/137 217/377/137
f 221/323/138 214/325/138 198/379/138
f 224/364/139 229/337/139 207/380/139
f 223/362/140 228/348/140 208/382/140
f 190/384/141 222/350/141 227/342/141
f 225/349/142 226/345/142 201/386/142
f 208/382/143 228/348/143 225/347/143
f 226/345/144 224/344/144 194/389/144
f 204/385/145 227/342/145 223/341/145
f 207/380/146 229/337/146 222/339/146
f 233/321/147 231/355/147 230/397/147
f 234/323/148 230/398/148 231/324/148
f 232/367/149 230/398/149 234/323/149
f 233/321/150 230/397/150 232/322/150
f 213/321/151 233/321/151 232/322/151
f 221/323/152 234/323/152 231/324/152
f 221/323/153 191/367/153 232/367/153
f 213/321/154 195/355/154 231/355/154
