# Blender 4.4.1
# www.blender.org
mtllib boss.mtl
o ICO球
v 0.456740 1.542689 0.327623
v -0.487984 1.370653 -0.100704
v -0.280320 1.025403 0.870504
v 0.717385 0.694142 0.891184
v 1.126329 0.834672 -0.067248
v 0.381366 1.252776 -0.680261
v -0.811217 0.415764 0.198142
v -0.066253 -0.002340 0.811155
v 0.803095 -0.120217 0.231597
v 0.595432 0.225033 -0.739611
v -0.402273 0.556294 -0.760290
v -0.141627 -0.292253 -0.196729
v 0.076038 1.399716 0.692748
v -0.046023 1.602648 0.121891
v -0.479259 1.298596 0.440986
v -0.090329 1.432240 -0.470527
v 0.464963 1.533363 -0.218762
v 0.662471 1.205006 0.704906
v 0.229241 0.900953 1.024004
v 0.902839 1.287609 0.141555
v 1.056045 0.788845 0.472810
v 0.858538 1.117201 -0.450865
v -0.550942 1.022860 -0.517572
v -0.039954 0.953574 -0.858227
v -0.669253 0.737327 0.616645
v -0.791317 0.940261 0.045783
v 0.355066 0.296863 0.989120
v -0.231374 0.491571 0.976968
v 1.106429 0.310176 0.085112
v 0.866054 0.227577 0.648466
v 0.546486 0.758866 -0.846075
v 0.984365 0.513110 -0.485751
v -0.740933 0.461591 -0.341916
v -0.543425 0.133235 0.581758
v 0.405442 -0.181803 0.601422
v 0.794371 -0.048160 -0.310092
v 0.085871 0.349483 -0.893110
v -0.587726 -0.037173 -0.010662
v -0.347358 0.045430 -0.574012
v -0.149851 -0.282927 0.349656
v 0.361135 -0.352212 0.009003
v 0.239074 -0.149281 -0.561854
v 0.333846 0.913160 -0.606254
v 0.076714 0.848552 -0.530569
v -0.388858 1.489588 -0.398609
v -0.314772 1.579928 -0.421116
v -0.582493 1.317211 -0.418388
v 0.013745 0.792467 -0.536960
v -0.069951 0.554121 -0.647477
v -0.677367 1.257205 -0.458240
v 0.112583 1.039881 -0.456568
v -1.088953 2.023315 0.102624
v -0.187758 0.773033 -0.487278
v -0.022186 0.981335 -1.274013
v -0.399477 1.500601 -0.390490
v -0.232863 1.169965 -0.296283
v 0.853616 0.721649 -0.964401
v 0.387764 1.297310 -0.839400
v 0.022481 0.731815 -0.482475
v 0.519013 0.326703 -0.876102
v 0.129450 0.826889 -0.471553
v -0.402775 1.306979 -0.381012
v -0.593258 1.328396 -0.410328
v -0.428903 0.571430 -0.922807
v 0.102004 0.053724 -1.041064
v -0.295992 1.113916 -0.302757
v 0.460983 0.924206 -0.449349
v 0.564261 0.786625 -1.261861
v 0.542923 0.530520 -0.472053
v 1.989308 1.000975 0.165962
v 0.324127 0.423238 -0.639359
v 0.395487 0.665711 -0.529145
v 1.181897 0.731423 -0.381962
v 1.223590 0.626284 -0.418867
v 0.213581 0.953090 -0.608746
v 1.124056 1.101991 -0.391507
v 1.128727 0.985394 -0.367303
v 0.378134 0.748475 -0.524323
v 1.196942 0.734048 -0.373155
v 0.826596 0.741174 -0.279475
v -0.098536 0.119930 -1.045442
v 0.631972 0.219375 -0.900761
v 0.320692 0.763386 -0.467580
v -0.275211 0.590399 -0.892559
v 0.349925 0.623098 -0.475689
v 1.030560 0.831114 -0.351361
v 1.144014 0.988072 -0.358554
v 0.408696 1.290365 -0.838975
v -0.303928 1.105973 -0.988387
v 0.809502 0.823882 -0.274683
v 0.199775 0.489525 -0.491054
v 0.348607 1.144830 -0.828857
v 0.063603 0.534812 -0.493814
v -0.095206 -0.169514 -0.466327
v 0.810380 0.927875 -0.952561
v 0.008526 0.013750 -0.363301
v -0.015003 -0.343792 -0.497034
v 0.614640 0.204088 -0.902372
v -0.146503 1.246409 -0.972248
v -0.424649 0.550617 -0.924159
v -0.261536 -0.261546 -0.502097
v -0.072019 0.039729 -0.364535
v -0.009714 -0.328242 -0.503549
v 0.158754 0.455307 -0.553204
v 0.418330 0.507158 -0.629688
v 0.093677 -0.378476 -0.534246
v 0.269638 0.287036 -0.500185
v 0.103380 0.377354 -1.308900
v -0.112599 0.414153 -0.507814
v -0.427212 -1.148341 -0.080700
v -0.256388 -0.246430 -0.508781
v -0.368243 -0.225189 -0.543846
v -0.095916 0.678132 -0.640358
v 0.078436 0.481906 -0.555000
vn -0.0270 0.9401 0.3399
vn -0.3572 0.9044 -0.2334
vn 0.2489 0.7852 0.5670
vn 0.5710 0.7415 0.3523
vn 0.4940 0.8694 -0.0074
vn -0.5538 0.6786 -0.4825
vn -0.6931 0.4183 0.5871
vn 0.2621 -0.0011 0.9650
vn 0.9916 -0.0001 0.1290
vn 0.4874 0.4200 -0.7656
vn -0.8268 0.4870 -0.2814
vn -0.5965 0.1040 0.7958
vn 0.5101 -0.2634 0.8188
vn 0.9637 -0.1075 -0.2443
vn 0.1374 0.3562 -0.9242
vn -0.9123 -0.3806 -0.1510
vn -0.4556 -0.7216 0.5213
vn 0.3572 -0.9044 0.2334
vn 0.4028 -0.6763 -0.6167
vn -0.3818 -0.3526 -0.8543
vn -0.2489 -0.7852 -0.5670
vn -0.1767 -0.5816 -0.7940
vn 0.1268 -0.5215 -0.8438
vn 0.0270 -0.9401 -0.3399
vn 0.3290 -0.8654 -0.3780
vn 0.5086 -0.8523 -0.1216
vn -0.1245 -0.9921 0.0151
vn 0.0514 -0.9608 0.2725
vn -0.0861 -0.8443 0.5289
vn -0.4940 -0.8694 0.0074
vn -0.6257 -0.7360 0.2585
vn -0.8354 -0.5084 0.2087
vn -0.5710 -0.7415 -0.3523
vn -0.7667 -0.5016 -0.4007
vn -0.7039 -0.3089 -0.6397
vn -0.2621 0.0011 -0.9650
vn 0.2466 -0.1678 -0.9545
vn 0.6931 -0.4183 -0.5871
vn 0.8608 -0.3927 -0.3237
vn 0.7989 -0.5944 -0.0919
vn 0.5538 -0.6786 0.4825
vn 0.4117 -0.5470 0.7289
vn 0.1106 -0.6185 0.7780
vn -0.4874 -0.4200 0.7656
vn -0.6839 -0.1832 0.7062
vn -0.8672 -0.2068 0.4531
vn -0.9916 0.0001 -0.1290
vn -0.9120 0.1959 -0.3604
vn -0.7831 0.0718 -0.6177
vn 0.5965 -0.1040 -0.7958
vn 0.6839 0.1832 -0.7062
vn 0.8672 0.2068 -0.4530
vn 0.8268 -0.4870 0.2814
vn 0.9120 -0.1959 0.3604
vn 0.7831 -0.0718 0.6177
vn -0.1374 -0.3562 0.9242
vn -0.0427 -0.0665 0.9969
vn -0.2466 0.1678 0.9545
vn -0.9637 0.1075 0.2443
vn -0.8608 0.3927 0.3237
vn -0.7989 0.5944 0.0919
vn -0.5101 0.2634 -0.8188
vn -0.4117 0.5470 -0.7289
vn -0.1106 0.6185 -0.7780
vn 0.4556 0.7216 -0.5213
vn 0.6257 0.7360 -0.2585
vn 0.8354 0.5084 -0.2087
vn 0.9123 0.3806 0.1510
vn 0.7667 0.5016 0.4007
vn 0.7039 0.3089 0.6397
vn 0.3818 0.3526 0.8543
vn 0.1767 0.5816 0.7940
vn -0.1268 0.5215 0.8438
vn 0.0861 0.8443 -0.5289
vn -0.0514 0.9608 -0.2725
vn 0.1245 0.9921 -0.0151
vn -0.4028 0.6763 0.6167
vn -0.3290 0.8654 0.3780
vn -0.5086 0.8523 0.1216
vn -0.9782 -0.2003 -0.0550
vn -0.9782 -0.2004 -0.0548
vn -0.9782 -0.2006 -0.0546
vn -0.6870 -0.1838 0.7030
vn 0.3127 0.9467 0.0766
vn 0.4141 -0.5493 0.7258
vn -0.4795 -0.1497 0.8647
vn -0.4718 -0.1489 0.8690
vn -0.4714 -0.1489 0.8692
vn 0.5477 0.1618 -0.8208
vn 0.2618 -0.3959 0.8802
vn 0.2571 -0.3902 0.8841
vn 0.2568 -0.3900 0.8843
vn -0.2726 -0.8492 -0.4522
vn 0.2726 0.8492 0.4522
vn 0.6321 -0.6629 -0.4013
vn -0.6315 0.6632 0.4018
vn 0.6320 -0.6630 -0.4014
vn -0.5987 0.7144 -0.3622
vn 0.5984 -0.7149 0.3618
vn -0.5985 0.7147 -0.3619
vn 0.0997 0.3562 0.9291
vn 0.1038 0.3717 0.9225
vn 0.0995 0.3555 0.9294
vn -0.2514 -0.7165 0.6508
vn 0.0427 0.0665 -0.9969
vn -0.1270 -0.4383 -0.8898
vn 0.6614 0.0949 0.7440
vn 0.6616 0.0951 0.7438
vn 0.6609 0.0944 0.7445
vn -0.3116 0.4466 -0.8387
vn -0.5006 0.4803 0.7202
vn -0.5008 0.4804 0.7200
vn -0.5000 0.4801 0.7208
vn 0.9198 0.2112 -0.3308
vn -0.9200 -0.2107 0.3305
vn 0.9199 0.2109 -0.3306
vn 0.1784 0.5847 0.7914
vn 0.6652 -0.7463 -0.0218
vn 0.6653 -0.7463 -0.0216
vn 0.6654 -0.7462 -0.0214
vn -0.8872 -0.1611 -0.4324
vn 0.8871 0.1605 0.4327
vn -0.2809 -0.0067 -0.9597
vn -0.2820 -0.0074 -0.9594
vn -0.2808 -0.0067 -0.9597
vn 0.1467 0.3734 -0.9160
vn 0.1474 0.3743 -0.9155
vn 0.1476 0.3746 -0.9154
vn 0.5119 -0.6418 0.5710
vn 0.6664 -0.7435 -0.0566
vn 0.5425 0.4311 0.7210
vn 0.5785 0.3410 0.7410
vn 0.5259 0.4675 0.7106
vn 0.1740 -0.3034 0.9368
vn 0.0326 -0.1502 0.9881
vn -0.4849 -0.6041 0.6325
vn -0.5676 -0.5555 0.6077
vn -0.6005 -0.5336 0.5956
vn -0.8149 -0.2010 0.5436
vn -0.3648 -0.1291 0.9221
vn 0.1399 0.3754 -0.9162
vn 0.1399 0.3766 -0.9158
vn 0.1399 0.3753 -0.9163
vn 0.2571 -0.1862 -0.9483
vn 0.2567 -0.1851 -0.9486
vn 0.2566 -0.1850 -0.9486
vn 0.0997 -0.7771 0.6214
vn 0.0037 -0.7663 0.6425
vn 0.1395 -0.7794 0.6109
vn -0.3557 -0.1276 0.9259
vn -0.1527 -0.0887 0.9843
vn -0.2869 0.6283 0.7232
vn -0.2034 0.6788 0.7056
vn -0.1680 0.6979 0.6962
vn 0.0609 0.2420 0.9684
vn 0.0609 0.2421 0.9683
vn -0.0068 0.0405 0.9992
vn 0.6861 -0.2559 0.6810
vn 0.6837 -0.1624 0.7114
vn 0.6818 -0.1345 0.7191
vn -0.6701 0.2872 0.6844
vn -0.7276 0.2124 0.6523
vn -0.6521 0.3085 0.6925
vn -0.2828 0.0003 -0.9592
vn -0.2841 0.0004 -0.9588
vn -0.2844 0.0004 -0.9587
vn 0.2280 0.7247 0.6502
vn 0.2281 0.7250 0.6499
vn 0.0642 0.2511 0.9658
vn 0.2625 -0.1808 -0.9478
vn 0.2616 -0.1802 -0.9482
vn 0.2627 -0.1809 -0.9477
vn 0.6633 0.4876 0.5677
vn 0.6030 -0.6197 -0.5024
vn 0.6030 -0.6197 -0.5025
vn 0.6029 -0.6196 -0.5025
vn -0.6195 -0.6526 0.4363
vn -0.6193 -0.6525 0.4367
vn -0.6195 -0.6526 0.4362
vn -0.3398 0.4757 -0.8114
vn -0.3398 0.4756 -0.8114
vn -0.4919 -0.2148 -0.8437
vn 0.3624 0.5444 -0.7565
vn 0.3623 0.5444 -0.7565
vn -0.2608 0.7943 0.5488
vn 0.0896 -0.8876 0.4519
vn 0.0896 -0.8878 0.4515
vn 0.0896 -0.8878 0.4514
vn -0.8342 -0.1439 -0.5323
vn -0.8342 -0.1439 -0.5324
vn 0.5867 0.1679 -0.7922
vn 0.5867 0.1680 -0.7922
vn 0.0635 0.6436 -0.7627
vn 0.0634 0.6436 -0.7627
vn 0.2968 -0.4766 -0.8275
vn 0.5313 -0.2679 -0.8037
vn -0.5563 0.0932 -0.8257
vn -0.1416 -0.4785 -0.8666
vn -0.1415 -0.4786 -0.8665
vn -0.1418 -0.4783 -0.8667
vn 0.2941 0.8600 -0.4171
vn 0.2941 0.8600 -0.4169
vn 0.8160 -0.2426 0.5247
vn 0.8157 -0.2426 0.5251
vn 0.8161 -0.2426 0.5246
vn -0.8173 0.2990 0.4926
vn -0.8175 0.2991 0.4922
vn -0.7891 -0.4996 -0.3574
vn -0.7898 -0.4994 -0.3560
vn 0.6212 0.7540 -0.2134
vn 0.6214 0.7534 -0.2150
vn 0.6214 0.7533 -0.2154
vn 0.7896 0.1298 0.5998
vn -0.7896 -0.1301 -0.5996
vn -0.7896 -0.1299 -0.5997
vn -0.9509 -0.1843 -0.2488
vn 0.9510 0.1835 0.2487
vn -0.9509 -0.1840 -0.2487
vn -0.9309 0.1800 -0.3179
vn -0.9296 0.1812 -0.3209
vn -0.9294 0.1814 -0.3215
vn 0.8650 -0.4155 -0.2813
vn 0.8652 -0.4171 -0.2783
vn 0.9510 0.1838 0.2485
vn 0.9510 0.1843 0.2482
vn 0.9510 0.1850 0.2479
vn 0.5787 0.1669 -0.7983
vn -0.5788 -0.1672 0.7982
vn -0.3151 -0.9415 0.1194
vn -0.1382 -0.4707 -0.8714
vn 0.1382 0.4707 0.8714
vn -0.0388 0.9731 -0.2271
vn -0.0383 0.9735 -0.2254
vn 0.3465 -0.8765 -0.3341
vn 0.3459 -0.8762 -0.3357
vn 0.3458 -0.8761 -0.3360
vn -0.2838 -0.8241 0.4902
vn 0.2838 0.8241 -0.4902
vn 0.3151 0.9415 -0.1194
vn -0.5769 0.5835 0.5715
vn 0.5773 -0.5834 -0.5713
vn 0.5771 -0.5835 -0.5715
vn 0.6614 -0.7184 -0.2156
vn -0.6607 0.7190 0.2156
vn 0.6611 -0.7186 -0.2156
vn -0.6609 0.7188 0.2158
vn -0.6614 0.7185 0.2154
vn -0.6619 0.7181 0.2150
vn -0.3345 0.4698 -0.8169
vn 0.3349 -0.4697 0.8168
vn 0.3053 0.9001 -0.3107
vn -0.3053 -0.9001 0.3107
vn -0.9782 -0.2002 -0.0552
vn -0.4799 -0.1497 0.8645
vn 0.2620 -0.3962 0.8800
vn -0.6319 0.6630 0.4015
vn 0.5984 -0.7148 0.3618
vn 0.1040 0.3724 0.9222
vn 0.6617 0.0952 0.7437
vn -0.5010 0.4805 0.7198
vn -0.9200 -0.2108 0.3305
vn 0.6651 -0.7464 -0.0220
vn 0.8872 0.1609 0.4325
vn -0.2823 -0.0075 -0.9593
vn 0.1467 0.3733 -0.9161
vn 0.1803 -0.3104 0.9333
vn 0.5880 0.3139 0.7455
vn 0.3071 -0.4423 0.8426
vn -0.4596 -0.6172 0.6386
vn -0.9760 -0.1979 -0.0905
vn 0.1399 0.3769 -0.9156
vn 0.2572 -0.1865 -0.9482
vn -0.0245 -0.7617 0.6474
vn -0.5418 -0.1606 0.8250
vn -0.3108 0.6123 0.7270
vn 0.1255 0.4319 0.8931
vn 0.6851 -0.2943 0.6664
vn -0.7494 0.1805 0.6370
vn -0.2827 0.0003 -0.9592
vn 0.3146 0.9483 0.0412
vn 0.2615 -0.1801 -0.9482
vn -0.3398 0.4758 -0.8113
vn 0.0895 -0.8875 0.4520
vn 0.5869 0.1678 -0.7921
vn -0.1415 -0.4787 -0.8665
vn 0.2941 0.8601 -0.4169
vn -0.8172 0.2990 0.4927
vn -0.7900 -0.4994 -0.3557
vn 0.7896 0.1298 0.5997
vn 0.9510 0.1838 0.2487
vn 0.8652 -0.4175 -0.2777
vn 0.9511 0.1834 0.2487
vn -0.5787 -0.1670 0.7982
vn -0.0382 0.9736 -0.2250
vn 0.3466 -0.8765 -0.3341
vn -0.5770 0.5835 0.5715
vn -0.6610 0.7188 0.2156
vn -0.6606 0.7190 0.2161
vn 0.3346 -0.4698 0.8169
vt 0.141216 0.177015
vt 0.247201 0.147047
vt 0.270480 0.222503
vt 0.354300 0.111884
vt 0.222061 0.009954
vt 0.236847 0.275164
vt 0.158597 0.285775
vt 0.124316 0.166220
vt 0.506057 0.028894
vt 0.349576 0.253342
vt 0.348431 0.192690
vt 0.419132 0.255214
vt 0.298089 0.333957
vt 0.318892 0.290495
vt 0.363086 0.349425
vt 0.171734 0.397731
vt 0.242580 0.358425
vt 0.273599 0.453526
vt 0.454546 0.157461
vt 0.545455 0.157461
vt 0.500000 0.236191
vt 0.447759 0.180840
vt 0.390943 0.305808
vt 0.329038 0.396276
vt 0.160258 0.570316
vt 0.409092 0.236191
vt 0.500304 0.267764
vt 0.592349 0.220863
vt 0.573025 0.357706
vt 0.428530 0.360519
vt 0.469255 0.324193
vt 0.506665 0.410422
vt 0.374560 0.464644
vt 0.412699 0.412744
vt 0.486744 0.492798
vt 0.350390 0.739603
vt 0.370716 0.567877
vt 0.586899 0.629977
vt 0.363637 0.314921
vt 0.454546 0.314921
vt 0.409092 0.393651
vt 0.739603 0.390884
vt 0.644859 0.498684
vt 0.500000 0.393651
vt 0.545455 0.314921
vt 0.739603 0.130203
vt 0.590909 0.236191
vt 0.023644 0.320616
vt 0.318182 0.236191
vt 0.363637 0.157461
vt 0.010288 0.093391
vt 0.454247 0.314842
vt 0.544907 0.309045
vt 0.569439 0.200695
vt 0.447663 0.167162
vt 0.499889 0.236223
vt 0.409111 0.236263
vt 0.458651 0.172326
vt 0.336980 0.198377
vt 0.367208 0.304128
vt 0.851702 0.782195
vt 0.903878 0.778654
vt 0.903879 0.782231
vt 0.877433 0.991239
vt 0.828939 0.789432
vt 0.926667 0.789522
vt 0.747064 0.592090
vt 0.695954 0.580925
vt 0.696930 0.577552
vt 0.481973 0.260532
vt 0.545826 0.229079
vt 0.363211 0.228110
vt 0.484599 0.310460
vt 0.485222 0.290711
vt 0.510914 0.263930
vt 0.468710 0.241798
vt 0.528104 0.201964
vt 0.444790 0.285239
vt 0.844831 0.180286
vt 0.792650 0.176742
vt 0.844837 0.176739
vt 0.479331 0.242140
vt 0.369958 0.207351
vt 0.429831 0.241292
vt 0.154722 0.602874
vt 0.009191 0.686896
vt 0.009191 0.518851
vt 0.867570 0.187602
vt 0.818446 0.389354
vt 0.769840 0.187430
vt 0.367359 0.220717
vt 0.448742 0.292644
vt 0.424989 0.253052
vt 0.770943 0.591459
vt 0.677077 0.564218
vt 0.780409 0.383977
vt 0.462304 0.358565
vt 0.483705 0.252591
vt 0.461355 0.292708
vt 0.465622 0.285102
vt 0.470208 0.356504
vt 0.439691 0.242407
vt 0.457636 0.388098
vt 0.533642 0.310054
vt 0.375006 0.311892
vt 0.499947 0.236320
vt 0.398033 0.264321
vt 0.414798 0.274783
vt 0.425302 0.310503
vt 0.343230 0.159132
vt 0.464101 0.221819
vt 0.300747 0.216368
vt 0.312087 0.204514
vt 0.426640 0.212293
vt 0.332271 0.172449
vt 0.427186 0.259302
vt 0.310056 0.203355
vt 0.482531 0.212869
vt 0.697430 0.127318
vt 0.608811 0.220559
vt 0.562876 0.157126
vt 0.445032 0.221690
vt 0.540264 0.219675
vt 0.598158 0.206274
vt 0.539262 0.209710
vt 0.574356 0.172506
vt 0.449238 0.358269
vt 0.380030 0.202070
vt 0.491252 0.410046
vt 0.475442 0.407329
vt 0.458286 0.534968
vt 0.421085 0.411154
vt 0.437889 0.407865
vt 0.208749 0.124760
vt 0.424191 0.290812
vt 0.780409 0.778709
vt 0.569074 0.717570
vt 0.767847 0.612129
vt 0.987838 0.612129
vt 0.439554 0.356933
vt 0.928330 0.010215
vt 0.792644 0.180217
vt 0.494372 0.274645
vt 0.334257 0.173579
vt 0.516106 0.297976
vt 0.475456 0.409640
vt 0.596114 0.207422
vt 0.572327 0.173672
vt 0.392986 0.297976
vt 0.454546 0.191351
vt 0.408817 0.236092
vt 0.851701 0.778656
vt 0.746098 0.595430
vt 0.454418 0.315100
vt 0.437908 0.410132
vt 0.708340 0.010215
s 1
usemtl マテリアル
f 1/1/1 14/2/1 13/3/1
f 2/4/2 14/2/2 16/5/2
f 1/1/3 13/3/3 18/6/3
f 1/1/4 18/6/4 20/7/4
f 1/1/5 20/7/5 17/8/5
f 2/4/6 16/5/6 23/9/6
f 3/10/7 15/11/7 25/12/7
f 4/13/8 19/14/8 27/15/8
f 5/16/9 21/17/9 29/18/9
f 6/19/10 22/20/10 31/21/10
f 2/4/11 23/9/11 26/22/11
f 3/10/12 25/12/12 28/23/12
f 4/13/13 27/15/13 30/24/13
f 5/16/14 29/18/14 32/25/14
f 6/19/15 31/21/15 24/26/15
f 7/27/16 33/28/16 38/29/16
f 8/30/17 34/31/17 40/32/17
f 9/33/18 35/34/18 41/35/18
f 10/36/19 36/37/19 42/38/19
f 11/39/20 37/40/20 39/41/20
f 39/42/21 42/38/21 12/43/21
f 39/41/22 37/40/22 42/44/22
f 37/40/23 10/45/23 42/44/23
f 42/38/24 41/35/24 12/43/24
f 42/38/25 36/37/25 41/35/25
f 36/37/26 9/33/26 41/35/26
f 41/35/27 40/32/27 12/43/27
f 41/35/28 35/34/28 40/32/28
f 35/34/29 8/30/29 40/32/29
f 40/32/30 38/29/30 12/43/30
f 40/32/31 34/31/31 38/29/31
f 34/31/32 7/27/32 38/29/32
f 38/29/33 39/42/33 12/43/33
f 38/29/34 33/28/34 39/42/34
f 33/28/35 11/46/35 39/42/35
f 24/26/36 37/40/36 11/39/36
f 31/21/37 10/45/37 37/40/37
f 32/25/38 36/37/38 10/36/38
f 32/25/39 29/18/39 36/37/39
f 29/18/40 9/33/40 36/37/40
f 30/24/41 35/34/41 9/33/41
f 30/24/42 27/15/42 35/34/42
f 27/15/43 8/30/43 35/34/43
f 28/23/44 34/31/44 8/30/44
f 28/23/45 25/12/45 34/31/45
f 25/12/46 7/27/46 34/31/46
f 26/22/47 33/28/47 7/27/47
f 26/22/48 23/9/48 33/28/48
f 23/9/49 11/46/49 33/28/49
f 31/21/50 32/47/50 10/45/50
f 31/21/51 22/20/51 32/47/51
f 22/48/52 5/16/52 32/25/52
f 29/18/53 30/24/53 9/33/53
f 29/18/54 21/17/54 30/24/54
f 21/17/55 4/13/55 30/24/55
f 27/15/56 28/23/56 8/30/56
f 27/15/57 19/14/57 28/23/57
f 19/14/58 3/10/58 28/23/58
f 25/12/59 26/22/59 7/27/59
f 25/12/60 15/11/60 26/22/60
f 15/11/61 2/4/61 26/22/61
f 23/49/62 24/26/62 11/39/62
f 23/49/63 16/50/63 24/26/63
f 16/50/64 6/19/64 24/26/64
f 17/8/65 22/48/65 6/51/65
f 17/8/66 20/7/66 22/48/66
f 20/7/67 5/16/67 22/48/67
f 20/7/68 21/17/68 5/16/68
f 20/7/69 18/6/69 21/17/69
f 18/6/70 4/13/70 21/17/70
f 18/6/71 19/14/71 4/13/71
f 18/6/72 13/3/72 19/14/72
f 13/3/73 3/10/73 19/14/73
f 16/5/74 17/8/74 6/51/74
f 16/5/75 14/2/75 17/8/75
f 14/2/76 1/1/76 17/8/76
f 13/3/77 15/11/77 3/10/77
f 13/3/78 14/2/78 15/11/78
f 14/2/79 2/4/79 15/11/79
f 24/26/80 108/52/81 37/40/82
f 82/53/83 86/54/83 88/55/83
f 24/26/84 68/56/84 54/57/84
f 58/58/85 62/59/85 64/60/85
f 73/61/86 87/62/87 77/63/88
f 70/64/89 74/65/89 76/66/89
f 45/67/90 63/68/91 47/69/92
f 85/70/93 57/71/94 89/72/94
f 107/73/95 71/74/96 69/75/97
f 83/76/98 95/77/99 93/78/100
f 103/79/101 101/80/102 97/81/103
f 78/82/104 56/83/104 44/84/104
f 60/85/105 84/86/105 92/87/105
f 106/88/106 110/89/106 112/90/106
f 66/91/107 114/92/108 48/93/109
f 46/94/110 50/95/110 52/96/110
f 96/97/111 72/98/112 104/99/113
f 91/100/114 65/101/115 61/102/116
f 94/103/117 98/104/117 100/105/117
f 37/40/118 68/106/119 31/21/120
f 53/107/121 113/108/122 109/109/121
f 44/84/123 46/110/124 43/111/125
f 48/93/126 50/112/127 47/113/128
f 51/114/129 53/107/129 54/57/130
f 56/83/131 58/58/132 55/115/133
f 59/116/134 61/102/134 62/59/135
f 64/60/136 66/91/137 63/117/138
f 67/118/139 69/75/139 70/119/140
f 72/98/141 74/120/142 71/74/143
f 76/121/144 78/82/145 75/122/146
f 80/123/147 82/53/148 79/124/149
f 83/76/150 85/70/150 86/54/151
f 88/55/152 90/125/153 87/126/154
f 91/100/155 93/78/156 94/103/157
f 96/97/158 98/104/159 95/77/160
f 100/105/161 102/127/162 99/128/163
f 104/99/164 106/129/165 103/130/166
f 107/73/167 109/109/168 110/131/169
f 112/132/170 114/92/171 111/133/172
f 51/114/173 46/110/173 52/134/173
f 47/69/174 46/94/175 45/67/176
f 53/107/177 50/112/178 49/135/179
f 63/68/180 58/136/181 64/137/181
f 59/116/182 58/58/182 57/71/182
f 61/102/183 64/60/184 62/59/183
f 67/118/185 76/121/185 75/122/185
f 69/75/186 74/120/187 70/119/188
f 77/63/189 74/65/190 73/61/190
f 87/62/191 82/138/192 88/139/192
f 83/76/193 82/53/194 81/140/194
f 85/70/195 88/55/195 86/54/195
f 91/100/196 100/105/196 99/128/196
f 93/78/197 98/104/197 94/103/197
f 101/80/198 98/141/199 97/81/200
f 111/142/201 106/88/202 112/90/201
f 107/73/203 106/129/204 105/143/205
f 109/109/206 112/132/207 110/131/207
f 56/83/208 45/144/209 44/84/208
f 66/91/210 47/113/211 63/117/212
f 60/145/213 91/100/214 61/102/215
f 66/91/216 99/128/217 102/127/218
f 96/97/219 103/130/220 97/146/221
f 102/127/222 111/133/223 114/92/222
f 108/52/224 53/107/225 109/109/226
f 114/92/227 49/135/228 48/93/227
f 68/56/229 51/114/229 54/57/229
f 44/84/230 75/122/231 78/82/230
f 80/123/232 73/147/233 72/98/232
f 90/125/234 77/148/235 87/126/236
f 60/145/237 85/70/238 84/149/237
f 90/125/239 57/71/229 56/83/239
f 92/150/240 83/76/241 93/78/242
f 96/97/243 81/140/244 80/123/245
f 68/106/246 107/73/247 69/75/248
f 72/98/249 105/143/250 104/99/249
f 51/114/251 75/122/252 43/111/252
f 24/26/80 54/151/253 108/52/81
f 24/26/84 31/21/84 68/56/84
f 73/61/86 79/152/254 87/62/87
f 45/67/90 55/153/255 63/68/91
f 85/70/93 59/116/93 57/71/94
f 107/73/95 105/143/256 71/74/96
f 83/76/98 81/140/257 95/77/99
f 103/79/101 111/142/258 101/80/102
f 78/82/104 90/125/104 56/83/104
f 66/91/107 102/127/259 114/92/108
f 96/97/111 80/123/260 72/98/112
f 91/100/114 99/128/261 65/101/115
f 37/40/118 108/154/262 68/106/119
f 53/107/121 49/135/263 113/108/122
f 44/84/123 45/144/264 46/110/124
f 48/93/126 49/135/265 50/112/127
f 51/114/129 52/134/266 53/107/129
f 56/83/131 57/71/267 58/58/132
f 59/116/134 60/145/268 61/102/134
f 64/60/136 65/101/269 66/91/137
f 67/118/139 68/106/270 69/75/139
f 72/98/141 73/147/271 74/120/142
f 76/121/144 77/148/272 78/82/145
f 80/123/147 81/140/273 82/53/148
f 83/76/150 84/149/274 85/70/150
f 88/55/152 89/72/275 90/125/153
f 91/100/155 92/150/276 93/78/156
f 96/97/158 97/146/277 98/104/159
f 100/105/161 101/155/278 102/127/162
f 104/99/164 105/143/279 106/129/165
f 107/73/167 108/52/280 109/109/168
f 112/132/170 113/108/281 114/92/171
f 51/114/173 43/111/173 46/110/173
f 47/69/174 50/95/174 46/94/175
f 53/107/177 52/134/178 50/112/178
f 63/68/180 55/153/282 58/136/181
f 59/116/182 62/59/182 58/58/182
f 61/102/183 65/101/184 64/60/184
f 67/118/185 70/119/185 76/121/185
f 69/75/186 71/74/283 74/120/187
f 77/63/189 76/66/189 74/65/190
f 87/62/191 79/152/284 82/138/192
f 83/76/193 86/54/193 82/53/194
f 85/70/195 89/72/195 88/55/195
f 91/100/196 94/103/196 100/105/196
f 93/78/197 95/77/197 98/104/197
f 101/80/198 100/156/285 98/141/199
f 111/142/201 103/79/286 106/88/202
f 107/73/203 110/131/204 106/129/204
f 109/109/206 113/108/287 112/132/207
f 56/83/208 55/115/288 45/144/209
f 66/91/210 48/93/210 47/113/211
f 60/145/213 92/150/289 91/100/214
f 66/91/216 65/101/290 99/128/217
f 96/97/219 104/99/219 103/130/220
f 102/127/222 101/155/291 111/133/223
f 108/52/224 54/151/292 53/107/225
f 114/92/227 113/108/293 49/135/228
f 68/56/229 67/118/229 51/114/229
f 44/84/230 43/111/231 75/122/231
f 80/123/232 79/124/294 73/147/233
f 90/125/234 78/82/295 77/148/235
f 60/145/237 59/116/238 85/70/238
f 90/125/239 89/72/229 57/71/229
f 92/150/240 84/149/296 83/76/241
f 96/97/243 95/77/297 81/140/244
f 68/106/246 108/154/298 107/73/247
f 72/98/249 71/74/299 105/143/250
f 51/114/251 67/118/251 75/122/252
o 
v 0.000000 0.000000 0.000000
o .001
v 0.000000 0.000000 0.000000
