# Blender 4.5.3 LTS
# www.blender.org
mtllib titleFont.mtl
o テキスト
v -4.757737 0.740100 -0.000001
v -4.735179 0.750612 -0.000001
v -4.712922 0.760178 -0.000001
v -4.690948 0.768804 -0.000001
v -4.669235 0.776496 -0.000001
v -4.647764 0.783260 -0.000001
v -4.626515 0.789103 -0.000001
v -4.605468 0.794030 -0.000001
v -4.584601 0.798047 -0.000001
v -4.563895 0.801161 -0.000001
v -4.543331 0.803378 -0.000001
v -4.522886 0.804704 -0.000001
v -4.502544 0.805144 -0.000001
v -4.460363 0.803476 -0.000001
v -4.420935 0.798535 -0.000001
v -4.384433 0.790421 -0.000001
v -4.351031 0.779230 -0.000001
v -4.320907 0.765061 -0.000001
v -4.294233 0.748010 -0.000001
v -4.271184 0.728176 -0.000001
v -4.251933 0.705657 -0.000001
v -4.236657 0.680549 -0.000001
v -4.225530 0.652950 -0.000001
v -4.218725 0.622959 -0.000001
v -4.216419 0.590673 -0.000001
v -4.224407 0.540599 -0.000001
v -4.246491 0.496256 -0.000001
v -4.279854 0.456931 -0.000001
v -4.321674 0.421909 -0.000001
v -4.369133 0.390477 -0.000001
v -4.419413 0.361919 -0.000001
v -4.469691 0.335522 -0.000001
v -4.517151 0.310572 -0.000001
v -4.558971 0.286354 -0.000001
v -4.592333 0.262155 -0.000001
v -4.614418 0.237259 -0.000001
v -4.622408 0.210954 -0.000001
v -4.621226 0.197440 -0.000001
v -4.617789 0.185024 -0.000001
v -4.612258 0.173707 -0.000001
v -4.604794 0.163489 -0.000001
v -4.595557 0.154370 -0.000001
v -4.584709 0.146349 -0.000001
v -4.572412 0.139427 -0.000001
v -4.558825 0.133604 -0.000001
v -4.544110 0.128879 -0.000001
v -4.528430 0.125254 -0.000001
v -4.511943 0.122727 -0.000001
v -4.494811 0.121298 -0.000001
v -4.476740 0.121996 -0.000001
v -4.457380 0.124098 -0.000001
v -4.436812 0.127616 -0.000001
v -4.415116 0.132562 -0.000001
v -4.392373 0.138949 -0.000001
v -4.368664 0.146789 -0.000001
v -4.344069 0.156093 -0.000001
v -4.318668 0.166875 -0.000001
v -4.292542 0.179146 -0.000001
v -4.265771 0.192919 -0.000001
v -4.238437 0.208205 -0.000001
v -4.210619 0.225018 -0.000001
v -4.210619 0.056254 -0.000001
v -4.238077 0.043757 -0.000001
v -4.264508 0.032603 -0.000001
v -4.290094 0.022743 -0.000001
v -4.315017 0.014128 -0.000001
v -4.339454 0.006710 -0.000001
v -4.363590 0.000439 -0.000001
v -4.387606 -0.004733 -0.000001
v -4.411681 -0.008856 -0.000001
v -4.435998 -0.011977 -0.000001
v -4.460737 -0.014146 -0.000001
v -4.486081 -0.015411 -0.000001
v -4.512211 -0.015822 -0.000001
v -4.552361 -0.013909 -0.000001
v -4.590465 -0.008278 -0.000001
v -4.626245 0.000906 -0.000001
v -4.659427 0.013477 -0.000001
v -4.689736 0.029271 -0.000001
v -4.716897 0.048123 -0.000001
v -4.740635 0.069869 -0.000001
v -4.760674 0.094343 -0.000001
v -4.776738 0.121381 -0.000001
v -4.788554 0.150817 -0.000001
v -4.795845 0.182488 -0.000001
v -4.798337 0.216228 -0.000001
v -4.797227 0.235929 -0.000001
v -4.793807 0.254732 -0.000001
v -4.787946 0.272840 -0.000001
v -4.779505 0.290453 -0.000001
v -4.768353 0.307773 -0.000001
v -4.754354 0.325002 -0.000001
v -4.737375 0.342340 -0.000001
v -4.717281 0.359990 -0.000001
v -4.693938 0.378152 -0.000001
v -4.667213 0.397029 -0.000001
v -4.636970 0.416821 -0.000001
v -4.603075 0.437731 -0.000001
v -4.566845 0.457160 -0.000001
v -4.534434 0.475087 -0.000001
v -4.505715 0.491623 -0.000001
v -4.480561 0.506877 -0.000001
v -4.458844 0.520959 -0.000001
v -4.440436 0.533979 -0.000001
v -4.425211 0.546047 -0.000001
v -4.413039 0.557272 -0.000001
v -4.403795 0.567765 -0.000001
v -4.397349 0.577635 -0.000001
v -4.393576 0.586992 -0.000001
v -4.392347 0.595947 -0.000001
v -4.393263 0.606228 -0.000001
v -4.395964 0.615936 -0.000001
v -4.400383 0.625008 -0.000001
v -4.406454 0.633385 -0.000001
v -4.414109 0.641005 -0.000001
v -4.423281 0.647807 -0.000001
v -4.433902 0.653730 -0.000001
v -4.445907 0.658713 -0.000001
v -4.459227 0.662694 -0.000001
v -4.473796 0.665614 -0.000001
v -4.489547 0.667411 -0.000001
v -4.506412 0.668023 -0.000001
v -4.522912 0.667506 -0.000001
v -4.540467 0.665932 -0.000001
v -4.559002 0.663271 -0.000001
v -4.578444 0.659494 -0.000001
v -4.598717 0.654569 -0.000001
v -4.619749 0.648466 -0.000001
v -4.641466 0.641154 -0.000001
v -4.663794 0.632604 -0.000001
v -4.686659 0.622783 -0.000001
v -4.709987 0.611663 -0.000001
v -4.733704 0.599212 -0.000001
v -4.757737 0.585399 -0.000001
v -3.497238 1.198927 -0.000001
v -3.325175 1.198927 -0.000001
v -3.325175 -0.000001 -0.000001
v -3.497238 -0.000001 -0.000001
v -4.094622 0.789323 -0.000001
v -3.889694 0.789323 -0.000001
v -3.504972 0.402572 -0.000001
v -3.939960 -0.000001 -0.000001
v -4.171953 -0.000001 -0.000001
v -3.723432 0.402572 -0.000001
v -3.118315 0.750647 -0.000001
v -3.097826 0.758736 -0.000001
v -3.077815 0.766282 -0.000001
v -3.058112 0.773254 -0.000001
v -3.038550 0.779621 -0.000001
v -3.018961 0.785354 -0.000001
v -2.999177 0.790421 -0.000001
v -2.979031 0.794793 -0.000001
v -2.958354 0.798438 -0.000001
v -2.936980 0.801326 -0.000001
v -2.914740 0.803427 -0.000001
v -2.891465 0.804710 -0.000001
v -2.866988 0.805144 -0.000001
v -2.803310 0.801742 -0.000001
v -2.743902 0.791699 -0.000001
v -2.689005 0.775259 -0.000001
v -2.638860 0.752666 -0.000001
v -2.593710 0.724164 -0.000001
v -2.553796 0.689998 -0.000001
v -2.519360 0.650411 -0.000001
v -2.490643 0.605649 -0.000001
v -2.467886 0.555954 -0.000001
v -2.451333 0.501571 -0.000001
v -2.441223 0.442744 -0.000001
v -2.437800 0.379718 -0.000001
v -2.441525 0.323189 -0.000001
v -2.452461 0.269846 -0.000001
v -2.470243 0.220019 -0.000001
v -2.494510 0.174037 -0.000001
v -2.524898 0.132231 -0.000001
v -2.561047 0.094929 -0.000001
v -2.602592 0.062462 -0.000001
v -2.649172 0.035159 -0.000001
v -2.700424 0.013349 -0.000001
v -2.755986 -0.002638 -0.000001
v -2.815495 -0.012471 -0.000001
v -2.878588 -0.015822 -0.000001
v -2.901666 -0.015393 -0.000001
v -2.925300 -0.014146 -0.000001
v -2.949244 -0.012142 -0.000001
v -2.973247 -0.009442 -0.000001
v -2.997064 -0.006107 -0.000001
v -3.020443 -0.002198 -0.000001
v -3.043138 0.002223 -0.000001
v -3.064898 0.007096 -0.000001
v -3.085479 0.012360 -0.000001
v -3.104630 0.017953 -0.000001
v -3.122102 0.023815 -0.000001
v -3.137648 0.029885 -0.000001
v -3.137648 0.184585 -0.000001
v -3.116249 0.176161 -0.000001
v -3.095501 0.168470 -0.000001
v -3.075330 0.161512 -0.000001
v -3.055662 0.155286 -0.000001
v -3.036425 0.149792 -0.000001
v -3.017544 0.145031 -0.000001
v -2.998943 0.141002 -0.000001
v -2.980551 0.137706 -0.000001
v -2.962294 0.135142 -0.000001
v -2.944096 0.133311 -0.000001
v -2.925886 0.132212 -0.000001
v -2.907588 0.131846 -0.000001
v -2.864443 0.133878 -0.000001
v -2.824063 0.139895 -0.000001
v -2.786638 0.149783 -0.000001
v -2.752353 0.163424 -0.000001
v -2.721398 0.180704 -0.000001
v -2.693961 0.201505 -0.000001
v -2.670228 0.225713 -0.000001
v -2.650390 0.253210 -0.000001
v -2.634633 0.283882 -0.000001
v -2.623145 0.317612 -0.000001
v -2.616115 0.354284 -0.000001
v -2.613729 0.393782 -0.000001
v -2.615950 0.432645 -0.000001
v -2.622473 0.469122 -0.000001
v -2.633091 0.503023 -0.000001
v -2.647596 0.534158 -0.000001
v -2.665780 0.562339 -0.000001
v -2.687435 0.587377 -0.000001
v -2.712351 0.609082 -0.000001
v -2.740322 0.627265 -0.000001
v -2.771139 0.641737 -0.000001
v -2.804594 0.652308 -0.000001
v -2.840479 0.658789 -0.000001
v -2.878588 0.660992 -0.000001
v -2.897261 0.660611 -0.000001
v -2.915679 0.659413 -0.000001
v -2.933989 0.657311 -0.000001
v -2.952340 0.654220 -0.000001
v -2.970878 0.650055 -0.000001
v -2.989752 0.644731 -0.000001
v -3.009109 0.638161 -0.000001
v -3.029099 0.630260 -0.000001
v -3.049865 0.620943 -0.000001
v -3.071558 0.610125 -0.000001
v -3.094325 0.597719 -0.000001
v -3.118315 0.583641 -0.000001
v -1.819150 0.805144 -0.000001
v -1.755714 0.801554 -0.000001
v -1.695259 0.791073 -0.000001
v -1.638268 0.774133 -0.000001
v -1.585223 0.751169 -0.000001
v -1.536609 0.722613 -0.000001
v -1.492909 0.688899 -0.000001
v -1.454606 0.650461 -0.000001
v -1.422183 0.607732 -0.000001
v -1.396124 0.561145 -0.000001
v -1.376912 0.511134 -0.000001
v -1.365030 0.458132 -0.000001
v -1.360963 0.402572 -0.000001
v -1.364883 0.343377 -0.000001
v -1.376375 0.287344 -0.000001
v -1.395037 0.234852 -0.000001
v -1.420465 0.186278 -0.000001
v -1.452257 0.142001 -0.000001
v -1.490009 0.102400 -0.000001
v -1.533320 0.067854 -0.000001
v -1.581787 0.038740 -0.000001
v -1.635005 0.015436 -0.000001
v -1.692575 -0.001677 -0.000001
v -1.754090 -0.012223 -0.000001
v -1.819150 -0.015822 -0.000001
v -1.886876 -0.012357 -0.000001
v -1.950613 -0.002166 -0.000001
v -2.010002 0.014448 -0.000001
v -2.064677 0.037177 -0.000001
v -2.114278 0.065717 -0.000001
v -2.158442 0.099764 -0.000001
v -2.196805 0.139010 -0.000001
v -2.229006 0.183153 -0.000001
v -2.254683 0.231885 -0.000001
v -2.273471 0.284903 -0.000001
v -2.285011 0.341900 -0.000001
v -2.288938 0.402572 -0.000001
v -2.284900 0.459609 -0.000001
v -2.273069 0.513576 -0.000001
v -2.253867 0.564112 -0.000001
v -2.227717 0.610857 -0.000001
v -2.195043 0.653452 -0.000001
v -2.156267 0.691536 -0.000001
v -2.111811 0.724749 -0.000001
v -2.062100 0.752731 -0.000001
v -2.007555 0.775122 -0.000001
v -1.948601 0.791561 -0.000001
v -1.885658 0.801689 -0.000001
v -1.817217 0.664508 -0.000001
v -1.859182 0.662240 -0.000001
v -1.898871 0.655596 -0.000001
v -1.936023 0.644813 -0.000001
v -1.970376 0.630130 -0.000001
v -2.001667 0.611784 -0.000001
v -2.029636 0.590014 -0.000001
v -2.054020 0.565058 -0.000001
v -2.074558 0.537153 -0.000001
v -2.090988 0.506539 -0.000001
v -2.103047 0.473452 -0.000001
v -2.110475 0.438131 -0.000001
v -2.113009 0.400814 -0.000001
v -2.110660 0.359562 -0.000001
v -2.103718 0.321160 -0.000001
v -2.092347 0.285750 -0.000001
v -2.076706 0.253471 -0.000001
v -2.056957 0.224464 -0.000001
v -2.033261 0.198868 -0.000001
v -2.005779 0.176826 -0.000001
v -1.974672 0.158476 -0.000001
v -1.940102 0.143960 -0.000001
v -1.902228 0.133417 -0.000001
v -1.861213 0.126989 -0.000001
v -1.817217 0.124814 -0.000001
v -1.776775 0.127090 -0.000001
v -1.738722 0.133791 -0.000001
v -1.703274 0.144729 -0.000001
v -1.670646 0.159713 -0.000001
v -1.641051 0.178555 -0.000001
v -1.614706 0.201066 -0.000001
v -1.591824 0.227056 -0.000001
v -1.572621 0.256336 -0.000001
v -1.557312 0.288717 -0.000001
v -1.546110 0.324009 -0.000001
v -1.539232 0.362024 -0.000001
v -1.536891 0.402572 -0.000001
v -1.539306 0.439485 -0.000001
v -1.546379 0.474469 -0.000001
v -1.557856 0.507280 -0.000001
v -1.573481 0.537674 -0.000001
v -1.592999 0.565407 -0.000001
v -1.616156 0.590234 -0.000001
v -1.642696 0.611911 -0.000001
v -1.672364 0.630195 -0.000001
v -1.704905 0.644841 -0.000001
v -1.740065 0.655604 -0.000001
v -1.777586 0.662241 -0.000001
v -1.165701 1.198927 -0.000001
v -0.993639 1.198927 -0.000001
v -0.993639 -0.000001 -0.000001
v -1.165701 -0.000001 -0.000001
v -0.187461 1.198927 -0.000001
v -0.015399 1.198927 -0.000001
v -0.015399 0.043949 -0.000001
v -0.037443 0.035017 -0.000001
v -0.060929 0.026703 -0.000001
v -0.085692 0.019035 -0.000001
v -0.111562 0.012045 -0.000001
v -0.138371 0.005763 -0.000001
v -0.165953 0.000219 -0.000001
v -0.194139 -0.004555 -0.000001
v -0.222762 -0.008530 -0.000001
v -0.251652 -0.011674 -0.000001
v -0.280644 -0.013958 -0.000001
v -0.309568 -0.015351 -0.000001
v -0.338257 -0.015822 -0.000001
v -0.408305 -0.012520 -0.000001
v -0.473319 -0.002735 -0.000001
v -0.533095 0.013349 -0.000001
v -0.587436 0.035549 -0.000001
v -0.636137 0.063683 -0.000001
v -0.678998 0.097566 -0.000001
v -0.715817 0.137016 -0.000001
v -0.746394 0.181851 -0.000001
v -0.770526 0.231885 -0.000001
v -0.788013 0.286937 -0.000001
v -0.798653 0.346824 -0.000001
v -0.802245 0.411362 -0.000001
v -0.799000 0.466749 -0.000001
v -0.789499 0.519273 -0.000001
v -0.774091 0.568562 -0.000001
v -0.753125 0.614243 -0.000001
v -0.726950 0.655945 -0.000001
v -0.695914 0.693294 -0.000001
v -0.660368 0.725919 -0.000001
v -0.620660 0.753447 -0.000001
v -0.577139 0.775506 -0.000001
v -0.530154 0.791724 -0.000001
v -0.480054 0.801727 -0.000001
v -0.427188 0.805144 -0.000001
v -0.405635 0.804666 -0.000001
v -0.384459 0.803224 -0.000001
v -0.363631 0.800804 -0.000001
v -0.343126 0.797396 -0.000001
v -0.322916 0.792987 -0.000001
v -0.302975 0.787565 -0.000001
v -0.283275 0.781117 -0.000001
v -0.263790 0.773631 -0.000001
v -0.244493 0.765096 -0.000001
v -0.225358 0.755498 -0.000001
v -0.206356 0.744826 -0.000001
v -0.187461 0.733068 -0.000001
v -0.187461 0.583642 -0.000001
v -0.205408 0.597789 -0.000001
v -0.222610 0.610385 -0.000001
v -0.239207 0.621493 -0.000001
v -0.255341 0.631172 -0.000001
v -0.271152 0.639483 -0.000001
v -0.286783 0.646489 -0.000001
v -0.302374 0.652249 -0.000001
v -0.318065 0.656825 -0.000001
v -0.333998 0.660278 -0.000001
v -0.350313 0.662668 -0.000001
v -0.367153 0.664058 -0.000001
v -0.384656 0.664508 -0.000001
v -0.419870 0.662267 -0.000001
v -0.452902 0.655661 -0.000001
v -0.483586 0.644868 -0.000001
v -0.511751 0.630065 -0.000001
v -0.537232 0.611428 -0.000001
v -0.559859 0.589135 -0.000001
v -0.579466 0.563363 -0.000001
v -0.595885 0.534289 -0.000001
v -0.608947 0.502089 -0.000001
v -0.618484 0.466941 -0.000001
v -0.624330 0.429022 -0.000001
v -0.626316 0.388508 -0.000001
v -0.624058 0.352068 -0.000001
v -0.617437 0.317612 -0.000001
v -0.606681 0.285366 -0.000001
v -0.592018 0.255555 -0.000001
v -0.573676 0.228405 -0.000001
v -0.551885 0.204142 -0.000001
v -0.526870 0.182993 -0.000001
v -0.498862 0.165183 -0.000001
v -0.468089 0.150937 -0.000001
v -0.434778 0.140482 -0.000001
v -0.399158 0.134043 -0.000001
v -0.361456 0.131846 -0.000001
v -0.348433 0.132062 -0.000001
v -0.334605 0.132693 -0.000001
v -0.320133 0.133714 -0.000001
v -0.305176 0.135102 -0.000001
v -0.289898 0.136831 -0.000001
v -0.274458 0.138878 -0.000001
v -0.259019 0.141218 -0.000001
v -0.243741 0.143827 -0.000001
v -0.228785 0.146679 -0.000001
v -0.214312 0.149752 -0.000001
v -0.200483 0.153019 -0.000001
v -0.187461 0.156458 -0.000001
v 0.647716 0.789323 -0.000001
v 1.005373 0.789323 -0.000001
v 1.061970 0.787185 -0.000001
v 1.114666 0.780859 -0.000001
v 1.163268 0.770480 -0.000001
v 1.207580 0.756182 -0.000001
v 1.247408 0.738100 -0.000001
v 1.282557 0.716368 -0.000001
v 1.312833 0.691119 -0.000001
v 1.338041 0.662489 -0.000001
v 1.357985 0.630612 -0.000001
v 1.372473 0.595622 -0.000001
v 1.381308 0.557653 -0.000001
v 1.384296 0.516839 -0.000001
v 1.383974 0.502519 -0.000001
v 1.383008 0.488566 -0.000001
v 1.381396 0.474978 -0.000001
v 1.379141 0.461757 -0.000001
v 1.376241 0.448902 -0.000001
v 1.372696 0.436413 -0.000001
v 1.368508 0.424290 -0.000001
v 1.363674 0.412534 -0.000001
v 1.358197 0.401144 -0.000001
v 1.352075 0.390120 -0.000001
v 1.345308 0.379462 -0.000001
v 1.337897 0.369171 -0.000001
v 1.329359 0.358806 -0.000001
v 1.320175 0.348808 -0.000001
v 1.310348 0.339176 -0.000001
v 1.299876 0.329910 -0.000001
v 1.288760 0.321010 -0.000001
v 1.276999 0.312477 -0.000001
v 1.264594 0.304310 -0.000001
v 1.251544 0.296509 -0.000001
v 1.237850 0.289074 -0.000001
v 1.223511 0.282005 -0.000001
v 1.208528 0.275303 -0.000001
v 1.192901 0.268967 -0.000001
v 1.192901 0.265451 -0.000001
v 1.213065 0.260518 -0.000001
v 1.231934 0.254554 -0.000001
v 1.249419 0.247625 -0.000001
v 1.265435 0.239798 -0.000001
v 1.279893 0.231142 -0.000001
v 1.292707 0.221722 -0.000001
v 1.303789 0.211607 -0.000001
v 1.313051 0.200863 -0.000001
v 1.320407 0.189557 -0.000001
v 1.325770 0.177757 -0.000001
v 1.329051 0.165530 -0.000001
v 1.330164 0.152942 -0.000001
v 1.329597 0.144222 -0.000001
v 1.327882 0.135631 -0.000001
v 1.324999 0.127150 -0.000001
v 1.320928 0.118760 -0.000001
v 1.315648 0.110443 -0.000001
v 1.309140 0.102181 -0.000001
v 1.301383 0.093956 -0.000001
v 1.292358 0.085749 -0.000001
v 1.282044 0.077542 -0.000001
v 1.270420 0.069317 -0.000001
v 1.257468 0.061055 -0.000001
v 1.243166 0.052738 -0.000001
v 1.279143 0.043649 -0.000001
v 1.311708 0.033051 -0.000001
v 1.340918 0.020903 -0.000001
v 1.366825 0.007162 -0.000001
v 1.389483 -0.008215 -0.000001
v 1.408945 -0.025271 -0.000001
v 1.425267 -0.044048 -0.000001
v 1.438499 -0.064589 -0.000001
v 1.448699 -0.086937 -0.000001
v 1.455917 -0.111134 -0.000001
v 1.460209 -0.137224 -0.000001
v 1.461627 -0.165248 -0.000001
v 1.458221 -0.199127 -0.000001
v 1.448229 -0.231180 -0.000001
v 1.431994 -0.261194 -0.000001
v 1.409858 -0.288957 -0.000001
v 1.382165 -0.314253 -0.000001
v 1.349255 -0.336869 -0.000001
v 1.311472 -0.356592 -0.000001
v 1.269158 -0.373208 -0.000001
v 1.222655 -0.386504 -0.000001
v 1.172306 -0.396265 -0.000001
v 1.118453 -0.402279 -0.000001
v 1.061438 -0.404331 -0.000001
v 0.999360 -0.402372 -0.000001
v 0.941799 -0.396575 -0.000001
v 0.888923 -0.387053 -0.000001
v 0.840901 -0.373925 -0.000001
v 0.797900 -0.357304 -0.000001
v 0.760088 -0.337309 -0.000001
v 0.727633 -0.314053 -0.000001
v 0.700703 -0.287654 -0.000001
v 0.679464 -0.258228 -0.000001
v 0.664086 -0.225890 -0.000001
v 0.654737 -0.190756 -0.000001
v 0.651583 -0.152943 -0.000001
v 0.652984 -0.128207 -0.000001
v 0.657311 -0.104192 -0.000001
v 0.664753 -0.081031 -0.000001
v 0.675498 -0.058859 -0.000001
v 0.689734 -0.037811 -0.000001
v 0.707647 -0.018019 -0.000001
v 0.729428 0.000380 -0.000001
v 0.755263 0.017254 -0.000001
v 0.785341 0.032467 -0.000001
v 0.819849 0.045886 -0.000001
v 0.858976 0.057375 -0.000001
v 0.902909 0.066802 -0.000001
v 0.944672 0.074616 -0.000001
v 0.982944 0.082290 -0.000001
v 1.017698 0.089903 -0.000001
v 1.048908 0.097534 -0.000001
v 1.076547 0.105263 -0.000001
v 1.100588 0.113168 -0.000001
v 1.121003 0.121330 -0.000001
v 1.137768 0.129828 -0.000001
v 1.150853 0.138741 -0.000001
v 1.160233 0.148148 -0.000001
v 1.165881 0.158129 -0.000001
v 1.167768 0.168764 -0.000001
v 1.163061 0.189128 -0.000001
v 1.149760 0.204370 -0.000001
v 1.129103 0.215597 -0.000001
v 1.102323 0.223911 -0.000001
v 1.070657 0.230419 -0.000001
v 1.035339 0.236225 -0.000001
v 0.997604 0.242434 -0.000001
v 0.958687 0.250151 -0.000001
v 0.919825 0.260480 -0.000001
v 0.882251 0.274526 -0.000001
v 0.847202 0.293395 -0.000001
v 0.815912 0.318190 -0.000001
v 0.805786 0.328197 -0.000001
v 0.795800 0.339644 -0.000001
v 0.786097 0.352360 -0.000001
v 0.776816 0.366176 -0.000001
v 0.768100 0.380919 -0.000001
v 0.760088 0.396419 -0.000001
v 0.752922 0.412505 -0.000001
v 0.746743 0.429007 -0.000001
v 0.741691 0.445752 -0.000001
v 0.737908 0.462571 -0.000001
v 0.735536 0.479291 -0.000001
v 0.734714 0.495744 -0.000001
v 0.735209 0.511992 -0.000001
v 0.736745 0.527428 -0.000001
v 0.739396 0.542193 -0.000001
v 0.743235 0.556426 -0.000001
v 0.748335 0.570269 -0.000001
v 0.754772 0.583862 -0.000001
v 0.762618 0.597344 -0.000001
v 0.771947 0.610858 -0.000001
v 0.782835 0.624542 -0.000001
v 0.795353 0.638537 -0.000001
v 0.809576 0.652985 -0.000001
v 0.825578 0.668024 -0.000001
v 0.647716 0.668024 -0.000001
v 0.889376 0.515081 -0.000001
v 0.890801 0.494081 -0.000001
v 0.894979 0.474233 -0.000001
v 0.901761 0.455668 -0.000001
v 0.911000 0.438513 -0.000001
v 0.922548 0.422895 -0.000001
v 0.936258 0.408945 -0.000001
v 0.951982 0.396789 -0.000001
v 0.969571 0.386555 -0.000001
v 0.988879 0.378373 -0.000001
v 1.009758 0.372369 -0.000001
v 1.032061 0.368673 -0.000001
v 1.055639 0.367413 -0.000001
v 1.080992 0.368604 -0.000001
v 1.104776 0.372109 -0.000001
v 1.126868 0.377823 -0.000001
v 1.147147 0.385644 -0.000001
v 1.165493 0.395466 -0.000001
v 1.181785 0.407187 -0.000001
v 1.195902 0.420702 -0.000001
v 1.207723 0.435908 -0.000001
v 1.217128 0.452701 -0.000001
v 1.223995 0.470978 -0.000001
v 1.228204 0.490634 -0.000001
v 1.229634 0.511566 -0.000001
v 1.228057 0.530616 -0.000001
v 1.223467 0.548971 -0.000001
v 1.216071 0.566447 -0.000001
v 1.206076 0.582861 -0.000001
v 1.193692 0.598029 -0.000001
v 1.179127 0.611769 -0.000001
v 1.162588 0.623898 -0.000001
v 1.144283 0.634232 -0.000001
v 1.124421 0.642588 -0.000001
v 1.103210 0.648784 -0.000001
v 1.080858 0.652636 -0.000001
v 1.057572 0.653960 -0.000001
v 1.035175 0.652671 -0.000001
v 1.013563 0.648922 -0.000001
v 0.992958 0.642890 -0.000001
v 0.973581 0.634753 -0.000001
v 0.955655 0.624686 -0.000001
v 0.939400 0.612868 -0.000001
v 0.925038 0.599475 -0.000001
v 0.912790 0.584684 -0.000001
v 0.902879 0.568672 -0.000001
v 0.895525 0.551616 -0.000001
v 0.890951 0.533694 -0.000001
v 0.817845 -0.165248 -0.000001
v 0.819682 -0.182638 -0.000001
v 0.825130 -0.198739 -0.000001
v 0.834097 -0.213510 -0.000001
v 0.846486 -0.226907 -0.000001
v 0.862205 -0.238888 -0.000001
v 0.881160 -0.249411 -0.000001
v 0.903256 -0.258431 -0.000001
v 0.928400 -0.265908 -0.000001
v 0.956497 -0.271797 -0.000001
v 0.987454 -0.276057 -0.000001
v 1.021177 -0.278644 -0.000001
v 1.057572 -0.279516 -0.000001
v 1.095223 -0.278640 -0.000001
v 1.129846 -0.276024 -0.000001
v 1.161395 -0.271687 -0.000001
v 1.189822 -0.265647 -0.000001
v 1.215081 -0.257923 -0.000001
v 1.237125 -0.248532 -0.000001
v 1.255906 -0.237493 -0.000001
v 1.271378 -0.224824 -0.000001
v 1.283494 -0.210543 -0.000001
v 1.292206 -0.194670 -0.000001
v 1.297467 -0.177221 -0.000001
v 1.299232 -0.158217 -0.000001
v 1.297567 -0.141093 -0.000001
v 1.292680 -0.124946 -0.000001
v 1.284732 -0.109873 -0.000001
v 1.273884 -0.095972 -0.000001
v 1.260298 -0.083341 -0.000001
v 1.244133 -0.072077 -0.000001
v 1.225552 -0.062278 -0.000001
v 1.204715 -0.054041 -0.000001
v 1.181785 -0.047465 -0.000001
v 1.156920 -0.042647 -0.000001
v 1.130284 -0.039685 -0.000001
v 1.102037 -0.038675 -0.000001
v 1.074108 -0.039252 -0.000001
v 1.044065 -0.041093 -0.000001
v 1.012774 -0.044361 -0.000001
v 0.981100 -0.049223 -0.000001
v 0.949909 -0.055843 -0.000001
v 0.920067 -0.064386 -0.000001
v 0.892441 -0.075016 -0.000001
v 0.867895 -0.087898 -0.000001
v 0.847297 -0.103198 -0.000001
v 0.831512 -0.121080 -0.000001
v 0.821406 -0.141708 -0.000001
v 2.138276 0.789323 -0.000000
v 2.310338 0.789323 -0.000000
v 2.310338 -0.000000 -0.000000
v 2.138276 -0.000000 -0.000000
v 2.138276 0.566062 -0.000000
v 2.118398 0.585667 -0.000000
v 2.099279 0.603216 -0.000000
v 2.080791 0.618774 -0.000000
v 2.062806 0.632409 -0.000000
v 2.045197 0.644189 -0.000000
v 2.027837 0.654180 -0.000000
v 2.010597 0.662450 -0.000000
v 1.993351 0.669066 -0.000000
v 1.975971 0.674094 -0.000000
v 1.958328 0.677603 -0.000000
v 1.940297 0.679659 -0.000000
v 1.921748 0.680330 -0.000000
v 1.896470 0.678775 -0.000000
v 1.872897 0.674193 -0.000000
v 1.851123 0.666705 -0.000000
v 1.831242 0.656434 -0.000000
v 1.813348 0.643502 -0.000000
v 1.797535 0.628030 -0.000000
v 1.783896 0.610141 -0.000000
v 1.772527 0.589957 -0.000000
v 1.763521 0.567600 -0.000000
v 1.756972 0.543193 -0.000000
v 1.752973 0.516856 -0.000000
v 1.751619 0.488712 -0.000000
v 1.751619 -0.000000 -0.000000
v 1.579557 -0.000000 -0.000001
v 1.579557 0.486954 -0.000000
v 1.582239 0.538638 -0.000000
v 1.590056 0.585603 -0.000000
v 1.602666 0.627893 -0.000000
v 1.619727 0.665550 -0.000000
v 1.640895 0.698616 -0.000000
v 1.665830 0.727135 -0.000000
v 1.694188 0.751149 -0.000000
v 1.725628 0.770702 -0.000000
v 1.759806 0.785835 -0.000000
v 1.796380 0.796591 -0.000000
v 1.835009 0.803013 -0.000000
v 1.875349 0.805145 -0.000000
v 1.899498 0.804236 -0.000000
v 1.923538 0.801539 -0.000000
v 1.947364 0.797097 -0.000000
v 1.970868 0.790951 -0.000000
v 1.993942 0.783145 -0.000000
v 2.016479 0.773721 -0.000000
v 2.038372 0.762723 -0.000000
v 2.059512 0.750192 -0.000000
v 2.079794 0.736172 -0.000000
v 2.099109 0.720706 -0.000000
v 2.117350 0.703835 -0.000000
v 2.134409 0.685603 -0.000000
v 2.138276 0.685603 -0.000000
v 2.536531 1.028405 -0.000000
v 2.537477 1.040948 -0.000000
v 2.540228 1.053009 -0.000000
v 2.544657 1.064471 -0.000000
v 2.550637 1.075219 -0.000000
v 2.558040 1.085137 -0.000000
v 2.566739 1.094109 -0.000000
v 2.576605 1.102019 -0.000000
v 2.587512 1.108751 -0.000000
v 2.599333 1.114188 -0.000000
v 2.611938 1.118216 -0.000000
v 2.625201 1.120718 -0.000000
v 2.638995 1.121577 -0.000000
v 2.652789 1.120718 -0.000000
v 2.666052 1.118216 -0.000000
v 2.678658 1.114188 -0.000000
v 2.690478 1.108751 -0.000000
v 2.701385 1.102019 -0.000000
v 2.711251 1.094109 -0.000000
v 2.719950 1.085137 -0.000000
v 2.727353 1.075219 -0.000000
v 2.733333 1.064471 -0.000000
v 2.737762 1.053009 -0.000000
v 2.740514 1.040948 -0.000000
v 2.741459 1.028405 -0.000000
v 2.740514 1.015863 -0.000000
v 2.737763 1.003802 -0.000000
v 2.733333 0.992340 -0.000000
v 2.727353 0.981592 -0.000000
v 2.719950 0.971674 -0.000000
v 2.711252 0.962702 -0.000000
v 2.701385 0.954792 -0.000000
v 2.690478 0.948060 -0.000000
v 2.678658 0.942622 -0.000000
v 2.666052 0.938595 -0.000000
v 2.652789 0.936093 -0.000000
v 2.638995 0.935234 -0.000000
v 2.625202 0.936093 -0.000000
v 2.611938 0.938595 -0.000000
v 2.599333 0.942623 -0.000000
v 2.587513 0.948060 -0.000000
v 2.576606 0.954792 -0.000000
v 2.566739 0.962702 -0.000000
v 2.558040 0.971674 -0.000000
v 2.550637 0.981592 -0.000000
v 2.544657 0.992340 -0.000000
v 2.540228 1.003802 -0.000000
v 2.537477 1.015863 -0.000000
v 2.553931 0.789323 -0.000000
v 2.725993 0.789323 -0.000000
v 2.725993 -0.000000 -0.000000
v 2.553931 -0.000000 -0.000000
v 2.977319 1.198928 -0.000000
v 3.149381 1.198928 -0.000000
v 3.149381 -0.000000 -0.000000
v 2.977319 -0.000000 -0.000000
v 3.400708 1.198928 -0.000000
v 3.572770 1.198928 -0.000000
v 3.572770 -0.000000 -0.000000
v 3.400708 -0.000000 -0.000000
v 3.729366 0.140637 -0.000000
v 3.738944 0.134267 -0.000000
v 3.748313 0.128355 -0.000000
v 3.757428 0.122920 -0.000000
v 3.766241 0.117978 -0.000000
v 3.774705 0.113550 -0.000000
v 3.782773 0.109653 -0.000000
v 3.790397 0.106304 -0.000000
v 3.797532 0.103524 -0.000000
v 3.804129 0.101330 -0.000000
v 3.810143 0.099740 -0.000000
v 3.815525 0.098772 -0.000000
v 3.820230 0.098446 -0.000000
v 3.825344 0.098670 -0.000000
v 3.830048 0.099365 -0.000000
v 3.834337 0.100561 -0.000000
v 3.838202 0.102287 -0.000000
v 3.841638 0.104575 -0.000000
v 3.844637 0.107455 -0.000000
v 3.847194 0.110958 -0.000000
v 3.849300 0.115114 -0.000000
v 3.850951 0.119953 -0.000000
v 3.852138 0.125507 -0.000000
v 3.852855 0.131805 -0.000000
v 3.853096 0.138879 -0.000000
v 3.853096 0.544967 -0.000000
v 3.855936 0.587754 -0.000000
v 3.864221 0.626500 -0.000000
v 3.877594 0.661267 -0.000000
v 3.895699 0.692115 -0.000000
v 3.918181 0.719105 -0.000000
v 3.944685 0.742298 -0.000000
v 3.974853 0.761755 -0.000000
v 4.008330 0.777538 -0.000000
v 4.044762 0.789708 -0.000000
v 4.083791 0.798325 -0.000000
v 4.125062 0.803450 -0.000000
v 4.168220 0.805145 -0.000000
v 4.198994 0.804411 -0.000000
v 4.228492 0.802207 -0.000000
v 4.256728 0.798525 -0.000000
v 4.283716 0.793360 -0.000000
v 4.309468 0.786706 -0.000000
v 4.333999 0.778556 -0.000000
v 4.357322 0.768904 -0.000000
v 4.379449 0.757745 -0.000000
v 4.400395 0.745072 -0.000000
v 4.420173 0.730879 -0.000000
v 4.438797 0.715160 -0.000000
v 4.456279 0.697909 -0.000000
v 4.456279 0.527387 -0.000000
v 4.435224 0.548781 -0.000000
v 4.413657 0.568154 -0.000000
v 4.391635 0.585537 -0.000000
v 4.369210 0.600961 -0.000000
v 4.346436 0.614456 -0.000000
v 4.323366 0.626053 -0.000000
v 4.300055 0.635782 -0.000000
v 4.276556 0.643673 -0.000000
v 4.252922 0.649758 -0.000000
v 4.229208 0.654066 -0.000000
v 4.205467 0.656629 -0.000000
v 4.181753 0.657476 -0.000000
v 4.156741 0.656624 -0.000000
v 4.133904 0.654026 -0.000000
v 4.113243 0.649621 -0.000000
v 4.094756 0.643348 -0.000000
v 4.078444 0.635146 -0.000000
v 4.064306 0.624954 -0.000000
v 4.052344 0.612712 -0.000000
v 4.042557 0.598357 -0.000000
v 4.034945 0.581829 -0.000000
v 4.029507 0.563068 -0.000000
v 4.026245 0.542011 -0.000000
v 4.025157 0.518598 -0.000000
v 4.025157 0.476407 -0.000000
v 4.177886 0.427184 -0.000000
v 4.212947 0.415658 -0.000000
v 4.248129 0.403687 -0.000000
v 4.282827 0.390898 -0.000000
v 4.316439 0.376919 -0.000000
v 4.348358 0.361377 -0.000000
v 4.377981 0.343901 -0.000000
v 4.404705 0.324116 -0.000000
v 4.427924 0.301653 -0.000000
v 4.447036 0.276137 -0.000000
v 4.461435 0.247197 -0.000000
v 4.470517 0.214460 -0.000000
v 4.473679 0.177554 -0.000000
v 4.471931 0.152330 -0.000000
v 4.466787 0.127826 -0.000000
v 4.458394 0.104324 -0.000000
v 4.446899 0.082103 -0.000000
v 4.432451 0.061445 -0.000000
v 4.415197 0.042630 -0.000000
v 4.395285 0.025940 -0.000000
v 4.372862 0.011655 -0.000000
v 4.348076 0.000055 -0.000000
v 4.321075 -0.008578 -0.000000
v 4.292006 -0.013964 -0.000000
v 4.261018 -0.015822 -0.000000
v 4.241204 -0.015271 -0.000000
v 4.221404 -0.013616 -0.000000
v 4.201630 -0.010850 -0.000000
v 4.181897 -0.006967 -0.000000
v 4.162217 -0.001960 -0.000000
v 4.142604 0.004175 -0.000000
v 4.123073 0.011446 -0.000000
v 4.103634 0.019858 -0.000000
v 4.084304 0.029418 -0.000000
v 4.065094 0.040132 -0.000000
v 4.046019 0.052005 -0.000000
v 4.027091 0.065044 -0.000000
v 4.022695 0.051636 -0.000000
v 4.017219 0.039521 -0.000000
v 4.010628 0.028677 -0.000000
v 4.002889 0.019077 -0.000000
v 3.993969 0.010698 -0.000000
v 3.983834 0.003516 -0.000000
v 3.972450 -0.002495 -0.000000
v 3.959784 -0.007357 -0.000000
v 3.945802 -0.011097 -0.000000
v 3.930471 -0.013738 -0.000000
v 3.913758 -0.015305 -0.000000
v 3.895627 -0.015822 -0.000000
v 3.882499 -0.015518 -0.000000
v 3.870020 -0.014560 -0.000000
v 3.857959 -0.012883 -0.000000
v 3.846078 -0.010418 -0.000000
v 3.834144 -0.007098 -0.000000
v 3.821921 -0.002857 -0.000000
v 3.809175 0.002373 -0.000000
v 3.795670 0.008659 -0.000000
v 3.781171 0.016069 -0.000000
v 3.765445 0.024668 -0.000000
v 3.748254 0.034525 -0.000000
v 3.729366 0.045707 -0.000000
v 4.025157 0.159974 -0.000000
v 4.036838 0.150201 -0.000000
v 4.048679 0.141117 -0.000000
v 4.060681 0.132753 -0.000000
v 4.072845 0.125141 -0.000000
v 4.085170 0.118309 -0.000000
v 4.097655 0.112290 -0.000000
v 4.110302 0.107112 -0.000000
v 4.123110 0.102808 -0.000000
v 4.136079 0.099407 -0.000000
v 4.149209 0.096940 -0.000000
v 4.162501 0.095437 -0.000000
v 4.175953 0.094930 -0.000000
v 4.193415 0.095867 -0.000000
v 4.209956 0.098617 -0.000000
v 4.225463 0.103088 -0.000000
v 4.239823 0.109189 -0.000000
v 4.252921 0.116828 -0.000000
v 4.264643 0.125914 -0.000000
v 4.274874 0.136355 -0.000000
v 4.283501 0.148059 -0.000000
v 4.290410 0.160936 -0.000000
v 4.295485 0.174892 -0.000000
v 4.298615 0.189838 -0.000000
v 4.299684 0.205681 -0.000000
v 4.297088 0.228013 -0.000000
v 4.289552 0.248531 -0.000000
v 4.277451 0.267402 -0.000000
v 4.261161 0.284789 -0.000000
v 4.241058 0.300858 -0.000000
v 4.217519 0.315773 -0.000000
v 4.190918 0.329700 -0.000000
v 4.161633 0.342802 -0.000000
v 4.130038 0.355245 -0.000000
v 4.096510 0.367193 -0.000000
v 4.061424 0.378813 -0.000000
v 4.025157 0.390267 -0.000000
v 4.435013 1.198928 -0.000000
v 4.471640 1.207152 -0.000000
v 4.506186 1.212568 -0.000000
v 4.538745 1.215299 -0.000000
v 4.569412 1.215465 -0.000000
v 4.598279 1.213191 -0.000000
v 4.625441 1.208596 -0.000000
v 4.650992 1.201805 -0.000000
v 4.675026 1.192937 0.000000
v 4.697637 1.182117 0.000000
v 4.718919 1.169466 0.000000
v 4.738966 1.155105 0.000000
v 4.757871 1.139157 0.000000
v 4.774660 1.123075 0.000000
v 4.790200 1.106309 0.000000
v 4.804451 1.088616 0.000000
v 4.817373 1.069750 0.000000
v 4.828926 1.049469 0.000000
v 4.839068 1.027527 0.000000
v 4.847762 1.003680 0.000000
v 4.854964 0.977686 0.000000
v 4.860637 0.949298 0.000000
v 4.864738 0.918273 0.000000
v 4.867229 0.884367 0.000000
v 4.868068 0.847336 0.000000
v 4.868068 0.789323 0.000000
v 4.989864 0.789323 0.000000
v 4.989864 0.648687 0.000000
v 4.868068 0.648687 0.000000
v 4.868068 -0.000000 -0.000000
v 4.696006 -0.000000 -0.000000
v 4.696006 0.648687 -0.000000
v 4.539410 0.648687 -0.000000
v 4.539410 0.789323 -0.000000
v 4.696006 0.789323 -0.000000
v 4.696006 0.864915 -0.000000
v 4.695050 0.894236 -0.000000
v 4.692068 0.921488 -0.000000
v 4.686883 0.946578 -0.000000
v 4.679322 0.969416 -0.000000
v 4.669210 0.989911 -0.000000
v 4.656374 1.007969 -0.000000
v 4.640636 1.023501 -0.000000
v 4.621825 1.036414 -0.000000
v 4.599765 1.046617 -0.000000
v 4.574281 1.054018 -0.000000
v 4.545199 1.058526 -0.000000
v 4.512344 1.060049 -0.000000
v 4.504879 1.059974 -0.000000
v 4.497890 1.059740 -0.000000
v 4.491290 1.059335 -0.000000
v 4.484992 1.058747 -0.000000
v 4.478909 1.057963 -0.000000
v 4.472954 1.056973 -0.000000
v 4.467039 1.055762 -0.000000
v 4.461076 1.054319 -0.000000
v 4.454980 1.052633 -0.000000
v 4.448662 1.050689 -0.000000
v 4.442036 1.048478 -0.000000
v 4.435013 1.045985 -0.000000
vn -0.0000 -0.0000 -1.0000
vt 0.097744 0.000000
vt 0.082707 0.000000
vt 0.090226 0.000000
vt 0.075188 0.000000
vt 0.105263 0.000000
vt 0.067669 0.000000
vt 0.060150 0.000000
vt 0.112782 0.000000
vt 0.052632 0.000000
vt 0.045113 0.000000
vt 0.120301 0.000000
vt 0.037594 0.000000
vt 0.030075 0.000000
vt 0.127820 0.000000
vt 0.022556 0.000000
vt 0.015038 0.000000
vt 0.135338 0.000000
vt 0.007519 0.000000
vt 0.000000 0.000000
vt 0.142857 0.000000
vt 0.939850 0.000000
vt 0.947368 0.000000
vt 0.954887 0.000000
vt 0.962406 0.000000
vt 0.969925 0.000000
vt 0.977444 0.000000
vt 0.984962 0.000000
vt 0.992481 0.000000
vt 1.000000 0.000000
vt 0.150376 0.000000
vt 0.924812 0.000000
vt 0.932331 0.000000
vt 0.157895 0.000000
vt 0.917293 0.000000
vt 0.165414 0.000000
vt 0.902256 0.000000
vt 0.909774 0.000000
vt 0.894737 0.000000
vt 0.887218 0.000000
vt 0.879699 0.000000
vt 0.872180 0.000000
vt 0.864662 0.000000
vt 0.172932 0.000000
vt 0.857143 0.000000
vt 0.849624 0.000000
vt 0.842105 0.000000
vt 0.834586 0.000000
vt 0.180451 0.000000
vt 0.827068 0.000000
vt 0.819549 0.000000
vt 0.812030 0.000000
vt 0.187970 0.000000
vt 0.804511 0.000000
vt 0.796992 0.000000
vt 0.789474 0.000000
vt 0.781955 0.000000
vt 0.774436 0.000000
vt 0.195489 0.000000
vt 0.766917 0.000000
vt 0.759399 0.000000
vt 0.751880 0.000000
vt 0.203008 0.000000
vt 0.744361 0.000000
vt 0.736842 0.000000
vt 0.729323 0.000000
vt 0.210526 0.000000
vt 0.721804 0.000000
vt 0.218045 0.000000
vt 0.714286 0.000000
vt 0.706767 0.000000
vt 0.225564 0.000000
vt 0.699248 0.000000
vt 0.233083 0.000000
vt 0.691729 0.000000
vt 0.684211 0.000000
vt 0.240602 0.000000
vt 0.676692 0.000000
vt 0.248120 0.000000
vt 0.669173 0.000000
vt 0.661654 0.000000
vt 0.255639 0.000000
vt 0.654135 0.000000
vt 0.263158 0.000000
vt 0.646617 0.000000
vt 0.270677 0.000000
vt 0.639098 0.000000
vt 0.458647 0.000000
vt 0.443609 0.000000
vt 0.451128 0.000000
vt 0.631579 0.000000
vt 0.278196 0.000000
vt 0.436090 0.000000
vt 0.285714 0.000000
vt 0.428571 0.000000
vt 0.293233 0.000000
vt 0.624060 0.000000
vt 0.421053 0.000000
vt 0.300752 0.000000
vt 0.413534 0.000000
vt 0.308271 0.000000
vt 0.406015 0.000000
vt 0.315789 0.000000
vt 0.616541 0.000000
vt 0.398496 0.000000
vt 0.323308 0.000000
vt 0.330827 0.000000
vt 0.390977 0.000000
vt 0.338346 0.000000
vt 0.383459 0.000000
vt 0.345865 0.000000
vt 0.375940 0.000000
vt 0.353383 0.000000
vt 0.368421 0.000000
vt 0.360902 0.000000
vt 0.609023 0.000000
vt 0.601504 0.000000
vt 0.593985 0.000000
vt 0.466165 0.000000
vt 0.586466 0.000000
vt 0.473684 0.000000
vt 0.481203 0.000000
vt 0.578947 0.000000
vt 0.488722 0.000000
vt 0.496241 0.000000
vt 0.571429 0.000000
vt 0.503759 0.000000
vt 0.563910 0.000000
vt 0.511278 0.000000
vt 0.518797 0.000000
vt 0.556391 0.000000
vt 0.526316 0.000000
vt 0.533835 0.000000
vt 0.548872 0.000000
vt 0.541353 0.000000
vt 0.666667 0.000000
vt 0.444444 0.000000
vt 0.555556 0.000000
vt 0.777778 0.000000
vt 0.888889 0.000000
vt 0.222222 0.000000
vt 0.111111 0.000000
vt 0.333333 0.000000
vt 0.134021 0.000000
vt 0.113402 0.000000
vt 0.123711 0.000000
vt 0.103093 0.000000
vt 0.092784 0.000000
vt 0.144330 0.000000
vt 0.082474 0.000000
vt 0.072165 0.000000
vt 0.061856 0.000000
vt 0.154639 0.000000
vt 0.051546 0.000000
vt 0.041237 0.000000
vt 0.030928 0.000000
vt 0.164948 0.000000
vt 0.020619 0.000000
vt 0.010309 0.000000
vt 0.175258 0.000000
vt 0.917526 0.000000
vt 0.927835 0.000000
vt 0.938144 0.000000
vt 0.948454 0.000000
vt 0.958763 0.000000
vt 0.969072 0.000000
vt 0.979381 0.000000
vt 0.989691 0.000000
vt 0.185567 0.000000
vt 0.896907 0.000000
vt 0.907216 0.000000
vt 0.195876 0.000000
vt 0.876289 0.000000
vt 0.886598 0.000000
vt 0.865979 0.000000
vt 0.855670 0.000000
vt 0.845361 0.000000
vt 0.206186 0.000000
vt 0.835052 0.000000
vt 0.824742 0.000000
vt 0.814433 0.000000
vt 0.216495 0.000000
vt 0.804124 0.000000
vt 0.793814 0.000000
vt 0.226804 0.000000
vt 0.783505 0.000000
vt 0.773196 0.000000
vt 0.237113 0.000000
vt 0.762887 0.000000
vt 0.247423 0.000000
vt 0.752577 0.000000
vt 0.742268 0.000000
vt 0.257732 0.000000
vt 0.731959 0.000000
vt 0.268041 0.000000
vt 0.721649 0.000000
vt 0.711340 0.000000
vt 0.278351 0.000000
vt 0.701031 0.000000
vt 0.690722 0.000000
vt 0.288660 0.000000
vt 0.680412 0.000000
vt 0.515464 0.000000
vt 0.494845 0.000000
vt 0.505155 0.000000
vt 0.670103 0.000000
vt 0.525773 0.000000
vt 0.298969 0.000000
vt 0.536082 0.000000
vt 0.659794 0.000000
vt 0.546392 0.000000
vt 0.556701 0.000000
vt 0.567010 0.000000
vt 0.649485 0.000000
vt 0.577320 0.000000
vt 0.587629 0.000000
vt 0.639175 0.000000
vt 0.597938 0.000000
vt 0.608247 0.000000
vt 0.628866 0.000000
vt 0.618557 0.000000
vt 0.309278 0.000000
vt 0.319588 0.000000
vt 0.329897 0.000000
vt 0.340206 0.000000
vt 0.484536 0.000000
vt 0.474227 0.000000
vt 0.463918 0.000000
vt 0.350515 0.000000
vt 0.453608 0.000000
vt 0.443299 0.000000
vt 0.432990 0.000000
vt 0.422680 0.000000
vt 0.360825 0.000000
vt 0.412371 0.000000
vt 0.402062 0.000000
vt 0.391753 0.000000
vt 0.371134 0.000000
vt 0.381443 0.000000
vt 0.010526 0.000000
vt 0.494737 0.000000
vt 0.484211 0.000000
vt 0.021053 0.000000
vt 0.031579 0.000000
vt 0.463158 0.000000
vt 0.042105 0.000000
vt 0.452632 0.000000
vt 0.442105 0.000000
vt 0.063158 0.000000
vt 0.431579 0.000000
vt 0.073684 0.000000
vt 0.505263 0.000000
vt 0.515789 0.000000
vt 0.989474 0.000000
vt 0.978947 0.000000
vt 0.536842 0.000000
vt 0.084211 0.000000
vt 0.968421 0.000000
vt 0.547368 0.000000
vt 0.957895 0.000000
vt 0.557895 0.000000
vt 0.568421 0.000000
vt 0.410526 0.000000
vt 0.094737 0.000000
vt 0.936842 0.000000
vt 0.926316 0.000000
vt 0.589474 0.000000
vt 0.400000 0.000000
vt 0.915789 0.000000
vt 0.600000 0.000000
vt 0.389474 0.000000
vt 0.115789 0.000000
vt 0.905263 0.000000
vt 0.610526 0.000000
vt 0.621053 0.000000
vt 0.378947 0.000000
vt 0.126316 0.000000
vt 0.884211 0.000000
vt 0.136842 0.000000
vt 0.873684 0.000000
vt 0.642105 0.000000
vt 0.863158 0.000000
vt 0.652632 0.000000
vt 0.147368 0.000000
vt 0.357895 0.000000
vt 0.852632 0.000000
vt 0.663158 0.000000
vt 0.673684 0.000000
vt 0.347368 0.000000
vt 0.831579 0.000000
vt 0.168421 0.000000
vt 0.336842 0.000000
vt 0.821053 0.000000
vt 0.694737 0.000000
vt 0.810526 0.000000
vt 0.705263 0.000000
vt 0.178947 0.000000
vt 0.326316 0.000000
vt 0.800000 0.000000
vt 0.715789 0.000000
vt 0.726316 0.000000
vt 0.778947 0.000000
vt 0.189474 0.000000
vt 0.768421 0.000000
vt 0.747368 0.000000
vt 0.757895 0.000000
vt 0.200000 0.000000
vt 0.305263 0.000000
vt 0.294737 0.000000
vt 0.221053 0.000000
vt 0.284211 0.000000
vt 0.231579 0.000000
vt 0.273684 0.000000
vt 0.242105 0.000000
vt 0.252632 0.000000
vt 0.020202 0.000000
vt 0.010101 0.000000
vt 0.505050 0.000000
vt 0.393939 0.000000
vt 0.373737 0.000000
vt 0.383838 0.000000
vt 0.404040 0.000000
vt 0.414141 0.000000
vt 0.363636 0.000000
vt 0.424242 0.000000
vt 0.434343 0.000000
vt 0.353535 0.000000
vt 0.454545 0.000000
vt 0.464646 0.000000
vt 0.343434 0.000000
vt 0.474747 0.000000
vt 0.484848 0.000000
vt 0.494949 0.000000
vt 0.515152 0.000000
vt 0.525253 0.000000
vt 0.535354 0.000000
vt 0.545455 0.000000
vt 0.565657 0.000000
vt 0.575758 0.000000
vt 0.585859 0.000000
vt 0.595960 0.000000
vt 0.606061 0.000000
vt 0.616162 0.000000
vt 0.323232 0.000000
vt 0.626263 0.000000
vt 0.636364 0.000000
vt 0.313131 0.000000
vt 0.646465 0.000000
vt 0.656566 0.000000
vt 0.303030 0.000000
vt 0.676768 0.000000
vt 0.686869 0.000000
vt 0.292929 0.000000
vt 0.696970 0.000000
vt 0.707071 0.000000
vt 0.282828 0.000000
vt 0.717172 0.000000
vt 0.727273 0.000000
vt 0.272727 0.000000
vt 0.737374 0.000000
vt 0.747475 0.000000
vt 0.262626 0.000000
vt 0.757576 0.000000
vt 0.252525 0.000000
vt 0.767677 0.000000
vt 0.242424 0.000000
vt 0.787879 0.000000
vt 0.232323 0.000000
vt 0.797980 0.000000
vt 0.808081 0.000000
vt 0.818182 0.000000
vt 0.828283 0.000000
vt 0.838384 0.000000
vt 0.212121 0.000000
vt 0.848485 0.000000
vt 0.989899 0.000000
vt 0.979798 0.000000
vt 0.858586 0.000000
vt 0.969697 0.000000
vt 0.959596 0.000000
vt 0.949495 0.000000
vt 0.939394 0.000000
vt 0.868687 0.000000
vt 0.929293 0.000000
vt 0.202020 0.000000
vt 0.919192 0.000000
vt 0.909091 0.000000
vt 0.878788 0.000000
vt 0.898990 0.000000
vt 0.191919 0.000000
vt 0.181818 0.000000
vt 0.030303 0.000000
vt 0.171717 0.000000
vt 0.040404 0.000000
vt 0.050505 0.000000
vt 0.060606 0.000000
vt 0.161616 0.000000
vt 0.070707 0.000000
vt 0.080808 0.000000
vt 0.090909 0.000000
vt 0.151515 0.000000
vt 0.101010 0.000000
vt 0.121212 0.000000
vt 0.141414 0.000000
vt 0.131313 0.000000
vt 0.007843 0.000000
vt 0.003922 0.000000
vt 0.623529 0.000000
vt 0.011765 0.000000
vt 0.015686 0.000000
vt 0.019608 0.000000
vt 0.023529 0.000000
vt 0.027451 0.000000
vt 0.031373 0.000000
vt 0.035294 0.000000
vt 0.619608 0.000000
vt 0.615686 0.000000
vt 0.039216 0.000000
vt 0.764706 0.000000
vt 0.768627 0.000000
vt 0.772549 0.000000
vt 0.611765 0.000000
vt 0.776471 0.000000
vt 0.760784 0.000000
vt 0.780392 0.000000
vt 0.756863 0.000000
vt 0.784314 0.000000
vt 0.752941 0.000000
vt 0.607843 0.000000
vt 0.788235 0.000000
vt 0.749020 0.000000
vt 0.043137 0.000000
vt 0.792157 0.000000
vt 0.603922 0.000000
vt 0.745098 0.000000
vt 0.796078 0.000000
vt 0.741176 0.000000
vt 0.737255 0.000000
vt 0.596078 0.000000
vt 0.047059 0.000000
vt 0.803922 0.000000
vt 0.592157 0.000000
vt 0.733333 0.000000
vt 0.588235 0.000000
vt 0.807843 0.000000
vt 0.729412 0.000000
vt 0.050980 0.000000
vt 0.584314 0.000000
vt 0.811765 0.000000
vt 0.725490 0.000000
vt 0.580392 0.000000
vt 0.627451 0.000000
vt 0.721569 0.000000
vt 0.576471 0.000000
vt 0.054902 0.000000
vt 0.631373 0.000000
vt 0.572549 0.000000
vt 0.717647 0.000000
vt 0.058824 0.000000
vt 0.568627 0.000000
vt 0.635294 0.000000
vt 0.713726 0.000000
vt 0.062745 0.000000
vt 0.564706 0.000000
vt 0.066667 0.000000
vt 0.639216 0.000000
vt 0.709804 0.000000
vt 0.560784 0.000000
vt 0.070588 0.000000
vt 0.643137 0.000000
vt 0.705882 0.000000
vt 0.074510 0.000000
vt 0.556863 0.000000
vt 0.647059 0.000000
vt 0.078431 0.000000
vt 0.701961 0.000000
vt 0.552941 0.000000
vt 0.082353 0.000000
vt 0.650980 0.000000
vt 0.698039 0.000000
vt 0.086275 0.000000
vt 0.549020 0.000000
vt 0.654902 0.000000
vt 0.694118 0.000000
vt 0.090196 0.000000
vt 0.658824 0.000000
vt 0.545098 0.000000
vt 0.690196 0.000000
vt 0.094118 0.000000
vt 0.662745 0.000000
vt 0.686275 0.000000
vt 0.541176 0.000000
vt 0.098039 0.000000
vt 0.682353 0.000000
vt 0.670588 0.000000
vt 0.678431 0.000000
vt 0.101961 0.000000
vt 0.674510 0.000000
vt 0.537255 0.000000
vt 0.105882 0.000000
vt 0.533333 0.000000
vt 0.109804 0.000000
vt 0.529412 0.000000
vt 0.113725 0.000000
vt 0.117647 0.000000
vt 0.525490 0.000000
vt 0.121569 0.000000
vt 0.521569 0.000000
vt 0.125490 0.000000
vt 0.129412 0.000000
vt 0.133333 0.000000
vt 0.517647 0.000000
vt 0.137255 0.000000
vt 0.141176 0.000000
vt 0.145098 0.000000
vt 0.513726 0.000000
vt 0.149020 0.000000
vt 0.152941 0.000000
vt 0.156863 0.000000
vt 0.509804 0.000000
vt 0.160784 0.000000
vt 0.505882 0.000000
vt 0.164706 0.000000
vt 0.501961 0.000000
vt 0.168627 0.000000
vt 0.498039 0.000000
vt 0.172549 0.000000
vt 0.494118 0.000000
vt 0.490196 0.000000
vt 0.176471 0.000000
vt 0.486275 0.000000
vt 0.180392 0.000000
vt 0.482353 0.000000
vt 0.184314 0.000000
vt 0.188235 0.000000
vt 0.478431 0.000000
vt 0.192157 0.000000
vt 0.474510 0.000000
vt 0.196078 0.000000
vt 0.470588 0.000000
vt 0.466667 0.000000
vt 0.203922 0.000000
vt 0.462745 0.000000
vt 0.207843 0.000000
vt 0.458824 0.000000
vt 0.211765 0.000000
vt 0.454902 0.000000
vt 0.215686 0.000000
vt 0.450980 0.000000
vt 0.219608 0.000000
vt 0.447059 0.000000
vt 0.223529 0.000000
vt 0.443137 0.000000
vt 0.227451 0.000000
vt 0.439216 0.000000
vt 0.231373 0.000000
vt 0.435294 0.000000
vt 0.235294 0.000000
vt 0.431373 0.000000
vt 0.239216 0.000000
vt 0.427451 0.000000
vt 0.243137 0.000000
vt 0.423529 0.000000
vt 0.247059 0.000000
vt 0.419608 0.000000
vt 0.250980 0.000000
vt 0.254902 0.000000
vt 0.415686 0.000000
vt 0.258824 0.000000
vt 0.411765 0.000000
vt 0.262745 0.000000
vt 0.407843 0.000000
vt 0.266667 0.000000
vt 0.403922 0.000000
vt 0.270588 0.000000
vt 0.956863 0.000000
vt 0.960784 0.000000
vt 0.952941 0.000000
vt 0.964706 0.000000
vt 0.949020 0.000000
vt 0.968627 0.000000
vt 0.945098 0.000000
vt 0.274510 0.000000
vt 0.972549 0.000000
vt 0.941176 0.000000
vt 0.976471 0.000000
vt 0.937255 0.000000
vt 0.980392 0.000000
vt 0.396078 0.000000
vt 0.933333 0.000000
vt 0.984314 0.000000
vt 0.278431 0.000000
vt 0.929412 0.000000
vt 0.988235 0.000000
vt 0.392157 0.000000
vt 0.925490 0.000000
vt 0.282353 0.000000
vt 0.992157 0.000000
vt 0.921569 0.000000
vt 0.996078 0.000000
vt 0.388235 0.000000
vt 0.917647 0.000000
vt 0.286275 0.000000
vt 0.913725 0.000000
vt 0.384314 0.000000
vt 0.290196 0.000000
vt 0.909804 0.000000
vt 0.815686 0.000000
vt 0.380392 0.000000
vt 0.905882 0.000000
vt 0.294118 0.000000
vt 0.819608 0.000000
vt 0.901961 0.000000
vt 0.823529 0.000000
vt 0.376471 0.000000
vt 0.898039 0.000000
vt 0.827451 0.000000
vt 0.298039 0.000000
vt 0.894118 0.000000
vt 0.831373 0.000000
vt 0.890196 0.000000
vt 0.372549 0.000000
vt 0.835294 0.000000
vt 0.301961 0.000000
vt 0.886275 0.000000
vt 0.839216 0.000000
vt 0.882353 0.000000
vt 0.843137 0.000000
vt 0.878431 0.000000
vt 0.368627 0.000000
vt 0.847059 0.000000
vt 0.305882 0.000000
vt 0.874510 0.000000
vt 0.850980 0.000000
vt 0.870588 0.000000
vt 0.854902 0.000000
vt 0.866667 0.000000
vt 0.858824 0.000000
vt 0.862745 0.000000
vt 0.364706 0.000000
vt 0.309804 0.000000
vt 0.360784 0.000000
vt 0.313726 0.000000
vt 0.317647 0.000000
vt 0.356863 0.000000
vt 0.321569 0.000000
vt 0.352941 0.000000
vt 0.325490 0.000000
vt 0.349020 0.000000
vt 0.329412 0.000000
vt 0.345098 0.000000
vt 0.341176 0.000000
vt 0.337255 0.000000
vt 0.785714 0.000000
vt 0.750000 0.000000
vt 0.767857 0.000000
vt 0.803571 0.000000
vt 0.732143 0.000000
vt 0.821429 0.000000
vt 0.839286 0.000000
vt 0.035714 0.000000
vt 0.017857 0.000000
vt 0.696429 0.000000
vt 0.875000 0.000000
vt 0.892857 0.000000
vt 0.678571 0.000000
vt 0.910714 0.000000
vt 0.660714 0.000000
vt 0.928571 0.000000
vt 0.946429 0.000000
vt 0.642857 0.000000
vt 0.964286 0.000000
vt 0.982143 0.000000
vt 0.625000 0.000000
vt 0.071429 0.000000
vt 0.089286 0.000000
vt 0.107143 0.000000
vt 0.125000 0.000000
vt 0.160714 0.000000
vt 0.178571 0.000000
vt 0.196429 0.000000
vt 0.214286 0.000000
vt 0.232143 0.000000
vt 0.250000 0.000000
vt 0.267857 0.000000
vt 0.303571 0.000000
vt 0.321429 0.000000
vt 0.339286 0.000000
vt 0.357143 0.000000
vt 0.607143 0.000000
vt 0.375000 0.000000
vt 0.392857 0.000000
vt 0.410714 0.000000
vt 0.589286 0.000000
vt 0.446429 0.000000
vt 0.464286 0.000000
vt 0.053571 0.000000
vt 0.482143 0.000000
vt 0.553571 0.000000
vt 0.500000 0.000000
vt 0.517857 0.000000
vt 0.535714 0.000000
vt 0.219653 0.000000
vt 0.208092 0.000000
vt 0.213873 0.000000
vt 0.225434 0.000000
vt 0.202312 0.000000
vt 0.231214 0.000000
vt 0.236994 0.000000
vt 0.196532 0.000000
vt 0.242775 0.000000
vt 0.190751 0.000000
vt 0.248555 0.000000
vt 0.254335 0.000000
vt 0.184971 0.000000
vt 0.260116 0.000000
vt 0.179191 0.000000
vt 0.265896 0.000000
vt 0.271676 0.000000
vt 0.173410 0.000000
vt 0.277457 0.000000
vt 0.167630 0.000000
vt 0.283237 0.000000
vt 0.289017 0.000000
vt 0.294798 0.000000
vt 0.300578 0.000000
vt 0.306358 0.000000
vt 0.312139 0.000000
vt 0.317919 0.000000
vt 0.323699 0.000000
vt 0.329480 0.000000
vt 0.335260 0.000000
vt 0.341040 0.000000
vt 0.346821 0.000000
vt 0.352601 0.000000
vt 0.358382 0.000000
vt 0.161850 0.000000
vt 0.364162 0.000000
vt 0.156069 0.000000
vt 0.369942 0.000000
vt 0.375723 0.000000
vt 0.381503 0.000000
vt 0.387283 0.000000
vt 0.393064 0.000000
vt 0.150289 0.000000
vt 0.398844 0.000000
vt 0.404624 0.000000
vt 0.410405 0.000000
vt 0.144509 0.000000
vt 0.416185 0.000000
vt 0.421965 0.000000
vt 0.138728 0.000000
vt 0.427746 0.000000
vt 0.433526 0.000000
vt 0.439306 0.000000
vt 0.445087 0.000000
vt 0.450867 0.000000
vt 0.456647 0.000000
vt 0.462428 0.000000
vt 0.994220 0.000000
vt 0.791907 0.000000
vt 0.988439 0.000000
vt 0.468208 0.000000
vt 0.982659 0.000000
vt 0.473988 0.000000
vt 0.976879 0.000000
vt 0.479769 0.000000
vt 0.971098 0.000000
vt 0.965318 0.000000
vt 0.485549 0.000000
vt 0.959538 0.000000
vt 0.491329 0.000000
vt 0.953757 0.000000
vt 0.947977 0.000000
vt 0.497110 0.000000
vt 0.942197 0.000000
vt 0.936416 0.000000
vt 0.502890 0.000000
vt 0.930636 0.000000
vt 0.508671 0.000000
vt 0.924855 0.000000
vt 0.919075 0.000000
vt 0.514451 0.000000
vt 0.913295 0.000000
vt 0.907514 0.000000
vt 0.797688 0.000000
vt 0.520231 0.000000
vt 0.803468 0.000000
vt 0.901734 0.000000
vt 0.809249 0.000000
vt 0.005780 0.000000
vt 0.786127 0.000000
vt 0.132948 0.000000
vt 0.895954 0.000000
vt 0.011561 0.000000
vt 0.815029 0.000000
vt 0.127168 0.000000
vt 0.017341 0.000000
vt 0.526012 0.000000
vt 0.890173 0.000000
vt 0.121387 0.000000
vt 0.820809 0.000000
vt 0.023121 0.000000
vt 0.115607 0.000000
vt 0.826590 0.000000
vt 0.028902 0.000000
vt 0.884393 0.000000
vt 0.109827 0.000000
vt 0.034682 0.000000
vt 0.832370 0.000000
vt 0.104046 0.000000
vt 0.040462 0.000000
vt 0.878613 0.000000
vt 0.098266 0.000000
vt 0.838150 0.000000
vt 0.046243 0.000000
vt 0.092486 0.000000
vt 0.531792 0.000000
vt 0.052023 0.000000
vt 0.872832 0.000000
vt 0.843931 0.000000
vt 0.086705 0.000000
vt 0.057803 0.000000
vt 0.080925 0.000000
vt 0.063584 0.000000
vt 0.849711 0.000000
vt 0.075145 0.000000
vt 0.069364 0.000000
vt 0.867052 0.000000
vt 0.855491 0.000000
vt 0.861272 0.000000
vt 0.647399 0.000000
vt 0.537572 0.000000
vt 0.641618 0.000000
vt 0.653179 0.000000
vt 0.543353 0.000000
vt 0.635838 0.000000
vt 0.658960 0.000000
vt 0.780347 0.000000
vt 0.549133 0.000000
vt 0.630058 0.000000
vt 0.664740 0.000000
vt 0.774566 0.000000
vt 0.624277 0.000000
vt 0.670520 0.000000
vt 0.554913 0.000000
vt 0.768786 0.000000
vt 0.618497 0.000000
vt 0.676301 0.000000
vt 0.763006 0.000000
vt 0.560694 0.000000
vt 0.612717 0.000000
vt 0.682081 0.000000
vt 0.757225 0.000000
vt 0.606936 0.000000
vt 0.687861 0.000000
vt 0.751445 0.000000
vt 0.566474 0.000000
vt 0.601156 0.000000
vt 0.693642 0.000000
vt 0.745665 0.000000
vt 0.595376 0.000000
vt 0.739884 0.000000
vt 0.699422 0.000000
vt 0.572254 0.000000
vt 0.734104 0.000000
vt 0.589595 0.000000
vt 0.705202 0.000000
vt 0.728324 0.000000
vt 0.583815 0.000000
vt 0.710983 0.000000
vt 0.578035 0.000000
vt 0.722543 0.000000
vt 0.716763 0.000000
vt 0.084746 0.000000
vt 0.050847 0.000000
vt 0.067797 0.000000
vt 0.033898 0.000000
vt 0.101695 0.000000
vt 0.016949 0.000000
vt 0.118644 0.000000
vt 0.135593 0.000000
vt 0.152542 0.000000
vt 0.169492 0.000000
vt 0.186441 0.000000
vt 0.203390 0.000000
vt 0.949153 0.000000
vt 0.966102 0.000000
vt 0.983051 0.000000
vt 0.220339 0.000000
vt 0.915254 0.000000
vt 0.932203 0.000000
vt 0.237288 0.000000
vt 0.881356 0.000000
vt 0.898305 0.000000
vt 0.254237 0.000000
vt 0.864407 0.000000
vt 0.271186 0.000000
vt 0.813559 0.000000
vt 0.830508 0.000000
vt 0.847458 0.000000
vt 0.288136 0.000000
vt 0.796610 0.000000
vt 0.779661 0.000000
vt 0.762712 0.000000
vt 0.745763 0.000000
vt 0.305085 0.000000
vt 0.728814 0.000000
vt 0.711864 0.000000
vt 0.322034 0.000000
vt 0.694915 0.000000
vt 0.677966 0.000000
vt 0.338983 0.000000
vt 0.661017 0.000000
vt 0.355932 0.000000
vt 0.644068 0.000000
vt 0.372881 0.000000
vt 0.627119 0.000000
vt 0.610169 0.000000
vt 0.389830 0.000000
vt 0.593220 0.000000
vt 0.406780 0.000000
vt 0.576271 0.000000
vt 0.423729 0.000000
vt 0.457627 0.000000
vt 0.440678 0.000000
vt 0.559322 0.000000
vt 0.542373 0.000000
vt 0.474576 0.000000
vt 0.491525 0.000000
vt 0.525424 0.000000
vt 0.508475 0.000000
s 0
usemtl マテリアル.007
f 14/1/1 12/2/1 13/3/1
f 14/1/1 11/4/1 12/2/1
f 15/5/1 11/4/1 14/1/1
f 15/5/1 10/6/1 11/4/1
f 15/5/1 9/7/1 10/6/1
f 16/8/1 9/7/1 15/5/1
f 16/8/1 8/9/1 9/7/1
f 16/8/1 7/10/1 8/9/1
f 17/11/1 7/10/1 16/8/1
f 17/11/1 6/12/1 7/10/1
f 17/11/1 5/13/1 6/12/1
f 18/14/1 5/13/1 17/11/1
f 18/14/1 4/15/1 5/13/1
f 18/14/1 3/16/1 4/15/1
f 19/17/1 3/16/1 18/14/1
f 19/17/1 2/18/1 3/16/1
f 19/17/1 1/19/1 2/18/1
f 20/20/1 1/19/1 19/17/1
f 20/20/1 126/21/1 1/19/1
f 126/21/1 127/22/1 1/19/1
f 127/22/1 128/23/1 1/19/1
f 128/23/1 129/24/1 1/19/1
f 129/24/1 130/25/1 1/19/1
f 130/25/1 131/26/1 1/19/1
f 131/26/1 132/27/1 1/19/1
f 132/27/1 133/28/1 1/19/1
f 133/28/1 134/29/1 1/19/1
f 21/30/1 124/31/1 20/20/1
f 124/31/1 125/32/1 20/20/1
f 125/32/1 126/21/1 20/20/1
f 22/33/1 123/34/1 21/30/1
f 123/34/1 124/31/1 21/30/1
f 23/35/1 121/36/1 22/33/1
f 121/36/1 122/37/1 22/33/1
f 122/37/1 123/34/1 22/33/1
f 23/35/1 120/38/1 121/36/1
f 23/35/1 119/39/1 120/38/1
f 23/35/1 118/40/1 119/39/1
f 23/35/1 117/41/1 118/40/1
f 23/35/1 116/42/1 117/41/1
f 24/43/1 116/42/1 23/35/1
f 24/43/1 115/44/1 116/42/1
f 24/43/1 114/45/1 115/44/1
f 24/43/1 113/46/1 114/45/1
f 24/43/1 112/47/1 113/46/1
f 25/48/1 112/47/1 24/43/1
f 25/48/1 111/49/1 112/47/1
f 25/48/1 110/50/1 111/49/1
f 25/48/1 109/51/1 110/50/1
f 26/52/1 109/51/1 25/48/1
f 26/52/1 108/53/1 109/51/1
f 26/52/1 107/54/1 108/53/1
f 26/52/1 106/55/1 107/54/1
f 26/52/1 105/56/1 106/55/1
f 26/52/1 104/57/1 105/56/1
f 27/58/1 104/57/1 26/52/1
f 27/58/1 103/59/1 104/57/1
f 27/58/1 102/60/1 103/59/1
f 27/58/1 101/61/1 102/60/1
f 28/62/1 101/61/1 27/58/1
f 28/62/1 100/63/1 101/61/1
f 28/62/1 99/64/1 100/63/1
f 28/62/1 98/65/1 99/64/1
f 29/66/1 98/65/1 28/62/1
f 29/66/1 97/67/1 98/65/1
f 30/68/1 97/67/1 29/66/1
f 30/68/1 96/69/1 97/67/1
f 30/68/1 95/70/1 96/69/1
f 31/71/1 95/70/1 30/68/1
f 31/71/1 94/72/1 95/70/1
f 32/73/1 94/72/1 31/71/1
f 32/73/1 93/74/1 94/72/1
f 32/73/1 92/75/1 93/74/1
f 33/76/1 92/75/1 32/73/1
f 33/76/1 91/77/1 92/75/1
f 34/78/1 91/77/1 33/76/1
f 34/78/1 90/79/1 91/77/1
f 34/78/1 89/80/1 90/79/1
f 35/81/1 89/80/1 34/78/1
f 35/81/1 88/82/1 89/80/1
f 36/83/1 88/82/1 35/81/1
f 36/83/1 87/84/1 88/82/1
f 37/85/1 87/84/1 36/83/1
f 37/85/1 86/86/1 87/84/1
f 62/87/1 60/88/1 61/89/1
f 37/85/1 85/90/1 86/86/1
f 38/91/1 85/90/1 37/85/1
f 62/87/1 59/92/1 60/88/1
f 39/93/1 85/90/1 38/91/1
f 62/87/1 58/94/1 59/92/1
f 40/95/1 85/90/1 39/93/1
f 40/95/1 84/96/1 85/90/1
f 62/87/1 57/97/1 58/94/1
f 41/98/1 84/96/1 40/95/1
f 62/87/1 56/99/1 57/97/1
f 42/100/1 84/96/1 41/98/1
f 62/87/1 55/101/1 56/99/1
f 43/102/1 84/96/1 42/100/1
f 43/102/1 83/103/1 84/96/1
f 62/87/1 54/104/1 55/101/1
f 44/105/1 83/103/1 43/102/1
f 45/106/1 83/103/1 44/105/1
f 62/87/1 53/107/1 54/104/1
f 46/108/1 83/103/1 45/106/1
f 62/87/1 52/109/1 53/107/1
f 47/110/1 83/103/1 46/108/1
f 62/87/1 51/111/1 52/109/1
f 48/112/1 83/103/1 47/110/1
f 62/87/1 50/113/1 51/111/1
f 49/114/1 83/103/1 48/112/1
f 62/87/1 49/114/1 50/113/1
f 49/114/1 82/115/1 83/103/1
f 62/87/1 82/115/1 49/114/1
f 62/87/1 81/116/1 82/115/1
f 62/87/1 80/117/1 81/116/1
f 63/118/1 80/117/1 62/87/1
f 63/118/1 79/119/1 80/117/1
f 64/120/1 79/119/1 63/118/1
f 65/121/1 79/119/1 64/120/1
f 65/121/1 78/122/1 79/119/1
f 66/123/1 78/122/1 65/121/1
f 67/124/1 78/122/1 66/123/1
f 67/124/1 77/125/1 78/122/1
f 68/126/1 77/125/1 67/124/1
f 68/126/1 76/127/1 77/125/1
f 69/128/1 76/127/1 68/126/1
f 70/129/1 76/127/1 69/128/1
f 70/129/1 75/130/1 76/127/1
f 71/131/1 75/130/1 70/129/1
f 72/132/1 75/130/1 71/131/1
f 72/132/1 74/133/1 75/130/1
f 73/134/1 74/133/1 72/132/1
f 141/135/1 139/136/1 140/137/1
f 141/135/1 144/29/1 139/136/1
f 142/138/1 144/29/1 141/135/1
f 142/138/1 143/139/1 144/29/1
f 137/140/1 135/19/1 136/141/1
f 137/140/1 138/142/1 135/19/1
f 158/143/1 156/144/1 157/145/1
f 158/143/1 155/146/1 156/144/1
f 158/143/1 154/147/1 155/146/1
f 159/148/1 154/147/1 158/143/1
f 159/148/1 153/149/1 154/147/1
f 159/148/1 152/150/1 153/149/1
f 159/148/1 151/151/1 152/150/1
f 160/152/1 151/151/1 159/148/1
f 160/152/1 150/153/1 151/151/1
f 160/152/1 149/154/1 150/153/1
f 160/152/1 148/155/1 149/154/1
f 161/156/1 148/155/1 160/152/1
f 161/156/1 147/157/1 148/155/1
f 161/156/1 146/158/1 147/157/1
f 161/156/1 145/19/1 146/158/1
f 162/159/1 145/19/1 161/156/1
f 162/159/1 234/160/1 145/19/1
f 234/160/1 235/161/1 145/19/1
f 235/161/1 236/162/1 145/19/1
f 236/162/1 237/163/1 145/19/1
f 237/163/1 238/164/1 145/19/1
f 238/164/1 239/165/1 145/19/1
f 239/165/1 240/166/1 145/19/1
f 240/166/1 241/167/1 145/19/1
f 241/167/1 242/29/1 145/19/1
f 163/168/1 232/169/1 162/159/1
f 232/169/1 233/170/1 162/159/1
f 233/170/1 234/160/1 162/159/1
f 164/171/1 230/172/1 163/168/1
f 230/172/1 231/173/1 163/168/1
f 231/173/1 232/169/1 163/168/1
f 164/171/1 229/174/1 230/172/1
f 164/171/1 228/175/1 229/174/1
f 164/171/1 227/176/1 228/175/1
f 165/177/1 227/176/1 164/171/1
f 165/177/1 226/178/1 227/176/1
f 165/177/1 225/179/1 226/178/1
f 165/177/1 224/180/1 225/179/1
f 166/181/1 224/180/1 165/177/1
f 166/181/1 223/182/1 224/180/1
f 166/181/1 222/183/1 223/182/1
f 167/184/1 222/183/1 166/181/1
f 167/184/1 221/185/1 222/183/1
f 167/184/1 220/186/1 221/185/1
f 168/187/1 220/186/1 167/184/1
f 168/187/1 219/188/1 220/186/1
f 169/189/1 219/188/1 168/187/1
f 169/189/1 218/190/1 219/188/1
f 169/189/1 217/191/1 218/190/1
f 170/192/1 217/191/1 169/189/1
f 170/192/1 216/193/1 217/191/1
f 171/194/1 216/193/1 170/192/1
f 171/194/1 215/195/1 216/193/1
f 171/194/1 214/196/1 215/195/1
f 172/197/1 214/196/1 171/194/1
f 172/197/1 213/198/1 214/196/1
f 172/197/1 212/199/1 213/198/1
f 173/200/1 212/199/1 172/197/1
f 173/200/1 211/201/1 212/199/1
f 195/202/1 193/203/1 194/204/1
f 173/200/1 210/205/1 211/201/1
f 196/206/1 193/203/1 195/202/1
f 174/207/1 210/205/1 173/200/1
f 197/208/1 193/203/1 196/206/1
f 174/207/1 209/209/1 210/205/1
f 198/210/1 193/203/1 197/208/1
f 199/211/1 193/203/1 198/210/1
f 200/212/1 193/203/1 199/211/1
f 174/207/1 208/213/1 209/209/1
f 201/214/1 193/203/1 200/212/1
f 202/215/1 193/203/1 201/214/1
f 174/207/1 207/216/1 208/213/1
f 203/217/1 193/203/1 202/215/1
f 204/218/1 193/203/1 203/217/1
f 174/207/1 206/219/1 207/216/1
f 205/220/1 193/203/1 204/218/1
f 175/221/1 206/219/1 174/207/1
f 206/219/1 193/203/1 205/220/1
f 175/221/1 193/203/1 206/219/1
f 176/222/1 193/203/1 175/221/1
f 177/223/1 193/203/1 176/222/1
f 178/224/1 193/203/1 177/223/1
f 178/224/1 192/225/1 193/203/1
f 178/224/1 191/226/1 192/225/1
f 178/224/1 190/227/1 191/226/1
f 179/228/1 190/227/1 178/224/1
f 179/228/1 189/229/1 190/227/1
f 179/228/1 188/230/1 189/229/1
f 179/228/1 187/231/1 188/230/1
f 179/228/1 186/232/1 187/231/1
f 180/233/1 186/232/1 179/228/1
f 180/233/1 185/234/1 186/232/1
f 180/233/1 184/235/1 185/234/1
f 180/233/1 183/236/1 184/235/1
f 181/237/1 183/236/1 180/233/1
f 181/237/1 182/238/1 183/236/1
f 244/239/1 290/240/1 243/19/1
f 244/239/1 289/241/1 290/240/1
f 245/242/1 289/241/1 244/239/1
f 245/242/1 288/120/1 289/241/1
f 246/243/1 288/120/1 245/242/1
f 246/243/1 287/244/1 288/120/1
f 247/245/1 287/244/1 246/243/1
f 247/245/1 286/246/1 287/244/1
f 248/9/1 286/246/1 247/245/1
f 248/9/1 285/247/1 286/246/1
f 249/248/1 285/247/1 248/9/1
f 249/248/1 284/249/1 285/247/1
f 250/250/1 291/251/1 249/248/1
f 291/251/1 284/249/1 249/248/1
f 250/250/1 338/29/1 291/251/1
f 292/252/1 284/249/1 291/251/1
f 250/250/1 337/253/1 338/29/1
f 293/131/1 284/249/1 292/252/1
f 250/250/1 336/254/1 337/253/1
f 294/255/1 284/249/1 293/131/1
f 294/255/1 283/97/1 284/249/1
f 251/256/1 336/254/1 250/250/1
f 251/256/1 335/257/1 336/254/1
f 295/258/1 283/97/1 294/255/1
f 251/256/1 334/259/1 335/257/1
f 296/260/1 283/97/1 295/258/1
f 251/256/1 333/22/1 334/259/1
f 297/261/1 283/97/1 296/260/1
f 297/261/1 282/262/1 283/97/1
f 252/263/1 333/22/1 251/256/1
f 252/263/1 332/264/1 333/22/1
f 298/122/1 282/262/1 297/261/1
f 252/263/1 331/265/1 332/264/1
f 299/266/1 282/262/1 298/122/1
f 299/266/1 281/267/1 282/262/1
f 253/5/1 331/265/1 252/263/1
f 253/5/1 330/268/1 331/265/1
f 300/269/1 281/267/1 299/266/1
f 300/269/1 280/270/1 281/267/1
f 254/271/1 330/268/1 253/5/1
f 254/271/1 329/272/1 330/268/1
f 301/273/1 280/270/1 300/269/1
f 254/271/1 328/38/1 329/272/1
f 302/274/1 280/270/1 301/273/1
f 302/274/1 279/275/1 280/270/1
f 255/276/1 328/38/1 254/271/1
f 255/276/1 327/277/1 328/38/1
f 303/90/1 279/275/1 302/274/1
f 256/278/1 327/277/1 255/276/1
f 256/278/1 326/279/1 327/277/1
f 303/90/1 278/113/1 279/275/1
f 304/280/1 278/113/1 303/90/1
f 256/278/1 325/281/1 326/279/1
f 305/282/1 278/113/1 304/280/1
f 257/283/1 325/281/1 256/278/1
f 305/282/1 277/284/1 278/113/1
f 257/283/1 324/285/1 325/281/1
f 306/286/1 277/284/1 305/282/1
f 257/283/1 323/46/1 324/285/1
f 258/33/1 323/46/1 257/283/1
f 307/287/1 277/284/1 306/286/1
f 307/287/1 276/288/1 277/284/1
f 258/33/1 322/289/1 323/46/1
f 308/75/1 276/288/1 307/287/1
f 259/290/1 322/289/1 258/33/1
f 308/75/1 275/291/1 276/288/1
f 259/290/1 321/292/1 322/289/1
f 309/293/1 275/291/1 308/75/1
f 259/290/1 320/294/1 321/292/1
f 310/295/1 275/291/1 309/293/1
f 260/296/1 320/294/1 259/290/1
f 310/295/1 274/297/1 275/291/1
f 260/296/1 319/298/1 320/294/1
f 311/299/1 274/297/1 310/295/1
f 260/296/1 318/55/1 319/298/1
f 312/300/1 274/297/1 311/299/1
f 260/296/1 317/301/1 318/55/1
f 313/64/1 274/297/1 312/300/1
f 261/302/1 317/301/1 260/296/1
f 313/64/1 273/102/1 274/297/1
f 261/302/1 316/303/1 317/301/1
f 314/304/1 273/102/1 313/64/1
f 261/302/1 315/305/1 316/303/1
f 315/305/1 273/102/1 314/304/1
f 261/302/1 273/102/1 315/305/1
f 262/306/1 273/102/1 261/302/1
f 262/306/1 272/307/1 273/102/1
f 263/66/1 272/307/1 262/306/1
f 263/66/1 271/308/1 272/307/1
f 264/309/1 271/308/1 263/66/1
f 264/309/1 270/310/1 271/308/1
f 265/311/1 270/310/1 264/309/1
f 265/311/1 269/312/1 270/310/1
f 266/313/1 269/312/1 265/311/1
f 266/313/1 268/83/1 269/312/1
f 267/314/1 268/83/1 266/313/1
f 341/135/1 339/19/1 340/142/1
f 341/135/1 342/29/1 339/19/1
f 345/315/1 343/19/1 344/316/1
f 345/315/1 393/317/1 343/19/1
f 382/318/1 380/319/1 381/320/1
f 383/321/1 380/319/1 382/318/1
f 384/322/1 380/319/1 383/321/1
f 384/322/1 379/323/1 380/319/1
f 385/324/1 379/323/1 384/322/1
f 386/325/1 379/323/1 385/324/1
f 387/136/1 379/323/1 386/325/1
f 387/136/1 378/326/1 379/323/1
f 388/327/1 378/326/1 387/136/1
f 389/328/1 378/326/1 388/327/1
f 389/328/1 377/329/1 378/326/1
f 390/330/1 377/329/1 389/328/1
f 391/331/1 377/329/1 390/330/1
f 392/332/1 377/329/1 391/331/1
f 392/332/1 376/142/1 377/329/1
f 393/317/1 376/142/1 392/332/1
f 345/315/1 394/333/1 393/317/1
f 394/333/1 395/334/1 393/317/1
f 395/334/1 396/335/1 393/317/1
f 396/335/1 397/336/1 393/317/1
f 397/336/1 398/137/1 393/317/1
f 398/137/1 399/337/1 393/317/1
f 399/337/1 400/338/1 393/317/1
f 400/338/1 401/339/1 393/317/1
f 401/339/1 402/340/1 393/317/1
f 402/340/1 403/341/1 393/317/1
f 403/341/1 376/142/1 393/317/1
f 403/341/1 404/342/1 376/142/1
f 404/342/1 375/343/1 376/142/1
f 404/342/1 405/344/1 375/343/1
f 405/344/1 406/345/1 375/343/1
f 406/345/1 374/346/1 375/343/1
f 407/347/1 374/346/1 406/345/1
f 408/348/1 374/346/1 407/347/1
f 408/348/1 373/349/1 374/346/1
f 409/135/1 373/349/1 408/348/1
f 410/350/1 373/349/1 409/135/1
f 411/351/1 373/349/1 410/350/1
f 411/351/1 372/352/1 373/349/1
f 412/353/1 372/352/1 411/351/1
f 413/354/1 372/352/1 412/353/1
f 345/315/1 442/29/1 394/333/1
f 413/354/1 371/355/1 372/352/1
f 414/356/1 371/355/1 413/354/1
f 415/357/1 371/355/1 414/356/1
f 415/357/1 370/358/1 371/355/1
f 416/359/1 370/358/1 415/357/1
f 417/360/1 370/358/1 416/359/1
f 417/360/1 369/361/1 370/358/1
f 418/362/1 369/361/1 417/360/1
f 418/362/1 368/363/1 369/361/1
f 419/364/1 368/363/1 418/362/1
f 420/138/1 368/363/1 419/364/1
f 420/138/1 367/365/1 368/363/1
f 421/366/1 367/365/1 420/138/1
f 421/366/1 366/367/1 367/365/1
f 422/368/1 366/367/1 421/366/1
f 423/369/1 366/367/1 422/368/1
f 423/369/1 365/140/1 366/367/1
f 424/370/1 365/140/1 423/369/1
f 425/371/1 365/140/1 424/370/1
f 426/372/1 365/140/1 425/371/1
f 426/372/1 364/373/1 365/140/1
f 427/374/1 364/373/1 426/372/1
f 345/315/1 441/375/1 442/29/1
f 345/315/1 440/376/1 441/375/1
f 428/377/1 364/373/1 427/374/1
f 345/315/1 439/378/1 440/376/1
f 345/315/1 438/379/1 439/378/1
f 345/315/1 437/380/1 438/379/1
f 345/315/1 436/381/1 437/380/1
f 429/382/1 364/373/1 428/377/1
f 345/315/1 435/383/1 436/381/1
f 429/382/1 363/384/1 364/373/1
f 345/315/1 434/385/1 435/383/1
f 345/315/1 433/386/1 434/385/1
f 430/387/1 363/384/1 429/382/1
f 345/315/1 432/388/1 433/386/1
f 345/315/1 431/139/1 432/388/1
f 345/315/1 430/387/1 431/139/1
f 345/315/1 363/384/1 430/387/1
f 345/315/1 362/389/1 363/384/1
f 345/315/1 361/390/1 362/389/1
f 346/391/1 361/390/1 345/315/1
f 346/391/1 360/392/1 361/390/1
f 347/393/1 360/392/1 346/391/1
f 348/394/1 360/392/1 347/393/1
f 349/395/1 360/392/1 348/394/1
f 349/395/1 359/396/1 360/392/1
f 350/397/1 359/396/1 349/395/1
f 351/398/1 359/396/1 350/397/1
f 352/399/1 359/396/1 351/398/1
f 352/399/1 358/400/1 359/396/1
f 353/401/1 358/400/1 352/399/1
f 354/141/1 358/400/1 353/401/1
f 355/402/1 358/400/1 354/141/1
f 355/402/1 357/403/1 358/400/1
f 356/404/1 357/403/1 355/402/1
f 445/405/1 443/19/1 444/406/1
f 445/405/1 602/407/1 443/19/1
f 446/408/1 602/407/1 445/405/1
f 447/409/1 602/407/1 446/408/1
f 448/410/1 602/407/1 447/409/1
f 449/411/1 602/407/1 448/410/1
f 450/412/1 602/407/1 449/411/1
f 451/413/1 602/407/1 450/412/1
f 452/414/1 601/415/1 451/413/1
f 601/415/1 602/407/1 451/413/1
f 452/414/1 600/416/1 601/415/1
f 453/417/1 638/418/1 452/414/1
f 638/418/1 639/419/1 452/414/1
f 639/419/1 600/416/1 452/414/1
f 640/420/1 600/416/1 639/419/1
f 640/420/1 599/421/1 600/416/1
f 641/422/1 599/421/1 640/420/1
f 453/417/1 637/423/1 638/418/1
f 642/424/1 599/421/1 641/422/1
f 453/417/1 636/425/1 637/423/1
f 643/426/1 599/421/1 642/424/1
f 453/417/1 635/427/1 636/425/1
f 643/426/1 598/428/1 599/421/1
f 644/429/1 598/428/1 643/426/1
f 453/417/1 634/430/1 635/427/1
f 454/431/1 634/430/1 453/417/1
f 645/432/1 598/428/1 644/429/1
f 645/432/1 597/433/1 598/428/1
f 454/431/1 633/434/1 634/430/1
f 646/435/1 597/433/1 645/432/1
f 454/431/1 632/436/1 633/434/1
f 646/435/1 596/269/1 597/433/1
f 647/298/1 596/269/1 646/435/1
f 454/431/1 631/437/1 632/436/1
f 647/298/1 595/438/1 596/269/1
f 455/439/1 631/437/1 454/431/1
f 648/440/1 595/438/1 647/298/1
f 648/440/1 594/441/1 595/438/1
f 455/439/1 630/442/1 631/437/1
f 648/440/1 593/443/1 594/441/1
f 649/444/1 593/443/1 648/440/1
f 455/439/1 629/445/1 630/442/1
f 456/446/1 629/445/1 455/439/1
f 649/444/1 592/447/1 593/443/1
f 650/448/1 592/447/1 649/444/1
f 456/446/1 628/449/1 629/445/1
f 650/448/1 591/450/1 592/447/1
f 603/451/1 591/450/1 650/448/1
f 456/446/1 627/452/1 628/449/1
f 603/451/1 590/453/1 591/450/1
f 457/454/1 627/452/1 456/446/1
f 604/455/1 590/453/1 603/451/1
f 604/455/1 589/456/1 590/453/1
f 457/454/1 626/457/1 627/452/1
f 458/458/1 626/457/1 457/454/1
f 604/455/1 588/459/1 589/456/1
f 605/460/1 588/459/1 604/455/1
f 458/458/1 625/461/1 626/457/1
f 459/462/1 625/461/1 458/458/1
f 605/460/1 587/463/1 588/459/1
f 460/464/1 625/461/1 459/462/1
f 606/465/1 587/463/1 605/460/1
f 460/464/1 624/466/1 625/461/1
f 606/465/1 586/467/1 587/463/1
f 461/468/1 624/466/1 460/464/1
f 607/469/1 586/467/1 606/465/1
f 461/468/1 623/470/1 624/466/1
f 462/471/1 623/470/1 461/468/1
f 607/469/1 585/472/1 586/467/1
f 608/473/1 585/472/1 607/469/1
f 463/474/1 623/470/1 462/471/1
f 463/474/1 622/475/1 623/470/1
f 608/473/1 584/476/1 585/472/1
f 464/477/1 622/475/1 463/474/1
f 609/478/1 584/476/1 608/473/1
f 464/477/1 621/479/1 622/475/1
f 465/480/1 621/479/1 464/477/1
f 609/478/1 583/481/1 584/476/1
f 610/482/1 583/481/1 609/478/1
f 465/480/1 620/483/1 621/479/1
f 466/484/1 620/483/1 465/480/1
f 611/485/1 583/481/1 610/482/1
f 611/485/1 582/486/1 583/481/1
f 466/484/1 619/487/1 620/483/1
f 467/488/1 619/487/1 466/484/1
f 612/489/1 582/486/1 611/485/1
f 467/488/1 618/490/1 619/487/1
f 612/489/1 581/491/1 582/486/1
f 468/492/1 618/490/1 467/488/1
f 613/135/1 581/491/1 612/489/1
f 468/492/1 617/493/1 618/490/1
f 614/494/1 581/491/1 613/135/1
f 468/492/1 616/495/1 617/493/1
f 469/496/1 616/495/1 468/492/1
f 615/497/1 581/491/1 614/494/1
f 469/496/1 615/497/1 616/495/1
f 469/496/1 581/491/1 615/497/1
f 469/496/1 580/498/1 581/491/1
f 470/499/1 580/498/1 469/496/1
f 470/499/1 579/500/1 580/498/1
f 471/501/1 579/500/1 470/499/1
f 471/501/1 578/502/1 579/500/1
f 472/503/1 578/502/1 471/501/1
f 473/504/1 578/502/1 472/503/1
f 473/504/1 577/505/1 578/502/1
f 474/506/1 577/505/1 473/504/1
f 474/506/1 576/507/1 577/505/1
f 475/508/1 576/507/1 474/506/1
f 476/509/1 576/507/1 475/508/1
f 477/510/1 576/507/1 476/509/1
f 477/510/1 575/511/1 576/507/1
f 478/512/1 575/511/1 477/510/1
f 479/513/1 575/511/1 478/512/1
f 480/514/1 575/511/1 479/513/1
f 480/514/1 574/515/1 575/511/1
f 481/516/1 574/515/1 480/514/1
f 482/517/1 574/515/1 481/516/1
f 483/518/1 574/515/1 482/517/1
f 483/518/1 573/519/1 574/515/1
f 484/520/1 573/519/1 483/518/1
f 484/520/1 572/521/1 573/519/1
f 485/522/1 572/521/1 484/520/1
f 485/522/1 571/523/1 572/521/1
f 486/524/1 571/523/1 485/522/1
f 486/524/1 570/525/1 571/523/1
f 487/526/1 570/525/1 486/524/1
f 487/526/1 569/527/1 570/525/1
f 487/526/1 568/528/1 569/527/1
f 488/529/1 568/528/1 487/526/1
f 488/529/1 567/530/1 568/528/1
f 489/531/1 567/530/1 488/529/1
f 489/531/1 566/532/1 567/530/1
f 490/533/1 566/532/1 489/531/1
f 491/534/1 566/532/1 490/533/1
f 491/534/1 565/535/1 566/532/1
f 492/536/1 565/535/1 491/534/1
f 492/536/1 564/537/1 565/535/1
f 493/538/1 564/537/1 492/536/1
f 493/538/1 563/539/1 564/537/1
f 494/306/1 563/539/1 493/538/1
f 494/306/1 562/540/1 563/539/1
f 495/541/1 562/540/1 494/306/1
f 495/541/1 561/542/1 562/540/1
f 496/543/1 561/542/1 495/541/1
f 496/543/1 560/544/1 561/542/1
f 497/545/1 560/544/1 496/543/1
f 497/545/1 559/546/1 560/544/1
f 498/547/1 559/546/1 497/545/1
f 498/547/1 558/548/1 559/546/1
f 499/549/1 558/548/1 498/547/1
f 499/549/1 557/550/1 558/548/1
f 500/551/1 557/550/1 499/549/1
f 500/551/1 556/552/1 557/550/1
f 501/553/1 556/552/1 500/551/1
f 501/553/1 555/554/1 556/552/1
f 502/555/1 555/554/1 501/553/1
f 502/555/1 554/556/1 555/554/1
f 503/557/1 554/556/1 502/555/1
f 503/557/1 553/558/1 554/556/1
f 504/559/1 553/558/1 503/557/1
f 504/559/1 552/560/1 553/558/1
f 505/561/1 552/560/1 504/559/1
f 505/561/1 551/562/1 552/560/1
f 506/563/1 551/562/1 505/561/1
f 506/563/1 550/564/1 551/562/1
f 507/565/1 550/564/1 506/563/1
f 508/566/1 550/564/1 507/565/1
f 508/566/1 549/567/1 550/564/1
f 509/568/1 549/567/1 508/566/1
f 509/568/1 548/569/1 549/567/1
f 510/570/1 548/569/1 509/568/1
f 510/570/1 547/571/1 548/569/1
f 511/572/1 547/571/1 510/570/1
f 511/572/1 546/573/1 547/571/1
f 512/574/1 687/575/1 511/572/1
f 687/575/1 546/573/1 511/572/1
f 687/575/1 688/576/1 546/573/1
f 688/576/1 545/267/1 546/573/1
f 512/574/1 686/577/1 687/575/1
f 689/578/1 545/267/1 688/576/1
f 512/574/1 685/579/1 686/577/1
f 690/580/1 545/267/1 689/578/1
f 512/574/1 684/581/1 685/579/1
f 513/582/1 684/581/1 512/574/1
f 691/583/1 545/267/1 690/580/1
f 513/582/1 683/584/1 684/581/1
f 692/585/1 545/267/1 691/583/1
f 513/582/1 682/586/1 683/584/1
f 693/587/1 545/267/1 692/585/1
f 693/587/1 544/588/1 545/267/1
f 513/582/1 681/589/1 682/586/1
f 694/590/1 544/588/1 693/587/1
f 514/591/1 681/589/1 513/582/1
f 514/591/1 680/592/1 681/589/1
f 695/593/1 544/588/1 694/590/1
f 695/593/1 543/594/1 544/588/1
f 514/591/1 679/595/1 680/592/1
f 515/596/1 679/595/1 514/591/1
f 696/597/1 543/594/1 695/593/1
f 515/596/1 678/598/1 679/595/1
f 697/599/1 543/594/1 696/597/1
f 697/599/1 542/600/1 543/594/1
f 515/596/1 677/601/1 678/598/1
f 516/602/1 677/601/1 515/596/1
f 698/29/1 542/600/1 697/599/1
f 516/602/1 676/603/1 677/601/1
f 698/29/1 541/604/1 542/600/1
f 517/605/1 676/603/1 516/602/1
f 517/605/1 675/606/1 676/603/1
f 651/607/1 541/604/1 698/29/1
f 651/607/1 540/608/1 541/604/1
f 517/605/1 674/609/1 675/606/1
f 518/610/1 674/609/1 517/605/1
f 652/611/1 540/608/1 651/607/1
f 518/610/1 673/612/1 674/609/1
f 653/613/1 540/608/1 652/611/1
f 653/613/1 539/614/1 540/608/1
f 518/610/1 672/615/1 673/612/1
f 654/616/1 539/614/1 653/613/1
f 519/617/1 672/615/1 518/610/1
f 519/617/1 671/618/1 672/615/1
f 655/619/1 539/614/1 654/616/1
f 519/617/1 670/620/1 671/618/1
f 655/619/1 538/621/1 539/614/1
f 656/622/1 538/621/1 655/619/1
f 520/623/1 670/620/1 519/617/1
f 520/623/1 669/624/1 670/620/1
f 657/625/1 538/621/1 656/622/1
f 520/623/1 668/626/1 669/624/1
f 658/627/1 538/621/1 657/625/1
f 520/623/1 667/628/1 668/626/1
f 658/627/1 537/629/1 538/621/1
f 659/630/1 537/629/1 658/627/1
f 521/631/1 667/628/1 520/623/1
f 521/631/1 666/632/1 667/628/1
f 660/633/1 537/629/1 659/630/1
f 521/631/1 665/634/1 666/632/1
f 661/635/1 537/629/1 660/633/1
f 521/631/1 664/636/1 665/634/1
f 662/637/1 537/629/1 661/635/1
f 521/631/1 663/638/1 664/636/1
f 663/638/1 537/629/1 662/637/1
f 521/631/1 537/629/1 663/638/1
f 521/631/1 536/639/1 537/629/1
f 522/640/1 536/639/1 521/631/1
f 522/640/1 535/641/1 536/639/1
f 523/642/1 535/641/1 522/640/1
f 524/643/1 535/641/1 523/642/1
f 524/643/1 534/644/1 535/641/1
f 525/645/1 534/644/1 524/643/1
f 525/645/1 533/646/1 534/644/1
f 526/647/1 533/646/1 525/645/1
f 526/647/1 532/648/1 533/646/1
f 527/649/1 532/648/1 526/647/1
f 527/649/1 531/650/1 532/648/1
f 528/142/1 531/650/1 527/649/1
f 528/142/1 530/651/1 531/650/1
f 529/652/1 530/651/1 528/142/1
f 743/653/1 741/654/1 742/655/1
f 744/656/1 741/654/1 743/653/1
f 744/656/1 740/657/1 741/654/1
f 745/658/1 740/657/1 744/656/1
f 746/659/1 740/657/1 745/658/1
f 746/659/1 739/69/1 740/657/1
f 747/44/1 739/69/1 746/659/1
f 701/660/1 699/19/1 700/661/1
f 701/660/1 755/29/1 699/19/1
f 747/44/1 738/662/1 739/69/1
f 748/663/1 738/662/1 747/44/1
f 749/664/1 738/662/1 748/663/1
f 749/664/1 737/665/1 738/662/1
f 750/666/1 737/665/1 749/664/1
f 750/666/1 736/667/1 737/665/1
f 751/668/1 736/667/1 750/666/1
f 752/669/1 736/667/1 751/668/1
f 752/669/1 735/670/1 736/667/1
f 753/671/1 735/670/1 752/669/1
f 754/672/1 735/670/1 753/671/1
f 754/672/1 715/93/1 735/670/1
f 715/93/1 734/673/1 735/670/1
f 701/660/1 754/672/1 755/29/1
f 701/660/1 703/674/1 754/672/1
f 703/674/1 704/675/1 754/672/1
f 704/675/1 705/676/1 754/672/1
f 705/676/1 706/677/1 754/672/1
f 706/677/1 707/20/1 754/672/1
f 707/20/1 708/678/1 754/672/1
f 708/678/1 709/679/1 754/672/1
f 709/679/1 710/680/1 754/672/1
f 710/680/1 711/681/1 754/672/1
f 711/681/1 712/682/1 754/672/1
f 712/682/1 713/683/1 754/672/1
f 713/683/1 714/684/1 754/672/1
f 714/684/1 715/93/1 754/672/1
f 716/685/1 734/673/1 715/93/1
f 717/686/1 734/673/1 716/685/1
f 718/687/1 734/673/1 717/686/1
f 719/688/1 734/673/1 718/687/1
f 719/688/1 733/689/1 734/673/1
f 720/690/1 733/689/1 719/688/1
f 721/691/1 733/689/1 720/690/1
f 722/692/1 733/689/1 721/691/1
f 722/692/1 732/693/1 733/689/1
f 723/94/1 732/693/1 722/692/1
f 724/694/1 732/693/1 723/94/1
f 724/694/1 731/125/1 732/693/1
f 725/695/1 731/125/1 724/694/1
f 701/660/1 702/696/1 703/674/1
f 726/697/1 731/125/1 725/695/1
f 726/697/1 730/698/1 731/125/1
f 727/699/1 730/698/1 726/697/1
f 728/700/1 730/698/1 727/699/1
f 728/700/1 729/701/1 730/698/1
f 806/587/1 804/584/1 805/576/1
f 806/587/1 807/29/1 804/584/1
f 769/566/1 767/547/1 768/557/1
f 769/566/1 766/538/1 767/547/1
f 770/582/1 766/538/1 769/566/1
f 770/582/1 765/529/1 766/538/1
f 771/610/1 765/529/1 770/582/1
f 771/610/1 764/518/1 765/529/1
f 772/642/1 764/518/1 771/610/1
f 772/642/1 763/512/1 764/518/1
f 773/142/1 763/512/1 772/642/1
f 773/142/1 762/504/1 763/512/1
f 774/646/1 762/504/1 773/142/1
f 774/646/1 761/492/1 762/504/1
f 775/621/1 761/492/1 774/646/1
f 775/621/1 760/474/1 761/492/1
f 776/594/1 760/474/1 775/621/1
f 776/594/1 759/458/1 760/474/1
f 777/569/1 759/458/1 776/594/1
f 777/569/1 758/417/1 759/458/1
f 778/558/1 758/417/1 777/569/1
f 778/558/1 757/410/1 758/417/1
f 779/548/1 757/410/1 778/558/1
f 779/548/1 756/19/1 757/410/1
f 780/539/1 756/19/1 779/548/1
f 781/528/1 756/19/1 780/539/1
f 781/528/1 803/598/1 756/19/1
f 781/528/1 802/612/1 803/598/1
f 782/519/1 802/612/1 781/528/1
f 782/519/1 801/626/1 802/612/1
f 783/502/1 801/626/1 782/519/1
f 783/502/1 800/638/1 801/626/1
f 784/481/1 800/638/1 783/502/1
f 784/481/1 799/627/1 800/638/1
f 785/459/1 799/627/1 784/481/1
f 785/459/1 798/613/1 799/627/1
f 786/443/1 798/613/1 785/459/1
f 786/443/1 797/440/1 798/613/1
f 787/428/1 797/440/1 786/443/1
f 787/428/1 796/426/1 797/440/1
f 788/451/1 796/426/1 787/428/1
f 788/451/1 795/418/1 796/426/1
f 789/473/1 795/418/1 788/451/1
f 789/473/1 794/434/1 795/418/1
f 790/135/1 794/434/1 789/473/1
f 790/135/1 793/449/1 794/434/1
f 791/490/1 793/449/1 790/135/1
f 791/490/1 792/470/1 793/449/1
f 810/135/1 808/19/1 809/142/1
f 810/135/1 811/29/1 808/19/1
f 814/135/1 812/19/1 813/142/1
f 814/135/1 815/29/1 812/19/1
f 854/702/1 852/703/1 853/704/1
f 855/705/1 852/703/1 854/702/1
f 855/705/1 851/706/1 852/703/1
f 856/707/1 851/706/1 855/705/1
f 857/708/1 851/706/1 856/707/1
f 857/708/1 850/709/1 851/706/1
f 858/710/1 850/709/1 857/708/1
f 858/710/1 849/711/1 850/709/1
f 859/712/1 849/711/1 858/710/1
f 860/713/1 849/711/1 859/712/1
f 860/713/1 848/714/1 849/711/1
f 861/715/1 848/714/1 860/713/1
f 861/715/1 847/716/1 848/714/1
f 862/717/1 847/716/1 861/715/1
f 863/718/1 847/716/1 862/717/1
f 863/718/1 846/719/1 847/716/1
f 864/720/1 846/719/1 863/718/1
f 864/720/1 845/721/1 846/719/1
f 865/722/1 845/721/1 864/720/1
f 866/723/1 867/724/1 865/722/1
f 867/724/1 868/725/1 865/722/1
f 868/725/1 869/726/1 865/722/1
f 869/726/1 870/727/1 865/722/1
f 870/727/1 871/728/1 865/722/1
f 871/728/1 872/729/1 865/722/1
f 872/729/1 873/730/1 865/722/1
f 873/730/1 874/731/1 865/722/1
f 874/731/1 875/732/1 865/722/1
f 875/732/1 876/733/1 865/722/1
f 876/733/1 845/721/1 865/722/1
f 876/733/1 877/734/1 845/721/1
f 877/734/1 878/735/1 845/721/1
f 878/735/1 844/736/1 845/721/1
f 878/735/1 879/737/1 844/736/1
f 879/737/1 843/738/1 844/736/1
f 880/739/1 843/738/1 879/737/1
f 881/740/1 843/738/1 880/739/1
f 882/741/1 843/738/1 881/740/1
f 883/742/1 843/738/1 882/741/1
f 884/743/1 843/738/1 883/742/1
f 884/743/1 842/744/1 843/738/1
f 885/745/1 842/744/1 884/743/1
f 886/746/1 842/744/1 885/745/1
f 887/747/1 842/744/1 886/746/1
f 887/747/1 841/748/1 842/744/1
f 888/749/1 841/748/1 887/747/1
f 889/750/1 841/748/1 888/749/1
f 889/750/1 840/751/1 841/748/1
f 890/752/1 840/751/1 889/750/1
f 891/753/1 840/751/1 890/752/1
f 892/754/1 989/29/1 891/753/1
f 989/29/1 840/751/1 891/753/1
f 893/755/1 989/29/1 892/754/1
f 894/756/1 989/29/1 893/755/1
f 895/757/1 989/29/1 894/756/1
f 896/758/1 989/29/1 895/757/1
f 896/758/1 988/759/1 989/29/1
f 953/760/1 840/751/1 989/29/1
f 896/758/1 987/761/1 988/759/1
f 897/762/1 987/761/1 896/758/1
f 897/762/1 986/763/1 987/761/1
f 898/764/1 986/763/1 897/762/1
f 898/764/1 985/765/1 986/763/1
f 899/766/1 985/765/1 898/764/1
f 899/766/1 984/767/1 985/765/1
f 899/766/1 983/768/1 984/767/1
f 900/769/1 983/768/1 899/766/1
f 900/769/1 982/770/1 983/768/1
f 901/771/1 982/770/1 900/769/1
f 901/771/1 981/772/1 982/770/1
f 901/771/1 980/773/1 981/772/1
f 902/774/1 980/773/1 901/771/1
f 902/774/1 979/775/1 980/773/1
f 902/774/1 978/776/1 979/775/1
f 903/777/1 978/776/1 902/774/1
f 903/777/1 977/778/1 978/776/1
f 904/779/1 977/778/1 903/777/1
f 904/779/1 976/780/1 977/778/1
f 904/779/1 975/781/1 976/780/1
f 905/782/1 975/781/1 904/779/1
f 905/782/1 974/783/1 975/781/1
f 905/782/1 973/784/1 974/783/1
f 954/785/1 840/751/1 953/760/1
f 906/786/1 973/784/1 905/782/1
f 955/787/1 840/751/1 954/785/1
f 906/786/1 972/788/1 973/784/1
f 956/789/1 840/751/1 955/787/1
f 817/790/1 952/791/1 816/19/1
f 956/789/1 839/792/1 840/751/1
f 906/786/1 971/793/1 972/788/1
f 818/794/1 952/791/1 817/790/1
f 957/795/1 839/792/1 956/789/1
f 957/795/1 838/796/1 839/792/1
f 819/797/1 952/791/1 818/794/1
f 907/798/1 971/793/1 906/786/1
f 907/798/1 970/799/1 971/793/1
f 957/795/1 837/800/1 838/796/1
f 958/801/1 837/800/1 957/795/1
f 820/802/1 952/791/1 819/797/1
f 958/801/1 836/803/1 837/800/1
f 959/804/1 836/803/1 958/801/1
f 821/805/1 952/791/1 820/802/1
f 907/798/1 969/806/1 970/799/1
f 959/804/1 835/807/1 836/803/1
f 822/808/1 952/791/1 821/805/1
f 960/809/1 835/807/1 959/804/1
f 960/809/1 834/810/1 835/807/1
f 823/811/1 952/791/1 822/808/1
f 907/798/1 968/812/1 969/806/1
f 960/809/1 833/813/1 834/810/1
f 961/814/1 833/813/1 960/809/1
f 824/815/1 952/791/1 823/811/1
f 961/814/1 832/816/1 833/813/1
f 908/817/1 968/812/1 907/798/1
f 825/818/1 952/791/1 824/815/1
f 908/817/1 967/819/1 968/812/1
f 962/820/1 832/816/1 961/814/1
f 962/820/1 831/821/1 832/816/1
f 826/822/1 952/791/1 825/818/1
f 962/820/1 830/823/1 831/821/1
f 827/824/1 952/791/1 826/822/1
f 963/825/1 830/823/1 962/820/1
f 963/825/1 829/826/1 830/823/1
f 828/827/1 952/791/1 827/824/1
f 963/825/1 828/827/1 829/826/1
f 908/817/1 966/828/1 967/819/1
f 963/825/1 952/791/1 828/827/1
f 964/829/1 952/791/1 963/825/1
f 908/817/1 965/830/1 966/828/1
f 965/830/1 952/791/1 964/829/1
f 908/817/1 928/831/1 965/830/1
f 928/831/1 952/791/1 965/830/1
f 909/832/1 928/831/1 908/817/1
f 909/832/1 927/833/1 928/831/1
f 929/834/1 952/791/1 928/831/1
f 910/835/1 927/833/1 909/832/1
f 910/835/1 926/836/1 927/833/1
f 930/837/1 952/791/1 929/834/1
f 930/837/1 951/838/1 952/791/1
f 911/839/1 926/836/1 910/835/1
f 911/839/1 925/840/1 926/836/1
f 931/841/1 951/838/1 930/837/1
f 931/841/1 950/842/1 951/838/1
f 911/839/1 924/843/1 925/840/1
f 932/844/1 950/842/1 931/841/1
f 912/845/1 924/843/1 911/839/1
f 932/844/1 949/846/1 950/842/1
f 912/845/1 923/847/1 924/843/1
f 933/848/1 949/846/1 932/844/1
f 933/848/1 948/849/1 949/846/1
f 913/850/1 923/847/1 912/845/1
f 913/850/1 922/851/1 923/847/1
f 934/852/1 948/849/1 933/848/1
f 934/852/1 947/853/1 948/849/1
f 913/850/1 921/854/1 922/851/1
f 935/855/1 947/853/1 934/852/1
f 935/855/1 946/856/1 947/853/1
f 914/857/1 921/854/1 913/850/1
f 914/857/1 920/858/1 921/854/1
f 936/859/1 946/856/1 935/855/1
f 936/859/1 945/860/1 946/856/1
f 914/857/1 919/861/1 920/858/1
f 936/859/1 944/862/1 945/860/1
f 937/863/1 944/862/1 936/859/1
f 915/864/1 919/861/1 914/857/1
f 937/863/1 943/865/1 944/862/1
f 915/864/1 918/866/1 919/861/1
f 938/867/1 943/865/1 937/863/1
f 938/867/1 942/868/1 943/865/1
f 915/864/1 917/869/1 918/866/1
f 939/870/1 942/868/1 938/867/1
f 916/871/1 917/869/1 915/864/1
f 939/870/1 941/872/1 942/868/1
f 940/873/1 941/872/1 939/870/1
f 995/874/1 993/875/1 994/876/1
f 995/874/1 992/877/1 993/875/1
f 996/878/1 992/877/1 995/874/1
f 996/878/1 991/879/1 992/877/1
f 997/880/1 991/879/1 996/878/1
f 997/880/1 990/19/1 991/879/1
f 998/881/1 990/19/1 997/880/1
f 998/881/1 1049/29/1 990/19/1
f 999/882/1 1049/29/1 998/881/1
f 1000/883/1 1049/29/1 999/882/1
f 1001/884/1 1049/29/1 1000/883/1
f 1002/885/1 1046/886/1 1001/884/1
f 1046/886/1 1047/887/1 1001/884/1
f 1047/887/1 1048/888/1 1001/884/1
f 1048/888/1 1049/29/1 1001/884/1
f 1003/889/1 1044/890/1 1002/885/1
f 1044/890/1 1045/891/1 1002/885/1
f 1045/891/1 1046/886/1 1002/885/1
f 1004/892/1 1042/893/1 1003/889/1
f 1042/893/1 1043/894/1 1003/889/1
f 1043/894/1 1044/890/1 1003/889/1
f 1005/895/1 1041/896/1 1004/892/1
f 1041/896/1 1042/893/1 1004/892/1
f 1006/897/1 1038/898/1 1005/895/1
f 1038/898/1 1039/899/1 1005/895/1
f 1039/899/1 1040/900/1 1005/895/1
f 1040/900/1 1041/896/1 1005/895/1
f 1007/901/1 1037/902/1 1006/897/1
f 1037/902/1 1038/898/1 1006/897/1
f 1007/901/1 1036/903/1 1037/902/1
f 1007/901/1 1035/904/1 1036/903/1
f 1007/901/1 1034/905/1 1035/904/1
f 1008/906/1 1034/905/1 1007/901/1
f 1008/906/1 1033/907/1 1034/905/1
f 1008/906/1 1032/908/1 1033/907/1
f 1009/909/1 1032/908/1 1008/906/1
f 1009/909/1 1031/910/1 1032/908/1
f 1009/909/1 1030/911/1 1031/910/1
f 1010/912/1 1030/911/1 1009/909/1
f 1010/912/1 1029/913/1 1030/911/1
f 1011/914/1 1029/913/1 1010/912/1
f 1011/914/1 1028/915/1 1029/913/1
f 1012/916/1 1028/915/1 1011/914/1
f 1012/916/1 1027/917/1 1028/915/1
f 1012/916/1 1026/918/1 1027/917/1
f 1013/919/1 1026/918/1 1012/916/1
f 1013/919/1 1025/920/1 1026/918/1
f 1014/921/1 1025/920/1 1013/919/1
f 1014/921/1 1024/922/1 1025/920/1
f 1015/923/1 1024/922/1 1014/921/1
f 1017/924/1 1015/923/1 1016/925/1
f 1017/924/1 1024/922/1 1015/923/1
f 1017/924/1 1023/926/1 1024/922/1
f 1017/924/1 1022/927/1 1023/926/1
f 1018/928/1 1022/927/1 1017/924/1
f 1019/929/1 1021/930/1 1018/928/1
f 1021/930/1 1022/927/1 1018/928/1
f 1019/929/1 1020/931/1 1021/930/1
