# Blender 4.5.3 LTS
# www.blender.org
mtllib GAMEOVER.mtl
o テキスト
v -5.389919 0.195132 -0.000002
v -5.374234 0.194165 -0.000002
v -5.359174 0.191348 -0.000002
v -5.344879 0.186810 -0.000002
v -5.331490 0.180678 -0.000002
v -5.319148 0.173082 -0.000002
v -5.307994 0.164148 -0.000002
v -5.298170 0.154007 -0.000002
v -5.289816 0.142784 -0.000002
v -5.283072 0.130610 -0.000002
v -5.278082 0.117611 -0.000002
v -5.274983 0.103917 -0.000002
v -5.273921 0.089655 -0.000002
v -5.274985 0.075393 -0.000002
v -5.278084 0.061699 -0.000002
v -5.283074 0.048700 -0.000002
v -5.289818 0.036526 -0.000002
v -5.298172 0.025303 -0.000002
v -5.307996 0.015161 -0.000002
v -5.319150 0.006228 -0.000002
v -5.331491 -0.001368 -0.000002
v -5.344881 -0.007500 -0.000002
v -5.359176 -0.012038 -0.000002
v -5.374236 -0.014855 -0.000002
v -5.389919 -0.015823 -0.000002
v -5.405603 -0.014855 -0.000002
v -5.420664 -0.012038 -0.000002
v -5.434959 -0.007500 -0.000002
v -5.448347 -0.001368 -0.000002
v -5.460690 0.006228 -0.000002
v -5.471843 0.015161 -0.000002
v -5.481668 0.025303 -0.000002
v -5.490021 0.036526 -0.000002
v -5.496764 0.048700 -0.000002
v -5.501756 0.061699 -0.000002
v -5.504854 0.075393 -0.000002
v -5.505916 0.089655 -0.000002
v -5.504852 0.103917 -0.000002
v -5.501754 0.117611 -0.000002
v -5.496762 0.130610 -0.000002
v -5.490019 0.142784 -0.000002
v -5.481666 0.154007 -0.000002
v -5.471841 0.164148 -0.000002
v -5.460688 0.173082 -0.000002
v -5.448345 0.180678 -0.000002
v -5.434958 0.186810 -0.000002
v -5.420662 0.191348 -0.000002
v -5.405602 0.194165 -0.000002
v -4.966531 0.195133 -0.000002
v -4.950847 0.194165 -0.000001
v -4.935786 0.191348 -0.000001
v -4.921491 0.186810 -0.000001
v -4.908101 0.180678 -0.000001
v -4.895760 0.173082 -0.000001
v -4.884606 0.164148 -0.000001
v -4.874782 0.154007 -0.000001
v -4.866428 0.142784 -0.000001
v -4.859685 0.130610 -0.000001
v -4.854693 0.117611 -0.000001
v -4.851595 0.103917 -0.000001
v -4.850533 0.089655 -0.000001
v -4.851597 0.075393 -0.000001
v -4.854695 0.061699 -0.000001
v -4.859686 0.048700 -0.000001
v -4.866429 0.036526 -0.000001
v -4.874784 0.025303 -0.000001
v -4.884608 0.015162 -0.000001
v -4.895761 0.006228 -0.000001
v -4.908103 -0.001368 -0.000002
v -4.921493 -0.007500 -0.000002
v -4.935788 -0.012038 -0.000002
v -4.950849 -0.014855 -0.000002
v -4.966531 -0.015822 -0.000002
v -4.982215 -0.014855 -0.000002
v -4.997275 -0.012038 -0.000002
v -5.011571 -0.007500 -0.000002
v -5.024960 -0.001368 -0.000002
v -5.037301 0.006228 -0.000002
v -5.048454 0.015162 -0.000002
v -5.058279 0.025303 -0.000002
v -5.066633 0.036526 -0.000002
v -5.073377 0.048700 -0.000002
v -5.078367 0.061699 -0.000002
v -5.081466 0.075393 -0.000002
v -5.082527 0.089655 -0.000002
v -5.081464 0.103917 -0.000002
v -5.078365 0.117611 -0.000002
v -5.073375 0.130610 -0.000002
v -5.066631 0.142784 -0.000002
v -5.058277 0.154007 -0.000002
v -5.048453 0.164148 -0.000002
v -5.037299 0.173082 -0.000002
v -5.024958 0.180678 -0.000002
v -5.011569 0.186810 -0.000002
v -4.997274 0.191348 -0.000002
v -4.982214 0.194165 -0.000002
v -4.543142 0.195133 -0.000001
v -4.527458 0.194165 -0.000001
v -4.512398 0.191348 -0.000001
v -4.498102 0.186810 -0.000001
v -4.484714 0.180678 -0.000001
v -4.472371 0.173082 -0.000001
v -4.461218 0.164149 -0.000001
v -4.451394 0.154007 -0.000001
v -4.443040 0.142784 -0.000001
v -4.436296 0.130610 -0.000001
v -4.431305 0.117611 -0.000001
v -4.428207 0.103917 -0.000001
v -4.427145 0.089655 -0.000001
v -4.428209 0.075393 -0.000001
v -4.431307 0.061699 -0.000001
v -4.436298 0.048700 -0.000001
v -4.443042 0.036526 -0.000001
v -4.451395 0.025303 -0.000001
v -4.461220 0.015162 -0.000001
v -4.472373 0.006228 -0.000001
v -4.484715 -0.001368 -0.000001
v -4.498104 -0.007500 -0.000001
v -4.512400 -0.012038 -0.000001
v -4.527460 -0.014855 -0.000001
v -4.543142 -0.015822 -0.000001
v -4.558827 -0.014855 -0.000001
v -4.573888 -0.012038 -0.000001
v -4.588182 -0.007500 -0.000001
v -4.601571 -0.001368 -0.000001
v -4.613913 0.006228 -0.000001
v -4.625067 0.015162 -0.000001
v -4.634891 0.025303 -0.000001
v -4.643245 0.036526 -0.000001
v -4.649988 0.048700 -0.000001
v -4.654979 0.061699 -0.000001
v -4.658077 0.075393 -0.000001
v -4.659140 0.089655 -0.000001
v -4.658075 0.103917 -0.000001
v -4.654977 0.117611 -0.000001
v -4.649986 0.130610 -0.000001
v -4.643243 0.142784 -0.000001
v -4.634889 0.154007 -0.000001
v -4.625065 0.164148 -0.000001
v -4.613911 0.173082 -0.000001
v -4.601569 0.180678 -0.000001
v -4.588181 0.186810 -0.000001
v -4.573886 0.191348 -0.000001
v -4.558825 0.194165 -0.000001
v -3.700232 0.789323 -0.000001
v -3.700232 -0.000001 -0.000001
v -3.872294 -0.000001 -0.000001
v -3.872294 0.413119 -0.000001
v -3.874188 0.446328 -0.000001
v -3.879714 0.478091 -0.000001
v -3.888637 0.508132 -0.000001
v -3.900721 0.536177 -0.000001
v -3.915731 0.561951 -0.000001
v -3.933434 0.585180 -0.000001
v -3.953593 0.605588 -0.000001
v -3.975975 0.622902 -0.000001
v -4.000343 0.636847 -0.000001
v -4.026464 0.647148 -0.000001
v -4.054101 0.653529 -0.000001
v -4.083022 0.655718 -0.000001
v -4.093711 0.655069 -0.000001
v -4.105380 0.653162 -0.000001
v -4.117881 0.650059 -0.000001
v -4.131067 0.645821 -0.000001
v -4.144791 0.640509 -0.000001
v -4.158903 0.634183 -0.000001
v -4.173258 0.626905 -0.000001
v -4.187706 0.618735 -0.000001
v -4.202101 0.609736 -0.000001
v -4.216293 0.599968 -0.000001
v -4.230137 0.589491 -0.000001
v -4.243484 0.578367 -0.000001
v -4.334348 0.713730 -0.000001
v -4.316580 0.728454 -0.000001
v -4.299020 0.741866 -0.000001
v -4.281636 0.753971 -0.000001
v -4.264392 0.764776 -0.000001
v -4.247255 0.774287 -0.000001
v -4.230192 0.782510 -0.000001
v -4.213170 0.789452 -0.000001
v -4.196155 0.795117 -0.000001
v -4.179112 0.799513 -0.000001
v -4.162009 0.802646 -0.000001
v -4.144812 0.804521 -0.000001
v -4.127487 0.805144 -0.000001
v -4.107146 0.803922 -0.000001
v -4.086718 0.800204 -0.000001
v -4.066195 0.793910 -0.000001
v -4.045572 0.784960 -0.000001
v -4.024842 0.773276 -0.000001
v -4.003999 0.758778 -0.000001
v -3.983033 0.741387 -0.000001
v -3.961941 0.721023 -0.000001
v -3.940714 0.697607 -0.000001
v -3.919346 0.671059 -0.000001
v -3.897830 0.641301 -0.000001
v -3.876161 0.608253 -0.000001
v -3.872294 0.608253 -0.000001
v -3.872294 0.789323 -0.000001
v -3.487572 0.228534 -0.000001
v -3.462475 0.214110 -0.000001
v -3.437431 0.200748 -0.000001
v -3.412415 0.188485 -0.000001
v -3.387399 0.177358 -0.000001
v -3.362355 0.167402 -0.000001
v -3.337258 0.158655 -0.000001
v -3.312080 0.151153 -0.000001
v -3.286796 0.144933 -0.000001
v -3.261376 0.140032 -0.000001
v -3.235797 0.136485 -0.000001
v -3.210029 0.134330 -0.000001
v -3.184046 0.133604 -0.000001
v -3.143892 0.135286 -0.000001
v -3.106572 0.140319 -0.000001
v -3.072098 0.148684 -0.000001
v -3.040483 0.160364 -0.000001
v -3.011741 0.175340 -0.000001
v -2.985885 0.193594 -0.000001
v -2.962930 0.215108 -0.000001
v -2.942888 0.239863 -0.000001
v -2.925772 0.267841 -0.000001
v -2.911597 0.299023 -0.000001
v -2.900375 0.333392 -0.000001
v -2.892121 0.370929 -0.000001
v -3.503037 0.370928 -0.000001
v -3.500013 0.440775 -0.000001
v -3.491089 0.504419 -0.000001
v -3.476486 0.561887 -0.000001
v -3.456425 0.613201 -0.000001
v -3.431128 0.658387 -0.000001
v -3.400816 0.697469 -0.000001
v -3.365711 0.730472 -0.000001
v -3.326035 0.757419 -0.000001
v -3.282010 0.778335 -0.000001
v -3.233856 0.793245 -0.000001
v -3.181795 0.802174 -0.000001
v -3.126048 0.805144 -0.000001
v -3.067701 0.801824 -0.000001
v -3.012737 0.792057 -0.000001
v -2.961478 0.776138 -0.000001
v -2.914247 0.754359 -0.000001
v -2.871365 0.727013 -0.000001
v -2.833156 0.694393 -0.000001
v -2.799941 0.656792 -0.000001
v -2.772043 0.614503 -0.000001
v -2.749784 0.567820 -0.000001
v -2.733485 0.517034 -0.000001
v -2.723470 0.462440 -0.000001
v -2.720059 0.404330 -0.000001
v -2.723183 0.350270 -0.000001
v -2.732482 0.297517 -0.000001
v -2.747849 0.246718 -0.000001
v -2.769179 0.198518 -0.000001
v -2.796360 0.153566 -0.000001
v -2.829289 0.112509 -0.000001
v -2.867857 0.075992 -0.000001
v -2.911954 0.044664 -0.000001
v -2.961477 0.019172 -0.000001
v -3.016315 0.000162 -0.000001
v -3.076364 -0.011718 -0.000001
v -3.141515 -0.015822 -0.000001
v -3.177195 -0.015198 -0.000001
v -3.210916 -0.013316 -0.000001
v -3.242890 -0.010164 -0.000001
v -3.273335 -0.005730 -0.000001
v -3.302464 -0.000003 -0.000001
v -3.330492 0.007031 -0.000001
v -3.357635 0.015383 -0.000001
v -3.384106 0.025066 -0.000001
v -3.410119 0.036092 -0.000001
v -3.435892 0.048473 -0.000001
v -3.461637 0.062222 -0.000001
v -3.487572 0.077349 -0.000001
v -2.895988 0.474648 -0.000001
v -2.902954 0.504707 -0.000001
v -2.912241 0.532441 -0.000001
v -2.923838 0.557794 -0.000001
v -2.937732 0.580712 -0.000001
v -2.953907 0.601139 -0.000001
v -2.972352 0.619020 -0.000001
v -2.993052 0.634302 -0.000001
v -3.015995 0.646928 -0.000001
v -3.041165 0.656844 -0.000001
v -3.068551 0.663995 -0.000001
v -3.098139 0.668326 -0.000001
v -3.129914 0.669781 -0.000001
v -3.159384 0.668225 -0.000001
v -3.186839 0.663629 -0.000001
v -3.212201 0.656102 -0.000001
v -3.235387 0.645756 -0.000001
v -3.256317 0.632699 -0.000001
v -3.274911 0.617043 -0.000001
v -3.291089 0.598895 -0.000001
v -3.304770 0.578368 -0.000001
v -3.315872 0.555569 -0.000001
v -3.324316 0.530610 -0.000001
v -3.330023 0.503599 -0.000001
v -3.332909 0.474648 -0.000001
v -2.192274 -0.015822 -0.000001
v -2.250272 -0.015822 -0.000001
v -2.633061 0.789323 -0.000001
v -2.449400 0.789323 -0.000001
v -2.221272 0.304126 -0.000001
v -1.987346 0.789323 -0.000001
v -1.799818 0.789323 -0.000001
v -0.289926 0.599463 -0.000001
v -0.295539 0.519038 -0.000001
v -0.312114 0.440962 -0.000001
v -0.339255 0.366122 -0.000001
v -0.376565 0.295402 -0.000001
v -0.423650 0.229687 -0.000001
v -0.480112 0.169862 -0.000001
v -0.545556 0.116813 -0.000001
v -0.619586 0.071425 -0.000001
v -0.701805 0.034582 -0.000001
v -0.791818 0.007170 -0.000001
v -0.889228 -0.009927 -0.000001
v -0.993639 -0.015822 -0.000001
v -1.101490 -0.009893 -0.000001
v -1.201548 0.007292 -0.000001
v -1.293510 0.034829 -0.000001
v -1.377074 0.071815 -0.000001
v -1.451939 0.117347 -0.000001
v -1.517801 0.170521 -0.000001
v -1.574359 0.230434 -0.000001
v -1.621312 0.296183 -0.000001
v -1.658356 0.366863 -0.000001
v -1.685191 0.441573 -0.000001
v -1.701513 0.519407 -0.000001
v -1.707020 0.599463 -0.000001
v -1.701367 0.681735 -0.000001
v -1.684671 0.761016 -0.000001
v -1.657329 0.836513 -0.000001
v -1.619736 0.907431 -0.000001
v -1.572289 0.972978 -0.000001
v -1.515384 1.032360 -0.000001
v -1.449416 1.084784 -0.000001
v -1.374782 1.129455 -0.000001
v -1.291878 1.165581 -0.000001
v -1.201100 1.192367 -0.000001
v -1.102844 1.209021 -0.000001
v -0.997506 1.214749 -0.000001
v -0.893830 1.208988 -0.000001
v -0.796740 1.192245 -0.000001
v -0.706698 1.165334 -0.000001
v -0.624168 1.129065 -0.000001
v -0.549613 1.084250 -0.000001
v -0.483495 1.031701 -0.000001
v -0.426279 0.972231 -0.000001
v -0.378427 0.906650 -0.000001
v -0.340403 0.835771 -0.000001
v -0.312669 0.760406 -0.000001
v -0.295689 0.681366 -0.000001
v -0.485187 0.599463 -0.000001
v -0.489655 0.663851 -0.000001
v -0.502729 0.724881 -0.000001
v -0.523912 0.782126 -0.000001
v -0.552708 0.835160 -0.000001
v -0.588619 0.883555 -0.000001
v -0.631149 0.926883 -0.000001
v -0.679801 0.964718 -0.000001
v -0.734078 0.996632 -0.000001
v -0.793485 1.022197 -0.000001
v -0.857522 1.040987 -0.000001
v -0.925695 1.052575 -0.000001
v -0.997506 1.056533 -0.000001
v -1.069761 1.052575 -0.000001
v -1.138305 1.040987 -0.000001
v -1.202645 1.022197 -0.000001
v -1.262294 0.996632 -0.000001
v -1.316760 0.964718 -0.000001
v -1.365554 0.926883 -0.000001
v -1.408186 0.883555 -0.000001
v -1.444165 0.835160 -0.000001
v -1.473002 0.782126 -0.000001
v -1.494207 0.724881 -0.000001
v -1.507289 0.663851 -0.000001
v -1.511759 0.599463 -0.000001
v -1.507289 0.535445 -0.000001
v -1.494207 0.474656 -0.000001
v -1.473002 0.417542 -0.000001
v -1.444165 0.364548 -0.000001
v -1.408186 0.316120 -0.000001
v -1.365554 0.272703 -0.000001
v -1.316760 0.234743 -0.000001
v -1.262294 0.202686 -0.000001
v -1.202645 0.176977 -0.000001
v -1.138305 0.158061 -0.000001
v -1.069761 0.146385 -0.000001
v -0.997506 0.142394 -0.000001
v -0.925695 0.146385 -0.000001
v -0.857522 0.158061 -0.000001
v -0.793485 0.176976 -0.000001
v -0.734078 0.202686 -0.000001
v -0.679801 0.234743 -0.000001
v -0.631149 0.272703 -0.000001
v -0.588619 0.316120 -0.000001
v -0.552708 0.364548 -0.000001
v -0.523912 0.417542 -0.000001
v -0.502729 0.474656 -0.000001
v -0.489655 0.535445 -0.000001
v 0.413789 0.228534 -0.000001
v 0.438886 0.214110 -0.000001
v 0.463929 0.200749 -0.000001
v 0.488945 0.188486 -0.000001
v 0.513962 0.177358 -0.000001
v 0.539005 0.167402 -0.000001
v 0.564102 0.158655 -0.000001
v 0.589279 0.151154 -0.000001
v 0.614564 0.144934 -0.000001
v 0.639983 0.140032 -0.000001
v 0.665563 0.136486 -0.000001
v 0.691331 0.134331 -0.000001
v 0.717314 0.133604 -0.000001
v 0.757468 0.135286 -0.000001
v 0.794788 0.140319 -0.000001
v 0.829263 0.148684 -0.000001
v 0.860878 0.160365 -0.000001
v 0.889620 0.175341 -0.000001
v 0.915476 0.193595 -0.000001
v 0.938431 0.215108 -0.000001
v 0.958474 0.239863 -0.000001
v 0.975589 0.267841 -0.000001
v 0.989764 0.299023 -0.000001
v 1.000985 0.333392 -0.000001
v 1.009239 0.370929 -0.000001
v 0.398323 0.370929 -0.000001
v 0.401347 0.440775 -0.000001
v 0.410272 0.504420 -0.000001
v 0.424875 0.561887 -0.000001
v 0.444936 0.613202 -0.000001
v 0.470233 0.658388 -0.000001
v 0.500545 0.697470 -0.000001
v 0.535650 0.730472 -0.000001
v 0.575325 0.757419 -0.000001
v 0.619351 0.778336 -0.000001
v 0.667505 0.793246 -0.000001
v 0.719567 0.802174 -0.000001
v 0.775312 0.805145 -0.000001
v 0.833660 0.801824 -0.000001
v 0.888624 0.792058 -0.000001
v 0.939882 0.776138 -0.000001
v 0.987113 0.754359 -0.000001
v 1.029995 0.727013 -0.000001
v 1.068204 0.694393 -0.000001
v 1.101418 0.656792 -0.000001
v 1.129317 0.614504 -0.000001
v 1.151576 0.567820 -0.000001
v 1.167875 0.517035 -0.000001
v 1.177891 0.462440 -0.000001
v 1.181301 0.404330 -0.000001
v 1.178178 0.350271 -0.000001
v 1.168878 0.297518 -0.000001
v 1.153510 0.246718 -0.000001
v 1.132181 0.198519 -0.000001
v 1.104999 0.153567 -0.000001
v 1.072071 0.112509 -0.000001
v 1.033504 0.075993 -0.000001
v 0.989405 0.044665 -0.000001
v 0.939883 0.019172 -0.000001
v 0.885044 0.000162 -0.000001
v 0.824996 -0.011718 -0.000001
v 0.759846 -0.015822 -0.000001
v 0.724166 -0.015197 -0.000001
v 0.690445 -0.013315 -0.000001
v 0.658470 -0.010164 -0.000001
v 0.628025 -0.005730 -0.000001
v 0.598896 -0.000002 -0.000001
v 0.570868 0.007031 -0.000001
v 0.543726 0.015384 -0.000001
v 0.517255 0.025067 -0.000001
v 0.491241 0.036093 -0.000001
v 0.465468 0.048474 -0.000001
v 0.439723 0.062222 -0.000001
v 0.413789 0.077350 -0.000001
v 1.005373 0.474648 -0.000001
v 0.998407 0.504708 -0.000001
v 0.989119 0.532441 -0.000001
v 0.977521 0.557794 -0.000001
v 0.963628 0.580712 -0.000001
v 0.947453 0.601139 -0.000001
v 0.929008 0.619021 -0.000001
v 0.908308 0.634302 -0.000001
v 0.885366 0.646928 -0.000001
v 0.860196 0.656844 -0.000001
v 0.832810 0.663995 -0.000001
v 0.803223 0.668326 -0.000001
v 0.771446 0.669782 -0.000001
v 0.741977 0.668225 -0.000001
v 0.714522 0.663629 -0.000001
v 0.689161 0.656103 -0.000001
v 0.665975 0.645756 -0.000001
v 0.645044 0.632700 -0.000001
v 0.626450 0.617043 -0.000001
v 0.610272 0.598896 -0.000001
v 0.596592 0.578368 -0.000001
v 0.585489 0.555569 -0.000001
v 0.577044 0.530610 -0.000001
v 0.571339 0.503600 -0.000001
v 0.568451 0.474648 -0.000001
v 2.637062 0.789323 -0.000000
v 2.637062 -0.000000 -0.000000
v 2.465000 -0.000000 -0.000000
v 2.465000 0.573094 -0.000000
v 2.447374 0.590945 -0.000000
v 2.430165 0.606764 -0.000000
v 2.413224 0.620641 -0.000000
v 2.396404 0.632669 -0.000000
v 2.379558 0.642940 -0.000000
v 2.362536 0.651543 -0.000000
v 2.345192 0.658572 -0.000000
v 2.327379 0.664117 -0.000000
v 2.308948 0.668271 -0.000000
v 2.289752 0.671125 -0.000000
v 2.269642 0.672770 -0.000000
v 2.248472 0.673298 -0.000000
v 2.227522 0.672151 -0.000000
v 2.207337 0.668667 -0.000000
v 2.188118 0.662778 -0.000000
v 2.170067 0.654416 -0.000000
v 2.153386 0.643515 -0.000000
v 2.138275 0.630008 -0.000000
v 2.124937 0.613827 -0.000000
v 2.113572 0.594906 -0.000000
v 2.104383 0.573177 -0.000000
v 2.097569 0.548572 -0.000000
v 2.093333 0.521026 -0.000000
v 2.091877 0.490470 -0.000000
v 2.091877 -0.000000 -0.000000
v 1.919815 -0.000000 -0.000000
v 1.919815 0.573094 -0.000000
v 1.904085 0.587286 -0.000000
v 1.887907 0.600782 -0.000000
v 1.871392 0.613472 -0.000000
v 1.854656 0.625247 -0.000000
v 1.837812 0.635996 -0.000000
v 1.820976 0.645610 -0.000000
v 1.804260 0.653978 -0.000000
v 1.787779 0.660992 -0.000000
v 1.771647 0.666541 -0.000000
v 1.755978 0.670514 -0.000000
v 1.740887 0.672803 -0.000000
v 1.726487 0.673298 -0.000000
v 1.702237 0.671949 -0.000000
v 1.678933 0.667926 -0.000000
v 1.656798 0.661267 -0.000000
v 1.636052 0.652007 -0.000000
v 1.616917 0.640183 -0.000000
v 1.599615 0.625833 -0.000000
v 1.584367 0.608992 -0.000000
v 1.571395 0.589697 -0.000000
v 1.560919 0.567985 -0.000000
v 1.553163 0.543893 -0.000000
v 1.548346 0.517456 -0.000001
v 1.546691 0.488712 -0.000001
v 1.546691 -0.000000 -0.000001
v 1.374629 -0.000000 -0.000001
v 1.374629 0.495744 -0.000001
v 1.376938 0.540977 -0.000001
v 1.383750 0.583365 -0.000001
v 1.394899 0.622701 -0.000001
v 1.410216 0.658778 -0.000001
v 1.429534 0.691388 -0.000001
v 1.452686 0.720323 -0.000001
v 1.479502 0.745376 -0.000001
v 1.509816 0.766339 -0.000000
v 1.543459 0.783005 -0.000000
v 1.580264 0.795167 -0.000000
v 1.620063 0.802616 -0.000000
v 1.662688 0.805145 -0.000000
v 1.692946 0.803820 -0.000000
v 1.721895 0.799968 -0.000000
v 1.749595 0.793773 -0.000000
v 1.776108 0.785416 -0.000000
v 1.801492 0.775082 -0.000000
v 1.825809 0.762954 -0.000000
v 1.849119 0.749214 -0.000000
v 1.871483 0.734045 -0.000000
v 1.892960 0.717631 -0.000000
v 1.913612 0.700155 -0.000000
v 1.933499 0.681801 -0.000000
v 1.952681 0.662750 -0.000000
v 1.967857 0.685124 -0.000000
v 1.984356 0.705649 -0.000000
v 2.002130 0.724306 -0.000000
v 2.021133 0.741077 -0.000000
v 2.041317 0.755943 -0.000000
v 2.062636 0.768887 -0.000000
v 2.085042 0.779889 -0.000000
v 2.108489 0.788932 -0.000000
v 2.132929 0.795998 -0.000000
v 2.158315 0.801067 -0.000000
v 2.184601 0.804122 -0.000000
v 2.211740 0.805145 -0.000000
v 2.232082 0.804337 -0.000000
v 2.252518 0.801906 -0.000000
v 2.273062 0.797838 -0.000000
v 2.293726 0.792123 -0.000000
v 2.314524 0.784747 -0.000000
v 2.335470 0.775699 -0.000000
v 2.356577 0.764966 -0.000000
v 2.377859 0.752536 -0.000000
v 2.399329 0.738397 -0.000000
v 2.421000 0.722537 -0.000000
v 2.442886 0.704943 -0.000000
v 2.465000 0.685603 -0.000000
v 2.465000 0.789323 -0.000000
v 2.782058 0.140636 -0.000000
v 2.791636 0.134267 -0.000000
v 2.801006 0.128355 -0.000000
v 2.810121 0.122920 -0.000000
v 2.818934 0.117978 -0.000000
v 2.827397 0.113550 -0.000000
v 2.835465 0.109652 -0.000000
v 2.843090 0.106304 -0.000000
v 2.850224 0.103524 -0.000000
v 2.856822 0.101330 -0.000000
v 2.862835 0.099740 -0.000000
v 2.868218 0.098772 -0.000000
v 2.872922 0.098445 -0.000000
v 2.878036 0.098670 -0.000000
v 2.882740 0.099365 -0.000000
v 2.887029 0.100561 -0.000000
v 2.890894 0.102287 -0.000000
v 2.894330 0.104575 -0.000000
v 2.897330 0.107455 -0.000000
v 2.899886 0.110958 -0.000000
v 2.901993 0.115114 -0.000000
v 2.903643 0.119953 -0.000000
v 2.904830 0.125507 -0.000000
v 2.905547 0.131805 -0.000000
v 2.905788 0.138879 -0.000000
v 2.905788 0.544967 -0.000000
v 2.908629 0.587754 -0.000000
v 2.916914 0.626500 -0.000000
v 2.930286 0.661267 -0.000000
v 2.948392 0.692115 -0.000000
v 2.970874 0.719105 -0.000000
v 2.997378 0.742298 -0.000000
v 3.027546 0.761755 -0.000000
v 3.061024 0.777538 -0.000000
v 3.097455 0.789708 -0.000000
v 3.136484 0.798325 -0.000000
v 3.177755 0.803450 -0.000000
v 3.220912 0.805145 -0.000000
v 3.251686 0.804411 -0.000000
v 3.281184 0.802207 -0.000000
v 3.309421 0.798525 -0.000000
v 3.336408 0.793360 -0.000000
v 3.362161 0.786706 -0.000000
v 3.386691 0.778556 -0.000000
v 3.410014 0.768904 -0.000000
v 3.432141 0.757745 -0.000000
v 3.453088 0.745072 -0.000000
v 3.472866 0.730879 -0.000000
v 3.491489 0.715160 -0.000000
v 3.508971 0.697909 -0.000000
v 3.508972 0.527387 -0.000000
v 3.487916 0.548781 -0.000000
v 3.466350 0.568154 -0.000000
v 3.444327 0.585537 -0.000000
v 3.421902 0.600961 -0.000000
v 3.399128 0.614456 -0.000000
v 3.376059 0.626053 -0.000000
v 3.352747 0.635782 -0.000000
v 3.329248 0.643673 -0.000000
v 3.305614 0.649758 -0.000000
v 3.281900 0.654066 -0.000000
v 3.258160 0.656629 -0.000000
v 3.234446 0.657476 -0.000000
v 3.209434 0.656624 -0.000000
v 3.186597 0.654025 -0.000000
v 3.165935 0.649620 -0.000000
v 3.147448 0.643348 -0.000000
v 3.131136 0.635146 -0.000000
v 3.116999 0.624954 -0.000000
v 3.105037 0.612711 -0.000000
v 3.095250 0.598357 -0.000000
v 3.087637 0.581829 -0.000000
v 3.082200 0.563067 -0.000000
v 3.078938 0.542011 -0.000000
v 3.077850 0.518598 -0.000000
v 3.077850 0.476407 -0.000000
v 3.230579 0.427184 -0.000000
v 3.265640 0.415658 -0.000000
v 3.300822 0.403687 -0.000000
v 3.335520 0.390898 -0.000000
v 3.369131 0.376919 -0.000000
v 3.401050 0.361377 -0.000000
v 3.430674 0.343900 -0.000000
v 3.457397 0.324116 -0.000000
v 3.480617 0.301652 -0.000000
v 3.499728 0.276137 -0.000000
v 3.514127 0.247196 -0.000000
v 3.523209 0.214460 -0.000000
v 3.526371 0.177554 -0.000000
v 3.524623 0.152330 -0.000000
v 3.519479 0.127826 -0.000000
v 3.511086 0.104324 -0.000000
v 3.499591 0.082103 -0.000000
v 3.485143 0.061445 -0.000000
v 3.467889 0.042630 -0.000000
v 3.447977 0.025940 -0.000000
v 3.425554 0.011654 -0.000000
v 3.400768 0.000055 -0.000000
v 3.373767 -0.008578 -0.000000
v 3.344698 -0.013964 -0.000000
v 3.313710 -0.015822 -0.000000
v 3.293896 -0.015271 -0.000000
v 3.274096 -0.013616 -0.000000
v 3.254322 -0.010850 -0.000000
v 3.234589 -0.006967 -0.000000
v 3.214909 -0.001961 -0.000000
v 3.195297 0.004175 -0.000000
v 3.175765 0.011446 -0.000000
v 3.156327 0.019858 -0.000000
v 3.136996 0.029418 -0.000000
v 3.117787 0.040132 -0.000000
v 3.098711 0.052005 -0.000000
v 3.079783 0.065044 -0.000000
v 3.075387 0.051636 -0.000000
v 3.069911 0.039521 -0.000000
v 3.063320 0.028677 -0.000000
v 3.055582 0.019077 -0.000000
v 3.046661 0.010698 -0.000000
v 3.036526 0.003516 -0.000000
v 3.025142 -0.002495 -0.000000
v 3.012476 -0.007358 -0.000000
v 2.998495 -0.011097 -0.000000
v 2.983164 -0.013738 -0.000000
v 2.966450 -0.015305 -0.000000
v 2.948320 -0.015822 -0.000000
v 2.935191 -0.015518 -0.000000
v 2.922713 -0.014560 -0.000000
v 2.910651 -0.012883 -0.000000
v 2.898771 -0.010418 -0.000000
v 2.886837 -0.007098 -0.000000
v 2.874614 -0.002857 -0.000000
v 2.861867 0.002373 -0.000000
v 2.848362 0.008659 -0.000000
v 2.833864 0.016069 -0.000000
v 2.818137 0.024668 -0.000000
v 2.800946 0.034525 -0.000000
v 2.782058 0.045707 -0.000000
v 3.077850 0.159974 -0.000000
v 3.089530 0.150200 -0.000000
v 3.101371 0.141117 -0.000000
v 3.113374 0.132753 -0.000000
v 3.125537 0.125140 -0.000000
v 3.137862 0.118309 -0.000000
v 3.150348 0.112289 -0.000000
v 3.162995 0.107112 -0.000000
v 3.175803 0.102808 -0.000000
v 3.188772 0.099407 -0.000000
v 3.201902 0.096940 -0.000000
v 3.215193 0.095437 -0.000000
v 3.228646 0.094930 -0.000000
v 3.246107 0.095867 -0.000000
v 3.262648 0.098616 -0.000000
v 3.278156 0.103088 -0.000000
v 3.292516 0.109189 -0.000000
v 3.305614 0.116828 -0.000000
v 3.317335 0.125914 -0.000000
v 3.327567 0.136355 -0.000000
v 3.336194 0.148059 -0.000000
v 3.343102 0.160935 -0.000000
v 3.348178 0.174892 -0.000000
v 3.351307 0.189838 -0.000000
v 3.352376 0.205681 -0.000000
v 3.349780 0.228013 -0.000000
v 3.342244 0.248531 -0.000000
v 3.330143 0.267402 -0.000000
v 3.313853 0.284789 -0.000000
v 3.293751 0.300858 -0.000000
v 3.270211 0.315773 -0.000000
v 3.243611 0.329699 -0.000000
v 3.214325 0.342802 -0.000000
v 3.182730 0.355245 -0.000000
v 3.149202 0.367193 -0.000000
v 3.114117 0.378812 -0.000000
v 3.077850 0.390267 -0.000000
v 3.706166 0.590674 -0.000000
v 4.148888 0.590674 -0.000000
v 4.148888 0.435974 -0.000000
v 3.895627 0.435974 -0.000000
v 3.895627 0.189859 -0.000000
v 3.918388 0.183386 -0.000000
v 3.941257 0.177187 -0.000000
v 3.964259 0.171318 -0.000000
v 3.987423 0.165834 -0.000000
v 4.010774 0.160789 -0.000000
v 4.034341 0.156238 -0.000000
v 4.058148 0.152237 -0.000000
v 4.082225 0.148840 -0.000000
v 4.106597 0.146103 -0.000000
v 4.131291 0.144079 -0.000000
v 4.156334 0.142825 -0.000000
v 4.181753 0.142395 -0.000000
v 4.258044 0.146250 -0.000000
v 4.330025 0.157565 -0.000000
v 4.397254 0.175961 -0.000000
v 4.459287 0.201058 -0.000000
v 4.515680 0.232480 -0.000000
v 4.565993 0.269847 -0.000000
v 4.609780 0.312780 -0.000000
v 4.646600 0.360902 -0.000000
v 4.676009 0.413834 -0.000000
v 4.697563 0.471198 -0.000000
v 4.710821 0.532615 -0.000000
v 4.715339 0.597706 -0.000000
v 4.710799 0.661389 -0.000000
v 4.697546 0.722033 -0.000000
v 4.676129 0.779160 -0.000000
v 4.647101 0.832296 -0.000000
v 4.611011 0.880963 -0.000000
v 4.568409 0.924686 -0.000000
v 4.519847 0.962989 -0.000000
v 4.465874 0.995395 -0.000000
v 4.407041 1.021429 -0.000000
v 4.343898 1.040614 -0.000000
v 4.276996 1.052474 -0.000000
v 4.206886 1.056533 -0.000000
v 4.167218 1.055692 -0.000000
v 4.127496 1.053180 -0.000000
v 4.087748 1.049007 -0.000000
v 4.047999 1.043185 -0.000000
v 4.008277 1.035728 -0.000000
v 3.968609 1.026648 -0.000000
v 3.929021 1.015955 -0.000000
v 3.889541 1.003664 -0.000000
v 3.850195 0.989785 -0.000000
v 3.811011 0.974332 -0.000000
v 3.772014 0.957316 -0.000000
v 3.733232 0.938750 -0.000000
v 3.733232 1.112787 -0.000000
v 3.782977 1.131412 -0.000000
v 3.829117 1.147808 -0.000000
v 3.872156 1.162093 -0.000000
v 3.912597 1.174381 -0.000000
v 3.950944 1.184790 -0.000000
v 3.987700 1.193434 -0.000000
v 4.023368 1.200430 -0.000000
v 4.058453 1.205894 -0.000000
v 4.093456 1.209942 -0.000000
v 4.128883 1.212690 -0.000000
v 4.165236 1.214254 -0.000000
v 4.203019 1.214749 -0.000000
v 4.301415 1.209252 -0.000000
v 4.395059 1.193190 -0.000000
v 4.483224 1.167202 -0.000000
v 4.565187 1.131930 -0.000000
v 4.640223 1.088014 -0.000000
v 4.707605 1.036097 -0.000000
v 4.766611 0.976818 0.000000
v 4.816514 0.910818 0.000000
v 4.856589 0.838739 0.000000
v 4.886112 0.761220 0.000000
v 4.904357 0.678905 0.000000
v 4.910600 0.592432 0.000000
v 4.904508 0.506605 0.000000
v 4.886676 0.425296 0.000000
v 4.857767 0.349065 -0.000000
v 4.818447 0.278474 -0.000000
v 4.769380 0.214084 -0.000000
v 4.711230 0.156458 -0.000000
v 4.644663 0.106157 -0.000000
v 4.570343 0.063742 -0.000000
v 4.488934 0.029775 -0.000000
v 4.401100 0.004818 -0.000000
v 4.307507 -0.010568 -0.000000
v 4.208819 -0.015822 -0.000000
v 4.163707 -0.015228 -0.000000
v 4.120031 -0.013413 -0.000000
v 4.077538 -0.010328 -0.000000
v 4.035970 -0.005925 -0.000000
v 3.995073 -0.000155 -0.000000
v 3.954593 0.007032 -0.000000
v 3.914274 0.015683 -0.000000
v 3.873860 0.025848 -0.000000
v 3.833098 0.037576 -0.000000
v 3.791732 0.050916 -0.000000
v 3.749506 0.065915 -0.000000
v 3.706166 0.082624 -0.000000
vn -0.0000 -0.0000 -1.0000
vt 0.021277 0.000000
vt 1.000000 0.000000
vt 0.000000 0.000000
vt 0.042553 0.000000
vt 0.978723 0.000000
vt 0.063830 0.000000
vt 0.957447 0.000000
vt 0.085106 0.000000
vt 0.936170 0.000000
vt 0.106383 0.000000
vt 0.914894 0.000000
vt 0.127660 0.000000
vt 0.893617 0.000000
vt 0.148936 0.000000
vt 0.872340 0.000000
vt 0.170213 0.000000
vt 0.851064 0.000000
vt 0.191489 0.000000
vt 0.829787 0.000000
vt 0.212766 0.000000
vt 0.808511 0.000000
vt 0.234043 0.000000
vt 0.787234 0.000000
vt 0.765957 0.000000
vt 0.255319 0.000000
vt 0.276596 0.000000
vt 0.744681 0.000000
vt 0.297872 0.000000
vt 0.723404 0.000000
vt 0.319149 0.000000
vt 0.702128 0.000000
vt 0.340426 0.000000
vt 0.680851 0.000000
vt 0.361702 0.000000
vt 0.659574 0.000000
vt 0.382979 0.000000
vt 0.638298 0.000000
vt 0.404255 0.000000
vt 0.617021 0.000000
vt 0.425532 0.000000
vt 0.595745 0.000000
vt 0.446809 0.000000
vt 0.574468 0.000000
vt 0.468085 0.000000
vt 0.553191 0.000000
vt 0.489362 0.000000
vt 0.531915 0.000000
vt 0.510638 0.000000
vt 0.759259 0.000000
vt 0.722222 0.000000
vt 0.740741 0.000000
vt 0.703704 0.000000
vt 0.777778 0.000000
vt 0.685185 0.000000
vt 0.796296 0.000000
vt 0.666667 0.000000
vt 0.648148 0.000000
vt 0.814815 0.000000
vt 0.629630 0.000000
vt 0.018519 0.000000
vt 0.981481 0.000000
vt 0.833333 0.000000
vt 0.611111 0.000000
vt 0.592593 0.000000
vt 0.851852 0.000000
vt 0.574074 0.000000
vt 0.870370 0.000000
vt 0.555556 0.000000
vt 0.537037 0.000000
vt 0.888889 0.000000
vt 0.518519 0.000000
vt 0.907407 0.000000
vt 0.333333 0.000000
vt 0.351852 0.000000
vt 0.370370 0.000000
vt 0.388889 0.000000
vt 0.407407 0.000000
vt 0.425926 0.000000
vt 0.444444 0.000000
vt 0.462963 0.000000
vt 0.481481 0.000000
vt 0.500000 0.000000
vt 0.925926 0.000000
vt 0.296296 0.000000
vt 0.314815 0.000000
vt 0.944444 0.000000
vt 0.259259 0.000000
vt 0.277778 0.000000
vt 0.240741 0.000000
vt 0.222222 0.000000
vt 0.962963 0.000000
vt 0.203704 0.000000
vt 0.185185 0.000000
vt 0.111111 0.000000
vt 0.129630 0.000000
vt 0.148148 0.000000
vt 0.166667 0.000000
vt 0.092593 0.000000
vt 0.074074 0.000000
vt 0.055556 0.000000
vt 0.037037 0.000000
vt 0.387755 0.000000
vt 0.367347 0.000000
vt 0.377551 0.000000
vt 0.357143 0.000000
vt 0.397959 0.000000
vt 0.346939 0.000000
vt 0.408163 0.000000
vt 0.336735 0.000000
vt 0.418367 0.000000
vt 0.326531 0.000000
vt 0.428571 0.000000
vt 0.316327 0.000000
vt 0.438776 0.000000
vt 0.306122 0.000000
vt 0.448980 0.000000
vt 0.877551 0.000000
vt 0.867347 0.000000
vt 0.887755 0.000000
vt 0.857143 0.000000
vt 0.897959 0.000000
vt 0.846939 0.000000
vt 0.908163 0.000000
vt 0.295918 0.000000
vt 0.836735 0.000000
vt 0.459184 0.000000
vt 0.918367 0.000000
vt 0.826531 0.000000
vt 0.928571 0.000000
vt 0.816327 0.000000
vt 0.938776 0.000000
vt 0.806122 0.000000
vt 0.948980 0.000000
vt 0.469388 0.000000
vt 0.285714 0.000000
vt 0.795918 0.000000
vt 0.959184 0.000000
vt 0.785714 0.000000
vt 0.969388 0.000000
vt 0.479592 0.000000
vt 0.275510 0.000000
vt 0.775510 0.000000
vt 0.979592 0.000000
vt 0.765306 0.000000
vt 0.989796 0.000000
vt 0.489796 0.000000
vt 0.755102 0.000000
vt 0.265306 0.000000
vt 0.255102 0.000000
vt 0.510204 0.000000
vt 0.244898 0.000000
vt 0.234694 0.000000
vt 0.520408 0.000000
vt 0.224490 0.000000
vt 0.214286 0.000000
vt 0.530612 0.000000
vt 0.204082 0.000000
vt 0.540816 0.000000
vt 0.193878 0.000000
vt 0.010204 0.000000
vt 0.744898 0.000000
vt 0.183673 0.000000
vt 0.020408 0.000000
vt 0.030612 0.000000
vt 0.551020 0.000000
vt 0.173469 0.000000
vt 0.040816 0.000000
vt 0.051020 0.000000
vt 0.163265 0.000000
vt 0.061224 0.000000
vt 0.153061 0.000000
vt 0.071429 0.000000
vt 0.561224 0.000000
vt 0.081633 0.000000
vt 0.142857 0.000000
vt 0.091837 0.000000
vt 0.132653 0.000000
vt 0.102041 0.000000
vt 0.112245 0.000000
vt 0.122449 0.000000
vt 0.571429 0.000000
vt 0.734694 0.000000
vt 0.581633 0.000000
vt 0.724490 0.000000
vt 0.714286 0.000000
vt 0.591837 0.000000
vt 0.704082 0.000000
vt 0.693878 0.000000
vt 0.602041 0.000000
vt 0.683673 0.000000
vt 0.673469 0.000000
vt 0.612245 0.000000
vt 0.663265 0.000000
vt 0.653061 0.000000
vt 0.642857 0.000000
vt 0.622449 0.000000
vt 0.632653 0.000000
vt 0.389474 0.000000
vt 0.368421 0.000000
vt 0.378947 0.000000
vt 0.357895 0.000000
vt 0.400000 0.000000
vt 0.347368 0.000000
vt 0.410526 0.000000
vt 0.336842 0.000000
vt 0.421053 0.000000
vt 0.326316 0.000000
vt 0.431579 0.000000
vt 0.315789 0.000000
vt 0.442105 0.000000
vt 0.631579 0.000000
vt 0.621053 0.000000
vt 0.642105 0.000000
vt 0.652632 0.000000
vt 0.610526 0.000000
vt 0.663158 0.000000
vt 0.600000 0.000000
vt 0.305263 0.000000
vt 0.452632 0.000000
vt 0.673684 0.000000
vt 0.589474 0.000000
vt 0.684211 0.000000
vt 0.578947 0.000000
vt 0.294737 0.000000
vt 0.463158 0.000000
vt 0.694737 0.000000
vt 0.568421 0.000000
vt 0.705263 0.000000
vt 0.557895 0.000000
vt 0.284211 0.000000
vt 0.473684 0.000000
vt 0.715789 0.000000
vt 0.547368 0.000000
vt 0.273684 0.000000
vt 0.484211 0.000000
vt 0.726316 0.000000
vt 0.536842 0.000000
vt 0.736842 0.000000
vt 0.526316 0.000000
vt 0.263158 0.000000
vt 0.494737 0.000000
vt 0.747368 0.000000
vt 0.515789 0.000000
vt 0.252632 0.000000
vt 0.757895 0.000000
vt 0.505263 0.000000
vt 0.010526 0.000000
vt 0.768421 0.000000
vt 0.242105 0.000000
vt 0.989474 0.000000
vt 0.778947 0.000000
vt 0.231579 0.000000
vt 0.021053 0.000000
vt 0.978947 0.000000
vt 0.789474 0.000000
vt 0.221053 0.000000
vt 0.031579 0.000000
vt 0.800000 0.000000
vt 0.968421 0.000000
vt 0.210526 0.000000
vt 0.042105 0.000000
vt 0.810526 0.000000
vt 0.957895 0.000000
vt 0.821053 0.000000
vt 0.947368 0.000000
vt 0.200000 0.000000
vt 0.052632 0.000000
vt 0.831579 0.000000
vt 0.936842 0.000000
vt 0.842105 0.000000
vt 0.926316 0.000000
vt 0.189474 0.000000
vt 0.063158 0.000000
vt 0.852632 0.000000
vt 0.915789 0.000000
vt 0.863158 0.000000
vt 0.905263 0.000000
vt 0.178947 0.000000
vt 0.073684 0.000000
vt 0.873684 0.000000
vt 0.894737 0.000000
vt 0.884211 0.000000
vt 0.168421 0.000000
vt 0.084211 0.000000
vt 0.157895 0.000000
vt 0.094737 0.000000
vt 0.147368 0.000000
vt 0.105263 0.000000
vt 0.136842 0.000000
vt 0.115789 0.000000
vt 0.126316 0.000000
vt 0.886792 0.000000
vt 0.867925 0.000000
vt 0.877358 0.000000
vt 0.660377 0.000000
vt 0.641509 0.000000
vt 0.650943 0.000000
vt 0.896226 0.000000
vt 0.858491 0.000000
vt 0.669811 0.000000
vt 0.632075 0.000000
vt 0.905660 0.000000
vt 0.849057 0.000000
vt 0.679245 0.000000
vt 0.915094 0.000000
vt 0.839623 0.000000
vt 0.622642 0.000000
vt 0.688679 0.000000
vt 0.924528 0.000000
vt 0.009434 0.000000
vt 0.990566 0.000000
vt 0.830189 0.000000
vt 0.698113 0.000000
vt 0.933962 0.000000
vt 0.613208 0.000000
vt 0.820755 0.000000
vt 0.943396 0.000000
vt 0.707547 0.000000
vt 0.811321 0.000000
vt 0.603774 0.000000
vt 0.952830 0.000000
vt 0.716981 0.000000
vt 0.801887 0.000000
vt 0.962264 0.000000
vt 0.726415 0.000000
vt 0.594340 0.000000
vt 0.792453 0.000000
vt 0.971698 0.000000
vt 0.735849 0.000000
vt 0.783019 0.000000
vt 0.981132 0.000000
vt 0.584906 0.000000
vt 0.745283 0.000000
vt 0.773585 0.000000
vt 0.754717 0.000000
vt 0.396226 0.000000
vt 0.575472 0.000000
vt 0.028302 0.000000
vt 0.037736 0.000000
vt 0.047170 0.000000
vt 0.056604 0.000000
vt 0.066038 0.000000
vt 0.075472 0.000000
vt 0.084906 0.000000
vt 0.094340 0.000000
vt 0.103774 0.000000
vt 0.113208 0.000000
vt 0.122642 0.000000
vt 0.132075 0.000000
vt 0.141509 0.000000
vt 0.764151 0.000000
vt 0.386792 0.000000
vt 0.150943 0.000000
vt 0.405660 0.000000
vt 0.377358 0.000000
vt 0.160377 0.000000
vt 0.415094 0.000000
vt 0.367925 0.000000
vt 0.169811 0.000000
vt 0.424528 0.000000
vt 0.358491 0.000000
vt 0.179245 0.000000
vt 0.433962 0.000000
vt 0.349057 0.000000
vt 0.566038 0.000000
vt 0.188679 0.000000
vt 0.339623 0.000000
vt 0.443396 0.000000
vt 0.330189 0.000000
vt 0.198113 0.000000
vt 0.452830 0.000000
vt 0.320755 0.000000
vt 0.207547 0.000000
vt 0.462264 0.000000
vt 0.311321 0.000000
vt 0.556604 0.000000
vt 0.216981 0.000000
vt 0.301887 0.000000
vt 0.471698 0.000000
vt 0.292453 0.000000
vt 0.226415 0.000000
vt 0.481132 0.000000
vt 0.283019 0.000000
vt 0.547170 0.000000
vt 0.235849 0.000000
vt 0.018868 0.000000
vt 0.273585 0.000000
vt 0.490566 0.000000
vt 0.245283 0.000000
vt 0.537736 0.000000
vt 0.254717 0.000000
vt 0.509434 0.000000
vt 0.528302 0.000000
vt 0.264151 0.000000
vt 0.518868 0.000000
vt 0.219653 0.000000
vt 0.208092 0.000000
vt 0.213873 0.000000
vt 0.225434 0.000000
vt 0.202312 0.000000
vt 0.231214 0.000000
vt 0.236994 0.000000
vt 0.196532 0.000000
vt 0.242775 0.000000
vt 0.190751 0.000000
vt 0.248555 0.000000
vt 0.254335 0.000000
vt 0.184971 0.000000
vt 0.260116 0.000000
vt 0.179191 0.000000
vt 0.265896 0.000000
vt 0.271676 0.000000
vt 0.173410 0.000000
vt 0.277457 0.000000
vt 0.167630 0.000000
vt 0.283237 0.000000
vt 0.289017 0.000000
vt 0.294798 0.000000
vt 0.300578 0.000000
vt 0.306358 0.000000
vt 0.312139 0.000000
vt 0.317919 0.000000
vt 0.323699 0.000000
vt 0.329480 0.000000
vt 0.335260 0.000000
vt 0.341040 0.000000
vt 0.346821 0.000000
vt 0.352601 0.000000
vt 0.358382 0.000000
vt 0.161850 0.000000
vt 0.364162 0.000000
vt 0.156069 0.000000
vt 0.369942 0.000000
vt 0.375723 0.000000
vt 0.381503 0.000000
vt 0.387283 0.000000
vt 0.393064 0.000000
vt 0.150289 0.000000
vt 0.398844 0.000000
vt 0.404624 0.000000
vt 0.410405 0.000000
vt 0.144509 0.000000
vt 0.416185 0.000000
vt 0.421965 0.000000
vt 0.138728 0.000000
vt 0.427746 0.000000
vt 0.433526 0.000000
vt 0.439306 0.000000
vt 0.445087 0.000000
vt 0.450867 0.000000
vt 0.456647 0.000000
vt 0.462428 0.000000
vt 0.994220 0.000000
vt 0.791907 0.000000
vt 0.988439 0.000000
vt 0.468208 0.000000
vt 0.982659 0.000000
vt 0.473988 0.000000
vt 0.976879 0.000000
vt 0.479769 0.000000
vt 0.971098 0.000000
vt 0.965318 0.000000
vt 0.485549 0.000000
vt 0.959538 0.000000
vt 0.491329 0.000000
vt 0.953757 0.000000
vt 0.947977 0.000000
vt 0.497110 0.000000
vt 0.942197 0.000000
vt 0.936416 0.000000
vt 0.502890 0.000000
vt 0.930636 0.000000
vt 0.508671 0.000000
vt 0.924855 0.000000
vt 0.919075 0.000000
vt 0.514451 0.000000
vt 0.913295 0.000000
vt 0.907514 0.000000
vt 0.797688 0.000000
vt 0.520231 0.000000
vt 0.803468 0.000000
vt 0.901734 0.000000
vt 0.809249 0.000000
vt 0.005780 0.000000
vt 0.786127 0.000000
vt 0.132948 0.000000
vt 0.895954 0.000000
vt 0.011561 0.000000
vt 0.815029 0.000000
vt 0.127168 0.000000
vt 0.017341 0.000000
vt 0.526012 0.000000
vt 0.890173 0.000000
vt 0.121387 0.000000
vt 0.820809 0.000000
vt 0.023121 0.000000
vt 0.115607 0.000000
vt 0.826590 0.000000
vt 0.028902 0.000000
vt 0.884393 0.000000
vt 0.109827 0.000000
vt 0.034682 0.000000
vt 0.832370 0.000000
vt 0.104046 0.000000
vt 0.040462 0.000000
vt 0.878613 0.000000
vt 0.098266 0.000000
vt 0.838150 0.000000
vt 0.046243 0.000000
vt 0.092486 0.000000
vt 0.531792 0.000000
vt 0.052023 0.000000
vt 0.872832 0.000000
vt 0.843931 0.000000
vt 0.086705 0.000000
vt 0.057803 0.000000
vt 0.080925 0.000000
vt 0.063584 0.000000
vt 0.849711 0.000000
vt 0.075145 0.000000
vt 0.069364 0.000000
vt 0.867052 0.000000
vt 0.855491 0.000000
vt 0.861272 0.000000
vt 0.647399 0.000000
vt 0.537572 0.000000
vt 0.641618 0.000000
vt 0.653179 0.000000
vt 0.543353 0.000000
vt 0.635838 0.000000
vt 0.658960 0.000000
vt 0.780347 0.000000
vt 0.549133 0.000000
vt 0.630058 0.000000
vt 0.664740 0.000000
vt 0.774566 0.000000
vt 0.624277 0.000000
vt 0.670520 0.000000
vt 0.554913 0.000000
vt 0.768786 0.000000
vt 0.618497 0.000000
vt 0.676301 0.000000
vt 0.763006 0.000000
vt 0.560694 0.000000
vt 0.612717 0.000000
vt 0.682081 0.000000
vt 0.757225 0.000000
vt 0.606936 0.000000
vt 0.687861 0.000000
vt 0.751445 0.000000
vt 0.566474 0.000000
vt 0.601156 0.000000
vt 0.693642 0.000000
vt 0.745665 0.000000
vt 0.595376 0.000000
vt 0.739884 0.000000
vt 0.699422 0.000000
vt 0.572254 0.000000
vt 0.734104 0.000000
vt 0.589595 0.000000
vt 0.705202 0.000000
vt 0.728324 0.000000
vt 0.583815 0.000000
vt 0.710983 0.000000
vt 0.578035 0.000000
vt 0.722543 0.000000
vt 0.716763 0.000000
vt 0.653465 0.000000
vt 0.633663 0.000000
vt 0.643564 0.000000
vt 0.623762 0.000000
vt 0.613861 0.000000
vt 0.603960 0.000000
vt 0.663366 0.000000
vt 0.594059 0.000000
vt 0.584158 0.000000
vt 0.574257 0.000000
vt 0.673267 0.000000
vt 0.564356 0.000000
vt 0.554455 0.000000
vt 0.683168 0.000000
vt 0.544554 0.000000
vt 0.534653 0.000000
vt 0.693069 0.000000
vt 0.524752 0.000000
vt 0.415842 0.000000
vt 0.425743 0.000000
vt 0.435644 0.000000
vt 0.445545 0.000000
vt 0.455446 0.000000
vt 0.465347 0.000000
vt 0.475248 0.000000
vt 0.485149 0.000000
vt 0.495050 0.000000
vt 0.504951 0.000000
vt 0.514852 0.000000
vt 0.702970 0.000000
vt 0.396040 0.000000
vt 0.405941 0.000000
vt 0.386139 0.000000
vt 0.376238 0.000000
vt 0.366337 0.000000
vt 0.712871 0.000000
vt 0.356436 0.000000
vt 0.346535 0.000000
vt 0.722772 0.000000
vt 0.336634 0.000000
vt 0.326733 0.000000
vt 0.732673 0.000000
vt 0.316832 0.000000
vt 0.742574 0.000000
vt 0.306931 0.000000
vt 0.297030 0.000000
vt 0.752475 0.000000
vt 0.287129 0.000000
vt 0.762376 0.000000
vt 0.277228 0.000000
vt 0.267327 0.000000
vt 0.772277 0.000000
vt 0.019802 0.000000
vt 0.009901 0.000000
vt 0.029703 0.000000
vt 0.257426 0.000000
vt 0.782178 0.000000
vt 0.247525 0.000000
vt 0.039604 0.000000
vt 0.792079 0.000000
vt 0.237624 0.000000
vt 0.227723 0.000000
vt 0.801980 0.000000
vt 0.217822 0.000000
vt 0.811881 0.000000
vt 0.207921 0.000000
vt 0.198020 0.000000
vt 0.821782 0.000000
vt 0.188119 0.000000
vt 0.049505 0.000000
vt 0.059406 0.000000
vt 0.069307 0.000000
vt 0.178218 0.000000
vt 0.079208 0.000000
vt 0.089109 0.000000
vt 0.099010 0.000000
vt 0.168317 0.000000
vt 0.831683 0.000000
vt 0.108911 0.000000
vt 0.118812 0.000000
vt 0.128713 0.000000
vt 0.158416 0.000000
vt 0.138614 0.000000
vt 0.148515 0.000000
vt 0.841584 0.000000
vt 0.990099 0.000000
vt 0.980198 0.000000
vt 0.851485 0.000000
vt 0.970297 0.000000
vt 0.960396 0.000000
vt 0.861386 0.000000
vt 0.950495 0.000000
vt 0.940594 0.000000
vt 0.930693 0.000000
vt 0.871287 0.000000
vt 0.920792 0.000000
vt 0.910891 0.000000
vt 0.900990 0.000000
vt 0.881188 0.000000
vt 0.891089 0.000000
s 0
usemtl マテリアル.007
f 2/1/1 48/2/1 1/3/1
f 3/4/1 48/2/1 2/1/1
f 3/4/1 47/5/1 48/2/1
f 4/6/1 47/5/1 3/4/1
f 4/6/1 46/7/1 47/5/1
f 5/8/1 46/7/1 4/6/1
f 5/8/1 45/9/1 46/7/1
f 6/10/1 45/9/1 5/8/1
f 6/10/1 44/11/1 45/9/1
f 7/12/1 44/11/1 6/10/1
f 7/12/1 43/13/1 44/11/1
f 8/14/1 43/13/1 7/12/1
f 8/14/1 42/15/1 43/13/1
f 9/16/1 42/15/1 8/14/1
f 9/16/1 41/17/1 42/15/1
f 10/18/1 41/17/1 9/16/1
f 10/18/1 40/19/1 41/17/1
f 11/20/1 40/19/1 10/18/1
f 11/20/1 39/21/1 40/19/1
f 12/22/1 39/21/1 11/20/1
f 12/22/1 38/23/1 39/21/1
f 12/22/1 37/24/1 38/23/1
f 13/25/1 37/24/1 12/22/1
f 14/26/1 37/24/1 13/25/1
f 14/26/1 36/27/1 37/24/1
f 15/28/1 36/27/1 14/26/1
f 15/28/1 35/29/1 36/27/1
f 16/30/1 35/29/1 15/28/1
f 16/30/1 34/31/1 35/29/1
f 17/32/1 34/31/1 16/30/1
f 17/32/1 33/33/1 34/31/1
f 18/34/1 33/33/1 17/32/1
f 18/34/1 32/35/1 33/33/1
f 19/36/1 32/35/1 18/34/1
f 19/36/1 31/37/1 32/35/1
f 20/38/1 31/37/1 19/36/1
f 20/38/1 30/39/1 31/37/1
f 21/40/1 30/39/1 20/38/1
f 21/40/1 29/41/1 30/39/1
f 22/42/1 29/41/1 21/40/1
f 22/42/1 28/43/1 29/41/1
f 23/44/1 28/43/1 22/42/1
f 23/44/1 27/45/1 28/43/1
f 24/46/1 27/45/1 23/44/1
f 24/46/1 26/47/1 27/45/1
f 25/48/1 26/47/1 24/46/1
f 50/1/1 96/2/1 49/3/1
f 51/4/1 96/2/1 50/1/1
f 51/4/1 95/5/1 96/2/1
f 52/6/1 95/5/1 51/4/1
f 52/6/1 94/7/1 95/5/1
f 53/8/1 94/7/1 52/6/1
f 53/8/1 93/9/1 94/7/1
f 54/10/1 93/9/1 53/8/1
f 54/10/1 92/11/1 93/9/1
f 55/12/1 92/11/1 54/10/1
f 55/12/1 91/13/1 92/11/1
f 56/14/1 91/13/1 55/12/1
f 56/14/1 90/15/1 91/13/1
f 57/16/1 90/15/1 56/14/1
f 57/16/1 89/17/1 90/15/1
f 58/18/1 89/17/1 57/16/1
f 58/18/1 88/19/1 89/17/1
f 59/20/1 88/19/1 58/18/1
f 59/20/1 87/21/1 88/19/1
f 60/22/1 87/21/1 59/20/1
f 60/22/1 86/23/1 87/21/1
f 60/22/1 85/24/1 86/23/1
f 61/25/1 85/24/1 60/22/1
f 62/26/1 85/24/1 61/25/1
f 62/26/1 84/27/1 85/24/1
f 63/28/1 84/27/1 62/26/1
f 63/28/1 83/29/1 84/27/1
f 64/30/1 83/29/1 63/28/1
f 64/30/1 82/31/1 83/29/1
f 65/32/1 82/31/1 64/30/1
f 65/32/1 81/33/1 82/31/1
f 66/34/1 81/33/1 65/32/1
f 66/34/1 80/35/1 81/33/1
f 67/36/1 80/35/1 66/34/1
f 67/36/1 79/37/1 80/35/1
f 68/38/1 79/37/1 67/36/1
f 68/38/1 78/39/1 79/37/1
f 69/40/1 78/39/1 68/38/1
f 69/40/1 77/41/1 78/39/1
f 70/42/1 77/41/1 69/40/1
f 70/42/1 76/43/1 77/41/1
f 71/44/1 76/43/1 70/42/1
f 71/44/1 75/45/1 76/43/1
f 72/46/1 75/45/1 71/44/1
f 72/46/1 74/47/1 75/45/1
f 73/48/1 74/47/1 72/46/1
f 98/1/1 144/2/1 97/3/1
f 99/4/1 144/2/1 98/1/1
f 99/4/1 143/5/1 144/2/1
f 100/6/1 143/5/1 99/4/1
f 100/6/1 142/7/1 143/5/1
f 101/8/1 142/7/1 100/6/1
f 101/8/1 141/9/1 142/7/1
f 102/10/1 141/9/1 101/8/1
f 102/10/1 140/11/1 141/9/1
f 103/12/1 140/11/1 102/10/1
f 103/12/1 139/13/1 140/11/1
f 104/14/1 139/13/1 103/12/1
f 104/14/1 138/15/1 139/13/1
f 105/16/1 138/15/1 104/14/1
f 105/16/1 137/17/1 138/15/1
f 106/18/1 137/17/1 105/16/1
f 106/18/1 136/19/1 137/17/1
f 107/20/1 136/19/1 106/18/1
f 107/20/1 135/21/1 136/19/1
f 108/22/1 135/21/1 107/20/1
f 108/22/1 134/23/1 135/21/1
f 108/22/1 133/24/1 134/23/1
f 109/25/1 133/24/1 108/22/1
f 110/26/1 133/24/1 109/25/1
f 110/26/1 132/27/1 133/24/1
f 111/28/1 132/27/1 110/26/1
f 111/28/1 131/29/1 132/27/1
f 112/30/1 131/29/1 111/28/1
f 112/30/1 130/31/1 131/29/1
f 113/32/1 130/31/1 112/30/1
f 113/32/1 129/33/1 130/31/1
f 114/34/1 129/33/1 113/32/1
f 114/34/1 128/35/1 129/33/1
f 115/36/1 128/35/1 114/34/1
f 115/36/1 127/37/1 128/35/1
f 116/38/1 127/37/1 115/36/1
f 116/38/1 126/39/1 127/37/1
f 117/40/1 126/39/1 116/38/1
f 117/40/1 125/41/1 126/39/1
f 118/42/1 125/41/1 117/40/1
f 118/42/1 124/43/1 125/41/1
f 119/44/1 124/43/1 118/42/1
f 119/44/1 123/45/1 124/43/1
f 120/46/1 123/45/1 119/44/1
f 120/46/1 122/47/1 123/45/1
f 121/48/1 122/47/1 120/46/1
f 186/49/1 184/50/1 185/51/1
f 186/49/1 183/52/1 184/50/1
f 187/53/1 183/52/1 186/49/1
f 187/53/1 182/54/1 183/52/1
f 188/55/1 182/54/1 187/53/1
f 188/55/1 181/56/1 182/54/1
f 188/55/1 180/57/1 181/56/1
f 189/58/1 180/57/1 188/55/1
f 189/58/1 179/59/1 180/57/1
f 146/60/1 199/2/1 145/3/1
f 146/60/1 198/61/1 199/2/1
f 190/62/1 179/59/1 189/58/1
f 190/62/1 178/63/1 179/59/1
f 190/62/1 177/64/1 178/63/1
f 191/65/1 177/64/1 190/62/1
f 191/65/1 176/66/1 177/64/1
f 192/67/1 176/66/1 191/65/1
f 192/67/1 175/68/1 176/66/1
f 192/67/1 174/69/1 175/68/1
f 193/70/1 174/69/1 192/67/1
f 193/70/1 173/71/1 174/69/1
f 194/72/1 173/71/1 193/70/1
f 194/72/1 163/73/1 173/71/1
f 163/73/1 164/74/1 173/71/1
f 164/74/1 165/75/1 173/71/1
f 165/75/1 166/76/1 173/71/1
f 166/76/1 167/77/1 173/71/1
f 167/77/1 168/78/1 173/71/1
f 168/78/1 169/79/1 173/71/1
f 169/79/1 170/80/1 173/71/1
f 170/80/1 171/81/1 173/71/1
f 171/81/1 172/82/1 173/71/1
f 195/83/1 161/84/1 194/72/1
f 161/84/1 162/85/1 194/72/1
f 162/85/1 163/73/1 194/72/1
f 196/86/1 159/87/1 195/83/1
f 159/87/1 160/88/1 195/83/1
f 160/88/1 161/84/1 195/83/1
f 196/86/1 158/89/1 159/87/1
f 196/86/1 157/90/1 158/89/1
f 197/91/1 157/90/1 196/86/1
f 197/91/1 156/92/1 157/90/1
f 197/91/1 155/93/1 156/92/1
f 146/60/1 197/91/1 198/61/1
f 146/60/1 151/94/1 197/91/1
f 151/94/1 152/95/1 197/91/1
f 152/95/1 153/96/1 197/91/1
f 153/96/1 154/97/1 197/91/1
f 154/97/1 155/93/1 197/91/1
f 146/60/1 150/98/1 151/94/1
f 146/60/1 149/99/1 150/98/1
f 146/60/1 148/100/1 149/99/1
f 146/60/1 147/101/1 148/100/1
f 238/102/1 236/103/1 237/104/1
f 238/102/1 235/105/1 236/103/1
f 239/106/1 235/105/1 238/102/1
f 239/106/1 234/107/1 235/105/1
f 240/108/1 234/107/1 239/106/1
f 240/108/1 233/109/1 234/107/1
f 241/110/1 233/109/1 240/108/1
f 241/110/1 232/111/1 233/109/1
f 242/112/1 232/111/1 241/110/1
f 242/112/1 231/113/1 232/111/1
f 243/114/1 231/113/1 242/112/1
f 243/114/1 230/115/1 231/113/1
f 244/116/1 286/117/1 243/114/1
f 286/117/1 230/115/1 243/114/1
f 244/116/1 285/118/1 286/117/1
f 287/119/1 230/115/1 286/117/1
f 244/116/1 284/120/1 285/118/1
f 288/121/1 230/115/1 287/119/1
f 244/116/1 283/122/1 284/120/1
f 289/123/1 230/115/1 288/121/1
f 289/123/1 229/124/1 230/115/1
f 244/116/1 282/125/1 283/122/1
f 245/126/1 282/125/1 244/116/1
f 290/127/1 229/124/1 289/123/1
f 245/126/1 281/128/1 282/125/1
f 291/129/1 229/124/1 290/127/1
f 245/126/1 280/130/1 281/128/1
f 292/131/1 229/124/1 291/129/1
f 245/126/1 279/132/1 280/130/1
f 293/133/1 229/124/1 292/131/1
f 246/134/1 279/132/1 245/126/1
f 293/133/1 228/135/1 229/124/1
f 246/134/1 278/136/1 279/132/1
f 294/137/1 228/135/1 293/133/1
f 246/134/1 277/138/1 278/136/1
f 295/139/1 228/135/1 294/137/1
f 247/140/1 277/138/1 246/134/1
f 295/139/1 227/141/1 228/135/1
f 247/140/1 276/142/1 277/138/1
f 296/143/1 227/141/1 295/139/1
f 247/140/1 275/144/1 276/142/1
f 297/145/1 227/141/1 296/143/1
f 248/146/1 275/144/1 247/140/1
f 248/146/1 274/147/1 275/144/1
f 297/145/1 226/148/1 227/141/1
f 298/2/1 226/148/1 297/145/1
f 248/146/1 298/2/1 274/147/1
f 248/146/1 226/148/1 298/2/1
f 249/82/1 226/148/1 248/146/1
f 249/82/1 225/149/1 226/148/1
f 250/150/1 224/151/1 249/82/1
f 224/151/1 225/149/1 249/82/1
f 250/150/1 223/152/1 224/151/1
f 251/153/1 223/152/1 250/150/1
f 251/153/1 222/154/1 223/152/1
f 251/153/1 221/155/1 222/154/1
f 252/156/1 221/155/1 251/153/1
f 252/156/1 220/157/1 221/155/1
f 253/158/1 220/157/1 252/156/1
f 253/158/1 219/159/1 220/157/1
f 201/160/1 273/161/1 200/3/1
f 253/158/1 218/162/1 219/159/1
f 202/163/1 273/161/1 201/160/1
f 203/164/1 273/161/1 202/163/1
f 254/165/1 218/162/1 253/158/1
f 254/165/1 217/166/1 218/162/1
f 204/167/1 273/161/1 203/164/1
f 205/168/1 273/161/1 204/167/1
f 254/165/1 216/169/1 217/166/1
f 206/170/1 273/161/1 205/168/1
f 254/165/1 215/171/1 216/169/1
f 207/172/1 273/161/1 206/170/1
f 255/173/1 215/171/1 254/165/1
f 208/174/1 273/161/1 207/172/1
f 255/173/1 214/175/1 215/171/1
f 209/176/1 273/161/1 208/174/1
f 255/173/1 213/177/1 214/175/1
f 210/178/1 273/161/1 209/176/1
f 211/179/1 273/161/1 210/178/1
f 255/173/1 212/180/1 213/177/1
f 212/180/1 273/161/1 211/179/1
f 255/173/1 273/161/1 212/180/1
f 256/181/1 273/161/1 255/173/1
f 256/181/1 272/182/1 273/161/1
f 257/183/1 272/182/1 256/181/1
f 257/183/1 271/184/1 272/182/1
f 257/183/1 270/185/1 271/184/1
f 258/186/1 270/185/1 257/183/1
f 258/186/1 269/187/1 270/185/1
f 258/186/1 268/188/1 269/187/1
f 259/189/1 268/188/1 258/186/1
f 259/189/1 267/190/1 268/188/1
f 259/189/1 266/191/1 267/190/1
f 260/192/1 266/191/1 259/189/1
f 260/192/1 265/193/1 266/191/1
f 260/192/1 264/194/1 265/193/1
f 260/192/1 263/195/1 264/194/1
f 261/196/1 263/195/1 260/192/1
f 261/196/1 262/197/1 263/195/1
f 299/3/1 304/62/1 305/2/1
f 299/3/1 303/56/1 304/62/1
f 303/56/1 301/73/1 302/82/1
f 303/56/1 300/97/1 301/73/1
f 299/3/1 300/97/1 303/56/1
f 343/198/1 341/199/1 342/200/1
f 343/198/1 340/201/1 341/199/1
f 344/202/1 340/201/1 343/198/1
f 344/202/1 339/203/1 340/201/1
f 345/204/1 339/203/1 344/202/1
f 345/204/1 338/205/1 339/203/1
f 346/206/1 338/205/1 345/204/1
f 346/206/1 337/207/1 338/205/1
f 347/208/1 337/207/1 346/206/1
f 347/208/1 336/209/1 337/207/1
f 348/210/1 366/211/1 347/208/1
f 366/211/1 336/209/1 347/208/1
f 348/210/1 365/212/1 366/211/1
f 367/213/1 336/209/1 366/211/1
f 368/214/1 336/209/1 367/213/1
f 348/210/1 364/215/1 365/212/1
f 369/216/1 336/209/1 368/214/1
f 348/210/1 363/217/1 364/215/1
f 369/216/1 335/218/1 336/209/1
f 349/219/1 363/217/1 348/210/1
f 370/220/1 335/218/1 369/216/1
f 349/219/1 362/221/1 363/217/1
f 371/222/1 335/218/1 370/220/1
f 349/219/1 361/223/1 362/221/1
f 371/222/1 334/224/1 335/218/1
f 350/225/1 361/223/1 349/219/1
f 372/226/1 334/224/1 371/222/1
f 350/225/1 360/227/1 361/223/1
f 373/228/1 334/224/1 372/226/1
f 350/225/1 359/229/1 360/227/1
f 373/228/1 333/230/1 334/224/1
f 351/231/1 359/229/1 350/225/1
f 374/232/1 333/230/1 373/228/1
f 351/231/1 358/233/1 359/229/1
f 374/232/1 332/234/1 333/230/1
f 352/235/1 358/233/1 351/231/1
f 375/236/1 332/234/1 374/232/1
f 352/235/1 357/237/1 358/233/1
f 376/238/1 332/234/1 375/236/1
f 352/235/1 356/239/1 357/237/1
f 376/238/1 331/240/1 332/234/1
f 353/241/1 356/239/1 352/235/1
f 377/242/1 331/240/1 376/238/1
f 353/241/1 355/243/1 356/239/1
f 377/242/1 330/244/1 331/240/1
f 306/3/1 355/243/1 353/241/1
f 378/245/1 330/244/1 377/242/1
f 306/3/1 354/246/1 355/243/1
f 307/247/1 354/246/1 306/3/1
f 307/247/1 401/2/1 354/246/1
f 379/248/1 330/244/1 378/245/1
f 379/248/1 329/249/1 330/244/1
f 307/247/1 400/250/1 401/2/1
f 380/251/1 329/249/1 379/248/1
f 380/251/1 328/252/1 329/249/1
f 308/253/1 400/250/1 307/247/1
f 308/253/1 399/254/1 400/250/1
f 381/255/1 328/252/1 380/251/1
f 381/255/1 327/256/1 328/252/1
f 309/257/1 399/254/1 308/253/1
f 382/258/1 327/256/1 381/255/1
f 309/257/1 398/259/1 399/254/1
f 382/258/1 326/260/1 327/256/1
f 310/261/1 398/259/1 309/257/1
f 383/262/1 326/260/1 382/258/1
f 310/261/1 397/263/1 398/259/1
f 384/264/1 326/260/1 383/262/1
f 310/261/1 396/265/1 397/263/1
f 384/264/1 325/266/1 326/260/1
f 311/267/1 396/265/1 310/261/1
f 385/268/1 325/266/1 384/264/1
f 311/267/1 395/269/1 396/265/1
f 386/270/1 325/266/1 385/268/1
f 311/267/1 394/271/1 395/269/1
f 386/270/1 324/272/1 325/266/1
f 312/273/1 394/271/1 311/267/1
f 387/274/1 324/272/1 386/270/1
f 312/273/1 393/275/1 394/271/1
f 388/276/1 324/272/1 387/274/1
f 312/273/1 392/277/1 393/275/1
f 388/276/1 323/278/1 324/272/1
f 313/279/1 392/277/1 312/273/1
f 389/280/1 323/278/1 388/276/1
f 313/279/1 391/281/1 392/277/1
f 390/282/1 323/278/1 389/280/1
f 313/279/1 390/282/1 391/281/1
f 313/279/1 323/278/1 390/282/1
f 313/279/1 322/283/1 323/278/1
f 314/284/1 322/283/1 313/279/1
f 314/284/1 321/285/1 322/283/1
f 315/286/1 321/285/1 314/284/1
f 315/286/1 320/287/1 321/285/1
f 316/288/1 320/287/1 315/286/1
f 316/288/1 319/289/1 320/287/1
f 317/290/1 319/289/1 316/288/1
f 317/290/1 318/291/1 319/289/1
f 440/102/1 438/103/1 439/104/1
f 440/102/1 437/105/1 438/103/1
f 441/106/1 437/105/1 440/102/1
f 441/106/1 436/107/1 437/105/1
f 442/108/1 436/107/1 441/106/1
f 442/108/1 435/109/1 436/107/1
f 443/110/1 435/109/1 442/108/1
f 443/110/1 434/111/1 435/109/1
f 444/112/1 434/111/1 443/110/1
f 444/112/1 433/113/1 434/111/1
f 445/114/1 433/113/1 444/112/1
f 445/114/1 432/115/1 433/113/1
f 446/116/1 488/117/1 445/114/1
f 488/117/1 432/115/1 445/114/1
f 446/116/1 487/118/1 488/117/1
f 489/119/1 432/115/1 488/117/1
f 446/116/1 486/120/1 487/118/1
f 490/121/1 432/115/1 489/119/1
f 446/116/1 485/122/1 486/120/1
f 491/123/1 432/115/1 490/121/1
f 491/123/1 431/124/1 432/115/1
f 446/116/1 484/125/1 485/122/1
f 447/126/1 484/125/1 446/116/1
f 492/127/1 431/124/1 491/123/1
f 447/126/1 483/128/1 484/125/1
f 493/129/1 431/124/1 492/127/1
f 447/126/1 482/130/1 483/128/1
f 494/131/1 431/124/1 493/129/1
f 447/126/1 481/132/1 482/130/1
f 495/133/1 431/124/1 494/131/1
f 448/134/1 481/132/1 447/126/1
f 495/133/1 430/135/1 431/124/1
f 448/134/1 480/136/1 481/132/1
f 496/137/1 430/135/1 495/133/1
f 448/134/1 479/138/1 480/136/1
f 497/139/1 430/135/1 496/137/1
f 449/140/1 479/138/1 448/134/1
f 497/139/1 429/141/1 430/135/1
f 449/140/1 478/142/1 479/138/1
f 498/143/1 429/141/1 497/139/1
f 449/140/1 477/144/1 478/142/1
f 499/145/1 429/141/1 498/143/1
f 450/146/1 477/144/1 449/140/1
f 450/146/1 476/147/1 477/144/1
f 499/145/1 428/148/1 429/141/1
f 500/2/1 428/148/1 499/145/1
f 450/146/1 500/2/1 476/147/1
f 450/146/1 428/148/1 500/2/1
f 451/82/1 428/148/1 450/146/1
f 451/82/1 427/149/1 428/148/1
f 452/150/1 426/151/1 451/82/1
f 426/151/1 427/149/1 451/82/1
f 452/150/1 425/152/1 426/151/1
f 453/153/1 425/152/1 452/150/1
f 453/153/1 424/154/1 425/152/1
f 453/153/1 423/155/1 424/154/1
f 454/156/1 423/155/1 453/153/1
f 454/156/1 422/157/1 423/155/1
f 455/158/1 422/157/1 454/156/1
f 455/158/1 421/159/1 422/157/1
f 403/160/1 475/161/1 402/3/1
f 455/158/1 420/162/1 421/159/1
f 404/163/1 475/161/1 403/160/1
f 405/164/1 475/161/1 404/163/1
f 456/165/1 420/162/1 455/158/1
f 456/165/1 419/166/1 420/162/1
f 406/167/1 475/161/1 405/164/1
f 407/168/1 475/161/1 406/167/1
f 456/165/1 418/169/1 419/166/1
f 408/170/1 475/161/1 407/168/1
f 456/165/1 417/171/1 418/169/1
f 409/172/1 475/161/1 408/170/1
f 457/173/1 417/171/1 456/165/1
f 410/174/1 475/161/1 409/172/1
f 457/173/1 416/175/1 417/171/1
f 411/176/1 475/161/1 410/174/1
f 457/173/1 415/177/1 416/175/1
f 412/178/1 475/161/1 411/176/1
f 413/179/1 475/161/1 412/178/1
f 457/173/1 414/180/1 415/177/1
f 414/180/1 475/161/1 413/179/1
f 457/173/1 475/161/1 414/180/1
f 458/181/1 475/161/1 457/173/1
f 458/181/1 474/182/1 475/161/1
f 459/183/1 474/182/1 458/181/1
f 459/183/1 473/184/1 474/182/1
f 459/183/1 472/185/1 473/184/1
f 460/186/1 472/185/1 459/183/1
f 460/186/1 471/187/1 472/185/1
f 460/186/1 470/188/1 471/187/1
f 461/189/1 470/188/1 460/186/1
f 461/189/1 469/190/1 470/188/1
f 461/189/1 468/191/1 469/190/1
f 462/192/1 468/191/1 461/189/1
f 462/192/1 467/193/1 468/191/1
f 462/192/1 466/194/1 467/193/1
f 462/192/1 465/195/1 466/194/1
f 463/196/1 465/195/1 462/192/1
f 463/196/1 464/197/1 465/195/1
f 595/292/1 593/293/1 594/294/1
f 571/295/1 569/296/1 570/297/1
f 596/298/1 593/293/1 595/292/1
f 596/298/1 592/299/1 593/293/1
f 572/300/1 569/296/1 571/295/1
f 572/300/1 568/301/1 569/296/1
f 597/302/1 592/299/1 596/298/1
f 597/302/1 591/303/1 592/299/1
f 573/304/1 568/301/1 572/300/1
f 598/305/1 591/303/1 597/302/1
f 598/305/1 590/306/1 591/303/1
f 573/304/1 567/307/1 568/301/1
f 574/308/1 567/307/1 573/304/1
f 599/309/1 590/306/1 598/305/1
f 502/310/1 607/2/1 501/3/1
f 502/310/1 606/311/1 607/2/1
f 599/309/1 589/312/1 590/306/1
f 575/313/1 567/307/1 574/308/1
f 600/314/1 589/312/1 599/309/1
f 575/313/1 566/315/1 567/307/1
f 600/314/1 588/316/1 589/312/1
f 601/317/1 588/316/1 600/314/1
f 576/318/1 566/315/1 575/313/1
f 601/317/1 587/319/1 588/316/1
f 576/318/1 565/320/1 566/315/1
f 602/321/1 587/319/1 601/317/1
f 577/322/1 565/320/1 576/318/1
f 602/321/1 586/323/1 587/319/1
f 603/324/1 586/323/1 602/321/1
f 578/325/1 565/320/1 577/322/1
f 578/325/1 564/326/1 565/320/1
f 603/324/1 585/327/1 586/323/1
f 604/328/1 585/327/1 603/324/1
f 579/329/1 564/326/1 578/325/1
f 604/328/1 584/330/1 585/327/1
f 605/331/1 584/330/1 604/328/1
f 579/329/1 563/332/1 564/326/1
f 580/333/1 563/332/1 579/329/1
f 605/331/1 583/334/1 584/330/1
f 606/311/1 583/334/1 605/331/1
f 581/335/1 563/332/1 580/333/1
f 581/335/1 543/336/1 563/332/1
f 543/336/1 562/337/1 563/332/1
f 502/310/1 504/338/1 606/311/1
f 504/338/1 505/339/1 606/311/1
f 505/339/1 506/340/1 606/311/1
f 506/340/1 507/341/1 606/311/1
f 507/341/1 508/342/1 606/311/1
f 508/342/1 509/343/1 606/311/1
f 509/343/1 510/344/1 606/311/1
f 510/344/1 511/345/1 606/311/1
f 511/345/1 512/346/1 606/311/1
f 512/346/1 513/347/1 606/311/1
f 513/347/1 514/348/1 606/311/1
f 514/348/1 515/349/1 606/311/1
f 515/349/1 583/334/1 606/311/1
f 515/349/1 516/350/1 583/334/1
f 516/350/1 582/351/1 583/334/1
f 582/351/1 542/352/1 581/335/1
f 542/352/1 543/336/1 581/335/1
f 517/353/1 582/351/1 516/350/1
f 544/354/1 562/337/1 543/336/1
f 582/351/1 541/355/1 542/352/1
f 518/356/1 582/351/1 517/353/1
f 545/357/1 562/337/1 544/354/1
f 582/351/1 540/358/1 541/355/1
f 519/359/1 582/351/1 518/356/1
f 546/360/1 562/337/1 545/357/1
f 582/351/1 539/361/1 540/358/1
f 520/362/1 582/351/1 519/359/1
f 520/362/1 539/361/1 582/351/1
f 547/363/1 562/337/1 546/360/1
f 520/362/1 538/364/1 539/361/1
f 547/363/1 561/365/1 562/337/1
f 521/366/1 538/364/1 520/362/1
f 521/366/1 537/367/1 538/364/1
f 548/368/1 561/365/1 547/363/1
f 521/366/1 536/369/1 537/367/1
f 522/370/1 536/369/1 521/366/1
f 549/371/1 561/365/1 548/368/1
f 522/370/1 535/372/1 536/369/1
f 523/373/1 535/372/1 522/370/1
f 550/374/1 561/365/1 549/371/1
f 523/373/1 534/375/1 535/372/1
f 550/374/1 560/376/1 561/365/1
f 524/377/1 534/375/1 523/373/1
f 524/377/1 533/378/1 534/375/1
f 551/379/1 560/376/1 550/374/1
f 524/377/1 532/380/1 533/378/1
f 525/381/1 532/380/1 524/377/1
f 552/382/1 560/376/1 551/379/1
f 525/381/1 531/383/1 532/380/1
f 552/382/1 559/384/1 560/376/1
f 526/385/1 531/383/1 525/381/1
f 502/310/1 503/386/1 504/338/1
f 526/385/1 530/387/1 531/383/1
f 553/388/1 559/384/1 552/382/1
f 527/389/1 530/387/1 526/385/1
f 554/82/1 559/384/1 553/388/1
f 554/82/1 558/390/1 559/384/1
f 528/391/1 530/387/1 527/389/1
f 555/392/1 558/390/1 554/82/1
f 555/392/1 557/393/1 558/390/1
f 529/394/1 530/387/1 528/391/1
f 556/395/1 557/393/1 555/392/1
f 646/396/1 644/397/1 645/398/1
f 647/399/1 644/397/1 646/396/1
f 647/399/1 643/400/1 644/397/1
f 648/401/1 643/400/1 647/399/1
f 649/402/1 643/400/1 648/401/1
f 649/402/1 642/403/1 643/400/1
f 650/404/1 642/403/1 649/402/1
f 650/404/1 641/405/1 642/403/1
f 651/406/1 641/405/1 650/404/1
f 652/407/1 641/405/1 651/406/1
f 652/407/1 640/408/1 641/405/1
f 653/409/1 640/408/1 652/407/1
f 653/409/1 639/410/1 640/408/1
f 654/411/1 639/410/1 653/409/1
f 655/412/1 639/410/1 654/411/1
f 655/412/1 638/413/1 639/410/1
f 656/414/1 638/413/1 655/412/1
f 656/414/1 637/415/1 638/413/1
f 657/416/1 637/415/1 656/414/1
f 658/417/1 659/418/1 657/416/1
f 659/418/1 660/419/1 657/416/1
f 660/419/1 661/420/1 657/416/1
f 661/420/1 662/421/1 657/416/1
f 662/421/1 663/422/1 657/416/1
f 663/422/1 664/423/1 657/416/1
f 664/423/1 665/424/1 657/416/1
f 665/424/1 666/425/1 657/416/1
f 666/425/1 667/426/1 657/416/1
f 667/426/1 668/427/1 657/416/1
f 668/427/1 637/415/1 657/416/1
f 668/427/1 669/428/1 637/415/1
f 669/428/1 670/429/1 637/415/1
f 670/429/1 636/430/1 637/415/1
f 670/429/1 671/431/1 636/430/1
f 671/431/1 635/432/1 636/430/1
f 672/433/1 635/432/1 671/431/1
f 673/434/1 635/432/1 672/433/1
f 674/435/1 635/432/1 673/434/1
f 675/436/1 635/432/1 674/435/1
f 676/437/1 635/432/1 675/436/1
f 676/437/1 634/438/1 635/432/1
f 677/439/1 634/438/1 676/437/1
f 678/440/1 634/438/1 677/439/1
f 679/441/1 634/438/1 678/440/1
f 679/441/1 633/442/1 634/438/1
f 680/443/1 633/442/1 679/441/1
f 681/444/1 633/442/1 680/443/1
f 681/444/1 632/445/1 633/442/1
f 682/446/1 632/445/1 681/444/1
f 683/447/1 632/445/1 682/446/1
f 684/448/1 781/2/1 683/447/1
f 781/2/1 632/445/1 683/447/1
f 685/449/1 781/2/1 684/448/1
f 686/450/1 781/2/1 685/449/1
f 687/451/1 781/2/1 686/450/1
f 688/452/1 781/2/1 687/451/1
f 688/452/1 780/453/1 781/2/1
f 745/454/1 632/445/1 781/2/1
f 688/452/1 779/455/1 780/453/1
f 689/456/1 779/455/1 688/452/1
f 689/456/1 778/457/1 779/455/1
f 690/458/1 778/457/1 689/456/1
f 690/458/1 777/459/1 778/457/1
f 691/460/1 777/459/1 690/458/1
f 691/460/1 776/461/1 777/459/1
f 691/460/1 775/462/1 776/461/1
f 692/463/1 775/462/1 691/460/1
f 692/463/1 774/464/1 775/462/1
f 693/465/1 774/464/1 692/463/1
f 693/465/1 773/466/1 774/464/1
f 693/465/1 772/467/1 773/466/1
f 694/468/1 772/467/1 693/465/1
f 694/468/1 771/469/1 772/467/1
f 694/468/1 770/470/1 771/469/1
f 695/471/1 770/470/1 694/468/1
f 695/471/1 769/472/1 770/470/1
f 696/473/1 769/472/1 695/471/1
f 696/473/1 768/474/1 769/472/1
f 696/473/1 767/475/1 768/474/1
f 697/476/1 767/475/1 696/473/1
f 697/476/1 766/477/1 767/475/1
f 697/476/1 765/478/1 766/477/1
f 746/479/1 632/445/1 745/454/1
f 698/480/1 765/478/1 697/476/1
f 747/481/1 632/445/1 746/479/1
f 698/480/1 764/482/1 765/478/1
f 748/483/1 632/445/1 747/481/1
f 609/484/1 744/485/1 608/3/1
f 748/483/1 631/486/1 632/445/1
f 698/480/1 763/487/1 764/482/1
f 610/488/1 744/485/1 609/484/1
f 749/489/1 631/486/1 748/483/1
f 749/489/1 630/490/1 631/486/1
f 611/491/1 744/485/1 610/488/1
f 699/492/1 763/487/1 698/480/1
f 699/492/1 762/493/1 763/487/1
f 749/489/1 629/494/1 630/490/1
f 750/495/1 629/494/1 749/489/1
f 612/496/1 744/485/1 611/491/1
f 750/495/1 628/497/1 629/494/1
f 751/498/1 628/497/1 750/495/1
f 613/499/1 744/485/1 612/496/1
f 699/492/1 761/500/1 762/493/1
f 751/498/1 627/501/1 628/497/1
f 614/502/1 744/485/1 613/499/1
f 752/503/1 627/501/1 751/498/1
f 752/503/1 626/504/1 627/501/1
f 615/505/1 744/485/1 614/502/1
f 699/492/1 760/506/1 761/500/1
f 752/503/1 625/507/1 626/504/1
f 753/508/1 625/507/1 752/503/1
f 616/509/1 744/485/1 615/505/1
f 753/508/1 624/510/1 625/507/1
f 700/511/1 760/506/1 699/492/1
f 617/512/1 744/485/1 616/509/1
f 700/511/1 759/513/1 760/506/1
f 754/514/1 624/510/1 753/508/1
f 754/514/1 623/515/1 624/510/1
f 618/516/1 744/485/1 617/512/1
f 754/514/1 622/517/1 623/515/1
f 619/518/1 744/485/1 618/516/1
f 755/519/1 622/517/1 754/514/1
f 755/519/1 621/520/1 622/517/1
f 620/521/1 744/485/1 619/518/1
f 755/519/1 620/521/1 621/520/1
f 700/511/1 758/522/1 759/513/1
f 755/519/1 744/485/1 620/521/1
f 756/523/1 744/485/1 755/519/1
f 700/511/1 757/524/1 758/522/1
f 757/524/1 744/485/1 756/523/1
f 700/511/1 720/525/1 757/524/1
f 720/525/1 744/485/1 757/524/1
f 701/526/1 720/525/1 700/511/1
f 701/526/1 719/527/1 720/525/1
f 721/528/1 744/485/1 720/525/1
f 702/529/1 719/527/1 701/526/1
f 702/529/1 718/530/1 719/527/1
f 722/531/1 744/485/1 721/528/1
f 722/531/1 743/532/1 744/485/1
f 703/533/1 718/530/1 702/529/1
f 703/533/1 717/534/1 718/530/1
f 723/535/1 743/532/1 722/531/1
f 723/535/1 742/536/1 743/532/1
f 703/533/1 716/537/1 717/534/1
f 724/538/1 742/536/1 723/535/1
f 704/539/1 716/537/1 703/533/1
f 724/538/1 741/540/1 742/536/1
f 704/539/1 715/541/1 716/537/1
f 725/542/1 741/540/1 724/538/1
f 725/542/1 740/543/1 741/540/1
f 705/544/1 715/541/1 704/539/1
f 705/544/1 714/545/1 715/541/1
f 726/546/1 740/543/1 725/542/1
f 726/546/1 739/547/1 740/543/1
f 705/544/1 713/548/1 714/545/1
f 727/549/1 739/547/1 726/546/1
f 727/549/1 738/550/1 739/547/1
f 706/551/1 713/548/1 705/544/1
f 706/551/1 712/552/1 713/548/1
f 728/553/1 738/550/1 727/549/1
f 728/553/1 737/554/1 738/550/1
f 706/551/1 711/555/1 712/552/1
f 728/553/1 736/556/1 737/554/1
f 729/557/1 736/556/1 728/553/1
f 707/558/1 711/555/1 706/551/1
f 729/557/1 735/559/1 736/556/1
f 707/558/1 710/560/1 711/555/1
f 730/561/1 735/559/1 729/557/1
f 730/561/1 734/562/1 735/559/1
f 707/558/1 709/563/1 710/560/1
f 731/564/1 734/562/1 730/561/1
f 708/565/1 709/563/1 707/558/1
f 731/564/1 733/566/1 734/562/1
f 732/567/1 733/566/1 731/564/1
f 848/568/1 846/569/1 847/570/1
f 848/568/1 845/571/1 846/569/1
f 848/568/1 844/572/1 845/571/1
f 848/568/1 843/573/1 844/572/1
f 849/574/1 843/573/1 848/568/1
f 849/574/1 842/575/1 843/573/1
f 849/574/1 841/576/1 842/575/1
f 849/574/1 840/577/1 841/576/1
f 850/578/1 840/577/1 849/574/1
f 850/578/1 839/579/1 840/577/1
f 850/578/1 838/580/1 839/579/1
f 851/581/1 838/580/1 850/578/1
f 851/581/1 837/582/1 838/580/1
f 851/581/1 836/583/1 837/582/1
f 852/584/1 836/583/1 851/581/1
f 852/584/1 835/585/1 836/583/1
f 852/584/1 824/586/1 835/585/1
f 824/586/1 825/587/1 835/585/1
f 825/587/1 826/588/1 835/585/1
f 826/588/1 827/589/1 835/585/1
f 827/589/1 828/590/1 835/585/1
f 828/590/1 829/591/1 835/585/1
f 829/591/1 830/592/1 835/585/1
f 830/592/1 831/593/1 835/585/1
f 831/593/1 832/594/1 835/585/1
f 832/594/1 833/595/1 835/585/1
f 833/595/1 834/596/1 835/585/1
f 853/597/1 822/598/1 852/584/1
f 822/598/1 823/599/1 852/584/1
f 823/599/1 824/586/1 852/584/1
f 853/597/1 821/600/1 822/598/1
f 853/597/1 820/601/1 821/600/1
f 853/597/1 819/602/1 820/601/1
f 854/603/1 819/602/1 853/597/1
f 854/603/1 818/604/1 819/602/1
f 854/603/1 817/605/1 818/604/1
f 855/606/1 817/605/1 854/603/1
f 855/606/1 816/607/1 817/605/1
f 855/606/1 815/608/1 816/607/1
f 856/609/1 815/608/1 855/606/1
f 856/609/1 814/610/1 815/608/1
f 857/611/1 814/610/1 856/609/1
f 857/611/1 813/612/1 814/610/1
f 857/611/1 812/613/1 813/612/1
f 858/614/1 812/613/1 857/611/1
f 858/614/1 811/615/1 812/613/1
f 859/616/1 811/615/1 858/614/1
f 859/616/1 810/617/1 811/615/1
f 859/616/1 809/618/1 810/617/1
f 860/619/1 809/618/1 859/616/1
f 784/620/1 782/3/1 783/621/1
f 784/620/1 785/622/1 782/3/1
f 785/622/1 883/2/1 782/3/1
f 860/619/1 808/623/1 809/618/1
f 861/624/1 808/623/1 860/619/1
f 861/624/1 807/625/1 808/623/1
f 786/626/1 883/2/1 785/622/1
f 862/627/1 807/625/1 861/624/1
f 862/627/1 806/628/1 807/625/1
f 862/627/1 805/629/1 806/628/1
f 863/630/1 805/629/1 862/627/1
f 863/630/1 804/631/1 805/629/1
f 864/632/1 804/631/1 863/630/1
f 864/632/1 803/633/1 804/631/1
f 864/632/1 802/634/1 803/633/1
f 865/635/1 802/634/1 864/632/1
f 865/635/1 801/636/1 802/634/1
f 787/637/1 883/2/1 786/626/1
f 788/638/1 883/2/1 787/637/1
f 789/639/1 883/2/1 788/638/1
f 865/635/1 800/640/1 801/636/1
f 790/641/1 883/2/1 789/639/1
f 791/642/1 883/2/1 790/641/1
f 792/643/1 883/2/1 791/642/1
f 865/635/1 799/644/1 800/640/1
f 866/645/1 799/644/1 865/635/1
f 793/646/1 883/2/1 792/643/1
f 794/647/1 883/2/1 793/646/1
f 795/648/1 883/2/1 794/647/1
f 866/645/1 798/649/1 799/644/1
f 796/650/1 883/2/1 795/648/1
f 797/651/1 883/2/1 796/650/1
f 798/649/1 883/2/1 797/651/1
f 866/645/1 883/2/1 798/649/1
f 867/652/1 883/2/1 866/645/1
f 867/652/1 882/653/1 883/2/1
f 867/652/1 881/654/1 882/653/1
f 868/655/1 881/654/1 867/652/1
f 868/655/1 880/656/1 881/654/1
f 868/655/1 879/657/1 880/656/1
f 869/658/1 879/657/1 868/655/1
f 869/658/1 878/659/1 879/657/1
f 869/658/1 877/660/1 878/659/1
f 869/658/1 876/661/1 877/660/1
f 870/662/1 876/661/1 869/658/1
f 870/662/1 875/663/1 876/661/1
f 870/662/1 874/664/1 875/663/1
f 870/662/1 873/665/1 874/664/1
f 871/666/1 873/665/1 870/662/1
f 871/666/1 872/667/1 873/665/1
