# Blender 4.5.3 LTS
# www.blender.org
mtllib skydome.mtl
o 球
v 0.000000 490.392639 97.545082
v 0.000000 461.939758 191.341660
v 0.000000 415.734863 277.785065
v 0.000000 353.553436 353.553314
v 0.000000 277.785156 415.734772
v 0.000000 191.341782 461.939758
v 0.000000 97.545250 490.392639
v 0.000000 0.000114 500.000000
v 0.000000 -97.545029 490.392670
v 0.000000 -415.734772 277.785156
v -19.030148 490.392639 95.670784
v -37.328957 461.939758 187.665085
v -54.193226 415.734863 272.447510
v -68.974876 353.553436 346.759888
v -81.105873 277.785156 407.746521
v -90.120003 191.341782 453.063690
v -95.670883 97.545250 480.969849
v -97.545189 0.000112 490.392639
v -95.670891 -97.545029 480.969879
v -90.120010 -191.341583 453.063721
v -81.105873 -277.785034 407.746643
v -68.974876 -353.553314 346.760010
v -54.193218 -415.734772 272.447601
v -37.328938 -461.939819 187.665115
v -19.030127 -490.392670 95.670815
v -37.328979 490.392639 90.119896
v -73.223366 461.939758 176.776642
v -106.303825 415.734863 256.639893
v -135.299088 353.553436 326.640625
v -159.094879 277.785156 384.088776
v -176.776733 191.341782 426.776642
v -187.665192 97.545235 453.063660
v -191.341766 0.000108 461.939728
v -187.665192 -97.545044 453.063660
v -176.776749 -191.341583 426.776672
v -159.094879 -277.785034 384.088898
v -135.299088 -353.553314 326.640747
v -106.303810 -415.734772 256.639984
v -73.223335 -461.939819 176.776672
v -37.328934 -490.392670 90.119926
v -54.193283 490.392639 81.105736
v -106.303856 461.939758 159.094757
v -154.329224 415.734863 230.969788
v -196.423828 353.553436 293.968781
v -230.969971 277.785156 345.670746
v -256.640045 191.341782 384.088806
v -272.447601 97.545235 407.746490
v -277.785217 0.000100 415.734741
v -272.447601 -97.545044 407.746490
v -256.640045 -191.341583 384.088837
v -230.969971 -277.785034 345.670868
v -196.423828 -353.553314 293.968903
v -154.329208 -415.734772 230.969879
v -106.303810 -461.939819 159.094803
v -54.193211 -490.392670 81.105789
v -68.974968 490.392639 68.974724
v -135.299149 461.939758 135.298920
v -196.423843 415.734802 196.423615
v -250.000092 353.553436 249.999878
v -293.968994 277.785156 293.968781
v -326.640808 191.341782 326.640656
v -346.760040 97.545219 346.759857
v -353.553497 0.000092 353.553284
v -346.760040 -97.545059 346.759857
v -326.640808 -191.341583 326.640686
v -293.968994 -277.785034 293.968903
v -250.000092 -353.553314 250.000000
v -196.423828 -415.734833 196.423706
v -135.299088 -461.939819 135.298996
v -68.974869 -490.392670 68.974792
v -81.105972 490.392639 54.193039
v -159.094955 461.939758 106.303619
v -230.970001 415.734802 154.328995
v -293.968994 353.553375 196.423584
v -345.670959 277.785156 230.969757
v -384.088959 191.341751 256.639893
v -407.746643 97.545219 272.447418
v -415.734924 0.000080 277.785004
v -407.746643 -97.545059 272.447418
v -384.088959 -191.341614 256.639923
v -345.670959 -277.785034 230.969818
v -293.968994 -353.553375 196.423706
v -230.969971 -415.734833 154.329086
v -159.094894 -461.939819 106.303741
v -81.105865 -490.392670 54.193130
v -90.120125 490.392639 37.328735
v -176.776840 461.939758 73.223137
v -256.640106 415.734802 106.303604
v -326.640839 353.553375 135.298843
v -384.088989 277.785095 159.094666
v -426.776764 191.341751 176.776550
v -453.063751 97.545204 187.664963
v -461.939880 0.000066 191.341583
v -453.063751 -97.545074 187.664963
v -426.776764 -191.341614 176.776642
v -384.088989 -277.785095 159.094727
v -326.640839 -353.553375 135.298965
v -256.640076 -415.734833 106.303696
v -176.776764 -461.939819 73.223267
v -90.120003 -490.392670 37.328854
v -95.671005 490.392639 19.029909
v -187.665283 461.939758 37.328720
v -272.447662 415.734802 54.192997
v -346.760071 353.553375 68.974663
v -407.746674 277.785095 81.105644
v -453.063782 191.341721 90.119820
v -480.969910 97.545189 95.670654
v -490.392731 0.000052 97.544998
v -480.969910 -97.545090 95.670685
v -453.063782 -191.341644 90.119911
v -407.746674 -277.785095 81.105736
v -346.760071 -353.553375 68.974754
v -272.447632 -415.734833 54.193096
v -187.665207 -461.939819 37.328850
v -95.670876 -490.392670 19.030041
v -97.545303 490.392639 -0.000237
v -191.341843 461.939758 -0.000230
v -277.785248 415.734802 -0.000218
v -353.553467 353.553375 -0.000214
v -415.734894 277.785095 -0.000209
v -461.939850 191.341721 -0.000165
v -490.392639 97.545174 -0.000211
v -500.000122 0.000038 -0.000189
v -490.392639 -97.545105 -0.000183
v -461.939850 -191.341644 -0.000087
v -415.734894 -277.785095 -0.000125
v -353.553467 -353.553375 -0.000106
v -277.785187 -415.734833 -0.000109
v -191.341766 -461.939819 -0.000082
v -97.545181 -490.392670 -0.000080
v -95.670998 490.392639 -19.030380
v -187.665268 461.939758 -37.329174
v -272.447662 415.734802 -54.193432
v -346.760040 353.553375 -68.975060
v -407.746643 277.785095 -81.106064
v -453.063782 191.341721 -90.120163
v -480.969849 97.545158 -95.671066
v -490.392731 0.000024 -97.545372
v -480.969849 -97.545120 -95.671036
v -453.063782 -191.341644 -90.120079
v -407.746643 -277.785095 -81.105972
v -346.760040 -353.553375 -68.974968
v -272.447601 -415.734833 -54.193314
v -187.665192 -461.939819 -37.329014
v -95.670876 -490.392670 -19.030205
v -90.120102 490.392639 -37.329208
v -176.776810 461.939758 -73.223587
v -256.640076 415.734802 -106.304024
v -326.640808 353.553375 -135.299271
v -384.088898 277.785095 -159.095047
v -426.776764 191.341690 -176.776886
v -453.063660 97.545143 -187.665314
v -461.939850 0.000010 -191.341934
v -453.063660 -97.545135 -187.665314
v -426.776764 -191.341675 -176.776794
v -384.088898 -277.785095 -159.094986
v -326.640808 -353.553375 -135.299149
v -256.640015 -415.734833 -106.303902
v -176.776733 -461.939819 -73.223404
v -90.119995 -490.392670 -37.329006
v -81.105942 490.392639 -54.193501
v -159.094925 461.939758 -106.304054
v -230.969971 415.734802 -154.329407
v -293.968964 353.553375 -196.423981
v -345.670868 277.785034 -230.970108
v -384.088928 191.341690 -256.640137
v -407.746521 97.545128 -272.447693
v -415.734863 -0.000004 -277.785339
v -407.746521 -97.545151 -272.447693
v -384.088928 -191.341675 -256.640137
v -345.670868 -277.785156 -230.970047
v -293.968964 -353.553375 -196.423859
v -230.969910 -415.734833 -154.329269
v -159.094849 -461.939819 -106.303871
v -81.105850 -490.392670 -54.193283
v -68.974930 490.392639 -68.975174
v -135.299118 461.939758 -135.299316
v -196.423798 415.734802 -196.424011
v -250.000031 353.553314 -250.000244
v -293.968872 277.785034 -293.969147
v -326.640808 191.341660 -326.640900
v -346.759918 97.545128 -346.760101
v -353.553406 -0.000016 -353.553619
v -346.759918 -97.545151 -346.760101
v -326.640808 -191.341705 -326.640900
v -293.968872 -277.785156 -293.969025
v -250.000031 -353.553436 -250.000122
v -196.423752 -415.734833 -196.423859
v -135.299042 -461.939819 -135.299149
v -68.974854 -490.392670 -68.974937
v -54.193249 490.392639 -81.106171
v -106.303825 461.939758 -159.095108
v -154.329178 415.734741 -230.970139
v -196.423752 353.553314 -293.969147
v -230.969864 277.785034 -345.671082
v -256.640045 191.341660 -384.089050
v -272.447510 97.545113 -407.746704
v -277.785126 -0.000024 -415.735046
v -272.447510 -97.545166 -407.746704
v -256.640045 -191.341705 -384.089050
v -230.969864 -277.785156 -345.670959
v -196.423752 -353.553436 -293.969025
v -154.329132 -415.734894 -230.970001
v -106.303772 -461.939819 -159.094925
v -54.193195 -490.392670 -81.105934
v 0.000000 -500.000000 -0.000087
v -37.328957 490.392639 -90.120316
v -73.223351 461.939758 -176.776978
v -106.303795 415.734741 -256.640259
v -135.299011 353.553314 -326.640961
v -159.094788 277.785034 -384.089081
v -176.776733 191.341660 -426.776855
v -187.665070 97.545113 -453.063812
v -191.341705 -0.000032 -461.940002
v -187.665070 -97.545166 -453.063812
v -176.776733 -191.341705 -426.776855
v -159.094788 -277.785156 -384.088959
v -135.299011 -353.553436 -326.640839
v -106.303749 -415.734894 -256.640076
v -73.223305 -461.939819 -176.776794
v -37.328926 -490.392670 -90.120071
v -19.030134 490.392639 -95.671204
v -37.328953 461.939758 -187.665421
v -54.193214 415.734741 -272.447815
v -68.974831 353.553314 -346.760193
v -81.105782 277.785034 -407.746735
v -90.120010 191.341660 -453.063873
v -95.670807 97.545097 -480.969971
v -97.545128 -0.000036 -490.392853
v -95.670807 -97.545181 -480.969971
v -90.120010 -191.341705 -453.063873
v -81.105782 -277.785156 -407.746613
v -68.974831 -353.553436 -346.760071
v -54.193180 -415.734894 -272.447632
v -37.328922 -461.939819 -187.665237
v -19.030121 -490.392670 -95.670944
v 0.000004 490.392639 -97.545502
v -0.000021 461.939758 -191.341980
v -0.000013 415.734741 -277.785400
v 0.000013 353.553314 -353.553589
v 0.000043 277.785034 -415.734924
v -0.000032 191.341660 -461.939941
v 0.000043 97.545097 -490.392700
v 0.000050 -0.000038 -500.000183
v 0.000043 -97.545181 -490.392700
v -0.000032 -191.341705 -461.939941
v 0.000043 -277.785156 -415.734802
v 0.000013 -353.553436 -353.553467
v 0.000005 -415.734894 -277.785187
v -0.000002 -461.939819 -191.341797
v -0.000002 -490.392670 -97.545242
v 19.030140 490.392639 -95.671188
v 37.328907 461.939758 -187.665390
v 54.193184 415.734741 -272.447815
v 68.974861 353.553314 -346.760162
v 81.105865 277.785034 -407.746674
v 90.119949 191.341660 -453.063873
v 95.670876 97.545097 -480.969910
v 97.545219 -0.000036 -490.392792
v 95.670876 -97.545181 -480.969910
v 90.119949 -191.341705 -453.063873
v 81.105865 -277.785156 -407.746552
v 68.974861 -353.553436 -346.760040
v 54.193184 -415.734894 -272.447601
v 37.328911 -461.939819 -187.665207
v 19.030115 -490.392670 -95.670937
v 37.328957 490.392639 -90.120293
v 73.223297 461.939758 -176.776932
v 106.303764 415.734741 -256.640259
v 135.299026 353.553314 -326.640930
v 159.094818 277.785034 -384.088928
v 176.776657 191.341660 -426.776855
v 187.665131 97.545113 -453.063721
v 191.341782 -0.000032 -461.939911
v 187.665131 -97.545166 -453.063721
v 176.776657 -191.341705 -426.776855
v 159.094818 -277.785156 -384.088806
v 135.299026 -353.553436 -326.640808
v 106.303749 -415.734894 -256.640045
v 73.223289 -461.939819 -176.776749
v 37.328911 -490.392670 -90.120049
v 54.193237 490.392639 -81.106140
v 106.303757 461.939758 -159.095047
v 154.329147 415.734741 -230.970139
v 196.423737 353.553314 -293.969086
v 230.969849 277.785034 -345.670898
v 256.639954 191.341660 -384.089020
v 272.447540 97.545113 -407.746582
v 277.785187 -0.000024 -415.734924
v 272.447540 -97.545166 -407.746582
v 256.639954 -191.341705 -384.089020
v 230.969849 -277.785156 -345.670776
v 196.423737 -353.553436 -293.968964
v 154.329117 -415.734894 -230.969940
v 106.303734 -461.939819 -159.094864
v 54.193172 -490.392670 -81.105904
v 0.000115 500.000000 -0.000354
v 68.974907 490.392639 -68.975136
v 135.299026 461.939758 -135.299240
v 196.423752 415.734802 -196.423996
v 250.000000 353.553314 -250.000183
v 293.968842 277.785034 -293.968933
v 326.640686 191.341660 -326.640869
v 346.759888 97.545128 -346.759949
v 353.553436 -0.000016 -353.553467
v 346.759888 -97.545151 -346.759949
v 326.640686 -191.341705 -326.640869
v 293.968842 -277.785156 -293.968811
v 250.000000 -353.553436 -250.000061
v 196.423706 -415.734833 -196.423782
v 135.298996 -461.939819 -135.299072
v 68.974823 -490.392670 -68.974907
v 81.105904 490.392639 -54.193466
v 159.094818 461.939758 -106.303978
v 230.969894 415.734802 -154.329376
v 293.968872 353.553375 -196.423920
v 345.670746 277.785034 -230.969925
v 384.088837 191.341690 -256.640137
v 407.746460 97.545128 -272.447540
v 415.734833 -0.000004 -277.785187
v 407.746460 -97.545151 -272.447540
v 384.088837 -191.341675 -256.640137
v 345.670746 -277.785156 -230.969864
v 293.968872 -353.553375 -196.423798
v 230.969849 -415.734833 -154.329178
v 159.094788 -461.939819 -106.303780
v 81.105812 -490.392670 -54.193253
v 90.120049 490.392639 -37.329182
v 176.776672 461.939758 -73.223511
v 256.639984 415.734802 -106.303978
v 326.640717 353.553375 -135.299194
v 384.088715 277.785095 -159.094864
v 426.776672 191.341690 -176.776886
v 453.063568 97.545143 -187.665115
v 461.939758 0.000010 -191.341766
v 453.063568 -97.545135 -187.665115
v 426.776672 -191.341675 -176.776825
v 384.088715 -277.785095 -159.094803
v 326.640717 -353.553375 -135.299072
v 256.639923 -415.734833 -106.303810
v 176.776627 -461.939819 -73.223328
v 90.119942 -490.392670 -37.328983
v 95.670929 490.392639 -19.030361
v 187.665100 461.939758 -37.329121
v 272.447571 415.734802 -54.193394
v 346.759949 353.553375 -68.974991
v 407.746399 277.785095 -81.105919
v 453.063690 191.341721 -90.120171
v 480.969696 97.545158 -95.670883
v 490.392609 0.000024 -97.545219
v 480.969696 -97.545120 -95.670853
v 453.063690 -191.341644 -90.120110
v 407.746399 -277.785095 -81.105827
v 346.759949 -353.553375 -68.974899
v 272.447510 -415.734833 -54.193249
v 187.665054 -461.939819 -37.328960
v 95.670822 -490.392670 -19.030195
v 97.545227 490.392639 -0.000230
v 191.341690 461.939758 -0.000211
v 277.785095 415.734802 -0.000203
v 353.553345 353.553375 -0.000147
v 415.734619 277.785095 -0.000112
v 461.939728 191.341721 -0.000188
v 490.392426 97.545174 -0.000062
v 499.999908 0.000038 -0.000070
v 490.392426 -97.545105 -0.000034
v 461.939728 -191.341644 -0.000132
v 415.734619 -277.785095 -0.000028
v 353.553345 -353.553375 -0.000039
v 277.785034 -415.734833 -0.000068
v 191.341629 -461.939819 -0.000056
v 97.545128 -490.392670 -0.000084
v 95.670921 490.392639 19.029902
v 187.665100 461.939758 37.328701
v 272.447540 415.734802 54.192982
v 346.759918 353.553375 68.974701
v 407.746338 277.785095 81.105682
v 453.063660 191.341721 90.119789
v 480.969604 97.545189 95.670753
v 490.392517 0.000052 97.545082
v 480.969604 -97.545090 95.670784
v 453.063660 -191.341644 90.119850
v 407.746338 -277.785095 81.105774
v 346.759918 -353.553375 68.974792
v 272.447479 -415.734833 54.193104
v 187.665039 -461.939819 37.328842
v 95.670822 -490.392670 19.030024
v 90.120041 490.392639 37.328709
v 176.776657 461.939758 73.223076
v 256.639923 415.734802 106.303558
v 326.640656 353.553375 135.298859
v 384.088623 277.785095 159.094650
v 426.776642 191.341751 176.776505
v 453.063416 97.545204 187.664978
v 461.939606 0.000066 191.341614
v 453.063416 -97.545074 187.664978
v 426.776642 -191.341614 176.776566
v 384.088623 -277.785095 159.094711
v 326.640656 -353.553375 135.298981
v 256.639862 -415.734833 106.303665
v 176.776596 -461.939819 73.223221
v 90.119942 -490.392670 37.328819
v 81.105888 490.392639 54.192989
v 159.094788 461.939758 106.303528
v 230.969818 415.734802 154.328918
v 293.968842 353.553375 196.423553
v 345.670624 277.785156 230.969666
v 384.088806 191.341751 256.639801
v 407.746277 97.545219 272.447357
v 415.734619 0.000080 277.784973
v 407.746277 -97.545059 272.447357
v 384.088806 -191.341614 256.639801
v 345.670624 -277.785034 230.969727
v 293.968842 -353.553375 196.423676
v 230.969757 -415.734833 154.329025
v 159.094727 -461.939819 106.303658
v 81.105804 -490.392670 54.193077
v 68.974884 490.392639 68.974655
v 135.298965 461.939758 135.298782
v 196.423660 415.734802 196.423508
v 249.999924 353.553436 249.999802
v 293.968658 277.785156 293.968628
v 326.640686 191.341782 326.640533
v 346.759674 97.545219 346.759674
v 353.553162 0.000092 353.553192
v 346.759674 -97.545059 346.759674
v 326.640686 -191.341583 326.640533
v 293.968658 -277.785034 293.968750
v 249.999924 -353.553314 249.999924
v 196.423615 -415.734833 196.423584
v 135.298935 -461.939819 135.298874
v 68.974815 -490.392670 68.974731
v 54.193214 490.392639 81.105652
v 106.303703 461.939758 159.094574
v 154.329056 415.734863 230.969635
v 196.423645 353.553436 293.968689
v 230.969650 277.785156 345.670532
v 256.639923 191.341782 384.088654
v 272.447296 97.545235 407.746216
v 277.784912 0.000100 415.734558
v 272.447296 -97.545044 407.746216
v 256.639923 -191.341583 384.088654
v 230.969650 -277.785034 345.670654
v 196.423645 -353.553314 293.968811
v 154.329025 -415.734772 230.969711
v 106.303688 -461.939819 159.094666
v 54.193161 -490.392670 81.105728
v 37.328930 490.392639 90.119804
v 73.223259 461.939758 176.776443
v 106.303696 415.734863 256.639709
v 135.298935 353.553436 326.640503
v 159.094604 277.785156 384.088470
v 176.776642 191.341782 426.776459
v 187.664902 97.545235 453.063324
v 191.341522 0.000108 461.939453
v 187.664902 -97.545044 453.063324
v 176.776642 -191.341583 426.776459
v 159.094604 -277.785034 384.088593
v 135.298935 -353.553314 326.640625
v 106.303665 -415.734772 256.639771
v 73.223244 -461.939819 176.776535
v 37.328896 -490.392670 90.119865
v 19.030113 490.392639 95.670685
v 37.328869 461.939758 187.664871
v 54.193119 415.734863 272.447266
v 68.974762 353.553436 346.759705
v 81.105659 277.785156 407.746124
v 90.119934 191.341782 453.063477
v 95.670670 97.545250 480.969421
v 97.544991 0.000112 490.392273
v 95.670670 -97.545029 480.969421
v 90.119934 -191.341583 453.063477
v 81.105659 -277.785034 407.746246
v 68.974762 -353.553314 346.759827
v 54.193100 -415.734772 272.447327
v 37.328861 -461.939819 187.664963
v 19.030102 -490.392670 95.670738
v -0.000032 -191.341583 461.939514
v -0.000136 -277.785034 415.734436
v -0.000076 -353.553314 353.553223
v -0.000039 -461.939819 191.341522
v -0.000008 -490.392670 97.545036
vn 0.0286 0.9565 -0.2902
vn 0.0975 -0.0975 -0.9904
vn 0.0097 -0.9951 -0.0980
vn 0.0097 0.9951 -0.0980
vn 0.0976 0.0975 -0.9904
vn 0.0286 -0.9565 -0.2902
vn 0.0938 0.2890 -0.9527
vn 0.0464 -0.8810 -0.4709
vn 0.0865 0.4696 -0.8786
vn 0.0624 -0.7715 -0.6332
vn 0.0759 0.6326 -0.7708
vn 0.0759 -0.6326 -0.7708
vn 0.0624 0.7715 -0.6332
vn 0.0865 -0.4696 -0.8786
vn 0.0464 0.8810 -0.4709
vn 0.0938 -0.2890 -0.9527
vn 0.2563 -0.4696 -0.8448
vn 0.1374 0.8810 -0.4528
vn 0.2779 -0.2890 -0.9161
vn 0.0846 0.9565 -0.2790
vn 0.2889 -0.0976 -0.9524
vn 0.0286 -0.9951 -0.0942
vn 0.0286 0.9951 -0.0942
vn 0.2889 0.0975 -0.9524
vn 0.0846 -0.9565 -0.2790
vn 0.2779 0.2890 -0.9161
vn 0.1374 -0.8810 -0.4528
vn 0.2563 0.4696 -0.8448
vn 0.1847 -0.7715 -0.6088
vn 0.2248 0.6326 -0.7412
vn 0.2248 -0.6326 -0.7412
vn 0.1847 0.7715 -0.6088
vn 0.4513 0.2890 -0.8443
vn 0.2230 -0.8810 -0.4173
vn 0.4162 0.4696 -0.7786
vn 0.2999 -0.7715 -0.5611
vn 0.3651 0.6326 -0.6831
vn 0.3651 -0.6326 -0.6831
vn 0.2999 0.7715 -0.5611
vn 0.4162 -0.4696 -0.7786
vn 0.2230 0.8810 -0.4173
vn 0.4513 -0.2890 -0.8443
vn 0.1374 0.9565 -0.2571
vn 0.4691 -0.0976 -0.8777
vn 0.0464 -0.9951 -0.0869
vn 0.0464 0.9951 -0.0869
vn 0.4691 0.0975 -0.8777
vn 0.1374 -0.9565 -0.2571
vn 0.3002 0.8810 -0.3658
vn 0.6073 -0.2890 -0.7400
vn 0.1850 0.9565 -0.2254
vn 0.6314 -0.0976 -0.7693
vn 0.0625 -0.9951 -0.0761
vn 0.0625 0.9951 -0.0761
vn 0.6314 0.0975 -0.7693
vn 0.6314 0.0976 -0.7693
vn 0.1850 -0.9565 -0.2254
vn 0.6073 0.2890 -0.7400
vn 0.3002 -0.8810 -0.3658
vn 0.5601 0.4696 -0.6825
vn 0.4036 -0.7715 -0.4918
vn 0.4913 0.6326 -0.5987
vn 0.4913 -0.6326 -0.5987
vn 0.4036 0.7715 -0.4918
vn 0.5601 -0.4696 -0.6825
vn 0.6825 0.4696 -0.5601
vn 0.4918 -0.7715 -0.4036
vn 0.5987 0.6326 -0.4913
vn 0.5987 -0.6326 -0.4913
vn 0.4918 0.7715 -0.4036
vn 0.6825 -0.4696 -0.5601
vn 0.3658 0.8810 -0.3002
vn 0.7400 -0.2890 -0.6073
vn 0.2254 0.9565 -0.1850
vn 0.7693 -0.0976 -0.6314
vn 0.0761 -0.9951 -0.0625
vn 0.0761 0.9951 -0.0625
vn 0.7693 0.0976 -0.6314
vn 0.7693 0.0975 -0.6314
vn 0.2254 -0.9565 -0.1850
vn 0.7400 0.2890 -0.6073
vn 0.3658 -0.8810 -0.3002
vn 0.2571 0.9565 -0.1374
vn 0.8777 -0.0975 -0.4691
vn 0.8777 -0.0976 -0.4691
vn 0.0869 -0.9951 -0.0464
vn 0.0869 0.9951 -0.0464
vn 0.8777 0.0976 -0.4691
vn 0.8777 0.0975 -0.4691
vn 0.2571 -0.9565 -0.1374
vn 0.8443 0.2890 -0.4513
vn 0.4173 -0.8810 -0.2230
vn 0.7786 0.4696 -0.4162
vn 0.5611 -0.7715 -0.2999
vn 0.6831 0.6326 -0.3651
vn 0.6831 -0.6326 -0.3651
vn 0.5611 0.7715 -0.2999
vn 0.7786 -0.4696 -0.4162
vn 0.4173 0.8810 -0.2230
vn 0.4173 0.8810 -0.2231
vn 0.8443 -0.2890 -0.4513
vn 0.6088 -0.7715 -0.1847
vn 0.7412 0.6326 -0.2248
vn 0.7412 -0.6326 -0.2248
vn 0.6088 0.7715 -0.1847
vn 0.8448 -0.4696 -0.2563
vn 0.4528 0.8810 -0.1374
vn 0.9161 -0.2890 -0.2779
vn 0.2790 0.9565 -0.0846
vn 0.9524 -0.0976 -0.2889
vn 0.0942 -0.9951 -0.0286
vn 0.0942 0.9951 -0.0286
vn 0.9524 0.0976 -0.2889
vn 0.9524 0.0975 -0.2889
vn 0.2790 -0.9565 -0.0846
vn 0.9161 0.2890 -0.2779
vn 0.4528 -0.8810 -0.1374
vn 0.8448 0.4696 -0.2563
vn 0.9904 -0.0976 -0.0975
vn 0.9904 -0.0975 -0.0975
vn 0.0980 -0.9951 -0.0097
vn 0.0980 0.9951 -0.0097
vn 0.9904 0.0976 -0.0975
vn 0.2902 -0.9565 -0.0286
vn 0.9527 0.2890 -0.0938
vn 0.4709 -0.8810 -0.0464
vn 0.8786 0.4696 -0.0865
vn 0.6332 -0.7715 -0.0624
vn 0.7708 0.6326 -0.0759
vn 0.7708 -0.6326 -0.0759
vn 0.6332 0.7715 -0.0624
vn 0.8786 -0.4696 -0.0865
vn 0.4709 0.8810 -0.0464
vn 0.9527 -0.2890 -0.0938
vn 0.2902 0.9565 -0.0286
vn 0.7708 0.6326 0.0759
vn 0.7708 -0.6326 0.0759
vn 0.6332 0.7715 0.0624
vn 0.8786 -0.4696 0.0865
vn 0.4709 0.8810 0.0464
vn 0.9527 -0.2890 0.0938
vn 0.2902 0.9565 0.0286
vn 0.9904 -0.0976 0.0975
vn 0.0980 -0.9951 0.0097
vn 0.0980 0.9951 0.0097
vn 0.9904 0.0976 0.0975
vn 0.2902 -0.9565 0.0286
vn 0.9527 0.2890 0.0938
vn 0.4709 -0.8810 0.0464
vn 0.8786 0.4696 0.0865
vn 0.6332 -0.7715 0.0624
vn 0.0942 -0.9951 0.0286
vn 0.0942 0.9951 0.0286
vn 0.9524 0.0976 0.2889
vn 0.2790 -0.9565 0.0846
vn 0.9161 0.2890 0.2779
vn 0.4528 -0.8810 0.1374
vn 0.8448 0.4696 0.2563
vn 0.6088 -0.7715 0.1847
vn 0.7412 0.6326 0.2248
vn 0.7412 -0.6326 0.2248
vn 0.6088 0.7715 0.1847
vn 0.8448 -0.4696 0.2563
vn 0.4528 0.8810 0.1374
vn 0.9161 -0.2890 0.2779
vn 0.2790 0.9565 0.0846
vn 0.9524 -0.0976 0.2889
vn 0.6831 -0.6326 0.3651
vn 0.5611 0.7715 0.2999
vn 0.7786 -0.4696 0.4162
vn 0.4173 0.8810 0.2230
vn 0.4173 0.8810 0.2231
vn 0.8443 -0.2890 0.4513
vn 0.2571 0.9565 0.1374
vn 0.8777 -0.0976 0.4691
vn 0.0869 -0.9951 0.0464
vn 0.0869 0.9951 0.0464
vn 0.8777 0.0976 0.4691
vn 0.2571 -0.9565 0.1374
vn 0.8443 0.2890 0.4513
vn 0.4173 -0.8810 0.2230
vn 0.7786 0.4696 0.4162
vn 0.5611 -0.7715 0.2999
vn 0.6831 0.6326 0.3651
vn 0.7693 0.0976 0.6314
vn 0.2254 -0.9565 0.1850
vn 0.7400 0.2890 0.6073
vn 0.3658 -0.8810 0.3002
vn 0.6825 0.4696 0.5601
vn 0.4918 -0.7715 0.4036
vn 0.5987 0.6326 0.4913
vn 0.5987 -0.6326 0.4913
vn 0.4918 0.7715 0.4036
vn 0.6825 -0.4696 0.5601
vn 0.3658 0.8810 0.3002
vn 0.7400 -0.2890 0.6073
vn 0.2254 0.9565 0.1850
vn 0.7693 -0.0976 0.6314
vn 0.0761 -0.9951 0.0625
vn 0.0761 0.9951 0.0625
vn 0.4036 0.7715 0.4918
vn 0.5601 -0.4696 0.6825
vn 0.3002 0.8810 0.3658
vn 0.6073 -0.2890 0.7400
vn 0.1850 0.9565 0.2254
vn 0.6314 -0.0976 0.7693
vn 0.0625 -0.9951 0.0761
vn 0.0625 0.9951 0.0761
vn 0.6314 0.0976 0.7693
vn 0.1850 -0.9565 0.2254
vn 0.6073 0.2890 0.7400
vn 0.3002 -0.8810 0.3658
vn 0.5601 0.4696 0.6825
vn 0.4036 -0.7715 0.4918
vn 0.4913 0.6326 0.5987
vn 0.4913 -0.6326 0.5987
vn 0.4513 0.2890 0.8443
vn 0.2230 -0.8810 0.4173
vn 0.2231 -0.8810 0.4173
vn 0.4162 0.4696 0.7786
vn 0.2999 -0.7715 0.5611
vn 0.3651 0.6326 0.6831
vn 0.3651 -0.6326 0.6831
vn 0.2999 0.7715 0.5611
vn 0.4162 -0.4696 0.7786
vn 0.2230 0.8810 0.4173
vn 0.4513 -0.2890 0.8443
vn 0.1374 0.9565 0.2571
vn 0.1374 0.9566 0.2571
vn 0.4691 -0.0976 0.8777
vn 0.0464 -0.9951 0.0869
vn 0.0464 0.9951 0.0869
vn 0.4691 0.0976 0.8777
vn 0.1374 -0.9565 0.2571
vn 0.1374 0.8810 0.4528
vn 0.2779 -0.2890 0.9161
vn 0.0846 0.9565 0.2790
vn 0.2889 -0.0976 0.9524
vn 0.0286 -0.9951 0.0942
vn 0.0286 0.9951 0.0942
vn 0.2889 0.0976 0.9524
vn 0.0846 -0.9565 0.2790
vn 0.2779 0.2890 0.9161
vn 0.1374 -0.8810 0.4528
vn 0.2563 0.4696 0.8448
vn 0.1847 -0.7715 0.6088
vn 0.2248 0.6326 0.7412
vn 0.2248 -0.6326 0.7412
vn 0.1847 0.7715 0.6088
vn 0.2563 -0.4696 0.8448
vn 0.0464 -0.8810 0.4709
vn 0.0865 0.4696 0.8786
vn 0.0624 -0.7715 0.6332
vn 0.0759 0.6326 0.7708
vn 0.0759 -0.6326 0.7708
vn 0.0624 0.7715 0.6332
vn 0.0865 -0.4696 0.8786
vn 0.0464 0.8810 0.4709
vn 0.0938 -0.2890 0.9527
vn 0.0286 0.9565 0.2902
vn 0.0975 -0.0976 0.9904
vn 0.0097 -0.9951 0.0980
vn 0.0097 0.9951 0.0980
vn 0.0975 0.0976 0.9904
vn 0.0286 -0.9565 0.2902
vn 0.0938 0.2890 0.9527
vn -0.0938 -0.2890 0.9527
vn -0.0286 0.9565 0.2902
vn -0.0976 -0.0976 0.9904
vn -0.0975 -0.0976 0.9904
vn -0.0097 -0.9951 0.0980
vn -0.0097 0.9951 0.0980
vn -0.0976 0.0976 0.9904
vn -0.0286 -0.9565 0.2902
vn -0.0938 0.2890 0.9527
vn -0.0464 -0.8810 0.4709
vn -0.0865 0.4696 0.8786
vn -0.0624 -0.7715 0.6332
vn -0.0759 0.6326 0.7708
vn -0.0759 -0.6326 0.7708
vn -0.0624 0.7715 0.6332
vn -0.0865 -0.4696 0.8786
vn -0.0464 0.8810 0.4709
vn -0.2563 0.4696 0.8448
vn -0.1847 -0.7715 0.6088
vn -0.2248 0.6326 0.7412
vn -0.2248 -0.6326 0.7412
vn -0.1847 0.7715 0.6088
vn -0.2563 -0.4696 0.8448
vn -0.1374 0.8810 0.4528
vn -0.2779 -0.2890 0.9161
vn -0.0846 0.9565 0.2790
vn -0.2889 -0.0976 0.9524
vn -0.0286 -0.9951 0.0942
vn -0.0286 0.9951 0.0942
vn -0.2889 0.0976 0.9524
vn -0.0846 -0.9565 0.2790
vn -0.2779 0.2890 0.9161
vn -0.1374 -0.8810 0.4528
vn -0.1374 0.9565 0.2571
vn -0.4691 -0.0976 0.8777
vn -0.0464 -0.9951 0.0869
vn -0.0464 0.9951 0.0869
vn -0.4691 0.0976 0.8777
vn -0.1374 -0.9565 0.2571
vn -0.4513 0.2890 0.8443
vn -0.2230 -0.8810 0.4173
vn -0.2231 -0.8810 0.4173
vn -0.4162 0.4696 0.7786
vn -0.2999 -0.7715 0.5611
vn -0.3651 0.6326 0.6831
vn -0.3651 -0.6326 0.6831
vn -0.2999 0.7715 0.5611
vn -0.4162 -0.4696 0.7786
vn -0.2230 0.8810 0.4173
vn -0.2231 0.8810 0.4173
vn -0.4513 -0.2890 0.8443
vn -0.4036 -0.7715 0.4918
vn -0.4913 0.6326 0.5987
vn -0.4913 -0.6326 0.5987
vn -0.4036 0.7715 0.4918
vn -0.5601 -0.4696 0.6825
vn -0.3002 0.8810 0.3658
vn -0.6073 -0.2890 0.7400
vn -0.1850 0.9565 0.2254
vn -0.6314 -0.0976 0.7693
vn -0.0625 -0.9951 0.0761
vn -0.0625 0.9951 0.0761
vn -0.6314 0.0976 0.7693
vn -0.1850 -0.9565 0.2254
vn -0.6073 0.2890 0.7400
vn -0.3002 -0.8810 0.3658
vn -0.5601 0.4696 0.6825
vn -0.7693 -0.0976 0.6314
vn -0.0761 -0.9951 0.0625
vn -0.0761 0.9951 0.0625
vn -0.7693 0.0976 0.6314
vn -0.2254 -0.9565 0.1850
vn -0.7400 0.2890 0.6073
vn -0.3658 -0.8810 0.3002
vn -0.6825 0.4696 0.5601
vn -0.4918 -0.7715 0.4036
vn -0.5987 0.6326 0.4913
vn -0.5987 -0.6326 0.4913
vn -0.4918 0.7715 0.4036
vn -0.6825 -0.4696 0.5601
vn -0.3658 0.8810 0.3002
vn -0.7400 -0.2890 0.6073
vn -0.2254 0.9565 0.1850
vn -0.6831 0.6326 0.3651
vn -0.6831 -0.6326 0.3651
vn -0.5611 0.7715 0.2999
vn -0.7786 -0.4696 0.4162
vn -0.4173 0.8810 0.2230
vn -0.4173 0.8810 0.2231
vn -0.8443 -0.2890 0.4513
vn -0.2571 0.9565 0.1374
vn -0.8777 -0.0976 0.4691
vn -0.0869 -0.9951 0.0464
vn -0.0869 0.9951 0.0464
vn -0.8777 0.0976 0.4691
vn -0.2571 -0.9565 0.1374
vn -0.8443 0.2890 0.4513
vn -0.4173 -0.8810 0.2231
vn -0.4173 -0.8810 0.2230
vn -0.7786 0.4696 0.4162
vn -0.5611 -0.7715 0.2999
vn -0.0942 0.9951 0.0286
vn -0.9524 0.0976 0.2889
vn -0.2790 -0.9565 0.0846
vn -0.9161 0.2890 0.2779
vn -0.4528 -0.8810 0.1374
vn -0.8448 0.4696 0.2563
vn -0.6088 -0.7715 0.1847
vn -0.7412 0.6326 0.2248
vn -0.7412 -0.6326 0.2248
vn -0.6088 0.7715 0.1847
vn -0.8448 -0.4696 0.2563
vn -0.4528 0.8810 0.1374
vn -0.9161 -0.2890 0.2779
vn -0.2790 0.9565 0.0846
vn -0.9524 -0.0976 0.2889
vn -0.0942 -0.9951 0.0286
vn -0.6332 0.7715 0.0624
vn -0.8786 -0.4696 0.0865
vn -0.4709 0.8810 0.0464
vn -0.9527 -0.2890 0.0938
vn -0.2902 0.9565 0.0286
vn -0.9904 -0.0976 0.0975
vn -0.0980 -0.9951 0.0097
vn -0.0980 0.9951 0.0097
vn -0.9904 0.0976 0.0975
vn -0.2902 -0.9565 0.0286
vn -0.9527 0.2890 0.0938
vn -0.4709 -0.8810 0.0464
vn -0.8786 0.4696 0.0865
vn -0.6332 -0.7715 0.0624
vn -0.7708 0.6326 0.0759
vn -0.7708 -0.6326 0.0759
vn -0.2902 -0.9565 -0.0286
vn -0.9527 0.2890 -0.0938
vn -0.4709 -0.8810 -0.0464
vn -0.8786 0.4696 -0.0865
vn -0.6332 -0.7715 -0.0624
vn -0.7708 0.6326 -0.0759
vn -0.7708 -0.6326 -0.0759
vn -0.6332 0.7715 -0.0624
vn -0.8786 -0.4696 -0.0865
vn -0.4709 0.8810 -0.0464
vn -0.9527 -0.2890 -0.0938
vn -0.2902 0.9565 -0.0286
vn -0.9904 -0.0976 -0.0976
vn -0.9904 -0.0976 -0.0975
vn -0.0980 -0.9951 -0.0097
vn -0.0980 0.9951 -0.0097
vn -0.9904 0.0976 -0.0976
vn -0.9904 0.0976 -0.0975
vn -0.8448 -0.4696 -0.2563
vn -0.4528 0.8810 -0.1374
vn -0.9161 -0.2890 -0.2779
vn -0.2790 0.9565 -0.0846
vn -0.9524 -0.0976 -0.2889
vn -0.0942 -0.9951 -0.0286
vn -0.0942 0.9951 -0.0286
vn -0.9524 0.0976 -0.2889
vn -0.2790 -0.9565 -0.0846
vn -0.9161 0.2890 -0.2779
vn -0.4528 -0.8810 -0.1374
vn -0.8448 0.4696 -0.2563
vn -0.6088 -0.7715 -0.1847
vn -0.7412 0.6326 -0.2248
vn -0.7412 -0.6326 -0.2248
vn -0.6088 0.7715 -0.1847
vn -0.8443 0.2890 -0.4513
vn -0.4173 -0.8810 -0.2230
vn -0.7786 0.4696 -0.4162
vn -0.5611 -0.7715 -0.2999
vn -0.6831 0.6326 -0.3651
vn -0.6831 -0.6326 -0.3651
vn -0.5611 0.7715 -0.2999
vn -0.7786 -0.4696 -0.4162
vn -0.4173 0.8810 -0.2231
vn -0.8443 -0.2890 -0.4513
vn -0.2571 0.9565 -0.1374
vn -0.8777 -0.0976 -0.4691
vn -0.0869 -0.9951 -0.0464
vn -0.0869 0.9951 -0.0464
vn -0.8777 0.0976 -0.4691
vn -0.2571 -0.9565 -0.1374
vn -0.3658 0.8810 -0.3002
vn -0.7400 -0.2890 -0.6073
vn -0.2254 0.9565 -0.1850
vn -0.7693 -0.0976 -0.6314
vn -0.0761 -0.9951 -0.0625
vn -0.0761 0.9951 -0.0625
vn -0.7693 0.0976 -0.6314
vn -0.2254 -0.9565 -0.1850
vn -0.7400 0.2890 -0.6073
vn -0.3658 -0.8810 -0.3002
vn -0.6825 0.4696 -0.5601
vn -0.4918 -0.7715 -0.4036
vn -0.5987 0.6326 -0.4913
vn -0.5987 -0.6326 -0.4913
vn -0.4918 0.7715 -0.4036
vn -0.6825 -0.4696 -0.5601
vn -0.3002 -0.8810 -0.3658
vn -0.5601 0.4696 -0.6825
vn -0.4036 -0.7715 -0.4918
vn -0.4913 0.6326 -0.5987
vn -0.4913 -0.6326 -0.5987
vn -0.4036 0.7715 -0.4918
vn -0.5601 -0.4696 -0.6825
vn -0.3002 0.8810 -0.3658
vn -0.6073 -0.2890 -0.7400
vn -0.1850 0.9565 -0.2254
vn -0.6314 -0.0976 -0.7693
vn -0.0625 -0.9951 -0.0761
vn -0.0625 0.9951 -0.0761
vn -0.6314 0.0976 -0.7693
vn -0.1850 -0.9565 -0.2254
vn -0.6073 0.2890 -0.7400
vn -0.4513 -0.2890 -0.8443
vn -0.1374 0.9565 -0.2571
vn -0.4691 -0.0976 -0.8777
vn -0.0464 -0.9951 -0.0869
vn -0.0464 0.9951 -0.0869
vn -0.4691 0.0976 -0.8777
vn -0.1374 -0.9565 -0.2571
vn -0.4513 0.2890 -0.8443
vn -0.2230 -0.8810 -0.4173
vn -0.4162 0.4696 -0.7786
vn -0.2999 -0.7715 -0.5611
vn -0.3651 0.6326 -0.6831
vn -0.3651 -0.6326 -0.6831
vn -0.2999 0.7715 -0.5611
vn -0.4162 -0.4696 -0.7786
vn -0.2231 0.8810 -0.4173
vn -0.2230 0.8810 -0.4173
vn -0.2563 0.4696 -0.8448
vn -0.1847 -0.7715 -0.6088
vn -0.2248 0.6326 -0.7412
vn -0.2248 -0.6326 -0.7412
vn -0.1847 0.7715 -0.6088
vn -0.2563 -0.4696 -0.8448
vn -0.1374 0.8810 -0.4528
vn -0.2779 -0.2890 -0.9161
vn -0.0846 0.9565 -0.2790
vn -0.2889 -0.0976 -0.9524
vn -0.0286 -0.9951 -0.0942
vn -0.0286 0.9951 -0.0942
vn -0.2889 0.0976 -0.9524
vn -0.0846 -0.9565 -0.2790
vn -0.2779 0.2890 -0.9161
vn -0.1374 -0.8810 -0.4528
vn -0.0286 0.9565 -0.2902
vn -0.0976 -0.0976 -0.9904
vn -0.0097 -0.9951 -0.0980
vn -0.0097 0.9951 -0.0980
vn -0.0976 0.0975 -0.9904
vn -0.0976 0.0976 -0.9904
vn -0.0286 -0.9565 -0.2902
vn -0.0938 0.2890 -0.9527
vn -0.0464 -0.8810 -0.4709
vn -0.0865 0.4696 -0.8786
vn -0.0624 -0.7715 -0.6332
vn -0.0759 0.6326 -0.7708
vn -0.0759 -0.6326 -0.7708
vn -0.0624 0.7715 -0.6332
vn -0.0865 -0.4696 -0.8786
vn -0.0464 0.8810 -0.4709
vn -0.0938 -0.2890 -0.9527
vn 0.0976 -0.0976 -0.9904
vn 0.0975 0.0975 -0.9904
vn 0.2231 0.8810 -0.4173
vn 0.4691 -0.0975 -0.8777
vn 0.6314 -0.0975 -0.7693
vn 0.9904 -0.0976 0.0976
vn -0.1374 0.9566 0.2571
vn -0.0976 -0.0975 -0.9904
vt 0.718750 0.062500
vt 0.750000 0.125000
vt 0.750000 0.062500
vt 0.718750 0.500000
vt 0.750000 0.562500
vt 0.750000 0.500000
vt 0.750000 0.937500
vt 0.718750 0.937500
vt 0.734375 1.000000
vt 0.734375 0.000000
vt 0.718750 0.437500
vt 0.750000 0.437500
vt 0.750000 0.875000
vt 0.718750 0.375000
vt 0.750000 0.375000
vt 0.750000 0.812500
vt 0.718750 0.875000
vt 0.718750 0.312500
vt 0.750000 0.312500
vt 0.718750 0.750000
vt 0.750000 0.750000
vt 0.718750 0.250000
vt 0.750000 0.250000
vt 0.718750 0.687500
vt 0.750000 0.687500
vt 0.718750 0.187500
vt 0.750000 0.187500
vt 0.750000 0.625000
vt 0.718750 0.125000
vt 0.718750 0.562500
vt 0.687500 0.625000
vt 0.718750 0.625000
vt 0.687500 0.125000
vt 0.687500 0.062500
vt 0.687500 0.500000
vt 0.687500 0.937500
vt 0.703125 1.000000
vt 0.703125 0.000000
vt 0.687500 0.437500
vt 0.687500 0.875000
vt 0.687500 0.812500
vt 0.718750 0.812500
vt 0.687500 0.312500
vt 0.687500 0.750000
vt 0.687500 0.687500
vt 0.687500 0.187500
vt 0.656250 0.375000
vt 0.687500 0.375000
vt 0.656250 0.812500
vt 0.656250 0.250000
vt 0.687500 0.250000
vt 0.656250 0.687500
vt 0.656250 0.187500
vt 0.656250 0.625000
vt 0.656250 0.125000
vt 0.687500 0.562500
vt 0.656250 0.062500
vt 0.656250 0.500000
vt 0.656250 0.937500
vt 0.671875 1.000000
vt 0.671875 0.000000
vt 0.656250 0.437500
vt 0.656250 0.875000
vt 0.625000 0.125000
vt 0.625000 0.562500
vt 0.656250 0.562500
vt 0.625000 0.937500
vt 0.640625 1.000000
vt 0.640625 0.000000
vt 0.625000 0.062500
vt 0.625000 0.437500
vt 0.625000 0.875000
vt 0.625000 0.812500
vt 0.656250 0.312500
vt 0.625000 0.375000
vt 0.625000 0.750000
vt 0.656250 0.750000
vt 0.625000 0.250000
vt 0.625000 0.687500
vt 0.625000 0.187500
vt 0.625000 0.625000
vt 0.625000 0.312500
vt 0.593750 0.375000
vt 0.593750 0.750000
vt 0.593750 0.250000
vt 0.593750 0.625000
vt 0.593750 0.125000
vt 0.593750 0.562500
vt 0.593750 0.062500
vt 0.625000 0.500000
vt 0.593750 0.937500
vt 0.609375 1.000000
vt 0.609375 0.000000
vt 0.593750 0.437500
vt 0.593750 0.875000
vt 0.593750 0.812500
vt 0.562500 0.125000
vt 0.562500 0.500000
vt 0.593750 0.500000
vt 0.562500 0.937500
vt 0.578125 1.000000
vt 0.578125 0.000000
vt 0.562500 0.062500
vt 0.562500 0.437500
vt 0.562500 0.875000
vt 0.562500 0.375000
vt 0.562500 0.812500
vt 0.593750 0.312500
vt 0.562500 0.312500
vt 0.562500 0.687500
vt 0.593750 0.687500
vt 0.562500 0.187500
vt 0.593750 0.187500
vt 0.562500 0.625000
vt 0.562500 0.750000
vt 0.531250 0.812500
vt 0.531250 0.250000
vt 0.562500 0.250000
vt 0.531250 0.687500
vt 0.531250 0.187500
vt 0.531250 0.625000
vt 0.531250 0.125000
vt 0.562500 0.562500
vt 0.531250 0.062500
vt 0.531250 0.500000
vt 0.531250 0.937500
vt 0.546875 1.000000
vt 0.546875 0.000000
vt 0.531250 0.437500
vt 0.531250 0.875000
vt 0.531250 0.375000
vt 0.500000 0.500000
vt 0.531250 0.562500
vt 0.500000 0.937500
vt 0.515625 1.000000
vt 0.515625 0.000000
vt 0.500000 0.062500
vt 0.500000 0.437500
vt 0.500000 0.875000
vt 0.500000 0.375000
vt 0.500000 0.812500
vt 0.531250 0.312500
vt 0.500000 0.750000
vt 0.531250 0.750000
vt 0.500000 0.250000
vt 0.500000 0.687500
vt 0.500000 0.625000
vt 0.500000 0.187500
vt 0.468750 0.250000
vt 0.500000 0.312500
vt 0.468750 0.750000
vt 0.468750 0.187500
vt 0.468750 0.625000
vt 0.468750 0.125000
vt 0.500000 0.125000
vt 0.500000 0.562500
vt 0.468750 0.500000
vt 0.468750 0.937500
vt 0.484374 1.000000
vt 0.484375 0.000000
vt 0.468750 0.062500
vt 0.468750 0.437500
vt 0.468750 0.875000
vt 0.468750 0.375000
vt 0.468750 0.812500
vt 0.437500 0.937500
vt 0.453124 1.000000
vt 0.453125 0.000000
vt 0.437500 0.062500
vt 0.437500 0.437500
vt 0.437500 0.875000
vt 0.437500 0.375000
vt 0.468750 0.312500
vt 0.437500 0.750000
vt 0.437500 0.250000
vt 0.468750 0.687500
vt 0.437500 0.187500
vt 0.437500 0.625000
vt 0.437500 0.125000
vt 0.468750 0.562500
vt 0.437500 0.500000
vt 0.437500 0.687500
vt 0.406250 0.750000
vt 0.406250 0.250000
vt 0.406250 0.625000
vt 0.406250 0.125000
vt 0.437500 0.562500
vt 0.406250 0.500000
vt 0.406250 0.937500
vt 0.421874 1.000000
vt 0.421875 0.000000
vt 0.406250 0.062500
vt 0.406250 0.875000
vt 0.406250 0.375000
vt 0.406250 0.812500
vt 0.437500 0.812500
vt 0.437500 0.312500
vt 0.375000 0.437500
vt 0.406250 0.437500
vt 0.375000 0.875000
vt 0.375000 0.375000
vt 0.406250 0.312500
vt 0.375000 0.750000
vt 0.375000 0.250000
vt 0.375000 0.687500
vt 0.406250 0.687500
vt 0.406250 0.187500
vt 0.375000 0.625000
vt 0.375000 0.125000
vt 0.406250 0.562500
vt 0.375000 0.062500
vt 0.375000 0.500000
vt 0.375000 0.937500
vt 0.390625 1.000000
vt 0.390625 0.000000
vt 0.375000 0.187500
vt 0.343750 0.250000
vt 0.343750 0.625000
vt 0.343750 0.187500
vt 0.375000 0.562500
vt 0.343750 0.125000
vt 0.343750 0.500000
vt 0.343750 0.937500
vt 0.359375 1.000000
vt 0.359375 0.000000
vt 0.343750 0.062500
vt 0.343750 0.875000
vt 0.343750 0.375000
vt 0.343750 0.812500
vt 0.375000 0.812500
vt 0.375000 0.312500
vt 0.343750 0.750000
vt 0.312500 0.375000
vt 0.343750 0.437500
vt 0.312500 0.812500
vt 0.343750 0.312500
vt 0.312500 0.750000
vt 0.312500 0.250000
vt 0.312500 0.687500
vt 0.343750 0.687500
vt 0.312500 0.187500
vt 0.312500 0.625000
vt 0.343750 0.562500
vt 0.312500 0.062500
vt 0.312500 0.500000
vt 0.312500 0.937500
vt 0.328125 1.000000
vt 0.328125 0.000000
vt 0.312500 0.437500
vt 0.312500 0.875000
vt 0.281250 0.125000
vt 0.312500 0.125000
vt 0.312500 0.562500
vt 0.281250 0.625000
vt 0.281250 0.062500
vt 0.281250 0.500000
vt 0.281250 0.937500
vt 0.296875 1.000000
vt 0.296875 0.000000
vt 0.281250 0.437500
vt 0.281250 0.875000
vt 0.281250 0.375000
vt 0.281250 0.812500
vt 0.312500 0.312500
vt 0.281250 0.250000
vt 0.281250 0.687500
vt 0.281250 0.187500
vt 0.250000 0.812500
vt 0.281250 0.312500
vt 0.250000 0.375000
vt 0.281250 0.750000
vt 0.250000 0.250000
vt 0.250000 0.750000
vt 0.250000 0.625000
vt 0.250000 0.187500
vt 0.281250 0.562500
vt 0.250000 0.125000
vt 0.250000 0.500000
vt 0.250000 0.937500
vt 0.265625 1.000000
vt 0.265625 0.000000
vt 0.250000 0.062500
vt 0.250000 0.437500
vt 0.250000 0.875000
vt 0.250000 0.562500
vt 0.218750 0.625000
vt 0.218750 0.125000
vt 0.218750 0.500000
vt 0.218750 0.937500
vt 0.234375 1.000000
vt 0.234375 0.000000
vt 0.218750 0.062500
vt 0.218750 0.437500
vt 0.218750 0.875000
vt 0.218750 0.375000
vt 0.218750 0.812500
vt 0.250000 0.312500
vt 0.218750 0.250000
vt 0.250000 0.687500
vt 0.218750 0.750000
vt 0.218750 0.187500
vt 0.218750 0.312500
vt 0.187500 0.375000
vt 0.187500 0.812500
vt 0.187500 0.250000
vt 0.187500 0.687500
vt 0.218750 0.687500
vt 0.187500 0.187500
vt 0.187500 0.625000
vt 0.187500 0.125000
vt 0.218750 0.562500
vt 0.187500 0.062500
vt 0.187500 0.562500
vt 0.187500 0.937500
vt 0.203125 1.000000
vt 0.203125 0.000000
vt 0.187500 0.437500
vt 0.187500 0.875000
vt 0.156250 0.125000
vt 0.156250 0.500000
vt 0.187500 0.500000
vt 0.156250 0.937500
vt 0.171875 1.000000
vt 0.171875 0.000000
vt 0.156250 0.062500
vt 0.156250 0.437500
vt 0.156250 0.875000
vt 0.156250 0.375000
vt 0.156250 0.812500
vt 0.187500 0.312500
vt 0.156250 0.750000
vt 0.187500 0.750000
vt 0.156250 0.250000
vt 0.156250 0.625000
vt 0.125000 0.812500
vt 0.125000 0.250000
vt 0.156250 0.312500
vt 0.156250 0.687500
vt 0.125000 0.750000
vt 0.125000 0.187500
vt 0.156250 0.187500
vt 0.125000 0.625000
vt 0.156250 0.562500
vt 0.125000 0.062500
vt 0.125000 0.562500
vt 0.125000 0.937500
vt 0.140625 1.000000
vt 0.140625 0.000000
vt 0.125000 0.437500
vt 0.125000 0.875000
vt 0.125000 0.375000
vt 0.093750 0.500000
vt 0.125000 0.500000
vt 0.093750 0.937500
vt 0.109375 1.000000
vt 0.109375 0.000000
vt 0.093750 0.062500
vt 0.093750 0.437500
vt 0.093750 0.375000
vt 0.093750 0.812500
vt 0.125000 0.312500
vt 0.093750 0.250000
vt 0.125000 0.687500
vt 0.093750 0.750000
vt 0.093750 0.187500
vt 0.093750 0.625000
vt 0.125000 0.125000
vt 0.062500 0.250000
vt 0.093750 0.312500
vt 0.093750 0.687500
vt 0.062500 0.750000
vt 0.062500 0.187500
vt 0.062500 0.625000
vt 0.093750 0.125000
vt 0.093750 0.562500
vt 0.062500 0.062500
vt 0.062500 0.500000
vt 0.062500 0.937500
vt 0.078125 1.000000
vt 0.078125 0.000000
vt 0.062500 0.437500
vt 0.062500 0.875000
vt 0.093750 0.875000
vt 0.062500 0.375000
vt 0.062500 0.812500
vt 0.046875 0.000000
vt 0.031250 0.062500
vt 0.031250 0.500000
vt 0.031250 0.937500
vt 0.031250 0.375000
vt 0.031250 0.812500
vt 0.062500 0.312500
vt 0.031250 0.250000
vt 0.062500 0.687500
vt 0.031250 0.750000
vt 0.031250 0.187500
vt 0.031250 0.625000
vt 0.031250 0.125000
vt 0.062500 0.125000
vt 0.062500 0.562500
vt 0.046875 1.000000
vt 0.000000 0.187500
vt 0.000000 0.625000
vt 0.031250 0.687500
vt 0.031250 0.562500
vt 0.000000 0.062500
vt 0.000000 0.500000
vt 0.000000 0.937500
vt 0.015625 1.000000
vt 0.015625 0.000000
vt 0.031250 0.437500
vt 0.031250 0.875000
vt 0.000000 0.375000
vt 0.000000 0.812500
vt 0.031250 0.312500
vt 0.000000 0.750000
vt 0.000000 0.312500
vt 0.000000 0.687500
vt 1.000000 0.875000
vt 0.968750 0.937500
vt 1.000000 0.937500
vt 0.968750 0.375000
vt 1.000000 0.437500
vt 1.000000 0.375000
vt 0.968750 0.812500
vt 1.000000 0.812500
vt 1.000000 0.312500
vt 0.968750 0.750000
vt 1.000000 0.750000
vt 1.000000 0.250000
vt 0.968750 0.312500
vt 0.968750 0.687500
vt 1.000000 0.687500
vt 0.968750 0.187500
vt 1.000000 0.187500
vt 0.968750 0.625000
vt 1.000000 0.625000
vt 0.968750 0.125000
vt 1.000000 0.125000
vt 1.000000 0.562500
vt 0.968750 0.062500
vt 1.000000 0.062500
vt 0.968750 0.500000
vt 1.000000 0.500000
vt 0.984375 1.000000
vt 0.984375 0.000000
vt 0.937500 0.625000
vt 0.937500 0.125000
vt 0.968750 0.562500
vt 0.937500 0.062500
vt 0.937500 0.500000
vt 0.937500 0.937500
vt 0.953125 1.000000
vt 0.953125 0.000000
vt 0.937500 0.437500
vt 0.968750 0.437500
vt 0.937500 0.875000
vt 0.968750 0.875000
vt 0.937500 0.375000
vt 0.937500 0.812500
vt 0.937500 0.750000
vt 0.937500 0.250000
vt 0.968750 0.250000
vt 0.937500 0.687500
vt 0.937500 0.187500
vt 0.906250 0.375000
vt 0.906250 0.812500
vt 0.937500 0.312500
vt 0.906250 0.250000
vt 0.906250 0.750000
vt 0.906250 0.625000
vt 0.906250 0.125000
vt 0.937500 0.562500
vt 0.906250 0.062500
vt 0.906250 0.500000
vt 0.906250 0.937500
vt 0.921875 1.000000
vt 0.921875 0.000000
vt 0.906250 0.875000
vt 0.875000 0.125000
vt 0.906250 0.187500
vt 0.906250 0.562500
vt 0.875000 0.625000
vt 0.875000 0.062500
vt 0.875000 0.500000
vt 0.875000 0.937500
vt 0.890625 1.000000
vt 0.890625 0.000000
vt 0.906250 0.437500
vt 0.875000 0.875000
vt 0.875000 0.375000
vt 0.875000 0.812500
vt 0.906250 0.312500
vt 0.875000 0.250000
vt 0.906250 0.687500
vt 0.875000 0.750000
vt 0.875000 0.187500
vt 0.843750 0.812500
vt 0.875000 0.312500
vt 0.843750 0.375000
vt 0.843750 0.750000
vt 0.843750 0.250000
vt 0.875000 0.687500
vt 0.843750 0.625000
vt 0.843750 0.125000
vt 0.875000 0.562500
vt 0.843750 0.062500
vt 0.843750 0.500000
vt 0.843750 0.937500
vt 0.859375 1.000000
vt 0.859375 0.000000
vt 0.843750 0.437500
vt 0.875000 0.437500
vt 0.843750 0.875000
vt 0.843750 0.562500
vt 0.812500 0.625000
vt 0.812500 0.062500
vt 0.812500 0.500000
vt 0.812500 0.937500
vt 0.828125 1.000000
vt 0.828125 0.000000
vt 0.812500 0.437500
vt 0.812500 0.375000
vt 0.812500 0.812500
vt 0.843750 0.312500
vt 0.812500 0.750000
vt 0.812500 0.250000
vt 0.843750 0.687500
vt 0.812500 0.187500
vt 0.843750 0.187500
vt 0.812500 0.312500
vt 0.781250 0.375000
vt 0.781250 0.750000
vt 0.781250 0.250000
vt 0.812500 0.687500
vt 0.781250 0.187500
vt 0.781250 0.625000
vt 0.781250 0.125000
vt 0.812500 0.125000
vt 0.812500 0.562500
vt 0.781250 0.062500
vt 0.781250 0.500000
vt 0.781250 0.937500
vt 0.796875 1.000000
vt 0.796875 0.000000
vt 0.781250 0.437500
vt 0.781250 0.875000
vt 0.812500 0.875000
vt 0.781250 0.812500
vt 0.781250 0.562500
vt 0.765625 1.000000
vt 0.765625 0.000000
vt 0.781250 0.312500
vt 0.781250 0.687500
vt 0.000000 0.250000
vt 0.000000 0.125000
vt 0.000000 0.562500
vt 0.000000 0.437500
vt 0.000000 0.875000
s 1
usemtl マテリアル.005
f 25/1/1 481/2/1 482/3/1
f 18/4/2 7/5/2 8/6/2
f 1/7/3 11/8/3 297/9/3
f 206/10/4 25/1/4 482/3/4
f 19/11/5 8/6/5 9/12/5
f 2/13/6 11/8/6 1/7/6
f 20/14/7 9/12/7 478/15/7
f 3/16/8 12/17/8 2/13/8
f 21/18/9 478/15/9 479/19/9
f 14/20/10 3/16/10 4/21/10
f 22/22/11 479/19/11 480/23/11
f 15/24/12 4/21/12 5/25/12
f 23/26/13 480/23/13 10/27/13
f 6/28/14 15/24/14 5/25/14
f 24/29/15 10/27/15 481/2/15
f 17/30/16 6/28/16 7/5/16
f 31/31/17 15/24/17 16/32/17
f 39/33/18 23/26/18 24/29/18
f 17/30/19 31/31/19 16/32/19
f 40/34/20 24/29/20 25/1/20
f 33/35/21 17/30/21 18/4/21
f 11/8/22 26/36/22 297/37/22
f 206/38/23 40/34/23 25/1/23
f 34/39/24 18/4/24 19/11/24
f 27/40/25 11/8/25 12/17/25
f 20/14/26 34/39/26 19/11/26
f 28/41/27 12/17/27 13/42/27
f 36/43/28 20/14/28 21/18/28
f 29/44/29 13/42/29 14/20/29
f 22/22/30 36/43/30 21/18/30
f 30/45/31 14/20/31 15/24/31
f 38/46/32 22/22/32 23/26/32
f 50/47/33 34/39/33 35/48/33
f 43/49/34 27/40/34 28/41/34
f 36/43/35 50/47/35 35/48/35
f 29/44/36 43/49/36 28/41/36
f 52/50/37 36/43/37 37/51/37
f 45/52/38 29/44/38 30/45/38
f 53/53/39 37/51/39 38/46/39
f 46/54/40 30/45/40 31/31/40
f 54/55/41 38/46/41 39/33/41
f 32/56/42 46/54/42 31/31/42
f 55/57/43 39/33/43 40/34/43
f 48/58/44 32/56/44 33/35/44
f 26/36/45 41/59/45 297/60/45
f 206/61/46 55/57/46 40/34/46
f 49/62/47 33/35/47 34/39/47
f 42/63/48 26/36/48 27/40/48
f 69/64/49 53/53/49 54/55/49
f 62/65/50 46/54/50 47/66/50
f 55/57/51 69/64/51 54/55/51
f 48/58/52 62/65/52 47/66/52
f 41/59/53 56/67/53 297/68/53
f 206/69/54 70/70/54 55/57/54
f 64/71/55 48/58/55 49/62/56
f 57/72/57 41/59/57 42/63/57
f 50/47/58 64/71/58 49/62/58
f 58/73/59 42/63/59 43/49/59
f 51/74/60 65/75/60 50/47/60
f 59/76/61 43/49/61 44/77/61
f 67/78/62 51/74/62 52/50/62
f 60/79/63 44/77/63 45/52/63
f 68/80/64 52/50/64 53/53/64
f 61/81/65 45/52/65 46/54/65
f 66/82/66 80/83/66 65/75/66
f 74/84/67 58/73/67 59/76/67
f 82/85/68 66/82/68 67/78/68
f 60/79/69 74/84/69 59/76/69
f 68/80/70 82/85/70 67/78/70
f 76/86/71 60/79/71 61/81/71
f 84/87/72 68/80/72 69/64/72
f 77/88/73 61/81/73 62/65/73
f 85/89/74 69/64/74 70/70/74
f 63/90/75 77/88/75 62/65/75
f 56/67/76 71/91/76 297/92/76
f 206/93/77 85/89/77 70/70/77
f 79/94/78 63/90/78 64/71/79
f 72/95/80 56/67/80 57/72/80
f 80/83/81 64/71/81 65/75/81
f 73/96/82 57/72/82 58/73/82
f 85/89/83 99/97/83 84/87/83
f 93/98/84 77/88/84 78/99/85
f 71/91/86 86/100/86 297/101/86
f 206/102/87 100/103/87 85/89/87
f 94/104/88 78/99/88 79/94/89
f 87/105/90 71/91/90 72/95/90
f 95/106/91 79/94/91 80/83/91
f 88/107/92 72/95/92 73/96/92
f 81/108/93 95/106/93 80/83/93
f 74/84/94 88/107/94 73/96/94
f 82/85/95 96/109/95 81/108/95
f 90/110/96 74/84/96 75/111/96
f 98/112/97 82/85/97 83/113/97
f 91/114/98 75/111/98 76/86/98
f 99/97/99 83/113/100 84/87/99
f 77/88/101 91/114/101 76/86/101
f 89/115/102 103/116/102 88/107/102
f 112/117/103 96/109/103 97/118/103
f 105/119/104 89/115/104 90/110/104
f 113/120/105 97/118/105 98/112/105
f 106/121/106 90/110/106 91/114/106
f 114/122/107 98/112/107 99/97/107
f 92/123/108 106/121/108 91/114/108
f 115/124/109 99/97/109 100/103/109
f 108/125/110 92/123/110 93/98/110
f 86/100/111 101/126/111 297/127/111
f 206/128/112 115/124/112 100/103/112
f 109/129/113 93/98/113 94/104/114
f 102/130/115 86/100/115 87/105/115
f 110/131/116 94/104/116 95/106/116
f 103/116/117 87/105/117 88/107/117
f 96/109/118 110/131/118 95/106/118
f 123/132/119 107/133/119 108/125/120
f 101/126/121 116/134/121 297/135/121
f 206/136/122 130/137/122 115/124/122
f 124/138/123 108/125/123 109/129/123
f 117/139/124 101/126/124 102/130/124
f 125/140/125 109/129/125 110/131/125
f 118/141/126 102/130/126 103/116/126
f 111/142/127 125/140/127 110/131/127
f 119/143/128 103/116/128 104/144/128
f 127/145/129 111/142/129 112/117/129
f 120/146/130 104/144/130 105/119/130
f 113/120/131 127/145/131 112/117/131
f 121/147/132 105/119/132 106/121/132
f 114/122/133 128/148/133 113/120/133
f 107/133/134 121/147/134 106/121/134
f 130/137/135 114/122/135 115/124/135
f 142/149/136 126/150/136 127/145/136
f 120/146/137 134/151/137 119/143/137
f 143/152/138 127/145/138 128/148/138
f 136/153/139 120/146/139 121/147/139
f 144/154/140 128/148/140 129/155/140
f 122/156/141 136/153/141 121/147/141
f 130/137/142 144/154/142 129/155/142
f 138/157/143 122/156/143 123/132/143
f 116/134/144 131/158/144 297/159/144
f 206/160/145 145/161/145 130/137/145
f 139/162/146 123/132/146 124/138/146
f 132/163/147 116/134/147 117/139/147
f 140/164/148 124/138/148 125/140/148
f 133/165/149 117/139/149 118/141/149
f 126/150/150 140/164/150 125/140/150
f 134/151/151 118/141/151 119/143/151
f 131/158/152 146/166/152 297/167/152
f 206/168/153 160/169/153 145/161/153
f 154/170/154 138/157/154 139/162/154
f 147/171/155 131/158/155 132/163/155
f 155/172/156 139/162/156 140/164/156
f 133/165/157 147/171/157 132/163/157
f 141/173/158 155/172/158 140/164/158
f 149/174/159 133/165/159 134/151/159
f 157/175/160 141/173/160 142/149/160
f 135/176/161 149/174/161 134/151/161
f 158/177/162 142/149/162 143/152/162
f 151/178/163 135/176/163 136/153/163
f 159/179/164 143/152/164 144/154/164
f 137/180/165 151/178/165 136/153/165
f 160/169/166 144/154/166 145/161/166
f 153/181/167 137/180/167 138/157/167
f 150/182/168 164/183/168 149/174/168
f 158/177/169 172/184/169 157/175/169
f 166/185/170 150/182/170 151/178/170
f 174/186/171 158/177/171 159/179/172
f 152/187/173 166/185/173 151/178/173
f 160/169/174 174/186/174 159/179/174
f 168/188/175 152/187/175 153/181/175
f 146/166/176 161/189/176 297/190/176
f 206/191/177 175/192/177 160/169/177
f 154/170/178 168/188/178 153/181/178
f 162/193/179 146/166/179 147/171/179
f 170/194/180 154/170/180 155/172/180
f 163/195/181 147/171/181 148/196/181
f 156/197/182 170/194/182 155/172/182
f 164/183/183 148/196/183 149/174/183
f 172/184/184 156/197/184 157/175/184
f 184/198/185 168/188/185 169/199/185
f 177/200/186 161/189/186 162/193/186
f 185/201/187 169/199/187 170/194/187
f 163/195/188 177/200/188 162/193/188
f 171/202/189 185/201/189 170/194/189
f 179/203/190 163/195/190 164/183/190
f 187/204/191 171/202/191 172/184/191
f 180/205/192 164/183/192 165/206/192
f 173/207/193 187/204/193 172/184/193
f 181/208/194 165/206/194 166/185/194
f 189/209/195 173/207/195 174/186/195
f 167/210/196 181/208/196 166/185/196
f 190/211/197 174/186/197 175/192/197
f 183/212/198 167/210/198 168/188/198
f 161/189/199 176/213/199 297/214/199
f 206/215/200 190/211/200 175/192/200
f 188/216/201 202/217/201 187/204/201
f 196/218/202 180/205/202 181/208/202
f 189/209/203 203/219/203 188/216/203
f 182/220/204 196/218/204 181/208/204
f 190/211/205 204/221/205 189/209/205
f 198/222/206 182/220/206 183/212/206
f 176/213/207 191/223/207 297/224/207
f 206/225/208 205/226/208 190/211/208
f 184/198/209 198/222/209 183/212/209
f 192/227/210 176/213/210 177/200/210
f 200/228/211 184/198/211 185/201/211
f 193/229/212 177/200/212 178/230/212
f 186/231/213 200/228/213 185/201/213
f 194/232/214 178/230/214 179/203/214
f 202/217/215 186/231/215 187/204/215
f 180/205/216 194/232/216 179/203/216
f 216/233/217 199/234/217 200/228/217
f 209/235/218 192/227/219 193/229/218
f 201/236/220 216/233/220 200/228/220
f 210/237/221 193/229/221 194/232/221
f 218/238/222 201/236/222 202/217/222
f 211/239/223 194/232/223 195/240/223
f 219/241/224 202/217/224 203/219/224
f 212/242/225 195/240/225 196/218/225
f 204/221/226 219/241/226 203/219/226
f 197/243/227 212/242/227 196/218/227
f 221/244/228 204/221/228 205/226/229
f 214/245/230 197/243/230 198/222/230
f 191/223/231 207/246/231 297/247/231
f 206/248/232 221/244/232 205/226/232
f 215/249/233 198/222/233 199/234/233
f 208/250/234 191/223/234 192/227/234
f 235/251/235 219/241/235 220/252/235
f 213/253/236 227/254/236 212/242/236
f 236/255/237 220/252/237 221/244/237
f 229/256/238 213/253/238 214/245/238
f 207/246/239 222/257/239 297/258/239
f 206/259/240 236/255/240 221/244/240
f 230/260/241 214/245/241 215/249/241
f 223/261/242 207/246/242 208/250/242
f 231/262/243 215/249/243 216/233/243
f 224/263/244 208/250/244 209/235/244
f 217/264/245 231/262/245 216/233/245
f 210/237/246 224/263/246 209/235/246
f 233/265/247 217/264/247 218/238/247
f 226/266/248 210/237/248 211/239/248
f 234/267/249 218/238/249 219/241/249
f 227/254/250 211/239/250 212/242/250
f 239/268/251 223/261/251 224/263/251
f 232/269/252 246/270/252 231/262/252
f 225/271/253 239/268/253 224/263/253
f 248/272/254 232/269/254 233/265/254
f 226/266/255 240/273/255 225/271/255
f 234/267/256 248/272/256 233/265/256
f 242/274/257 226/266/257 227/254/257
f 235/251/258 249/275/258 234/267/258
f 228/276/259 242/274/259 227/254/259
f 236/255/260 250/277/260 235/251/260
f 244/278/261 228/276/261 229/256/261
f 222/257/262 237/279/262 297/280/262
f 206/281/263 251/282/263 236/255/263
f 245/283/264 229/256/264 230/260/264
f 238/284/265 222/257/265 223/261/265
f 246/270/266 230/260/266 231/262/266
f 243/285/267 257/286/267 242/274/267
f 251/282/268 265/287/268 250/277/268
f 259/288/269 243/285/269 244/278/270
f 237/279/271 252/289/271 297/290/271
f 206/291/272 266/292/272 251/282/272
f 260/293/273 244/278/273 245/283/273
f 253/294/274 237/279/274 238/284/274
f 261/295/275 245/283/275 246/270/275
f 254/296/276 238/284/276 239/268/276
f 247/297/277 261/295/277 246/270/277
f 240/273/278 254/296/278 239/268/278
f 263/298/279 247/297/279 248/272/279
f 241/299/280 255/300/280 240/273/280
f 264/301/281 248/272/281 249/275/281
f 257/286/282 241/299/282 242/274/282
f 265/287/283 249/275/283 250/277/283
f 262/302/284 276/303/284 261/295/284
f 255/300/285 269/304/285 254/296/285
f 278/305/286 262/302/286 263/298/286
f 271/306/287 255/300/287 256/307/287
f 279/308/288 263/298/288 264/301/288
f 272/309/289 256/307/289 257/286/289
f 280/310/290 264/301/290 265/287/290
f 258/311/291 272/309/291 257/286/291
f 281/312/292 265/287/292 266/292/292
f 259/288/293 273/313/293 258/311/293
f 252/289/294 267/314/294 297/315/294
f 206/316/295 281/312/295 266/292/295
f 275/317/296 259/288/296 260/293/296
f 268/318/297 252/289/297 253/294/297
f 276/303/298 260/293/298 261/295/298
f 269/304/299 253/294/299 254/296/299
f 281/312/300 295/319/300 280/310/300
f 289/320/301 273/313/301 274/321/301
f 267/314/302 282/322/302 297/323/302
f 206/324/303 296/325/303 281/312/303
f 290/326/304 274/321/304 275/317/304
f 283/327/305 267/314/305 268/318/305
f 291/328/306 275/317/306 276/303/306
f 284/329/307 268/318/308 269/304/307
f 277/330/309 291/328/309 276/303/309
f 285/331/310 269/304/310 270/332/310
f 293/333/311 277/330/311 278/305/311
f 271/306/312 285/331/312 270/332/312
f 279/308/313 293/333/313 278/305/313
f 287/334/314 271/306/314 272/309/314
f 295/319/315 279/308/316 280/310/315
f 273/313/317 287/334/317 272/309/317
f 285/331/318 300/335/318 284/329/318
f 309/336/319 292/337/319 293/333/319
f 286/338/320 301/339/320 285/331/320
f 310/340/321 293/333/321 294/341/321
f 303/342/322 286/338/322 287/334/322
f 295/319/323 310/340/323 294/341/323
f 288/343/324 303/342/324 287/334/324
f 312/344/325 295/319/325 296/325/325
f 289/320/326 304/345/326 288/343/326
f 282/322/327 298/346/327 297/347/327
f 206/348/328 312/344/328 296/325/328
f 306/349/329 289/320/329 290/326/329
f 299/350/330 282/322/330 283/327/330
f 307/351/331 290/326/331 291/328/331
f 300/335/332 283/327/332 284/329/332
f 292/337/333 307/351/333 291/328/333
f 320/352/334 304/345/334 305/353/334
f 298/346/335 313/354/335 297/355/335
f 206/356/336 327/357/336 312/344/336
f 321/358/337 305/353/337 306/349/337
f 299/350/338 313/354/338 298/346/338
f 322/359/339 306/349/339 307/351/339
f 315/360/340 299/350/340 300/335/340
f 308/361/341 322/359/341 307/351/341
f 301/339/342 315/360/342 300/335/342
f 324/362/343 308/361/343 309/336/343
f 302/363/344 316/364/344 301/339/344
f 325/365/345 309/336/345 310/340/345
f 318/366/346 302/363/346 303/342/346
f 311/367/347 325/365/347 310/340/347
f 304/345/348 318/366/348 303/342/348
f 327/357/349 311/367/349 312/344/349
f 339/368/350 323/369/350 324/362/350
f 317/370/351 331/371/351 316/364/351
f 340/372/352 324/362/352 325/365/352
f 333/373/353 317/370/353 318/366/353
f 326/374/354 340/372/354 325/365/355
f 319/375/356 333/373/356 318/366/356
f 342/376/357 326/374/357 327/357/357
f 335/377/358 319/375/358 320/352/358
f 313/354/359 328/378/359 297/379/359
f 206/380/360 342/376/360 327/357/360
f 336/381/361 320/352/361 321/358/361
f 329/382/362 313/354/362 314/383/362
f 337/384/363 321/358/363 322/359/363
f 330/385/364 314/383/365 315/360/364
f 323/369/366 337/384/366 322/359/366
f 331/371/367 315/360/367 316/364/367
f 206/386/368 357/387/368 342/376/368
f 336/381/369 350/388/369 335/377/369
f 329/382/370 343/389/370 328/378/370
f 352/390/371 336/381/371 337/384/371
f 345/391/372 329/382/372 330/385/372
f 338/392/373 352/390/373 337/384/373
f 331/371/374 345/391/374 330/385/374
f 354/393/375 338/392/375 339/368/375
f 332/394/376 346/395/376 331/371/376
f 355/396/377 339/368/377 340/372/377
f 348/397/378 332/394/378 333/373/378
f 356/398/379 340/372/379 341/399/379
f 334/400/380 348/397/380 333/373/380
f 357/387/381 341/399/381 342/376/381
f 350/388/382 334/400/382 335/377/382
f 328/378/383 343/389/383 297/401/383
f 370/402/384 354/393/384 355/396/384
f 363/403/385 347/404/385 348/397/385
f 356/398/386 370/402/386 355/396/386
f 349/405/387 363/403/387 348/397/387
f 372/406/388 356/398/388 357/387/388
f 365/407/389 349/405/389 350/388/389
f 343/389/390 358/408/390 297/409/390
f 206/410/391 372/406/391 357/387/391
f 351/411/392 365/407/392 350/388/392
f 344/412/393 358/408/393 343/389/393
f 367/413/394 351/411/394 352/390/394
f 360/414/395 344/412/395 345/391/395
f 353/415/396 367/413/396 352/390/396
f 361/416/397 345/391/397 346/395/397
f 354/393/398 368/417/398 353/415/398
f 362/418/399 346/395/399 347/404/399
f 359/419/400 373/420/400 358/421/400
f 382/422/401 366/423/401 367/424/401
f 375/425/402 359/419/402 360/426/402
f 368/427/403 382/422/403 367/424/403
f 376/428/404 360/426/404 361/429/404
f 369/430/405 383/431/405 368/427/405
f 377/432/406 361/429/406 362/433/406
f 385/434/407 369/430/407 370/435/407
f 378/436/408 362/433/408 363/437/408
f 386/438/409 370/435/409 371/439/409
f 364/440/410 378/436/410 363/437/410
f 387/441/411 371/439/411 372/442/411
f 380/443/412 364/440/412 365/444/413
f 358/421/414 373/420/414 297/445/414
f 206/446/415 387/441/415 372/442/415
f 366/423/416 380/443/416 365/444/417
f 393/447/418 377/432/418 378/436/418
f 401/448/419 385/434/419 386/438/419
f 379/449/420 393/447/420 378/436/420
f 402/450/421 386/438/421 387/441/421
f 395/451/422 379/449/422 380/443/422
f 373/420/423 388/452/423 297/453/423
f 206/454/424 402/450/424 387/441/424
f 396/455/425 380/443/425 381/456/425
f 389/457/426 373/420/426 374/458/426
f 397/459/427 381/456/427 382/422/427
f 390/460/428 374/458/428 375/425/428
f 383/431/429 397/459/429 382/422/429
f 391/461/430 375/425/430 376/428/430
f 399/462/431 383/431/431 384/463/431
f 392/464/432 376/428/432 377/432/432
f 400/465/433 384/463/433 385/434/433
f 412/466/434 396/455/434 397/459/434
f 405/467/435 389/457/435 390/460/435
f 398/468/436 412/466/436 397/459/436
f 391/461/437 405/467/437 390/460/437
f 414/469/438 398/468/438 399/462/438
f 392/464/439 406/470/439 391/461/439
f 400/465/440 414/469/440 399/462/440
f 408/471/441 392/464/441 393/447/441
f 416/472/442 400/465/442 401/448/442
f 394/473/443 408/471/443 393/447/443
f 417/474/444 401/448/444 402/450/444
f 410/475/445 394/473/445 395/451/445
f 388/452/446 403/476/446 297/477/446
f 206/478/447 417/474/447 402/450/447
f 396/455/448 410/475/448 395/451/448
f 404/479/449 388/452/449 389/457/449
f 431/480/450 415/481/450 416/472/450
f 409/482/451 423/483/451 408/471/451
f 432/484/452 416/472/452 417/474/452
f 425/485/453 409/482/453 410/475/453
f 403/476/454 418/486/454 297/487/454
f 206/488/455 432/484/455 417/474/455
f 411/489/456 425/485/456 410/475/456
f 419/490/457 403/476/457 404/479/457
f 427/491/458 411/489/458 412/466/458
f 420/492/459 404/479/459 405/467/459
f 413/493/460 427/491/460 412/466/460
f 406/470/461 420/492/461 405/467/461
f 429/494/462 413/493/462 414/469/462
f 407/495/463 421/496/463 406/470/463
f 430/497/464 414/469/464 415/481/464
f 423/483/465 407/495/465 408/471/465
f 435/498/466 419/490/466 420/492/466
f 428/499/467 442/500/467 427/491/467
f 436/501/468 420/492/468 421/496/468
f 444/502/469 428/499/469 429/494/469
f 422/503/470 436/501/470 421/496/470
f 430/497/471 444/502/471 429/494/471
f 438/504/472 422/503/472 423/483/472
f 446/505/473 430/497/473 431/480/473
f 424/506/474 438/504/474 423/483/474
f 447/507/475 431/480/475 432/484/475
f 440/508/476 424/506/476 425/485/476
f 418/486/477 433/509/477 297/510/477
f 206/511/478 447/507/478 432/484/478
f 441/512/479 425/485/479 426/513/479
f 434/514/480 418/486/480 419/490/480
f 442/500/481 426/513/481 427/491/481
f 439/515/482 453/516/482 438/504/482
f 462/517/483 446/505/483 447/507/483
f 455/518/484 439/515/484 440/508/484
f 433/509/485 448/519/485 297/520/485
f 206/521/486 462/517/486 447/507/486
f 456/522/487 440/508/487 441/512/487
f 434/514/488 448/519/488 433/509/488
f 457/523/489 441/512/489 442/500/489
f 450/524/490 434/514/490 435/498/490
f 443/525/491 457/523/491 442/500/491
f 451/526/492 435/498/492 436/501/492
f 459/527/493 443/525/493 444/502/493
f 437/528/494 451/526/494 436/501/494
f 460/529/495 444/502/495 445/530/495
f 453/516/496 437/528/496 438/504/496
f 446/505/497 460/529/498 445/530/498
f 458/531/499 472/532/499 457/523/499
f 466/533/500 450/524/500 451/526/500
f 474/534/501 458/531/501 459/527/501
f 452/535/502 466/533/502 451/526/502
f 475/536/503 459/527/503 460/529/503
f 468/537/504 452/535/504 453/516/504
f 476/538/505 460/529/505 461/539/505
f 454/540/506 468/537/506 453/516/506
f 477/541/507 461/539/507 462/517/507
f 470/542/508 454/540/508 455/518/508
f 448/519/509 463/543/509 297/544/509
f 206/545/510 477/541/510 462/517/510
f 471/546/511 455/518/511 456/522/511
f 464/547/512 448/519/512 449/548/512
f 472/532/513 456/522/513 457/523/513
f 465/549/514 449/548/514 450/524/514
f 482/3/515 476/538/515 477/541/515
f 470/542/516 7/5/516 469/550/516
f 463/543/517 1/7/517 297/551/517
f 206/552/518 482/3/518 477/541/518
f 9/12/519 470/542/519 471/546/520
f 464/547/521 1/7/521 463/543/521
f 478/15/522 471/546/522 472/532/522
f 465/549/523 2/13/523 464/547/523
f 473/553/524 478/15/524 472/532/524
f 466/533/525 3/16/525 465/549/525
f 480/23/526 473/553/526 474/534/526
f 467/554/527 4/21/527 466/533/527
f 10/27/528 474/534/528 475/536/528
f 468/537/529 5/25/529 467/554/529
f 481/2/530 475/536/530 476/538/530
f 469/550/531 6/28/531 468/537/531
f 25/1/1 24/29/1 481/2/1
f 18/4/2 17/30/532 7/5/2
f 19/11/5 18/4/533 8/6/5
f 2/13/6 12/17/6 11/8/6
f 20/14/7 19/11/7 9/12/7
f 3/16/8 13/42/8 12/17/8
f 21/18/9 20/14/9 478/15/9
f 14/20/10 13/42/10 3/16/10
f 22/22/11 21/18/11 479/19/11
f 15/24/12 14/20/12 4/21/12
f 23/26/13 22/22/13 480/23/13
f 6/28/14 16/32/14 15/24/14
f 24/29/15 23/26/15 10/27/15
f 17/30/16 16/32/16 6/28/16
f 31/31/17 30/45/17 15/24/17
f 39/33/18 38/46/18 23/26/18
f 17/30/19 32/56/19 31/31/19
f 40/34/20 39/33/20 24/29/20
f 33/35/21 32/56/21 17/30/21
f 34/39/24 33/35/24 18/4/24
f 27/40/25 26/36/25 11/8/25
f 20/14/26 35/48/26 34/39/26
f 28/41/27 27/40/27 12/17/27
f 36/43/28 35/48/28 20/14/28
f 29/44/29 28/41/29 13/42/29
f 22/22/30 37/51/30 36/43/30
f 30/45/31 29/44/31 14/20/31
f 38/46/32 37/51/32 22/22/32
f 50/47/33 49/62/33 34/39/33
f 43/49/34 42/63/34 27/40/34
f 36/43/35 51/74/35 50/47/35
f 29/44/36 44/77/36 43/49/36
f 52/50/37 51/74/37 36/43/37
f 45/52/38 44/77/38 29/44/38
f 53/53/39 52/50/39 37/51/39
f 46/54/40 45/52/40 30/45/40
f 54/55/41 53/53/534 38/46/41
f 32/56/42 47/66/42 46/54/42
f 55/57/43 54/55/43 39/33/43
f 48/58/44 47/66/535 32/56/44
f 49/62/47 48/58/47 33/35/47
f 42/63/48 41/59/48 26/36/48
f 69/64/49 68/80/49 53/53/49
f 62/65/50 61/81/50 46/54/50
f 55/57/51 70/70/51 69/64/51
f 48/58/52 63/90/536 62/65/52
f 64/71/55 63/90/55 48/58/55
f 57/72/57 56/67/57 41/59/57
f 50/47/58 65/75/58 64/71/58
f 58/73/59 57/72/59 42/63/59
f 51/74/60 66/82/60 65/75/60
f 59/76/61 58/73/61 43/49/61
f 67/78/62 66/82/62 51/74/62
f 60/79/63 59/76/63 44/77/63
f 68/80/64 67/78/64 52/50/64
f 61/81/65 60/79/65 45/52/65
f 66/82/66 81/108/66 80/83/66
f 74/84/67 73/96/67 58/73/67
f 82/85/68 81/108/68 66/82/68
f 60/79/69 75/111/69 74/84/69
f 68/80/70 83/113/70 82/85/70
f 76/86/71 75/111/71 60/79/71
f 84/87/72 83/113/72 68/80/72
f 77/88/73 76/86/73 61/81/73
f 85/89/74 84/87/74 69/64/74
f 63/90/75 78/99/75 77/88/75
f 79/94/78 78/99/78 63/90/78
f 72/95/80 71/91/80 56/67/80
f 80/83/81 79/94/81 64/71/81
f 73/96/82 72/95/82 57/72/82
f 85/89/83 100/103/83 99/97/83
f 93/98/84 92/123/84 77/88/84
f 94/104/88 93/98/88 78/99/88
f 87/105/90 86/100/90 71/91/90
f 95/106/91 94/104/91 79/94/91
f 88/107/92 87/105/92 72/95/92
f 81/108/93 96/109/93 95/106/93
f 74/84/94 89/115/94 88/107/94
f 82/85/95 97/118/95 96/109/95
f 90/110/96 89/115/96 74/84/96
f 98/112/97 97/118/97 82/85/97
f 91/114/98 90/110/98 75/111/98
f 99/97/99 98/112/100 83/113/100
f 77/88/101 92/123/101 91/114/101
f 89/115/102 104/144/102 103/116/102
f 112/117/103 111/142/103 96/109/103
f 105/119/104 104/144/104 89/115/104
f 113/120/105 112/117/105 97/118/105
f 106/121/106 105/119/106 90/110/106
f 114/122/107 113/120/107 98/112/107
f 92/123/108 107/133/108 106/121/108
f 115/124/109 114/122/109 99/97/109
f 108/125/110 107/133/110 92/123/110
f 109/129/113 108/125/113 93/98/113
f 102/130/115 101/126/115 86/100/115
f 110/131/116 109/129/116 94/104/116
f 103/116/117 102/130/117 87/105/117
f 96/109/118 111/142/118 110/131/118
f 123/132/119 122/156/119 107/133/119
f 124/138/123 123/132/123 108/125/123
f 117/139/124 116/134/124 101/126/124
f 125/140/125 124/138/125 109/129/125
f 118/141/126 117/139/126 102/130/126
f 111/142/127 126/150/127 125/140/127
f 119/143/128 118/141/128 103/116/128
f 127/145/129 126/150/129 111/142/129
f 120/146/130 119/143/130 104/144/130
f 113/120/131 128/148/131 127/145/131
f 121/147/132 120/146/132 105/119/132
f 114/122/133 129/155/133 128/148/133
f 107/133/134 122/156/134 121/147/134
f 130/137/135 129/155/135 114/122/135
f 142/149/136 141/173/136 126/150/136
f 120/146/137 135/176/137 134/151/137
f 143/152/138 142/149/138 127/145/138
f 136/153/139 135/176/139 120/146/139
f 144/154/140 143/152/140 128/148/140
f 122/156/141 137/180/141 136/153/141
f 130/137/142 145/161/142 144/154/142
f 138/157/143 137/180/537 122/156/143
f 139/162/146 138/157/146 123/132/146
f 132/163/147 131/158/147 116/134/147
f 140/164/148 139/162/148 124/138/148
f 133/165/149 132/163/149 117/139/149
f 126/150/150 141/173/150 140/164/150
f 134/151/151 133/165/151 118/141/151
f 154/170/154 153/181/154 138/157/154
f 147/171/155 146/166/155 131/158/155
f 155/172/156 154/170/156 139/162/156
f 133/165/157 148/196/157 147/171/157
f 141/173/158 156/197/158 155/172/158
f 149/174/159 148/196/159 133/165/159
f 157/175/160 156/197/160 141/173/160
f 135/176/161 150/182/161 149/174/161
f 158/177/162 157/175/162 142/149/162
f 151/178/163 150/182/163 135/176/163
f 159/179/164 158/177/164 143/152/164
f 137/180/165 152/187/165 151/178/165
f 160/169/166 159/179/166 144/154/166
f 153/181/167 152/187/167 137/180/167
f 150/182/168 165/206/168 164/183/168
f 158/177/169 173/207/169 172/184/169
f 166/185/170 165/206/170 150/182/170
f 174/186/171 173/207/171 158/177/171
f 152/187/173 167/210/173 166/185/173
f 160/169/174 175/192/174 174/186/174
f 168/188/175 167/210/175 152/187/175
f 154/170/178 169/199/178 168/188/178
f 162/193/179 161/189/179 146/166/179
f 170/194/180 169/199/180 154/170/180
f 163/195/181 162/193/181 147/171/181
f 156/197/182 171/202/182 170/194/182
f 164/183/183 163/195/183 148/196/183
f 172/184/184 171/202/184 156/197/184
f 184/198/185 183/212/185 168/188/185
f 177/200/186 176/213/186 161/189/186
f 185/201/187 184/198/187 169/199/187
f 163/195/188 178/230/188 177/200/188
f 171/202/189 186/231/189 185/201/189
f 179/203/190 178/230/190 163/195/190
f 187/204/191 186/231/191 171/202/191
f 180/205/192 179/203/192 164/183/192
f 173/207/193 188/216/193 187/204/193
f 181/208/194 180/205/194 165/206/194
f 189/209/195 188/216/195 173/207/195
f 167/210/196 182/220/196 181/208/196
f 190/211/197 189/209/197 174/186/197
f 183/212/198 182/220/198 167/210/198
f 188/216/201 203/219/201 202/217/201
f 196/218/202 195/240/202 180/205/202
f 189/209/203 204/221/203 203/219/203
f 182/220/204 197/243/204 196/218/204
f 190/211/205 205/226/205 204/221/205
f 198/222/206 197/243/206 182/220/206
f 184/198/209 199/234/209 198/222/209
f 192/227/210 191/223/210 176/213/210
f 200/228/211 199/234/211 184/198/211
f 193/229/212 192/227/212 177/200/212
f 186/231/213 201/236/213 200/228/213
f 194/232/214 193/229/214 178/230/214
f 202/217/215 201/236/215 186/231/215
f 180/205/216 195/240/216 194/232/216
f 216/233/217 215/249/217 199/234/217
f 209/235/218 208/250/219 192/227/219
f 201/236/220 217/264/220 216/233/220
f 210/237/221 209/235/221 193/229/221
f 218/238/222 217/264/222 201/236/222
f 211/239/223 210/237/223 194/232/223
f 219/241/224 218/238/224 202/217/224
f 212/242/225 211/239/225 195/240/225
f 204/221/226 220/252/226 219/241/226
f 197/243/227 213/253/227 212/242/227
f 221/244/228 220/252/228 204/221/228
f 214/245/230 213/253/230 197/243/230
f 215/249/233 214/245/233 198/222/233
f 208/250/234 207/246/234 191/223/234
f 235/251/235 234/267/235 219/241/235
f 213/253/236 228/276/236 227/254/236
f 236/255/237 235/251/237 220/252/237
f 229/256/238 228/276/238 213/253/238
f 230/260/241 229/256/241 214/245/241
f 223/261/242 222/257/242 207/246/242
f 231/262/243 230/260/243 215/249/243
f 224/263/244 223/261/244 208/250/244
f 217/264/245 232/269/245 231/262/245
f 210/237/246 225/271/246 224/263/246
f 233/265/247 232/269/247 217/264/247
f 226/266/248 225/271/248 210/237/248
f 234/267/249 233/265/249 218/238/249
f 227/254/250 226/266/250 211/239/250
f 239/268/251 238/284/251 223/261/251
f 232/269/252 247/297/252 246/270/252
f 225/271/253 240/273/253 239/268/253
f 248/272/254 247/297/254 232/269/254
f 226/266/255 241/299/255 240/273/255
f 234/267/256 249/275/256 248/272/256
f 242/274/257 241/299/257 226/266/257
f 235/251/258 250/277/258 249/275/258
f 228/276/259 243/285/259 242/274/259
f 236/255/260 251/282/260 250/277/260
f 244/278/261 243/285/261 228/276/261
f 245/283/264 244/278/264 229/256/264
f 238/284/265 237/279/265 222/257/265
f 246/270/266 245/283/266 230/260/266
f 243/285/267 258/311/267 257/286/267
f 251/282/268 266/292/268 265/287/268
f 259/288/269 258/311/269 243/285/269
f 260/293/273 259/288/273 244/278/273
f 253/294/274 252/289/274 237/279/274
f 261/295/275 260/293/275 245/283/275
f 254/296/276 253/294/276 238/284/276
f 247/297/277 262/302/277 261/295/277
f 240/273/278 255/300/278 254/296/278
f 263/298/279 262/302/279 247/297/279
f 241/299/280 256/307/280 255/300/280
f 264/301/281 263/298/281 248/272/281
f 257/286/282 256/307/282 241/299/282
f 265/287/283 264/301/283 249/275/283
f 262/302/284 277/330/284 276/303/284
f 255/300/285 270/332/285 269/304/285
f 278/305/286 277/330/286 262/302/286
f 271/306/287 270/332/287 255/300/287
f 279/308/288 278/305/288 263/298/288
f 272/309/289 271/306/289 256/307/289
f 280/310/290 279/308/290 264/301/290
f 258/311/291 273/313/291 272/309/291
f 281/312/292 280/310/292 265/287/292
f 259/288/293 274/321/293 273/313/293
f 275/317/296 274/321/296 259/288/296
f 268/318/297 267/314/297 252/289/297
f 276/303/298 275/317/298 260/293/298
f 269/304/299 268/318/299 253/294/299
f 281/312/300 296/325/538 295/319/300
f 289/320/301 288/343/301 273/313/301
f 290/326/304 289/320/304 274/321/304
f 283/327/305 282/322/305 267/314/305
f 291/328/306 290/326/306 275/317/306
f 284/329/307 283/327/308 268/318/308
f 277/330/309 292/337/309 291/328/309
f 285/331/310 284/329/310 269/304/310
f 293/333/311 292/337/311 277/330/311
f 271/306/312 286/338/312 285/331/312
f 279/308/313 294/341/313 293/333/313
f 287/334/314 286/338/314 271/306/314
f 295/319/315 294/341/316 279/308/316
f 273/313/317 288/343/317 287/334/317
f 285/331/318 301/339/318 300/335/318
f 309/336/319 308/361/319 292/337/319
f 286/338/320 302/363/320 301/339/320
f 310/340/321 309/336/321 293/333/321
f 303/342/322 302/363/322 286/338/322
f 295/319/323 311/367/323 310/340/323
f 288/343/324 304/345/324 303/342/324
f 312/344/325 311/367/325 295/319/325
f 289/320/326 305/353/326 304/345/326
f 306/349/329 305/353/329 289/320/329
f 299/350/330 298/346/330 282/322/330
f 307/351/331 306/349/331 290/326/331
f 300/335/332 299/350/332 283/327/332
f 292/337/333 308/361/333 307/351/333
f 320/352/334 319/375/334 304/345/334
f 321/358/337 320/352/337 305/353/337
f 299/350/338 314/383/338 313/354/338
f 322/359/339 321/358/339 306/349/339
f 315/360/340 314/383/340 299/350/340
f 308/361/341 323/369/341 322/359/341
f 301/339/342 316/364/342 315/360/342
f 324/362/343 323/369/343 308/361/343
f 302/363/344 317/370/344 316/364/344
f 325/365/345 324/362/345 309/336/345
f 318/366/346 317/370/346 302/363/346
f 311/367/347 326/374/347 325/365/347
f 304/345/348 319/375/348 318/366/348
f 327/357/349 326/374/349 311/367/349
f 339/368/350 338/392/350 323/369/350
f 317/370/351 332/394/351 331/371/351
f 340/372/352 339/368/352 324/362/352
f 333/373/353 332/394/353 317/370/353
f 326/374/354 341/399/354 340/372/354
f 319/375/356 334/400/356 333/373/356
f 342/376/357 341/399/357 326/374/357
f 335/377/358 334/400/358 319/375/358
f 336/381/361 335/377/361 320/352/361
f 329/382/362 328/378/362 313/354/362
f 337/384/363 336/381/363 321/358/363
f 330/385/364 329/382/365 314/383/365
f 323/369/366 338/392/366 337/384/366
f 331/371/367 330/385/367 315/360/367
f 336/381/369 351/411/369 350/388/369
f 329/382/370 344/412/370 343/389/370
f 352/390/371 351/411/371 336/381/371
f 345/391/372 344/412/372 329/382/372
f 338/392/373 353/415/373 352/390/373
f 331/371/374 346/395/374 345/391/374
f 354/393/375 353/415/375 338/392/375
f 332/394/376 347/404/376 346/395/376
f 355/396/377 354/393/377 339/368/377
f 348/397/378 347/404/378 332/394/378
f 356/398/379 355/396/379 340/372/379
f 334/400/380 349/405/380 348/397/380
f 357/387/381 356/398/381 341/399/381
f 350/388/382 349/405/382 334/400/382
f 370/402/384 369/555/384 354/393/384
f 363/403/385 362/418/385 347/404/385
f 356/398/386 371/556/386 370/402/386
f 349/405/387 364/557/387 363/403/387
f 372/406/388 371/556/388 356/398/388
f 365/407/389 364/557/389 349/405/389
f 351/411/392 366/558/392 365/407/392
f 344/412/393 359/559/393 358/408/393
f 367/413/394 366/558/394 351/411/394
f 360/414/395 359/559/395 344/412/395
f 353/415/396 368/417/396 367/413/396
f 361/416/397 360/414/397 345/391/397
f 354/393/398 369/555/398 368/417/398
f 362/418/399 361/416/399 346/395/399
f 359/419/400 374/458/400 373/420/400
f 382/422/401 381/456/401 366/423/401
f 375/425/402 374/458/402 359/419/402
f 368/427/403 383/431/403 382/422/403
f 376/428/404 375/425/404 360/426/404
f 369/430/405 384/463/405 383/431/405
f 377/432/406 376/428/406 361/429/406
f 385/434/407 384/463/407 369/430/407
f 378/436/408 377/432/408 362/433/408
f 386/438/409 385/434/409 370/435/409
f 364/440/410 379/449/410 378/436/410
f 387/441/411 386/438/411 371/439/411
f 380/443/412 379/449/412 364/440/412
f 366/423/416 381/456/416 380/443/416
f 393/447/418 392/464/418 377/432/418
f 401/448/419 400/465/419 385/434/419
f 379/449/420 394/473/420 393/447/420
f 402/450/421 401/448/421 386/438/421
f 395/451/422 394/473/422 379/449/422
f 396/455/425 395/451/425 380/443/425
f 389/457/426 388/452/426 373/420/426
f 397/459/427 396/455/427 381/456/427
f 390/460/428 389/457/428 374/458/428
f 383/431/429 398/468/429 397/459/429
f 391/461/430 390/460/430 375/425/430
f 399/462/431 398/468/431 383/431/431
f 392/464/432 391/461/432 376/428/432
f 400/465/433 399/462/433 384/463/433
f 412/466/434 411/489/434 396/455/434
f 405/467/435 404/479/435 389/457/435
f 398/468/436 413/493/436 412/466/436
f 391/461/437 406/470/437 405/467/437
f 414/469/438 413/493/438 398/468/438
f 392/464/439 407/495/439 406/470/439
f 400/465/440 415/481/440 414/469/440
f 408/471/441 407/495/441 392/464/441
f 416/472/442 415/481/442 400/465/442
f 394/473/443 409/482/443 408/471/443
f 417/474/444 416/472/444 401/448/444
f 410/475/445 409/482/445 394/473/445
f 396/455/448 411/489/448 410/475/448
f 404/479/449 403/476/449 388/452/449
f 431/480/450 430/497/450 415/481/450
f 409/482/451 424/506/451 423/483/451
f 432/484/452 431/480/452 416/472/452
f 425/485/453 424/506/453 409/482/453
f 411/489/456 426/513/456 425/485/456
f 419/490/457 418/486/457 403/476/457
f 427/491/458 426/513/458 411/489/458
f 420/492/459 419/490/459 404/479/459
f 413/493/460 428/499/460 427/491/460
f 406/470/461 421/496/461 420/492/461
f 429/494/462 428/499/462 413/493/462
f 407/495/463 422/503/463 421/496/463
f 430/497/464 429/494/464 414/469/464
f 423/483/465 422/503/465 407/495/465
f 435/498/466 434/514/466 419/490/466
f 428/499/467 443/525/467 442/500/467
f 436/501/468 435/498/468 420/492/468
f 444/502/469 443/525/469 428/499/469
f 422/503/470 437/528/470 436/501/470
f 430/497/471 445/530/471 444/502/471
f 438/504/472 437/528/472 422/503/472
f 446/505/473 445/530/473 430/497/473
f 424/506/474 439/515/474 438/504/474
f 447/507/475 446/505/475 431/480/475
f 440/508/476 439/515/476 424/506/476
f 441/512/479 440/508/479 425/485/479
f 434/514/480 433/509/480 418/486/480
f 442/500/481 441/512/481 426/513/481
f 439/515/482 454/540/482 453/516/482
f 462/517/483 461/539/483 446/505/483
f 455/518/484 454/540/484 439/515/484
f 456/522/487 455/518/487 440/508/487
f 434/514/488 449/548/488 448/519/488
f 457/523/489 456/522/489 441/512/489
f 450/524/490 449/548/490 434/514/490
f 443/525/491 458/531/491 457/523/491
f 451/526/492 450/524/492 435/498/492
f 459/527/493 458/531/493 443/525/493
f 437/528/494 452/535/494 451/526/494
f 460/529/495 459/527/495 444/502/495
f 453/516/496 452/535/496 437/528/496
f 446/505/497 461/539/497 460/529/498
f 458/531/499 473/553/499 472/532/499
f 466/533/500 465/549/500 450/524/500
f 474/534/501 473/553/501 458/531/501
f 452/535/502 467/554/502 466/533/502
f 475/536/503 474/534/503 459/527/503
f 468/537/504 467/554/504 452/535/504
f 476/538/505 475/536/505 460/529/505
f 454/540/506 469/550/506 468/537/506
f 477/541/507 476/538/507 461/539/507
f 470/542/508 469/550/508 454/540/508
f 471/546/511 470/542/511 455/518/511
f 464/547/512 463/543/512 448/519/512
f 472/532/513 471/546/513 456/522/513
f 465/549/514 464/547/514 449/548/514
f 482/3/515 481/2/515 476/538/515
f 470/542/516 8/6/539 7/5/516
f 9/12/519 8/6/519 470/542/519
f 464/547/521 2/13/521 1/7/521
f 478/15/522 9/12/522 471/546/522
f 465/549/523 3/16/523 2/13/523
f 473/553/524 479/19/524 478/15/524
f 466/533/525 4/21/525 3/16/525
f 480/23/526 479/19/526 473/553/526
f 467/554/527 5/25/527 4/21/527
f 10/27/528 480/23/528 474/534/528
f 468/537/529 6/28/529 5/25/529
f 481/2/530 10/27/530 475/536/530
f 469/550/531 7/5/531 6/28/531
