# Blender 4.5.3 LTS
# www.blender.org
mtllib GAMECLEAR.mtl
o テキスト
v -4.775137 0.195133 -0.000001
v -4.759453 0.194165 -0.000001
v -4.744392 0.191348 -0.000001
v -4.730097 0.186810 -0.000001
v -4.716708 0.180678 -0.000001
v -4.704367 0.173082 -0.000001
v -4.693213 0.164149 -0.000001
v -4.683389 0.154007 -0.000001
v -4.675035 0.142784 -0.000001
v -4.668292 0.130610 -0.000001
v -4.663301 0.117611 -0.000001
v -4.660202 0.103917 -0.000001
v -4.659141 0.089655 -0.000001
v -4.660204 0.075393 -0.000001
v -4.663302 0.061699 -0.000001
v -4.668293 0.048700 -0.000001
v -4.675036 0.036526 -0.000001
v -4.683391 0.025303 -0.000001
v -4.693215 0.015162 -0.000001
v -4.704369 0.006228 -0.000001
v -4.716710 -0.001368 -0.000001
v -4.730099 -0.007500 -0.000001
v -4.744394 -0.012038 -0.000001
v -4.759455 -0.014855 -0.000001
v -4.775137 -0.015822 -0.000001
v -4.790822 -0.014855 -0.000001
v -4.805882 -0.012038 -0.000001
v -4.820177 -0.007500 -0.000001
v -4.833566 -0.001368 -0.000001
v -4.845907 0.006228 -0.000001
v -4.857061 0.015162 -0.000001
v -4.866885 0.025303 -0.000001
v -4.875239 0.036526 -0.000001
v -4.881983 0.048700 -0.000001
v -4.886973 0.061699 -0.000001
v -4.890072 0.075393 -0.000001
v -4.891133 0.089655 -0.000001
v -4.890070 0.103917 -0.000001
v -4.886971 0.117611 -0.000001
v -4.881981 0.130610 -0.000001
v -4.875237 0.142784 -0.000001
v -4.866883 0.154007 -0.000001
v -4.857059 0.164148 -0.000001
v -4.845905 0.173082 -0.000001
v -4.833564 0.180678 -0.000001
v -4.820175 0.186810 -0.000001
v -4.805881 0.191348 -0.000001
v -4.790820 0.194165 -0.000001
v -4.664940 0.954571 -0.000001
v -4.665020 0.935527 -0.000001
v -4.665261 0.917076 -0.000001
v -4.665665 0.899222 -0.000001
v -4.666228 0.881973 -0.000001
v -4.666953 0.865335 -0.000001
v -4.667839 0.849313 -0.000001
v -4.668886 0.833913 -0.000001
v -4.670094 0.819143 -0.000001
v -4.671465 0.805007 -0.000001
v -4.672995 0.791512 -0.000001
v -4.674686 0.778664 -0.000001
v -4.676539 0.766469 -0.000001
v -4.724872 0.464100 -0.000001
v -4.727779 0.445672 -0.000001
v -4.730734 0.429039 -0.000001
v -4.733783 0.414163 -0.000001
v -4.736972 0.401009 -0.000001
v -4.740350 0.389540 -0.000001
v -4.743962 0.379718 -0.000001
v -4.747857 0.371508 -0.000001
v -4.752080 0.364873 -0.000001
v -4.756680 0.359776 -0.000001
v -4.761702 0.356181 -0.000001
v -4.767195 0.354051 -0.000001
v -4.773204 0.353349 -0.000001
v -4.779213 0.354051 -0.000001
v -4.784705 0.356181 -0.000001
v -4.789727 0.359776 -0.000001
v -4.794327 0.364873 -0.000001
v -4.798550 0.371508 -0.000001
v -4.802444 0.379718 -0.000001
v -4.806057 0.389540 -0.000001
v -4.809435 0.401009 -0.000001
v -4.812625 0.414163 -0.000001
v -4.815673 0.429039 -0.000001
v -4.818627 0.445672 -0.000001
v -4.821535 0.464100 -0.000001
v -4.869867 0.766469 -0.000001
v -4.871720 0.778664 -0.000001
v -4.873412 0.791512 -0.000001
v -4.874942 0.805007 -0.000001
v -4.876312 0.819143 -0.000001
v -4.877521 0.833913 -0.000001
v -4.878568 0.849313 -0.000001
v -4.879454 0.865335 -0.000001
v -4.880178 0.881973 -0.000001
v -4.880743 0.899222 -0.000001
v -4.881145 0.917076 -0.000001
v -4.881387 0.935527 -0.000001
v -4.881467 0.954571 -0.000001
v -4.880740 0.996250 -0.000001
v -4.878550 1.034273 -0.000001
v -4.874883 1.068645 -0.000001
v -4.869724 1.099374 -0.000001
v -4.863063 1.126465 -0.000001
v -4.854884 1.149924 -0.000001
v -4.845176 1.169757 -0.000001
v -4.833922 1.185970 -0.000001
v -4.821112 1.198570 -0.000001
v -4.806731 1.207562 -0.000001
v -4.790767 1.212953 -0.000001
v -4.773204 1.214748 -0.000001
v -4.755641 1.212953 -0.000001
v -4.739675 1.207562 -0.000001
v -4.725294 1.198570 -0.000001
v -4.712483 1.185970 -0.000001
v -4.701231 1.169757 -0.000001
v -4.691522 1.149924 -0.000001
v -4.683343 1.126465 -0.000001
v -4.676682 1.099374 -0.000001
v -4.671524 1.068646 -0.000001
v -4.667856 1.034273 -0.000001
v -4.665667 0.996250 -0.000001
v -3.880028 0.789323 -0.000001
v -3.880028 -0.000001 -0.000001
v -4.052090 -0.000001 -0.000001
v -4.052090 0.413119 -0.000001
v -4.053985 0.446328 -0.000001
v -4.059510 0.478091 -0.000001
v -4.068433 0.508132 -0.000001
v -4.080517 0.536177 -0.000001
v -4.095527 0.561951 -0.000001
v -4.113230 0.585180 -0.000001
v -4.133389 0.605588 -0.000001
v -4.155770 0.622902 -0.000001
v -4.180139 0.636847 -0.000001
v -4.206260 0.647148 -0.000001
v -4.233897 0.653529 -0.000001
v -4.262818 0.655718 -0.000001
v -4.273507 0.655069 -0.000001
v -4.285175 0.653162 -0.000001
v -4.297677 0.650059 -0.000001
v -4.310863 0.645821 -0.000001
v -4.324586 0.640508 -0.000001
v -4.338699 0.634183 -0.000001
v -4.353053 0.626905 -0.000001
v -4.367501 0.618735 -0.000001
v -4.381896 0.609736 -0.000001
v -4.396090 0.599968 -0.000001
v -4.409933 0.589491 -0.000001
v -4.423280 0.578367 -0.000001
v -4.514144 0.713730 -0.000001
v -4.496376 0.728454 -0.000001
v -4.478816 0.741866 -0.000001
v -4.461432 0.753971 -0.000001
v -4.444187 0.764776 -0.000001
v -4.427051 0.774287 -0.000001
v -4.409988 0.782510 -0.000001
v -4.392966 0.789452 -0.000001
v -4.375951 0.795117 -0.000001
v -4.358908 0.799513 -0.000001
v -4.341805 0.802646 -0.000001
v -4.324608 0.804520 -0.000001
v -4.307282 0.805144 -0.000001
v -4.286942 0.803922 -0.000001
v -4.266514 0.800204 -0.000001
v -4.245991 0.793910 -0.000001
v -4.225368 0.784960 -0.000001
v -4.204638 0.773276 -0.000001
v -4.183794 0.758778 -0.000001
v -4.162829 0.741387 -0.000001
v -4.141736 0.721023 -0.000001
v -4.120509 0.697607 -0.000001
v -4.099142 0.671059 -0.000001
v -4.077626 0.641301 -0.000001
v -4.055956 0.608253 -0.000001
v -4.052090 0.608253 -0.000001
v -4.052090 0.789323 -0.000001
v -3.715698 0.140636 -0.000001
v -3.706120 0.134266 -0.000001
v -3.696751 0.128355 -0.000001
v -3.687636 0.122919 -0.000001
v -3.678823 0.117978 -0.000001
v -3.670360 0.113549 -0.000001
v -3.662292 0.109652 -0.000001
v -3.654668 0.106304 -0.000001
v -3.647533 0.103523 -0.000001
v -3.640936 0.101329 -0.000001
v -3.634922 0.099739 -0.000001
v -3.629539 0.098771 -0.000001
v -3.624834 0.098445 -0.000001
v -3.619721 0.098670 -0.000001
v -3.615017 0.099365 -0.000001
v -3.610728 0.100560 -0.000001
v -3.606863 0.102286 -0.000001
v -3.603427 0.104574 -0.000001
v -3.600428 0.107454 -0.000001
v -3.597871 0.110957 -0.000001
v -3.595764 0.115113 -0.000001
v -3.594114 0.119952 -0.000001
v -3.592927 0.125506 -0.000001
v -3.592210 0.131804 -0.000001
v -3.591969 0.138878 -0.000001
v -3.591969 0.544966 -0.000001
v -3.589129 0.587753 -0.000001
v -3.580844 0.626500 -0.000001
v -3.567471 0.661266 -0.000001
v -3.549365 0.692114 -0.000001
v -3.526883 0.719104 -0.000001
v -3.500380 0.742297 -0.000001
v -3.470211 0.761755 -0.000001
v -3.436733 0.777538 -0.000001
v -3.400303 0.789707 -0.000001
v -3.361274 0.798324 -0.000001
v -3.320003 0.803449 -0.000001
v -3.276844 0.805144 -0.000001
v -3.246071 0.804411 -0.000001
v -3.216572 0.802206 -0.000001
v -3.188335 0.798524 -0.000001
v -3.161348 0.793359 -0.000001
v -3.135596 0.786705 -0.000001
v -3.111065 0.778555 -0.000001
v -3.087743 0.768904 -0.000001
v -3.065616 0.757744 -0.000001
v -3.044669 0.745072 -0.000001
v -3.024891 0.730879 -0.000001
v -3.006268 0.715160 -0.000001
v -2.988785 0.697909 -0.000001
v -2.988785 0.527387 -0.000001
v -3.009841 0.548780 -0.000001
v -3.031407 0.568154 -0.000001
v -3.053430 0.585537 -0.000001
v -3.075855 0.600961 -0.000001
v -3.098629 0.614456 -0.000001
v -3.121699 0.626052 -0.000001
v -3.145010 0.635781 -0.000001
v -3.168509 0.643673 -0.000001
v -3.192142 0.649757 -0.000001
v -3.215857 0.654066 -0.000001
v -3.239597 0.656628 -0.000001
v -3.263311 0.657476 -0.000001
v -3.288323 0.656623 -0.000001
v -3.311160 0.654025 -0.000001
v -3.331822 0.649620 -0.000001
v -3.350309 0.643347 -0.000001
v -3.366622 0.635145 -0.000001
v -3.380758 0.624954 -0.000001
v -3.392720 0.612711 -0.000001
v -3.402508 0.598356 -0.000001
v -3.410120 0.581829 -0.000001
v -3.415558 0.563067 -0.000001
v -3.418820 0.542010 -0.000001
v -3.419907 0.518597 -0.000001
v -3.419907 0.476406 -0.000001
v -3.267178 0.427183 -0.000001
v -3.232117 0.415658 -0.000001
v -3.196935 0.403687 -0.000001
v -3.162237 0.390898 -0.000001
v -3.128626 0.376919 -0.000001
v -3.096706 0.361377 -0.000001
v -3.067083 0.343900 -0.000001
v -3.040359 0.324116 -0.000001
v -3.017139 0.301652 -0.000001
v -2.998029 0.276136 -0.000001
v -2.983630 0.247196 -0.000001
v -2.974548 0.214459 -0.000001
v -2.971386 0.177553 -0.000001
v -2.973134 0.152329 -0.000001
v -2.978278 0.127826 -0.000001
v -2.986671 0.104323 -0.000001
v -2.998166 0.082102 -0.000001
v -3.012614 0.061444 -0.000001
v -3.029869 0.042630 -0.000001
v -3.049781 0.025939 -0.000001
v -3.072205 0.011654 -0.000001
v -3.096991 0.000054 -0.000001
v -3.123992 -0.008579 -0.000001
v -3.153061 -0.013965 -0.000001
v -3.184047 -0.015822 -0.000001
v -3.203860 -0.015272 -0.000001
v -3.223661 -0.013617 -0.000001
v -3.243435 -0.010851 -0.000001
v -3.263168 -0.006967 -0.000001
v -3.282848 -0.001961 -0.000001
v -3.302461 0.004174 -0.000001
v -3.321993 0.011445 -0.000001
v -3.341432 0.019858 -0.000001
v -3.360763 0.029418 -0.000001
v -3.379972 0.040131 -0.000001
v -3.399047 0.052005 -0.000001
v -3.417974 0.065044 -0.000001
v -3.422369 0.051635 -0.000001
v -3.427846 0.039521 -0.000001
v -3.434436 0.028676 -0.000001
v -3.442175 0.019076 -0.000001
v -3.451096 0.010698 -0.000001
v -3.461230 0.003515 -0.000001
v -3.472614 -0.002495 -0.000001
v -3.485280 -0.007358 -0.000001
v -3.499262 -0.011098 -0.000001
v -3.514592 -0.013739 -0.000001
v -3.531305 -0.015306 -0.000001
v -3.549437 -0.015822 -0.000001
v -3.562566 -0.015518 -0.000001
v -3.575044 -0.014561 -0.000001
v -3.587106 -0.012883 -0.000001
v -3.598987 -0.010418 -0.000001
v -3.610921 -0.007099 -0.000001
v -3.623144 -0.002857 -0.000001
v -3.635890 0.002373 -0.000001
v -3.649396 0.008659 -0.000001
v -3.663894 0.016068 -0.000001
v -3.679621 0.024668 -0.000001
v -3.696811 0.034525 -0.000001
v -3.715698 0.045706 -0.000001
v -3.419907 0.159973 -0.000001
v -3.408227 0.150200 -0.000001
v -3.396385 0.141116 -0.000001
v -3.384383 0.132753 -0.000001
v -3.372219 0.125140 -0.000001
v -3.359895 0.118308 -0.000001
v -3.347409 0.112289 -0.000001
v -3.334762 0.107112 -0.000001
v -3.321954 0.102807 -0.000001
v -3.308985 0.099406 -0.000001
v -3.295855 0.096939 -0.000001
v -3.282563 0.095437 -0.000001
v -3.269111 0.094929 -0.000001
v -3.251650 0.095866 -0.000001
v -3.235109 0.098616 -0.000001
v -3.219602 0.103087 -0.000001
v -3.205241 0.109188 -0.000001
v -3.192143 0.116827 -0.000001
v -3.180423 0.125913 -0.000001
v -3.170191 0.136354 -0.000001
v -3.161564 0.148058 -0.000001
v -3.154655 0.160935 -0.000001
v -3.149580 0.174892 -0.000001
v -3.146450 0.189837 -0.000001
v -3.145382 0.205680 -0.000001
v -3.147978 0.228012 -0.000001
v -3.155514 0.248531 -0.000001
v -3.167615 0.267401 -0.000001
v -3.183905 0.284789 -0.000001
v -3.204006 0.300857 -0.000001
v -3.227546 0.315773 -0.000001
v -3.254147 0.329699 -0.000001
v -3.283432 0.342801 -0.000001
v -3.315027 0.355244 -0.000001
v -3.348555 0.367193 -0.000001
v -3.383640 0.378812 -0.000001
v -3.419907 0.390266 -0.000001
v -2.841856 0.228534 -0.000001
v -2.816760 0.214110 -0.000001
v -2.791717 0.200748 -0.000001
v -2.766700 0.188485 -0.000001
v -2.741683 0.177358 -0.000001
v -2.716640 0.167402 -0.000001
v -2.691544 0.158655 -0.000001
v -2.666366 0.151153 -0.000001
v -2.641081 0.144933 -0.000001
v -2.615662 0.140032 -0.000001
v -2.590082 0.136485 -0.000001
v -2.564314 0.134331 -0.000001
v -2.538331 0.133604 -0.000001
v -2.498177 0.135286 -0.000001
v -2.460856 0.140319 -0.000001
v -2.426382 0.148684 -0.000001
v -2.394766 0.160364 -0.000001
v -2.366024 0.175340 -0.000001
v -2.340169 0.193595 -0.000001
v -2.317214 0.215108 -0.000001
v -2.297172 0.239863 -0.000001
v -2.280056 0.267841 -0.000001
v -2.265882 0.299023 -0.000001
v -2.254660 0.333392 -0.000001
v -2.246406 0.370929 -0.000001
v -2.857322 0.370929 -0.000001
v -2.854299 0.440775 -0.000001
v -2.845374 0.504419 -0.000001
v -2.830770 0.561887 -0.000001
v -2.810709 0.613201 -0.000001
v -2.785412 0.658387 -0.000001
v -2.755100 0.697469 -0.000001
v -2.719995 0.730472 -0.000001
v -2.680320 0.757419 -0.000001
v -2.636294 0.778335 -0.000001
v -2.588140 0.793245 -0.000001
v -2.536078 0.802174 -0.000001
v -2.480332 0.805144 -0.000001
v -2.421985 0.801824 -0.000001
v -2.367021 0.792057 -0.000001
v -2.315763 0.776138 -0.000001
v -2.268531 0.754359 -0.000001
v -2.225650 0.727013 -0.000001
v -2.187441 0.694393 -0.000001
v -2.154226 0.656792 -0.000001
v -2.126328 0.614504 -0.000001
v -2.104068 0.567820 -0.000001
v -2.087769 0.517034 -0.000001
v -2.077754 0.462440 -0.000001
v -2.074343 0.404330 -0.000001
v -2.077467 0.350271 -0.000001
v -2.086766 0.297518 -0.000001
v -2.102134 0.246718 -0.000001
v -2.123463 0.198518 -0.000001
v -2.150645 0.153566 -0.000001
v -2.183574 0.112509 -0.000001
v -2.222141 0.075992 -0.000001
v -2.266240 0.044665 -0.000001
v -2.315762 0.019172 -0.000001
v -2.370601 0.000162 -0.000001
v -2.430649 -0.011718 -0.000001
v -2.495799 -0.015822 -0.000001
v -2.531479 -0.015198 -0.000001
v -2.565200 -0.013316 -0.000001
v -2.597175 -0.010164 -0.000001
v -2.627620 -0.005730 -0.000001
v -2.656749 -0.000003 -0.000001
v -2.684777 0.007031 -0.000001
v -2.711920 0.015383 -0.000001
v -2.738390 0.025067 -0.000001
v -2.764405 0.036092 -0.000001
v -2.790178 0.048473 -0.000001
v -2.815924 0.062222 -0.000001
v -2.841856 0.077349 -0.000001
v -2.250272 0.474648 -0.000001
v -2.257237 0.504707 -0.000001
v -2.266526 0.532441 -0.000001
v -2.278123 0.557794 -0.000001
v -2.292017 0.580712 -0.000001
v -2.308192 0.601139 -0.000001
v -2.326637 0.619021 -0.000001
v -2.347336 0.634302 -0.000001
v -2.370278 0.646928 -0.000001
v -2.395449 0.656844 -0.000001
v -2.422834 0.663995 -0.000001
v -2.452422 0.668326 -0.000001
v -2.484199 0.669781 -0.000001
v -2.513668 0.668225 -0.000001
v -2.541123 0.663629 -0.000001
v -2.566484 0.656102 -0.000001
v -2.589670 0.645756 -0.000001
v -2.610600 0.632699 -0.000001
v -2.629195 0.617043 -0.000001
v -2.645372 0.598895 -0.000001
v -2.659053 0.578368 -0.000001
v -2.670156 0.555569 -0.000001
v -2.678600 0.530610 -0.000001
v -2.684306 0.503599 -0.000001
v -2.687193 0.474648 -0.000001
v -1.869416 1.198927 -0.000001
v -1.697354 1.198927 -0.000001
v -1.697354 -0.000001 -0.000001
v -1.869416 -0.000001 -0.000001
v -1.471160 1.116303 -0.000001
v -1.427074 1.132643 -0.000001
v -1.384619 1.147401 -0.000001
v -1.343655 1.160609 -0.000001
v -1.304039 1.172297 -0.000001
v -1.265632 1.182496 -0.000001
v -1.228292 1.191236 -0.000001
v -1.191878 1.198547 -0.000001
v -1.156250 1.204461 -0.000001
v -1.121267 1.209008 -0.000001
v -1.086786 1.212218 -0.000001
v -1.052669 1.214121 -0.000001
v -1.018772 1.214749 -0.000001
v -0.916417 1.209280 -0.000001
v -0.819546 1.193263 -0.000001
v -0.728810 1.167284 -0.000001
v -0.644861 1.131929 -0.000001
v -0.568350 1.087785 -0.000001
v -0.499928 1.035437 -0.000001
v -0.440246 0.975471 -0.000001
v -0.389955 0.908473 -0.000001
v -0.349706 0.835030 -0.000001
v -0.320150 0.755726 -0.000001
v -0.301940 0.671149 -0.000001
v -0.295725 0.581884 -0.000001
v -0.300272 0.517314 -0.000001
v -0.314055 0.450322 -0.000001
v -0.337291 0.382438 -0.000001
v -0.370193 0.315195 -0.000001
v -0.412975 0.250125 -0.000001
v -0.465854 0.188760 -0.000001
v -0.529044 0.132633 -0.000001
v -0.602759 0.083275 -0.000001
v -0.687214 0.042218 -0.000001
v -0.782626 0.010995 -0.000001
v -0.889206 -0.008863 -0.000001
v -1.007172 -0.015822 -0.000001
v -1.057549 -0.014922 -0.000001
v -1.105376 -0.012282 -0.000001
v -1.150839 -0.007994 -0.000001
v -1.194128 -0.002149 -0.000001
v -1.235430 0.005160 -0.000001
v -1.274932 0.013843 -0.000001
v -1.312824 0.023808 -0.000001
v -1.349292 0.034963 -0.000001
v -1.384525 0.047217 -0.000001
v -1.418711 0.060478 -0.000001
v -1.452037 0.074655 -0.000001
v -1.484693 0.089655 -0.000001
v -1.484693 0.277757 -0.000001
v -1.447211 0.256629 -0.000001
v -1.409259 0.237210 -0.000001
v -1.370931 0.219525 -0.000001
v -1.332322 0.203597 -0.000001
v -1.293524 0.189452 -0.000001
v -1.254632 0.177114 -0.000001
v -1.215741 0.166607 -0.000001
v -1.176943 0.157955 -0.000001
v -1.138333 0.151184 -0.000001
v -1.100006 0.146317 -0.000001
v -1.062053 0.143379 -0.000001
v -1.024572 0.142394 -0.000001
v -0.947469 0.146216 -0.000001
v -0.874957 0.157443 -0.000001
v -0.807440 0.175713 -0.000001
v -0.745320 0.200667 -0.000001
v -0.689000 0.231945 -0.000001
v -0.638883 0.269187 -0.000001
v -0.595370 0.312032 -0.000001
v -0.558866 0.360121 -0.000001
v -0.529773 0.413092 -0.000001
v -0.508494 0.470587 -0.000001
v -0.495430 0.532245 -0.000001
v -0.490986 0.597705 -0.000001
v -0.495574 0.662127 -0.000001
v -0.508995 0.723253 -0.000001
v -0.530739 0.780643 -0.000001
v -0.560298 0.833858 -0.000001
v -0.597160 0.882458 -0.000001
v -0.640815 0.926004 -0.000001
v -0.690754 0.964057 -0.000001
v -0.746466 0.996176 -0.000001
v -0.807440 1.021923 -0.000001
v -0.873168 1.040858 -0.000001
v -0.943137 1.052541 -0.000001
v -1.016839 1.056533 -0.000001
v -1.054760 1.055722 -0.000001
v -1.092246 1.053269 -0.000001
v -1.129422 1.049144 -0.000001
v -1.166417 1.043315 -0.000001
v -1.203359 1.035753 -0.000001
v -1.240374 1.026427 -0.000001
v -1.277591 1.015307 -0.000001
v -1.315137 1.002361 -0.000001
v -1.353139 0.987560 -0.000001
v -1.391725 0.970873 -0.000001
v -1.431023 0.952269 -0.000001
v -1.471160 0.931717 -0.000001
v 0.413789 0.228534 -0.000001
v 0.438886 0.214110 -0.000001
v 0.463929 0.200749 -0.000001
v 0.488945 0.188486 -0.000001
v 0.513962 0.177358 -0.000001
v 0.539005 0.167402 -0.000001
v 0.564102 0.158655 -0.000001
v 0.589279 0.151154 -0.000001
v 0.614564 0.144934 -0.000001
v 0.639983 0.140032 -0.000001
v 0.665563 0.136486 -0.000001
v 0.691331 0.134331 -0.000001
v 0.717314 0.133604 -0.000001
v 0.757468 0.135286 -0.000001
v 0.794788 0.140319 -0.000001
v 0.829263 0.148684 -0.000001
v 0.860878 0.160365 -0.000001
v 0.889620 0.175341 -0.000001
v 0.915476 0.193595 -0.000001
v 0.938431 0.215108 -0.000001
v 0.958474 0.239863 -0.000001
v 0.975589 0.267841 -0.000001
v 0.989764 0.299023 -0.000001
v 1.000985 0.333392 -0.000001
v 1.009239 0.370929 -0.000001
v 0.398323 0.370929 -0.000001
v 0.401347 0.440775 -0.000001
v 0.410272 0.504420 -0.000001
v 0.424875 0.561887 -0.000001
v 0.444936 0.613202 -0.000001
v 0.470233 0.658388 -0.000001
v 0.500545 0.697470 -0.000001
v 0.535650 0.730472 -0.000001
v 0.575325 0.757419 -0.000001
v 0.619351 0.778336 -0.000001
v 0.667505 0.793246 -0.000001
v 0.719567 0.802174 -0.000001
v 0.775312 0.805145 -0.000001
v 0.833660 0.801824 -0.000001
v 0.888624 0.792058 -0.000001
v 0.939882 0.776138 -0.000001
v 0.987113 0.754359 -0.000001
v 1.029995 0.727013 -0.000001
v 1.068204 0.694393 -0.000001
v 1.101418 0.656792 -0.000001
v 1.129317 0.614504 -0.000001
v 1.151576 0.567820 -0.000001
v 1.167875 0.517035 -0.000001
v 1.177891 0.462440 -0.000001
v 1.181301 0.404330 -0.000001
v 1.178178 0.350271 -0.000001
v 1.168878 0.297518 -0.000001
v 1.153510 0.246718 -0.000001
v 1.132181 0.198519 -0.000001
v 1.104999 0.153567 -0.000001
v 1.072071 0.112509 -0.000001
v 1.033504 0.075993 -0.000001
v 0.989405 0.044665 -0.000001
v 0.939883 0.019172 -0.000001
v 0.885044 0.000162 -0.000001
v 0.824996 -0.011718 -0.000001
v 0.759846 -0.015822 -0.000001
v 0.724166 -0.015197 -0.000001
v 0.690445 -0.013315 -0.000001
v 0.658470 -0.010164 -0.000001
v 0.628025 -0.005730 -0.000001
v 0.598896 -0.000002 -0.000001
v 0.570868 0.007031 -0.000001
v 0.543726 0.015384 -0.000001
v 0.517255 0.025067 -0.000001
v 0.491241 0.036093 -0.000001
v 0.465468 0.048474 -0.000001
v 0.439723 0.062222 -0.000001
v 0.413789 0.077350 -0.000001
v 1.005373 0.474648 -0.000001
v 0.998407 0.504708 -0.000001
v 0.989119 0.532441 -0.000001
v 0.977521 0.557794 -0.000001
v 0.963628 0.580712 -0.000001
v 0.947453 0.601139 -0.000001
v 0.929008 0.619021 -0.000001
v 0.908308 0.634302 -0.000001
v 0.885366 0.646928 -0.000001
v 0.860196 0.656844 -0.000001
v 0.832810 0.663995 -0.000001
v 0.803223 0.668326 -0.000001
v 0.771446 0.669782 -0.000001
v 0.741977 0.668225 -0.000001
v 0.714522 0.663629 -0.000001
v 0.689161 0.656103 -0.000001
v 0.665975 0.645756 -0.000001
v 0.645044 0.632700 -0.000001
v 0.626450 0.617043 -0.000001
v 0.610272 0.598896 -0.000001
v 0.596592 0.578368 -0.000001
v 0.585489 0.555569 -0.000001
v 0.577044 0.530610 -0.000001
v 0.571339 0.503600 -0.000001
v 0.568451 0.474648 -0.000001
v 2.637062 0.789323 -0.000000
v 2.637062 -0.000000 -0.000000
v 2.465000 -0.000000 -0.000000
v 2.465000 0.573094 -0.000000
v 2.447374 0.590945 -0.000000
v 2.430165 0.606764 -0.000000
v 2.413224 0.620641 -0.000000
v 2.396404 0.632669 -0.000000
v 2.379558 0.642940 -0.000000
v 2.362536 0.651543 -0.000000
v 2.345192 0.658572 -0.000000
v 2.327379 0.664117 -0.000000
v 2.308948 0.668271 -0.000000
v 2.289752 0.671125 -0.000000
v 2.269642 0.672770 -0.000000
v 2.248472 0.673298 -0.000000
v 2.227522 0.672151 -0.000000
v 2.207337 0.668667 -0.000000
v 2.188118 0.662778 -0.000000
v 2.170067 0.654416 -0.000000
v 2.153386 0.643515 -0.000000
v 2.138275 0.630008 -0.000000
v 2.124937 0.613827 -0.000000
v 2.113572 0.594906 -0.000000
v 2.104383 0.573177 -0.000000
v 2.097569 0.548572 -0.000000
v 2.093333 0.521026 -0.000000
v 2.091877 0.490470 -0.000000
v 2.091877 -0.000000 -0.000000
v 1.919815 -0.000000 -0.000000
v 1.919815 0.573094 -0.000000
v 1.904085 0.587286 -0.000000
v 1.887907 0.600782 -0.000000
v 1.871392 0.613472 -0.000000
v 1.854656 0.625247 -0.000000
v 1.837812 0.635996 -0.000000
v 1.820976 0.645610 -0.000000
v 1.804260 0.653978 -0.000000
v 1.787779 0.660992 -0.000000
v 1.771647 0.666541 -0.000000
v 1.755978 0.670514 -0.000000
v 1.740887 0.672803 -0.000000
v 1.726487 0.673298 -0.000000
v 1.702237 0.671949 -0.000000
v 1.678933 0.667926 -0.000000
v 1.656798 0.661267 -0.000000
v 1.636052 0.652007 -0.000000
v 1.616917 0.640183 -0.000000
v 1.599615 0.625833 -0.000000
v 1.584367 0.608992 -0.000000
v 1.571395 0.589697 -0.000000
v 1.560919 0.567985 -0.000000
v 1.553163 0.543893 -0.000000
v 1.548346 0.517456 -0.000001
v 1.546691 0.488712 -0.000001
v 1.546691 -0.000000 -0.000001
v 1.374629 -0.000000 -0.000001
v 1.374629 0.495744 -0.000001
v 1.376938 0.540977 -0.000001
v 1.383750 0.583365 -0.000001
v 1.394899 0.622701 -0.000001
v 1.410216 0.658778 -0.000001
v 1.429534 0.691388 -0.000001
v 1.452686 0.720323 -0.000001
v 1.479502 0.745376 -0.000001
v 1.509816 0.766339 -0.000000
v 1.543459 0.783005 -0.000000
v 1.580264 0.795167 -0.000000
v 1.620063 0.802616 -0.000000
v 1.662688 0.805145 -0.000000
v 1.692946 0.803820 -0.000000
v 1.721895 0.799968 -0.000000
v 1.749595 0.793773 -0.000000
v 1.776108 0.785416 -0.000000
v 1.801492 0.775082 -0.000000
v 1.825809 0.762954 -0.000000
v 1.849119 0.749214 -0.000000
v 1.871483 0.734045 -0.000000
v 1.892960 0.717631 -0.000000
v 1.913612 0.700155 -0.000000
v 1.933499 0.681801 -0.000000
v 1.952681 0.662750 -0.000000
v 1.967857 0.685124 -0.000000
v 1.984356 0.705649 -0.000000
v 2.002130 0.724306 -0.000000
v 2.021133 0.741077 -0.000000
v 2.041317 0.755943 -0.000000
v 2.062636 0.768887 -0.000000
v 2.085042 0.779889 -0.000000
v 2.108489 0.788932 -0.000000
v 2.132929 0.795998 -0.000000
v 2.158315 0.801067 -0.000000
v 2.184601 0.804122 -0.000000
v 2.211740 0.805145 -0.000000
v 2.232082 0.804337 -0.000000
v 2.252518 0.801906 -0.000000
v 2.273062 0.797838 -0.000000
v 2.293726 0.792123 -0.000000
v 2.314524 0.784747 -0.000000
v 2.335470 0.775699 -0.000000
v 2.356577 0.764966 -0.000000
v 2.377859 0.752536 -0.000000
v 2.399329 0.738397 -0.000000
v 2.421000 0.722537 -0.000000
v 2.442886 0.704943 -0.000000
v 2.465000 0.685603 -0.000000
v 2.465000 0.789323 -0.000000
v 2.782058 0.140636 -0.000000
v 2.791636 0.134267 -0.000000
v 2.801006 0.128355 -0.000000
v 2.810121 0.122920 -0.000000
v 2.818934 0.117978 -0.000000
v 2.827397 0.113550 -0.000000
v 2.835465 0.109652 -0.000000
v 2.843090 0.106304 -0.000000
v 2.850224 0.103524 -0.000000
v 2.856822 0.101330 -0.000000
v 2.862835 0.099740 -0.000000
v 2.868218 0.098772 -0.000000
v 2.872922 0.098445 -0.000000
v 2.878036 0.098670 -0.000000
v 2.882740 0.099365 -0.000000
v 2.887029 0.100561 -0.000000
v 2.890894 0.102287 -0.000000
v 2.894330 0.104575 -0.000000
v 2.897330 0.107455 -0.000000
v 2.899886 0.110958 -0.000000
v 2.901993 0.115114 -0.000000
v 2.903643 0.119953 -0.000000
v 2.904830 0.125507 -0.000000
v 2.905547 0.131805 -0.000000
v 2.905788 0.138879 -0.000000
v 2.905788 0.544967 -0.000000
v 2.908629 0.587754 -0.000000
v 2.916914 0.626500 -0.000000
v 2.930286 0.661267 -0.000000
v 2.948392 0.692115 -0.000000
v 2.970874 0.719105 -0.000000
v 2.997378 0.742298 -0.000000
v 3.027546 0.761755 -0.000000
v 3.061024 0.777538 -0.000000
v 3.097455 0.789708 -0.000000
v 3.136484 0.798325 -0.000000
v 3.177755 0.803450 -0.000000
v 3.220912 0.805145 -0.000000
v 3.251686 0.804411 -0.000000
v 3.281184 0.802207 -0.000000
v 3.309421 0.798525 -0.000000
v 3.336408 0.793360 -0.000000
v 3.362161 0.786706 -0.000000
v 3.386691 0.778556 -0.000000
v 3.410014 0.768904 -0.000000
v 3.432141 0.757745 -0.000000
v 3.453088 0.745072 -0.000000
v 3.472866 0.730879 -0.000000
v 3.491489 0.715160 -0.000000
v 3.508971 0.697909 -0.000000
v 3.508972 0.527387 -0.000000
v 3.487916 0.548781 -0.000000
v 3.466350 0.568154 -0.000000
v 3.444327 0.585537 -0.000000
v 3.421902 0.600961 -0.000000
v 3.399128 0.614456 -0.000000
v 3.376059 0.626053 -0.000000
v 3.352747 0.635782 -0.000000
v 3.329248 0.643673 -0.000000
v 3.305614 0.649758 -0.000000
v 3.281900 0.654066 -0.000000
v 3.258160 0.656629 -0.000000
v 3.234446 0.657476 -0.000000
v 3.209434 0.656624 -0.000000
v 3.186597 0.654025 -0.000000
v 3.165935 0.649620 -0.000000
v 3.147448 0.643348 -0.000000
v 3.131136 0.635146 -0.000000
v 3.116999 0.624954 -0.000000
v 3.105037 0.612711 -0.000000
v 3.095250 0.598357 -0.000000
v 3.087637 0.581829 -0.000000
v 3.082200 0.563067 -0.000000
v 3.078938 0.542011 -0.000000
v 3.077850 0.518598 -0.000000
v 3.077850 0.476407 -0.000000
v 3.230579 0.427184 -0.000000
v 3.265640 0.415658 -0.000000
v 3.300822 0.403687 -0.000000
v 3.335520 0.390898 -0.000000
v 3.369131 0.376919 -0.000000
v 3.401050 0.361377 -0.000000
v 3.430674 0.343900 -0.000000
v 3.457397 0.324116 -0.000000
v 3.480617 0.301652 -0.000000
v 3.499728 0.276137 -0.000000
v 3.514127 0.247196 -0.000000
v 3.523209 0.214460 -0.000000
v 3.526371 0.177554 -0.000000
v 3.524623 0.152330 -0.000000
v 3.519479 0.127826 -0.000000
v 3.511086 0.104324 -0.000000
v 3.499591 0.082103 -0.000000
v 3.485143 0.061445 -0.000000
v 3.467889 0.042630 -0.000000
v 3.447977 0.025940 -0.000000
v 3.425554 0.011654 -0.000000
v 3.400768 0.000055 -0.000000
v 3.373767 -0.008578 -0.000000
v 3.344698 -0.013964 -0.000000
v 3.313710 -0.015822 -0.000000
v 3.293896 -0.015271 -0.000000
v 3.274096 -0.013616 -0.000000
v 3.254322 -0.010850 -0.000000
v 3.234589 -0.006967 -0.000000
v 3.214909 -0.001961 -0.000000
v 3.195297 0.004175 -0.000000
v 3.175765 0.011446 -0.000000
v 3.156327 0.019858 -0.000000
v 3.136996 0.029418 -0.000000
v 3.117787 0.040132 -0.000000
v 3.098711 0.052005 -0.000000
v 3.079783 0.065044 -0.000000
v 3.075387 0.051636 -0.000000
v 3.069911 0.039521 -0.000000
v 3.063320 0.028677 -0.000000
v 3.055582 0.019077 -0.000000
v 3.046661 0.010698 -0.000000
v 3.036526 0.003516 -0.000000
v 3.025142 -0.002495 -0.000000
v 3.012476 -0.007358 -0.000000
v 2.998495 -0.011097 -0.000000
v 2.983164 -0.013738 -0.000000
v 2.966450 -0.015305 -0.000000
v 2.948320 -0.015822 -0.000000
v 2.935191 -0.015518 -0.000000
v 2.922713 -0.014560 -0.000000
v 2.910651 -0.012883 -0.000000
v 2.898771 -0.010418 -0.000000
v 2.886837 -0.007098 -0.000000
v 2.874614 -0.002857 -0.000000
v 2.861867 0.002373 -0.000000
v 2.848362 0.008659 -0.000000
v 2.833864 0.016069 -0.000000
v 2.818137 0.024668 -0.000000
v 2.800946 0.034525 -0.000000
v 2.782058 0.045707 -0.000000
v 3.077850 0.159974 -0.000000
v 3.089530 0.150200 -0.000000
v 3.101371 0.141117 -0.000000
v 3.113374 0.132753 -0.000000
v 3.125537 0.125140 -0.000000
v 3.137862 0.118309 -0.000000
v 3.150348 0.112289 -0.000000
v 3.162995 0.107112 -0.000000
v 3.175803 0.102808 -0.000000
v 3.188772 0.099407 -0.000000
v 3.201902 0.096940 -0.000000
v 3.215193 0.095437 -0.000000
v 3.228646 0.094930 -0.000000
v 3.246107 0.095867 -0.000000
v 3.262648 0.098616 -0.000000
v 3.278156 0.103088 -0.000000
v 3.292516 0.109189 -0.000000
v 3.305614 0.116828 -0.000000
v 3.317335 0.125914 -0.000000
v 3.327567 0.136355 -0.000000
v 3.336194 0.148059 -0.000000
v 3.343102 0.160935 -0.000000
v 3.348178 0.174892 -0.000000
v 3.351307 0.189838 -0.000000
v 3.352376 0.205681 -0.000000
v 3.349780 0.228013 -0.000000
v 3.342244 0.248531 -0.000000
v 3.330143 0.267402 -0.000000
v 3.313853 0.284789 -0.000000
v 3.293751 0.300858 -0.000000
v 3.270211 0.315773 -0.000000
v 3.243611 0.329699 -0.000000
v 3.214325 0.342802 -0.000000
v 3.182730 0.355245 -0.000000
v 3.149202 0.367193 -0.000000
v 3.114117 0.378812 -0.000000
v 3.077850 0.390267 -0.000000
v 3.706166 0.590674 -0.000000
v 4.148888 0.590674 -0.000000
v 4.148888 0.435974 -0.000000
v 3.895627 0.435974 -0.000000
v 3.895627 0.189859 -0.000000
v 3.918388 0.183386 -0.000000
v 3.941257 0.177187 -0.000000
v 3.964259 0.171318 -0.000000
v 3.987423 0.165834 -0.000000
v 4.010774 0.160789 -0.000000
v 4.034341 0.156238 -0.000000
v 4.058148 0.152237 -0.000000
v 4.082225 0.148840 -0.000000
v 4.106597 0.146103 -0.000000
v 4.131291 0.144079 -0.000000
v 4.156334 0.142825 -0.000000
v 4.181753 0.142395 -0.000000
v 4.258044 0.146250 -0.000000
v 4.330025 0.157565 -0.000000
v 4.397254 0.175961 -0.000000
v 4.459287 0.201058 -0.000000
v 4.515680 0.232480 -0.000000
v 4.565993 0.269847 -0.000000
v 4.609780 0.312780 -0.000000
v 4.646600 0.360902 -0.000000
v 4.676009 0.413834 -0.000000
v 4.697563 0.471198 -0.000000
v 4.710821 0.532615 -0.000000
v 4.715339 0.597706 -0.000000
v 4.710799 0.661389 -0.000000
v 4.697546 0.722033 -0.000000
v 4.676129 0.779160 -0.000000
v 4.647101 0.832296 -0.000000
v 4.611011 0.880963 -0.000000
v 4.568409 0.924686 -0.000000
v 4.519847 0.962989 -0.000000
v 4.465874 0.995395 -0.000000
v 4.407041 1.021429 -0.000000
v 4.343898 1.040614 -0.000000
v 4.276996 1.052474 -0.000000
v 4.206886 1.056533 -0.000000
v 4.167218 1.055692 -0.000000
v 4.127496 1.053180 -0.000000
v 4.087748 1.049007 -0.000000
v 4.047999 1.043185 -0.000000
v 4.008277 1.035728 -0.000000
v 3.968609 1.026648 -0.000000
v 3.929021 1.015955 -0.000000
v 3.889541 1.003664 -0.000000
v 3.850195 0.989785 -0.000000
v 3.811011 0.974332 -0.000000
v 3.772014 0.957316 -0.000000
v 3.733232 0.938750 -0.000000
v 3.733232 1.112787 -0.000000
v 3.782977 1.131412 -0.000000
v 3.829117 1.147808 -0.000000
v 3.872156 1.162093 -0.000000
v 3.912597 1.174381 -0.000000
v 3.950944 1.184790 -0.000000
v 3.987700 1.193434 -0.000000
v 4.023368 1.200430 -0.000000
v 4.058453 1.205894 -0.000000
v 4.093456 1.209942 -0.000000
v 4.128883 1.212690 -0.000000
v 4.165236 1.214254 -0.000000
v 4.203019 1.214749 -0.000000
v 4.301415 1.209252 -0.000000
v 4.395059 1.193190 -0.000000
v 4.483224 1.167202 -0.000000
v 4.565187 1.131930 -0.000000
v 4.640223 1.088014 -0.000000
v 4.707605 1.036097 -0.000000
v 4.766611 0.976818 0.000000
v 4.816514 0.910818 0.000000
v 4.856589 0.838739 0.000000
v 4.886112 0.761220 0.000000
v 4.904357 0.678905 0.000000
v 4.910600 0.592432 0.000000
v 4.904508 0.506605 0.000000
v 4.886676 0.425296 0.000000
v 4.857767 0.349065 -0.000000
v 4.818447 0.278474 -0.000000
v 4.769380 0.214084 -0.000000
v 4.711230 0.156458 -0.000000
v 4.644663 0.106157 -0.000000
v 4.570343 0.063742 -0.000000
v 4.488934 0.029775 -0.000000
v 4.401100 0.004818 -0.000000
v 4.307507 -0.010568 -0.000000
v 4.208819 -0.015822 -0.000000
v 4.163707 -0.015228 -0.000000
v 4.120031 -0.013413 -0.000000
v 4.077538 -0.010328 -0.000000
v 4.035970 -0.005925 -0.000000
v 3.995073 -0.000155 -0.000000
v 3.954593 0.007032 -0.000000
v 3.914274 0.015683 -0.000000
v 3.873860 0.025848 -0.000000
v 3.833098 0.037576 -0.000000
v 3.791732 0.050916 -0.000000
v 3.749506 0.065915 -0.000000
v 3.706166 0.082624 -0.000000
vn -0.0000 -0.0000 -1.0000
vt 0.917355 0.000000
vt 0.900826 0.000000
vt 0.909091 0.000000
vt 0.925620 0.000000
vt 0.892562 0.000000
vt 0.933884 0.000000
vt 0.884298 0.000000
vt 0.942149 0.000000
vt 0.876033 0.000000
vt 0.950413 0.000000
vt 0.867769 0.000000
vt 0.958678 0.000000
vt 0.859504 0.000000
vt 0.966942 0.000000
vt 0.851240 0.000000
vt 0.975207 0.000000
vt 0.842975 0.000000
vt 0.983471 0.000000
vt 0.834711 0.000000
vt 0.991736 0.000000
vt 0.826446 0.000000
vt 1.000000 0.000000
vt 0.818182 0.000000
vt 0.396694 0.000000
vt 0.809917 0.000000
vt 0.404959 0.000000
vt 0.801653 0.000000
vt 0.793388 0.000000
vt 0.413223 0.000000
vt 0.785124 0.000000
vt 0.421488 0.000000
vt 0.776860 0.000000
vt 0.429752 0.000000
vt 0.768595 0.000000
vt 0.438017 0.000000
vt 0.760331 0.000000
vt 0.446281 0.000000
vt 0.752066 0.000000
vt 0.454545 0.000000
vt 0.743802 0.000000
vt 0.462810 0.000000
vt 0.735537 0.000000
vt 0.471074 0.000000
vt 0.727273 0.000000
vt 0.479339 0.000000
vt 0.719008 0.000000
vt 0.487603 0.000000
vt 0.710744 0.000000
vt 0.495868 0.000000
vt 0.504132 0.000000
vt 0.702479 0.000000
vt 0.512397 0.000000
vt 0.694215 0.000000
vt 0.520661 0.000000
vt 0.685950 0.000000
vt 0.528926 0.000000
vt 0.677686 0.000000
vt 0.537190 0.000000
vt 0.669421 0.000000
vt 0.545455 0.000000
vt 0.661157 0.000000
vt 0.553719 0.000000
vt 0.652893 0.000000
vt 0.561983 0.000000
vt 0.644628 0.000000
vt 0.570248 0.000000
vt 0.636364 0.000000
vt 0.578512 0.000000
vt 0.628099 0.000000
vt 0.586777 0.000000
vt 0.619835 0.000000
vt 0.595041 0.000000
vt 0.611570 0.000000
vt 0.603306 0.000000
vt 0.008264 0.000000
vt 0.388430 0.000000
vt 0.000000 0.000000
vt 0.016529 0.000000
vt 0.380165 0.000000
vt 0.024793 0.000000
vt 0.371901 0.000000
vt 0.033058 0.000000
vt 0.363636 0.000000
vt 0.041322 0.000000
vt 0.355372 0.000000
vt 0.049587 0.000000
vt 0.347107 0.000000
vt 0.057851 0.000000
vt 0.338843 0.000000
vt 0.066116 0.000000
vt 0.330579 0.000000
vt 0.074380 0.000000
vt 0.322314 0.000000
vt 0.082645 0.000000
vt 0.314050 0.000000
vt 0.090909 0.000000
vt 0.305785 0.000000
vt 0.297521 0.000000
vt 0.099174 0.000000
vt 0.107438 0.000000
vt 0.289256 0.000000
vt 0.115702 0.000000
vt 0.280992 0.000000
vt 0.123967 0.000000
vt 0.272727 0.000000
vt 0.132231 0.000000
vt 0.264463 0.000000
vt 0.140496 0.000000
vt 0.256198 0.000000
vt 0.148760 0.000000
vt 0.247934 0.000000
vt 0.157025 0.000000
vt 0.239669 0.000000
vt 0.165289 0.000000
vt 0.231405 0.000000
vt 0.173554 0.000000
vt 0.223140 0.000000
vt 0.181818 0.000000
vt 0.214876 0.000000
vt 0.190083 0.000000
vt 0.206612 0.000000
vt 0.198347 0.000000
vt 0.759259 0.000000
vt 0.722222 0.000000
vt 0.740741 0.000000
vt 0.703704 0.000000
vt 0.777778 0.000000
vt 0.685185 0.000000
vt 0.796296 0.000000
vt 0.666667 0.000000
vt 0.648148 0.000000
vt 0.814815 0.000000
vt 0.629630 0.000000
vt 0.018519 0.000000
vt 0.981481 0.000000
vt 0.833333 0.000000
vt 0.611111 0.000000
vt 0.592593 0.000000
vt 0.851852 0.000000
vt 0.574074 0.000000
vt 0.870370 0.000000
vt 0.555556 0.000000
vt 0.537037 0.000000
vt 0.888889 0.000000
vt 0.518519 0.000000
vt 0.907407 0.000000
vt 0.333333 0.000000
vt 0.351852 0.000000
vt 0.370370 0.000000
vt 0.388889 0.000000
vt 0.407407 0.000000
vt 0.425926 0.000000
vt 0.444444 0.000000
vt 0.462963 0.000000
vt 0.481481 0.000000
vt 0.500000 0.000000
vt 0.925926 0.000000
vt 0.296296 0.000000
vt 0.314815 0.000000
vt 0.944444 0.000000
vt 0.259259 0.000000
vt 0.277778 0.000000
vt 0.240741 0.000000
vt 0.222222 0.000000
vt 0.962963 0.000000
vt 0.203704 0.000000
vt 0.185185 0.000000
vt 0.111111 0.000000
vt 0.129630 0.000000
vt 0.148148 0.000000
vt 0.166667 0.000000
vt 0.092593 0.000000
vt 0.074074 0.000000
vt 0.055556 0.000000
vt 0.037037 0.000000
vt 0.219653 0.000000
vt 0.208092 0.000000
vt 0.213873 0.000000
vt 0.225434 0.000000
vt 0.202312 0.000000
vt 0.231214 0.000000
vt 0.236994 0.000000
vt 0.196532 0.000000
vt 0.242775 0.000000
vt 0.190751 0.000000
vt 0.248555 0.000000
vt 0.254335 0.000000
vt 0.184971 0.000000
vt 0.260116 0.000000
vt 0.179191 0.000000
vt 0.265896 0.000000
vt 0.271676 0.000000
vt 0.173410 0.000000
vt 0.277457 0.000000
vt 0.167630 0.000000
vt 0.283237 0.000000
vt 0.289017 0.000000
vt 0.294798 0.000000
vt 0.300578 0.000000
vt 0.306358 0.000000
vt 0.312139 0.000000
vt 0.317919 0.000000
vt 0.323699 0.000000
vt 0.329480 0.000000
vt 0.335260 0.000000
vt 0.341040 0.000000
vt 0.346821 0.000000
vt 0.352601 0.000000
vt 0.358382 0.000000
vt 0.161850 0.000000
vt 0.364162 0.000000
vt 0.156069 0.000000
vt 0.369942 0.000000
vt 0.375723 0.000000
vt 0.381503 0.000000
vt 0.387283 0.000000
vt 0.393064 0.000000
vt 0.150289 0.000000
vt 0.398844 0.000000
vt 0.404624 0.000000
vt 0.410405 0.000000
vt 0.144509 0.000000
vt 0.416185 0.000000
vt 0.421965 0.000000
vt 0.138728 0.000000
vt 0.427746 0.000000
vt 0.433526 0.000000
vt 0.439306 0.000000
vt 0.445087 0.000000
vt 0.450867 0.000000
vt 0.456647 0.000000
vt 0.462428 0.000000
vt 0.994220 0.000000
vt 0.791907 0.000000
vt 0.988439 0.000000
vt 0.468208 0.000000
vt 0.982659 0.000000
vt 0.473988 0.000000
vt 0.976879 0.000000
vt 0.479769 0.000000
vt 0.971098 0.000000
vt 0.965318 0.000000
vt 0.485549 0.000000
vt 0.959538 0.000000
vt 0.491329 0.000000
vt 0.953757 0.000000
vt 0.947977 0.000000
vt 0.497110 0.000000
vt 0.942197 0.000000
vt 0.936416 0.000000
vt 0.502890 0.000000
vt 0.930636 0.000000
vt 0.508671 0.000000
vt 0.924855 0.000000
vt 0.919075 0.000000
vt 0.514451 0.000000
vt 0.913295 0.000000
vt 0.907514 0.000000
vt 0.797688 0.000000
vt 0.520231 0.000000
vt 0.803468 0.000000
vt 0.901734 0.000000
vt 0.809249 0.000000
vt 0.005780 0.000000
vt 0.786127 0.000000
vt 0.132948 0.000000
vt 0.895954 0.000000
vt 0.011561 0.000000
vt 0.815029 0.000000
vt 0.127168 0.000000
vt 0.017341 0.000000
vt 0.526012 0.000000
vt 0.890173 0.000000
vt 0.121387 0.000000
vt 0.820809 0.000000
vt 0.023121 0.000000
vt 0.115607 0.000000
vt 0.826590 0.000000
vt 0.028902 0.000000
vt 0.884393 0.000000
vt 0.109827 0.000000
vt 0.034682 0.000000
vt 0.832370 0.000000
vt 0.104046 0.000000
vt 0.040462 0.000000
vt 0.878613 0.000000
vt 0.098266 0.000000
vt 0.838150 0.000000
vt 0.046243 0.000000
vt 0.092486 0.000000
vt 0.531792 0.000000
vt 0.052023 0.000000
vt 0.872832 0.000000
vt 0.843931 0.000000
vt 0.086705 0.000000
vt 0.057803 0.000000
vt 0.080925 0.000000
vt 0.063584 0.000000
vt 0.849711 0.000000
vt 0.075145 0.000000
vt 0.069364 0.000000
vt 0.867052 0.000000
vt 0.855491 0.000000
vt 0.861272 0.000000
vt 0.647399 0.000000
vt 0.537572 0.000000
vt 0.641618 0.000000
vt 0.653179 0.000000
vt 0.543353 0.000000
vt 0.635838 0.000000
vt 0.658960 0.000000
vt 0.780347 0.000000
vt 0.549133 0.000000
vt 0.630058 0.000000
vt 0.664740 0.000000
vt 0.774566 0.000000
vt 0.624277 0.000000
vt 0.670520 0.000000
vt 0.554913 0.000000
vt 0.768786 0.000000
vt 0.618497 0.000000
vt 0.676301 0.000000
vt 0.763006 0.000000
vt 0.560694 0.000000
vt 0.612717 0.000000
vt 0.682081 0.000000
vt 0.757225 0.000000
vt 0.606936 0.000000
vt 0.687861 0.000000
vt 0.751445 0.000000
vt 0.566474 0.000000
vt 0.601156 0.000000
vt 0.693642 0.000000
vt 0.745665 0.000000
vt 0.595376 0.000000
vt 0.739884 0.000000
vt 0.699422 0.000000
vt 0.572254 0.000000
vt 0.734104 0.000000
vt 0.589595 0.000000
vt 0.705202 0.000000
vt 0.728324 0.000000
vt 0.583815 0.000000
vt 0.710983 0.000000
vt 0.578035 0.000000
vt 0.722543 0.000000
vt 0.716763 0.000000
vt 0.387755 0.000000
vt 0.367347 0.000000
vt 0.377551 0.000000
vt 0.357143 0.000000
vt 0.397959 0.000000
vt 0.346939 0.000000
vt 0.408163 0.000000
vt 0.336735 0.000000
vt 0.418367 0.000000
vt 0.326531 0.000000
vt 0.428571 0.000000
vt 0.316327 0.000000
vt 0.438776 0.000000
vt 0.306122 0.000000
vt 0.448980 0.000000
vt 0.877551 0.000000
vt 0.867347 0.000000
vt 0.887755 0.000000
vt 0.857143 0.000000
vt 0.897959 0.000000
vt 0.846939 0.000000
vt 0.908163 0.000000
vt 0.295918 0.000000
vt 0.836735 0.000000
vt 0.459184 0.000000
vt 0.918367 0.000000
vt 0.826531 0.000000
vt 0.928571 0.000000
vt 0.816327 0.000000
vt 0.938776 0.000000
vt 0.806122 0.000000
vt 0.948980 0.000000
vt 0.469388 0.000000
vt 0.285714 0.000000
vt 0.795918 0.000000
vt 0.959184 0.000000
vt 0.785714 0.000000
vt 0.969388 0.000000
vt 0.479592 0.000000
vt 0.275510 0.000000
vt 0.775510 0.000000
vt 0.979592 0.000000
vt 0.765306 0.000000
vt 0.989796 0.000000
vt 0.489796 0.000000
vt 0.755102 0.000000
vt 0.265306 0.000000
vt 0.255102 0.000000
vt 0.510204 0.000000
vt 0.244898 0.000000
vt 0.234694 0.000000
vt 0.520408 0.000000
vt 0.224490 0.000000
vt 0.214286 0.000000
vt 0.530612 0.000000
vt 0.204082 0.000000
vt 0.540816 0.000000
vt 0.193878 0.000000
vt 0.010204 0.000000
vt 0.744898 0.000000
vt 0.183673 0.000000
vt 0.020408 0.000000
vt 0.030612 0.000000
vt 0.551020 0.000000
vt 0.173469 0.000000
vt 0.040816 0.000000
vt 0.051020 0.000000
vt 0.163265 0.000000
vt 0.061224 0.000000
vt 0.153061 0.000000
vt 0.071429 0.000000
vt 0.561224 0.000000
vt 0.081633 0.000000
vt 0.142857 0.000000
vt 0.091837 0.000000
vt 0.132653 0.000000
vt 0.102041 0.000000
vt 0.112245 0.000000
vt 0.122449 0.000000
vt 0.571429 0.000000
vt 0.734694 0.000000
vt 0.581633 0.000000
vt 0.724490 0.000000
vt 0.714286 0.000000
vt 0.591837 0.000000
vt 0.704082 0.000000
vt 0.693878 0.000000
vt 0.602041 0.000000
vt 0.683673 0.000000
vt 0.673469 0.000000
vt 0.612245 0.000000
vt 0.663265 0.000000
vt 0.653061 0.000000
vt 0.642857 0.000000
vt 0.622449 0.000000
vt 0.632653 0.000000
vt 0.134021 0.000000
vt 0.113402 0.000000
vt 0.123711 0.000000
vt 0.103093 0.000000
vt 0.092784 0.000000
vt 0.144330 0.000000
vt 0.082474 0.000000
vt 0.072165 0.000000
vt 0.061856 0.000000
vt 0.154639 0.000000
vt 0.051546 0.000000
vt 0.041237 0.000000
vt 0.030928 0.000000
vt 0.164948 0.000000
vt 0.020619 0.000000
vt 0.010309 0.000000
vt 0.175258 0.000000
vt 0.896907 0.000000
vt 0.907216 0.000000
vt 0.917526 0.000000
vt 0.927835 0.000000
vt 0.938144 0.000000
vt 0.948454 0.000000
vt 0.958763 0.000000
vt 0.969072 0.000000
vt 0.979381 0.000000
vt 0.989691 0.000000
vt 0.185567 0.000000
vt 0.876289 0.000000
vt 0.886598 0.000000
vt 0.865979 0.000000
vt 0.855670 0.000000
vt 0.845361 0.000000
vt 0.195876 0.000000
vt 0.835052 0.000000
vt 0.824742 0.000000
vt 0.206186 0.000000
vt 0.814433 0.000000
vt 0.804124 0.000000
vt 0.216495 0.000000
vt 0.793814 0.000000
vt 0.226804 0.000000
vt 0.783505 0.000000
vt 0.773196 0.000000
vt 0.237113 0.000000
vt 0.762887 0.000000
vt 0.247423 0.000000
vt 0.752577 0.000000
vt 0.742268 0.000000
vt 0.257732 0.000000
vt 0.731959 0.000000
vt 0.268041 0.000000
vt 0.721649 0.000000
vt 0.278351 0.000000
vt 0.711340 0.000000
vt 0.288660 0.000000
vt 0.701031 0.000000
vt 0.298969 0.000000
vt 0.690722 0.000000
vt 0.515464 0.000000
vt 0.494845 0.000000
vt 0.505155 0.000000
vt 0.680412 0.000000
vt 0.525773 0.000000
vt 0.309278 0.000000
vt 0.536082 0.000000
vt 0.670103 0.000000
vt 0.546392 0.000000
vt 0.556701 0.000000
vt 0.659794 0.000000
vt 0.567010 0.000000
vt 0.319588 0.000000
vt 0.577320 0.000000
vt 0.649485 0.000000
vt 0.587629 0.000000
vt 0.597938 0.000000
vt 0.639175 0.000000
vt 0.608247 0.000000
vt 0.618557 0.000000
vt 0.628866 0.000000
vt 0.329897 0.000000
vt 0.484536 0.000000
vt 0.340206 0.000000
vt 0.474227 0.000000
vt 0.463918 0.000000
vt 0.453608 0.000000
vt 0.350515 0.000000
vt 0.443299 0.000000
vt 0.432990 0.000000
vt 0.422680 0.000000
vt 0.360825 0.000000
vt 0.412371 0.000000
vt 0.402062 0.000000
vt 0.391753 0.000000
vt 0.371134 0.000000
vt 0.381443 0.000000
vt 0.886792 0.000000
vt 0.867925 0.000000
vt 0.877358 0.000000
vt 0.660377 0.000000
vt 0.641509 0.000000
vt 0.650943 0.000000
vt 0.896226 0.000000
vt 0.858491 0.000000
vt 0.669811 0.000000
vt 0.632075 0.000000
vt 0.905660 0.000000
vt 0.849057 0.000000
vt 0.679245 0.000000
vt 0.915094 0.000000
vt 0.839623 0.000000
vt 0.622642 0.000000
vt 0.688679 0.000000
vt 0.924528 0.000000
vt 0.009434 0.000000
vt 0.990566 0.000000
vt 0.830189 0.000000
vt 0.698113 0.000000
vt 0.933962 0.000000
vt 0.613208 0.000000
vt 0.820755 0.000000
vt 0.943396 0.000000
vt 0.707547 0.000000
vt 0.811321 0.000000
vt 0.603774 0.000000
vt 0.952830 0.000000
vt 0.716981 0.000000
vt 0.801887 0.000000
vt 0.962264 0.000000
vt 0.726415 0.000000
vt 0.594340 0.000000
vt 0.792453 0.000000
vt 0.971698 0.000000
vt 0.735849 0.000000
vt 0.783019 0.000000
vt 0.981132 0.000000
vt 0.584906 0.000000
vt 0.745283 0.000000
vt 0.773585 0.000000
vt 0.754717 0.000000
vt 0.396226 0.000000
vt 0.575472 0.000000
vt 0.028302 0.000000
vt 0.037736 0.000000
vt 0.047170 0.000000
vt 0.056604 0.000000
vt 0.066038 0.000000
vt 0.075472 0.000000
vt 0.084906 0.000000
vt 0.094340 0.000000
vt 0.103774 0.000000
vt 0.113208 0.000000
vt 0.122642 0.000000
vt 0.132075 0.000000
vt 0.141509 0.000000
vt 0.764151 0.000000
vt 0.386792 0.000000
vt 0.150943 0.000000
vt 0.405660 0.000000
vt 0.377358 0.000000
vt 0.160377 0.000000
vt 0.415094 0.000000
vt 0.367925 0.000000
vt 0.169811 0.000000
vt 0.424528 0.000000
vt 0.358491 0.000000
vt 0.179245 0.000000
vt 0.433962 0.000000
vt 0.349057 0.000000
vt 0.566038 0.000000
vt 0.188679 0.000000
vt 0.339623 0.000000
vt 0.443396 0.000000
vt 0.330189 0.000000
vt 0.198113 0.000000
vt 0.452830 0.000000
vt 0.320755 0.000000
vt 0.207547 0.000000
vt 0.462264 0.000000
vt 0.311321 0.000000
vt 0.556604 0.000000
vt 0.216981 0.000000
vt 0.301887 0.000000
vt 0.471698 0.000000
vt 0.292453 0.000000
vt 0.226415 0.000000
vt 0.481132 0.000000
vt 0.283019 0.000000
vt 0.547170 0.000000
vt 0.235849 0.000000
vt 0.018868 0.000000
vt 0.273585 0.000000
vt 0.490566 0.000000
vt 0.245283 0.000000
vt 0.537736 0.000000
vt 0.254717 0.000000
vt 0.509434 0.000000
vt 0.528302 0.000000
vt 0.264151 0.000000
vt 0.518868 0.000000
vt 0.653465 0.000000
vt 0.633663 0.000000
vt 0.643564 0.000000
vt 0.623762 0.000000
vt 0.613861 0.000000
vt 0.603960 0.000000
vt 0.663366 0.000000
vt 0.594059 0.000000
vt 0.584158 0.000000
vt 0.574257 0.000000
vt 0.673267 0.000000
vt 0.564356 0.000000
vt 0.554455 0.000000
vt 0.683168 0.000000
vt 0.544554 0.000000
vt 0.534653 0.000000
vt 0.693069 0.000000
vt 0.524752 0.000000
vt 0.415842 0.000000
vt 0.425743 0.000000
vt 0.435644 0.000000
vt 0.445545 0.000000
vt 0.455446 0.000000
vt 0.465347 0.000000
vt 0.475248 0.000000
vt 0.485149 0.000000
vt 0.495050 0.000000
vt 0.504951 0.000000
vt 0.514852 0.000000
vt 0.702970 0.000000
vt 0.396040 0.000000
vt 0.405941 0.000000
vt 0.386139 0.000000
vt 0.376238 0.000000
vt 0.366337 0.000000
vt 0.712871 0.000000
vt 0.356436 0.000000
vt 0.346535 0.000000
vt 0.722772 0.000000
vt 0.336634 0.000000
vt 0.326733 0.000000
vt 0.732673 0.000000
vt 0.316832 0.000000
vt 0.742574 0.000000
vt 0.306931 0.000000
vt 0.297030 0.000000
vt 0.752475 0.000000
vt 0.287129 0.000000
vt 0.762376 0.000000
vt 0.277228 0.000000
vt 0.267327 0.000000
vt 0.772277 0.000000
vt 0.019802 0.000000
vt 0.009901 0.000000
vt 0.029703 0.000000
vt 0.257426 0.000000
vt 0.782178 0.000000
vt 0.247525 0.000000
vt 0.039604 0.000000
vt 0.792079 0.000000
vt 0.237624 0.000000
vt 0.227723 0.000000
vt 0.801980 0.000000
vt 0.217822 0.000000
vt 0.811881 0.000000
vt 0.207921 0.000000
vt 0.198020 0.000000
vt 0.821782 0.000000
vt 0.188119 0.000000
vt 0.049505 0.000000
vt 0.059406 0.000000
vt 0.069307 0.000000
vt 0.178218 0.000000
vt 0.079208 0.000000
vt 0.089109 0.000000
vt 0.099010 0.000000
vt 0.168317 0.000000
vt 0.831683 0.000000
vt 0.108911 0.000000
vt 0.118812 0.000000
vt 0.128713 0.000000
vt 0.158416 0.000000
vt 0.138614 0.000000
vt 0.148515 0.000000
vt 0.841584 0.000000
vt 0.990099 0.000000
vt 0.980198 0.000000
vt 0.851485 0.000000
vt 0.970297 0.000000
vt 0.960396 0.000000
vt 0.861386 0.000000
vt 0.950495 0.000000
vt 0.940594 0.000000
vt 0.930693 0.000000
vt 0.871287 0.000000
vt 0.920792 0.000000
vt 0.910891 0.000000
vt 0.900990 0.000000
vt 0.881188 0.000000
vt 0.891089 0.000000
s 0
usemtl マテリアル.007
f 112/1/1 110/2/1 111/3/1
f 113/4/1 110/2/1 112/1/1
f 113/4/1 109/5/1 110/2/1
f 114/6/1 109/5/1 113/4/1
f 114/6/1 108/7/1 109/5/1
f 115/8/1 108/7/1 114/6/1
f 115/8/1 107/9/1 108/7/1
f 116/10/1 107/9/1 115/8/1
f 116/10/1 106/11/1 107/9/1
f 117/12/1 106/11/1 116/10/1
f 117/12/1 105/13/1 106/11/1
f 118/14/1 105/13/1 117/12/1
f 118/14/1 104/15/1 105/13/1
f 119/16/1 104/15/1 118/14/1
f 119/16/1 103/17/1 104/15/1
f 120/18/1 103/17/1 119/16/1
f 120/18/1 102/19/1 103/17/1
f 121/20/1 102/19/1 120/18/1
f 121/20/1 101/21/1 102/19/1
f 122/22/1 101/21/1 121/20/1
f 122/22/1 100/23/1 101/21/1
f 49/24/1 100/23/1 122/22/1
f 49/24/1 99/25/1 100/23/1
f 50/26/1 99/25/1 49/24/1
f 50/26/1 98/27/1 99/25/1
f 50/26/1 97/28/1 98/27/1
f 51/29/1 97/28/1 50/26/1
f 51/29/1 96/30/1 97/28/1
f 52/31/1 96/30/1 51/29/1
f 52/31/1 95/32/1 96/30/1
f 53/33/1 95/32/1 52/31/1
f 53/33/1 94/34/1 95/32/1
f 54/35/1 94/34/1 53/33/1
f 54/35/1 93/36/1 94/34/1
f 55/37/1 93/36/1 54/35/1
f 55/37/1 92/38/1 93/36/1
f 56/39/1 92/38/1 55/37/1
f 56/39/1 91/40/1 92/38/1
f 57/41/1 91/40/1 56/39/1
f 57/41/1 90/42/1 91/40/1
f 58/43/1 90/42/1 57/41/1
f 58/43/1 89/44/1 90/42/1
f 59/45/1 89/44/1 58/43/1
f 59/45/1 88/46/1 89/44/1
f 60/47/1 88/46/1 59/45/1
f 60/47/1 87/48/1 88/46/1
f 61/49/1 87/48/1 60/47/1
f 62/50/1 87/48/1 61/49/1
f 62/50/1 86/51/1 87/48/1
f 63/52/1 86/51/1 62/50/1
f 63/52/1 85/53/1 86/51/1
f 64/54/1 85/53/1 63/52/1
f 64/54/1 84/55/1 85/53/1
f 65/56/1 84/55/1 64/54/1
f 65/56/1 83/57/1 84/55/1
f 66/58/1 83/57/1 65/56/1
f 66/58/1 82/59/1 83/57/1
f 67/60/1 82/59/1 66/58/1
f 67/60/1 81/61/1 82/59/1
f 68/62/1 81/61/1 67/60/1
f 68/62/1 80/63/1 81/61/1
f 69/64/1 80/63/1 68/62/1
f 69/64/1 79/65/1 80/63/1
f 70/66/1 79/65/1 69/64/1
f 70/66/1 78/67/1 79/65/1
f 71/68/1 78/67/1 70/66/1
f 71/68/1 77/69/1 78/67/1
f 72/70/1 77/69/1 71/68/1
f 72/70/1 76/71/1 77/69/1
f 73/72/1 76/71/1 72/70/1
f 73/72/1 75/73/1 76/71/1
f 74/74/1 75/73/1 73/72/1
f 2/75/1 48/76/1 1/77/1
f 3/78/1 48/76/1 2/75/1
f 3/78/1 47/79/1 48/76/1
f 4/80/1 47/79/1 3/78/1
f 4/80/1 46/81/1 47/79/1
f 5/82/1 46/81/1 4/80/1
f 5/82/1 45/83/1 46/81/1
f 6/84/1 45/83/1 5/82/1
f 6/84/1 44/85/1 45/83/1
f 7/86/1 44/85/1 6/84/1
f 7/86/1 43/87/1 44/85/1
f 8/88/1 43/87/1 7/86/1
f 8/88/1 42/89/1 43/87/1
f 9/90/1 42/89/1 8/88/1
f 9/90/1 41/91/1 42/89/1
f 10/92/1 41/91/1 9/90/1
f 10/92/1 40/93/1 41/91/1
f 11/94/1 40/93/1 10/92/1
f 11/94/1 39/95/1 40/93/1
f 12/96/1 39/95/1 11/94/1
f 12/96/1 38/97/1 39/95/1
f 12/96/1 37/98/1 38/97/1
f 13/99/1 37/98/1 12/96/1
f 14/100/1 37/98/1 13/99/1
f 14/100/1 36/101/1 37/98/1
f 15/102/1 36/101/1 14/100/1
f 15/102/1 35/103/1 36/101/1
f 16/104/1 35/103/1 15/102/1
f 16/104/1 34/105/1 35/103/1
f 17/106/1 34/105/1 16/104/1
f 17/106/1 33/107/1 34/105/1
f 18/108/1 33/107/1 17/106/1
f 18/108/1 32/109/1 33/107/1
f 19/110/1 32/109/1 18/108/1
f 19/110/1 31/111/1 32/109/1
f 20/112/1 31/111/1 19/110/1
f 20/112/1 30/113/1 31/111/1
f 21/114/1 30/113/1 20/112/1
f 21/114/1 29/115/1 30/113/1
f 22/116/1 29/115/1 21/114/1
f 22/116/1 28/117/1 29/115/1
f 23/118/1 28/117/1 22/116/1
f 23/118/1 27/119/1 28/117/1
f 24/120/1 27/119/1 23/118/1
f 24/120/1 26/121/1 27/119/1
f 25/122/1 26/121/1 24/120/1
f 164/123/1 162/124/1 163/125/1
f 164/123/1 161/126/1 162/124/1
f 165/127/1 161/126/1 164/123/1
f 165/127/1 160/128/1 161/126/1
f 166/129/1 160/128/1 165/127/1
f 166/129/1 159/130/1 160/128/1
f 166/129/1 158/131/1 159/130/1
f 167/132/1 158/131/1 166/129/1
f 167/132/1 157/133/1 158/131/1
f 124/134/1 177/22/1 123/77/1
f 124/134/1 176/135/1 177/22/1
f 168/136/1 157/133/1 167/132/1
f 168/136/1 156/137/1 157/133/1
f 168/136/1 155/138/1 156/137/1
f 169/139/1 155/138/1 168/136/1
f 169/139/1 154/140/1 155/138/1
f 170/141/1 154/140/1 169/139/1
f 170/141/1 153/142/1 154/140/1
f 170/141/1 152/143/1 153/142/1
f 171/144/1 152/143/1 170/141/1
f 171/144/1 151/145/1 152/143/1
f 172/146/1 151/145/1 171/144/1
f 172/146/1 141/147/1 151/145/1
f 141/147/1 142/148/1 151/145/1
f 142/148/1 143/149/1 151/145/1
f 143/149/1 144/150/1 151/145/1
f 144/150/1 145/151/1 151/145/1
f 145/151/1 146/152/1 151/145/1
f 146/152/1 147/153/1 151/145/1
f 147/153/1 148/154/1 151/145/1
f 148/154/1 149/155/1 151/145/1
f 149/155/1 150/156/1 151/145/1
f 173/157/1 139/158/1 172/146/1
f 139/158/1 140/159/1 172/146/1
f 140/159/1 141/147/1 172/146/1
f 174/160/1 137/161/1 173/157/1
f 137/161/1 138/162/1 173/157/1
f 138/162/1 139/158/1 173/157/1
f 174/160/1 136/163/1 137/161/1
f 174/160/1 135/164/1 136/163/1
f 175/165/1 135/164/1 174/160/1
f 175/165/1 134/166/1 135/164/1
f 175/165/1 133/167/1 134/166/1
f 124/134/1 175/165/1 176/135/1
f 124/134/1 129/168/1 175/165/1
f 129/168/1 130/169/1 175/165/1
f 130/169/1 131/170/1 175/165/1
f 131/170/1 132/171/1 175/165/1
f 132/171/1 133/167/1 175/165/1
f 124/134/1 128/172/1 129/168/1
f 124/134/1 127/173/1 128/172/1
f 124/134/1 126/174/1 127/173/1
f 124/134/1 125/175/1 126/174/1
f 216/176/1 214/177/1 215/178/1
f 217/179/1 214/177/1 216/176/1
f 217/179/1 213/180/1 214/177/1
f 218/181/1 213/180/1 217/179/1
f 219/182/1 213/180/1 218/181/1
f 219/182/1 212/183/1 213/180/1
f 220/184/1 212/183/1 219/182/1
f 220/184/1 211/185/1 212/183/1
f 221/186/1 211/185/1 220/184/1
f 222/187/1 211/185/1 221/186/1
f 222/187/1 210/188/1 211/185/1
f 223/189/1 210/188/1 222/187/1
f 223/189/1 209/190/1 210/188/1
f 224/191/1 209/190/1 223/189/1
f 225/192/1 209/190/1 224/191/1
f 225/192/1 208/193/1 209/190/1
f 226/194/1 208/193/1 225/192/1
f 226/194/1 207/195/1 208/193/1
f 227/196/1 207/195/1 226/194/1
f 228/197/1 229/198/1 227/196/1
f 229/198/1 230/199/1 227/196/1
f 230/199/1 231/200/1 227/196/1
f 231/200/1 232/201/1 227/196/1
f 232/201/1 233/202/1 227/196/1
f 233/202/1 234/203/1 227/196/1
f 234/203/1 235/204/1 227/196/1
f 235/204/1 236/205/1 227/196/1
f 236/205/1 237/206/1 227/196/1
f 237/206/1 238/207/1 227/196/1
f 238/207/1 207/195/1 227/196/1
f 238/207/1 239/208/1 207/195/1
f 239/208/1 240/209/1 207/195/1
f 240/209/1 206/210/1 207/195/1
f 240/209/1 241/211/1 206/210/1
f 241/211/1 205/212/1 206/210/1
f 242/213/1 205/212/1 241/211/1
f 243/214/1 205/212/1 242/213/1
f 244/215/1 205/212/1 243/214/1
f 245/216/1 205/212/1 244/215/1
f 246/217/1 205/212/1 245/216/1
f 246/217/1 204/218/1 205/212/1
f 247/219/1 204/218/1 246/217/1
f 248/220/1 204/218/1 247/219/1
f 249/221/1 204/218/1 248/220/1
f 249/221/1 203/222/1 204/218/1
f 250/223/1 203/222/1 249/221/1
f 251/224/1 203/222/1 250/223/1
f 251/224/1 202/225/1 203/222/1
f 252/226/1 202/225/1 251/224/1
f 253/227/1 202/225/1 252/226/1
f 254/228/1 351/22/1 253/227/1
f 351/22/1 202/225/1 253/227/1
f 255/229/1 351/22/1 254/228/1
f 256/230/1 351/22/1 255/229/1
f 257/231/1 351/22/1 256/230/1
f 258/232/1 351/22/1 257/231/1
f 258/232/1 350/233/1 351/22/1
f 315/234/1 202/225/1 351/22/1
f 258/232/1 349/235/1 350/233/1
f 259/236/1 349/235/1 258/232/1
f 259/236/1 348/237/1 349/235/1
f 260/238/1 348/237/1 259/236/1
f 260/238/1 347/239/1 348/237/1
f 261/240/1 347/239/1 260/238/1
f 261/240/1 346/241/1 347/239/1
f 261/240/1 345/242/1 346/241/1
f 262/243/1 345/242/1 261/240/1
f 262/243/1 344/244/1 345/242/1
f 263/245/1 344/244/1 262/243/1
f 263/245/1 343/246/1 344/244/1
f 263/245/1 342/247/1 343/246/1
f 264/248/1 342/247/1 263/245/1
f 264/248/1 341/249/1 342/247/1
f 264/248/1 340/250/1 341/249/1
f 265/251/1 340/250/1 264/248/1
f 265/251/1 339/252/1 340/250/1
f 266/253/1 339/252/1 265/251/1
f 266/253/1 338/254/1 339/252/1
f 266/253/1 337/255/1 338/254/1
f 267/256/1 337/255/1 266/253/1
f 267/256/1 336/257/1 337/255/1
f 267/256/1 335/258/1 336/257/1
f 316/259/1 202/225/1 315/234/1
f 268/260/1 335/258/1 267/256/1
f 317/261/1 202/225/1 316/259/1
f 268/260/1 334/262/1 335/258/1
f 318/263/1 202/225/1 317/261/1
f 179/264/1 314/265/1 178/77/1
f 318/263/1 201/266/1 202/225/1
f 268/260/1 333/267/1 334/262/1
f 180/268/1 314/265/1 179/264/1
f 319/269/1 201/266/1 318/263/1
f 319/269/1 200/270/1 201/266/1
f 181/271/1 314/265/1 180/268/1
f 269/272/1 333/267/1 268/260/1
f 269/272/1 332/273/1 333/267/1
f 319/269/1 199/274/1 200/270/1
f 320/275/1 199/274/1 319/269/1
f 182/276/1 314/265/1 181/271/1
f 320/275/1 198/277/1 199/274/1
f 321/278/1 198/277/1 320/275/1
f 183/279/1 314/265/1 182/276/1
f 269/272/1 331/280/1 332/273/1
f 321/278/1 197/281/1 198/277/1
f 184/282/1 314/265/1 183/279/1
f 322/283/1 197/281/1 321/278/1
f 322/283/1 196/284/1 197/281/1
f 185/285/1 314/265/1 184/282/1
f 269/272/1 330/286/1 331/280/1
f 322/283/1 195/287/1 196/284/1
f 323/288/1 195/287/1 322/283/1
f 186/289/1 314/265/1 185/285/1
f 323/288/1 194/290/1 195/287/1
f 270/291/1 330/286/1 269/272/1
f 187/292/1 314/265/1 186/289/1
f 270/291/1 329/293/1 330/286/1
f 324/294/1 194/290/1 323/288/1
f 324/294/1 193/295/1 194/290/1
f 188/296/1 314/265/1 187/292/1
f 324/294/1 192/297/1 193/295/1
f 189/298/1 314/265/1 188/296/1
f 325/299/1 192/297/1 324/294/1
f 325/299/1 191/300/1 192/297/1
f 190/301/1 314/265/1 189/298/1
f 325/299/1 190/301/1 191/300/1
f 270/291/1 328/302/1 329/293/1
f 325/299/1 314/265/1 190/301/1
f 326/303/1 314/265/1 325/299/1
f 270/291/1 327/304/1 328/302/1
f 327/304/1 314/265/1 326/303/1
f 270/291/1 290/305/1 327/304/1
f 290/305/1 314/265/1 327/304/1
f 271/306/1 290/305/1 270/291/1
f 271/306/1 289/307/1 290/305/1
f 291/308/1 314/265/1 290/305/1
f 272/309/1 289/307/1 271/306/1
f 272/309/1 288/310/1 289/307/1
f 292/311/1 314/265/1 291/308/1
f 292/311/1 313/312/1 314/265/1
f 273/313/1 288/310/1 272/309/1
f 273/313/1 287/314/1 288/310/1
f 293/315/1 313/312/1 292/311/1
f 293/315/1 312/316/1 313/312/1
f 273/313/1 286/317/1 287/314/1
f 294/318/1 312/316/1 293/315/1
f 274/319/1 286/317/1 273/313/1
f 294/318/1 311/320/1 312/316/1
f 274/319/1 285/321/1 286/317/1
f 295/322/1 311/320/1 294/318/1
f 295/322/1 310/323/1 311/320/1
f 275/324/1 285/321/1 274/319/1
f 275/324/1 284/325/1 285/321/1
f 296/326/1 310/323/1 295/322/1
f 296/326/1 309/327/1 310/323/1
f 275/324/1 283/328/1 284/325/1
f 297/329/1 309/327/1 296/326/1
f 297/329/1 308/330/1 309/327/1
f 276/331/1 283/328/1 275/324/1
f 276/331/1 282/332/1 283/328/1
f 298/333/1 308/330/1 297/329/1
f 298/333/1 307/334/1 308/330/1
f 276/331/1 281/335/1 282/332/1
f 298/333/1 306/336/1 307/334/1
f 299/337/1 306/336/1 298/333/1
f 277/338/1 281/335/1 276/331/1
f 299/337/1 305/339/1 306/336/1
f 277/338/1 280/340/1 281/335/1
f 300/341/1 305/339/1 299/337/1
f 300/341/1 304/342/1 305/339/1
f 277/338/1 279/343/1 280/340/1
f 301/344/1 304/342/1 300/341/1
f 278/345/1 279/343/1 277/338/1
f 301/344/1 303/346/1 304/342/1
f 302/347/1 303/346/1 301/344/1
f 390/348/1 388/349/1 389/350/1
f 390/348/1 387/351/1 388/349/1
f 391/352/1 387/351/1 390/348/1
f 391/352/1 386/353/1 387/351/1
f 392/354/1 386/353/1 391/352/1
f 392/354/1 385/355/1 386/353/1
f 393/356/1 385/355/1 392/354/1
f 393/356/1 384/357/1 385/355/1
f 394/358/1 384/357/1 393/356/1
f 394/358/1 383/359/1 384/357/1
f 395/360/1 383/359/1 394/358/1
f 395/360/1 382/361/1 383/359/1
f 396/362/1 438/363/1 395/360/1
f 438/363/1 382/361/1 395/360/1
f 396/362/1 437/364/1 438/363/1
f 439/365/1 382/361/1 438/363/1
f 396/362/1 436/366/1 437/364/1
f 440/367/1 382/361/1 439/365/1
f 396/362/1 435/368/1 436/366/1
f 441/369/1 382/361/1 440/367/1
f 441/369/1 381/370/1 382/361/1
f 396/362/1 434/371/1 435/368/1
f 397/372/1 434/371/1 396/362/1
f 442/373/1 381/370/1 441/369/1
f 397/372/1 433/374/1 434/371/1
f 443/375/1 381/370/1 442/373/1
f 397/372/1 432/376/1 433/374/1
f 444/377/1 381/370/1 443/375/1
f 397/372/1 431/378/1 432/376/1
f 445/379/1 381/370/1 444/377/1
f 398/380/1 431/378/1 397/372/1
f 445/379/1 380/381/1 381/370/1
f 398/380/1 430/382/1 431/378/1
f 446/383/1 380/381/1 445/379/1
f 398/380/1 429/384/1 430/382/1
f 447/385/1 380/381/1 446/383/1
f 399/386/1 429/384/1 398/380/1
f 447/385/1 379/387/1 380/381/1
f 399/386/1 428/388/1 429/384/1
f 448/389/1 379/387/1 447/385/1
f 399/386/1 427/390/1 428/388/1
f 449/391/1 379/387/1 448/389/1
f 400/392/1 427/390/1 399/386/1
f 400/392/1 426/393/1 427/390/1
f 449/391/1 378/394/1 379/387/1
f 450/22/1 378/394/1 449/391/1
f 400/392/1 450/22/1 426/393/1
f 400/392/1 378/394/1 450/22/1
f 401/156/1 378/394/1 400/392/1
f 401/156/1 377/395/1 378/394/1
f 402/396/1 376/397/1 401/156/1
f 376/397/1 377/395/1 401/156/1
f 402/396/1 375/398/1 376/397/1
f 403/399/1 375/398/1 402/396/1
f 403/399/1 374/400/1 375/398/1
f 403/399/1 373/401/1 374/400/1
f 404/402/1 373/401/1 403/399/1
f 404/402/1 372/403/1 373/401/1
f 405/404/1 372/403/1 404/402/1
f 405/404/1 371/405/1 372/403/1
f 353/406/1 425/407/1 352/77/1
f 405/404/1 370/408/1 371/405/1
f 354/409/1 425/407/1 353/406/1
f 355/410/1 425/407/1 354/409/1
f 406/411/1 370/408/1 405/404/1
f 406/411/1 369/412/1 370/408/1
f 356/413/1 425/407/1 355/410/1
f 357/414/1 425/407/1 356/413/1
f 406/411/1 368/415/1 369/412/1
f 358/416/1 425/407/1 357/414/1
f 406/411/1 367/417/1 368/415/1
f 359/418/1 425/407/1 358/416/1
f 407/419/1 367/417/1 406/411/1
f 360/420/1 425/407/1 359/418/1
f 407/419/1 366/421/1 367/417/1
f 361/422/1 425/407/1 360/420/1
f 407/419/1 365/423/1 366/421/1
f 362/424/1 425/407/1 361/422/1
f 363/425/1 425/407/1 362/424/1
f 407/419/1 364/426/1 365/423/1
f 364/426/1 425/407/1 363/425/1
f 407/419/1 425/407/1 364/426/1
f 408/427/1 425/407/1 407/419/1
f 408/427/1 424/428/1 425/407/1
f 409/429/1 424/428/1 408/427/1
f 409/429/1 423/430/1 424/428/1
f 409/429/1 422/431/1 423/430/1
f 410/432/1 422/431/1 409/429/1
f 410/432/1 421/433/1 422/431/1
f 410/432/1 420/434/1 421/433/1
f 411/435/1 420/434/1 410/432/1
f 411/435/1 419/436/1 420/434/1
f 411/435/1 418/437/1 419/436/1
f 412/438/1 418/437/1 411/435/1
f 412/438/1 417/439/1 418/437/1
f 412/438/1 416/440/1 417/439/1
f 412/438/1 415/441/1 416/440/1
f 413/442/1 415/441/1 412/438/1
f 413/442/1 414/443/1 415/441/1
f 453/130/1 451/77/1 452/147/1
f 453/130/1 454/22/1 451/77/1
f 468/444/1 466/445/1 467/446/1
f 468/444/1 465/447/1 466/445/1
f 468/444/1 464/448/1 465/447/1
f 469/449/1 464/448/1 468/444/1
f 469/449/1 463/450/1 464/448/1
f 469/449/1 462/451/1 463/450/1
f 469/449/1 461/452/1 462/451/1
f 470/453/1 461/452/1 469/449/1
f 470/453/1 460/454/1 461/452/1
f 470/453/1 459/455/1 460/454/1
f 470/453/1 458/456/1 459/455/1
f 471/457/1 458/456/1 470/453/1
f 471/457/1 457/458/1 458/456/1
f 471/457/1 456/459/1 457/458/1
f 471/457/1 455/77/1 456/459/1
f 472/460/1 455/77/1 471/457/1
f 472/460/1 542/461/1 455/77/1
f 542/461/1 543/462/1 455/77/1
f 543/462/1 544/463/1 455/77/1
f 544/463/1 545/464/1 455/77/1
f 545/464/1 546/465/1 455/77/1
f 546/465/1 547/466/1 455/77/1
f 547/466/1 548/467/1 455/77/1
f 548/467/1 549/468/1 455/77/1
f 549/468/1 550/469/1 455/77/1
f 550/469/1 551/470/1 455/77/1
f 551/470/1 552/22/1 455/77/1
f 473/471/1 540/472/1 472/460/1
f 540/472/1 541/473/1 472/460/1
f 541/473/1 542/461/1 472/460/1
f 473/471/1 539/474/1 540/472/1
f 473/471/1 538/475/1 539/474/1
f 473/471/1 537/476/1 538/475/1
f 474/477/1 537/476/1 473/471/1
f 474/477/1 536/478/1 537/476/1
f 474/477/1 535/479/1 536/478/1
f 475/480/1 535/479/1 474/477/1
f 475/480/1 534/481/1 535/479/1
f 475/480/1 533/482/1 534/481/1
f 476/483/1 533/482/1 475/480/1
f 476/483/1 532/484/1 533/482/1
f 477/485/1 532/484/1 476/483/1
f 477/485/1 531/486/1 532/484/1
f 477/485/1 530/487/1 531/486/1
f 478/488/1 530/487/1 477/485/1
f 478/488/1 529/489/1 530/487/1
f 479/490/1 529/489/1 478/488/1
f 479/490/1 528/491/1 529/489/1
f 479/490/1 527/492/1 528/491/1
f 480/493/1 527/492/1 479/490/1
f 480/493/1 526/494/1 527/492/1
f 481/495/1 526/494/1 480/493/1
f 481/495/1 525/496/1 526/494/1
f 482/497/1 525/496/1 481/495/1
f 482/497/1 524/498/1 525/496/1
f 483/499/1 524/498/1 482/497/1
f 483/499/1 523/500/1 524/498/1
f 484/501/1 523/500/1 483/499/1
f 484/501/1 522/502/1 523/500/1
f 505/503/1 503/504/1 504/505/1
f 484/501/1 521/506/1 522/502/1
f 506/507/1 503/504/1 505/503/1
f 485/508/1 521/506/1 484/501/1
f 507/509/1 503/504/1 506/507/1
f 485/508/1 520/510/1 521/506/1
f 508/511/1 503/504/1 507/509/1
f 509/512/1 503/504/1 508/511/1
f 485/508/1 519/513/1 520/510/1
f 510/514/1 503/504/1 509/512/1
f 486/515/1 519/513/1 485/508/1
f 511/516/1 503/504/1 510/514/1
f 486/515/1 518/517/1 519/513/1
f 512/518/1 503/504/1 511/516/1
f 513/519/1 503/504/1 512/518/1
f 486/515/1 517/520/1 518/517/1
f 514/521/1 503/504/1 513/519/1
f 515/522/1 503/504/1 514/521/1
f 486/515/1 516/523/1 517/520/1
f 516/523/1 503/504/1 515/522/1
f 486/515/1 503/504/1 516/523/1
f 487/524/1 503/504/1 486/515/1
f 487/524/1 502/525/1 503/504/1
f 488/526/1 502/525/1 487/524/1
f 488/526/1 501/527/1 502/525/1
f 488/526/1 500/528/1 501/527/1
f 488/526/1 499/529/1 500/528/1
f 489/530/1 499/529/1 488/526/1
f 489/530/1 498/531/1 499/529/1
f 489/530/1 497/532/1 498/531/1
f 489/530/1 496/533/1 497/532/1
f 490/534/1 496/533/1 489/530/1
f 490/534/1 495/535/1 496/533/1
f 490/534/1 494/536/1 495/535/1
f 490/534/1 493/537/1 494/536/1
f 491/538/1 493/537/1 490/534/1
f 491/538/1 492/539/1 493/537/1
f 591/348/1 589/349/1 590/350/1
f 591/348/1 588/351/1 589/349/1
f 592/352/1 588/351/1 591/348/1
f 592/352/1 587/353/1 588/351/1
f 593/354/1 587/353/1 592/352/1
f 593/354/1 586/355/1 587/353/1
f 594/356/1 586/355/1 593/354/1
f 594/356/1 585/357/1 586/355/1
f 595/358/1 585/357/1 594/356/1
f 595/358/1 584/359/1 585/357/1
f 596/360/1 584/359/1 595/358/1
f 596/360/1 583/361/1 584/359/1
f 597/362/1 639/363/1 596/360/1
f 639/363/1 583/361/1 596/360/1
f 597/362/1 638/364/1 639/363/1
f 640/365/1 583/361/1 639/363/1
f 597/362/1 637/366/1 638/364/1
f 641/367/1 583/361/1 640/365/1
f 597/362/1 636/368/1 637/366/1
f 642/369/1 583/361/1 641/367/1
f 642/369/1 582/370/1 583/361/1
f 597/362/1 635/371/1 636/368/1
f 598/372/1 635/371/1 597/362/1
f 643/373/1 582/370/1 642/369/1
f 598/372/1 634/374/1 635/371/1
f 644/375/1 582/370/1 643/373/1
f 598/372/1 633/376/1 634/374/1
f 645/377/1 582/370/1 644/375/1
f 598/372/1 632/378/1 633/376/1
f 646/379/1 582/370/1 645/377/1
f 599/380/1 632/378/1 598/372/1
f 646/379/1 581/381/1 582/370/1
f 599/380/1 631/382/1 632/378/1
f 647/383/1 581/381/1 646/379/1
f 599/380/1 630/384/1 631/382/1
f 648/385/1 581/381/1 647/383/1
f 600/386/1 630/384/1 599/380/1
f 648/385/1 580/387/1 581/381/1
f 600/386/1 629/388/1 630/384/1
f 649/389/1 580/387/1 648/385/1
f 600/386/1 628/390/1 629/388/1
f 650/391/1 580/387/1 649/389/1
f 601/392/1 628/390/1 600/386/1
f 601/392/1 627/393/1 628/390/1
f 650/391/1 579/394/1 580/387/1
f 651/22/1 579/394/1 650/391/1
f 601/392/1 651/22/1 627/393/1
f 601/392/1 579/394/1 651/22/1
f 602/156/1 579/394/1 601/392/1
f 602/156/1 578/395/1 579/394/1
f 603/396/1 577/397/1 602/156/1
f 577/397/1 578/395/1 602/156/1
f 603/396/1 576/398/1 577/397/1
f 604/399/1 576/398/1 603/396/1
f 604/399/1 575/400/1 576/398/1
f 604/399/1 574/401/1 575/400/1
f 605/402/1 574/401/1 604/399/1
f 605/402/1 573/403/1 574/401/1
f 606/404/1 573/403/1 605/402/1
f 606/404/1 572/405/1 573/403/1
f 554/406/1 626/407/1 553/77/1
f 606/404/1 571/408/1 572/405/1
f 555/409/1 626/407/1 554/406/1
f 556/410/1 626/407/1 555/409/1
f 607/411/1 571/408/1 606/404/1
f 607/411/1 570/412/1 571/408/1
f 557/413/1 626/407/1 556/410/1
f 558/414/1 626/407/1 557/413/1
f 607/411/1 569/415/1 570/412/1
f 559/416/1 626/407/1 558/414/1
f 607/411/1 568/417/1 569/415/1
f 560/418/1 626/407/1 559/416/1
f 608/419/1 568/417/1 607/411/1
f 561/420/1 626/407/1 560/418/1
f 608/419/1 567/421/1 568/417/1
f 562/422/1 626/407/1 561/420/1
f 608/419/1 566/423/1 567/421/1
f 563/424/1 626/407/1 562/422/1
f 564/425/1 626/407/1 563/424/1
f 608/419/1 565/426/1 566/423/1
f 565/426/1 626/407/1 564/425/1
f 608/419/1 626/407/1 565/426/1
f 609/427/1 626/407/1 608/419/1
f 609/427/1 625/428/1 626/407/1
f 610/429/1 625/428/1 609/427/1
f 610/429/1 624/430/1 625/428/1
f 610/429/1 623/431/1 624/430/1
f 611/432/1 623/431/1 610/429/1
f 611/432/1 622/433/1 623/431/1
f 611/432/1 621/434/1 622/433/1
f 612/435/1 621/434/1 611/432/1
f 612/435/1 620/436/1 621/434/1
f 612/435/1 619/437/1 620/436/1
f 613/438/1 619/437/1 612/435/1
f 613/438/1 618/439/1 619/437/1
f 613/438/1 617/440/1 618/439/1
f 613/438/1 616/441/1 617/440/1
f 614/442/1 616/441/1 613/438/1
f 614/442/1 615/443/1 616/441/1
f 746/540/1 744/541/1 745/542/1
f 722/543/1 720/544/1 721/545/1
f 747/546/1 744/541/1 746/540/1
f 747/546/1 743/547/1 744/541/1
f 723/548/1 720/544/1 722/543/1
f 723/548/1 719/549/1 720/544/1
f 748/550/1 743/547/1 747/546/1
f 748/550/1 742/551/1 743/547/1
f 724/552/1 719/549/1 723/548/1
f 749/553/1 742/551/1 748/550/1
f 749/553/1 741/554/1 742/551/1
f 724/552/1 718/555/1 719/549/1
f 725/556/1 718/555/1 724/552/1
f 750/557/1 741/554/1 749/553/1
f 653/558/1 758/22/1 652/77/1
f 653/558/1 757/559/1 758/22/1
f 750/557/1 740/560/1 741/554/1
f 726/561/1 718/555/1 725/556/1
f 751/562/1 740/560/1 750/557/1
f 726/561/1 717/563/1 718/555/1
f 751/562/1 739/564/1 740/560/1
f 752/565/1 739/564/1 751/562/1
f 727/566/1 717/563/1 726/561/1
f 752/565/1 738/567/1 739/564/1
f 727/566/1 716/568/1 717/563/1
f 753/569/1 738/567/1 752/565/1
f 728/570/1 716/568/1 727/566/1
f 753/569/1 737/571/1 738/567/1
f 754/572/1 737/571/1 753/569/1
f 729/573/1 716/568/1 728/570/1
f 729/573/1 715/574/1 716/568/1
f 754/572/1 736/575/1 737/571/1
f 755/576/1 736/575/1 754/572/1
f 730/577/1 715/574/1 729/573/1
f 755/576/1 735/578/1 736/575/1
f 756/579/1 735/578/1 755/576/1
f 730/577/1 714/580/1 715/574/1
f 731/581/1 714/580/1 730/577/1
f 756/579/1 734/582/1 735/578/1
f 757/559/1 734/582/1 756/579/1
f 732/583/1 714/580/1 731/581/1
f 732/583/1 694/584/1 714/580/1
f 694/584/1 713/585/1 714/580/1
f 653/558/1 655/586/1 757/559/1
f 655/586/1 656/587/1 757/559/1
f 656/587/1 657/588/1 757/559/1
f 657/588/1 658/589/1 757/559/1
f 658/589/1 659/590/1 757/559/1
f 659/590/1 660/591/1 757/559/1
f 660/591/1 661/592/1 757/559/1
f 661/592/1 662/593/1 757/559/1
f 662/593/1 663/594/1 757/559/1
f 663/594/1 664/595/1 757/559/1
f 664/595/1 665/596/1 757/559/1
f 665/596/1 666/597/1 757/559/1
f 666/597/1 734/582/1 757/559/1
f 666/597/1 667/598/1 734/582/1
f 667/598/1 733/599/1 734/582/1
f 733/599/1 693/600/1 732/583/1
f 693/600/1 694/584/1 732/583/1
f 668/601/1 733/599/1 667/598/1
f 695/602/1 713/585/1 694/584/1
f 733/599/1 692/603/1 693/600/1
f 669/604/1 733/599/1 668/601/1
f 696/605/1 713/585/1 695/602/1
f 733/599/1 691/606/1 692/603/1
f 670/607/1 733/599/1 669/604/1
f 697/608/1 713/585/1 696/605/1
f 733/599/1 690/609/1 691/606/1
f 671/610/1 733/599/1 670/607/1
f 671/610/1 690/609/1 733/599/1
f 698/611/1 713/585/1 697/608/1
f 671/610/1 689/612/1 690/609/1
f 698/611/1 712/613/1 713/585/1
f 672/614/1 689/612/1 671/610/1
f 672/614/1 688/615/1 689/612/1
f 699/616/1 712/613/1 698/611/1
f 672/614/1 687/617/1 688/615/1
f 673/618/1 687/617/1 672/614/1
f 700/619/1 712/613/1 699/616/1
f 673/618/1 686/620/1 687/617/1
f 674/621/1 686/620/1 673/618/1
f 701/622/1 712/613/1 700/619/1
f 674/621/1 685/623/1 686/620/1
f 701/622/1 711/624/1 712/613/1
f 675/625/1 685/623/1 674/621/1
f 675/625/1 684/626/1 685/623/1
f 702/627/1 711/624/1 701/622/1
f 675/625/1 683/628/1 684/626/1
f 676/629/1 683/628/1 675/625/1
f 703/630/1 711/624/1 702/627/1
f 676/629/1 682/631/1 683/628/1
f 703/630/1 710/632/1 711/624/1
f 677/633/1 682/631/1 676/629/1
f 653/558/1 654/634/1 655/586/1
f 677/633/1 681/635/1 682/631/1
f 704/636/1 710/632/1 703/630/1
f 678/637/1 681/635/1 677/633/1
f 705/156/1 710/632/1 704/636/1
f 705/156/1 709/638/1 710/632/1
f 679/639/1 681/635/1 678/637/1
f 706/640/1 709/638/1 705/156/1
f 706/640/1 708/641/1 709/638/1
f 680/642/1 681/635/1 679/639/1
f 707/643/1 708/641/1 706/640/1
f 797/176/1 795/177/1 796/178/1
f 798/179/1 795/177/1 797/176/1
f 798/179/1 794/180/1 795/177/1
f 799/181/1 794/180/1 798/179/1
f 800/182/1 794/180/1 799/181/1
f 800/182/1 793/183/1 794/180/1
f 801/184/1 793/183/1 800/182/1
f 801/184/1 792/185/1 793/183/1
f 802/186/1 792/185/1 801/184/1
f 803/187/1 792/185/1 802/186/1
f 803/187/1 791/188/1 792/185/1
f 804/189/1 791/188/1 803/187/1
f 804/189/1 790/190/1 791/188/1
f 805/191/1 790/190/1 804/189/1
f 806/192/1 790/190/1 805/191/1
f 806/192/1 789/193/1 790/190/1
f 807/194/1 789/193/1 806/192/1
f 807/194/1 788/195/1 789/193/1
f 808/196/1 788/195/1 807/194/1
f 809/197/1 810/198/1 808/196/1
f 810/198/1 811/199/1 808/196/1
f 811/199/1 812/200/1 808/196/1
f 812/200/1 813/201/1 808/196/1
f 813/201/1 814/202/1 808/196/1
f 814/202/1 815/203/1 808/196/1
f 815/203/1 816/204/1 808/196/1
f 816/204/1 817/205/1 808/196/1
f 817/205/1 818/206/1 808/196/1
f 818/206/1 819/207/1 808/196/1
f 819/207/1 788/195/1 808/196/1
f 819/207/1 820/208/1 788/195/1
f 820/208/1 821/209/1 788/195/1
f 821/209/1 787/210/1 788/195/1
f 821/209/1 822/211/1 787/210/1
f 822/211/1 786/212/1 787/210/1
f 823/213/1 786/212/1 822/211/1
f 824/214/1 786/212/1 823/213/1
f 825/215/1 786/212/1 824/214/1
f 826/216/1 786/212/1 825/215/1
f 827/217/1 786/212/1 826/216/1
f 827/217/1 785/218/1 786/212/1
f 828/219/1 785/218/1 827/217/1
f 829/220/1 785/218/1 828/219/1
f 830/221/1 785/218/1 829/220/1
f 830/221/1 784/222/1 785/218/1
f 831/223/1 784/222/1 830/221/1
f 832/224/1 784/222/1 831/223/1
f 832/224/1 783/225/1 784/222/1
f 833/226/1 783/225/1 832/224/1
f 834/227/1 783/225/1 833/226/1
f 835/228/1 932/22/1 834/227/1
f 932/22/1 783/225/1 834/227/1
f 836/229/1 932/22/1 835/228/1
f 837/230/1 932/22/1 836/229/1
f 838/231/1 932/22/1 837/230/1
f 839/232/1 932/22/1 838/231/1
f 839/232/1 931/233/1 932/22/1
f 896/234/1 783/225/1 932/22/1
f 839/232/1 930/235/1 931/233/1
f 840/236/1 930/235/1 839/232/1
f 840/236/1 929/237/1 930/235/1
f 841/238/1 929/237/1 840/236/1
f 841/238/1 928/239/1 929/237/1
f 842/240/1 928/239/1 841/238/1
f 842/240/1 927/241/1 928/239/1
f 842/240/1 926/242/1 927/241/1
f 843/243/1 926/242/1 842/240/1
f 843/243/1 925/244/1 926/242/1
f 844/245/1 925/244/1 843/243/1
f 844/245/1 924/246/1 925/244/1
f 844/245/1 923/247/1 924/246/1
f 845/248/1 923/247/1 844/245/1
f 845/248/1 922/249/1 923/247/1
f 845/248/1 921/250/1 922/249/1
f 846/251/1 921/250/1 845/248/1
f 846/251/1 920/252/1 921/250/1
f 847/253/1 920/252/1 846/251/1
f 847/253/1 919/254/1 920/252/1
f 847/253/1 918/255/1 919/254/1
f 848/256/1 918/255/1 847/253/1
f 848/256/1 917/257/1 918/255/1
f 848/256/1 916/258/1 917/257/1
f 897/259/1 783/225/1 896/234/1
f 849/260/1 916/258/1 848/256/1
f 898/261/1 783/225/1 897/259/1
f 849/260/1 915/262/1 916/258/1
f 899/263/1 783/225/1 898/261/1
f 760/264/1 895/265/1 759/77/1
f 899/263/1 782/266/1 783/225/1
f 849/260/1 914/267/1 915/262/1
f 761/268/1 895/265/1 760/264/1
f 900/269/1 782/266/1 899/263/1
f 900/269/1 781/270/1 782/266/1
f 762/271/1 895/265/1 761/268/1
f 850/272/1 914/267/1 849/260/1
f 850/272/1 913/273/1 914/267/1
f 900/269/1 780/274/1 781/270/1
f 901/275/1 780/274/1 900/269/1
f 763/276/1 895/265/1 762/271/1
f 901/275/1 779/277/1 780/274/1
f 902/278/1 779/277/1 901/275/1
f 764/279/1 895/265/1 763/276/1
f 850/272/1 912/280/1 913/273/1
f 902/278/1 778/281/1 779/277/1
f 765/282/1 895/265/1 764/279/1
f 903/283/1 778/281/1 902/278/1
f 903/283/1 777/284/1 778/281/1
f 766/285/1 895/265/1 765/282/1
f 850/272/1 911/286/1 912/280/1
f 903/283/1 776/287/1 777/284/1
f 904/288/1 776/287/1 903/283/1
f 767/289/1 895/265/1 766/285/1
f 904/288/1 775/290/1 776/287/1
f 851/291/1 911/286/1 850/272/1
f 768/292/1 895/265/1 767/289/1
f 851/291/1 910/293/1 911/286/1
f 905/294/1 775/290/1 904/288/1
f 905/294/1 774/295/1 775/290/1
f 769/296/1 895/265/1 768/292/1
f 905/294/1 773/297/1 774/295/1
f 770/298/1 895/265/1 769/296/1
f 906/299/1 773/297/1 905/294/1
f 906/299/1 772/300/1 773/297/1
f 771/301/1 895/265/1 770/298/1
f 906/299/1 771/301/1 772/300/1
f 851/291/1 909/302/1 910/293/1
f 906/299/1 895/265/1 771/301/1
f 907/303/1 895/265/1 906/299/1
f 851/291/1 908/304/1 909/302/1
f 908/304/1 895/265/1 907/303/1
f 851/291/1 871/305/1 908/304/1
f 871/305/1 895/265/1 908/304/1
f 852/306/1 871/305/1 851/291/1
f 852/306/1 870/307/1 871/305/1
f 872/308/1 895/265/1 871/305/1
f 853/309/1 870/307/1 852/306/1
f 853/309/1 869/310/1 870/307/1
f 873/311/1 895/265/1 872/308/1
f 873/311/1 894/312/1 895/265/1
f 854/313/1 869/310/1 853/309/1
f 854/313/1 868/314/1 869/310/1
f 874/315/1 894/312/1 873/311/1
f 874/315/1 893/316/1 894/312/1
f 854/313/1 867/317/1 868/314/1
f 875/318/1 893/316/1 874/315/1
f 855/319/1 867/317/1 854/313/1
f 875/318/1 892/320/1 893/316/1
f 855/319/1 866/321/1 867/317/1
f 876/322/1 892/320/1 875/318/1
f 876/322/1 891/323/1 892/320/1
f 856/324/1 866/321/1 855/319/1
f 856/324/1 865/325/1 866/321/1
f 877/326/1 891/323/1 876/322/1
f 877/326/1 890/327/1 891/323/1
f 856/324/1 864/328/1 865/325/1
f 878/329/1 890/327/1 877/326/1
f 878/329/1 889/330/1 890/327/1
f 857/331/1 864/328/1 856/324/1
f 857/331/1 863/332/1 864/328/1
f 879/333/1 889/330/1 878/329/1
f 879/333/1 888/334/1 889/330/1
f 857/331/1 862/335/1 863/332/1
f 879/333/1 887/336/1 888/334/1
f 880/337/1 887/336/1 879/333/1
f 858/338/1 862/335/1 857/331/1
f 880/337/1 886/339/1 887/336/1
f 858/338/1 861/340/1 862/335/1
f 881/341/1 886/339/1 880/337/1
f 881/341/1 885/342/1 886/339/1
f 858/338/1 860/343/1 861/340/1
f 882/344/1 885/342/1 881/341/1
f 859/345/1 860/343/1 858/338/1
f 882/344/1 884/346/1 885/342/1
f 883/347/1 884/346/1 882/344/1
f 999/644/1 997/645/1 998/646/1
f 999/644/1 996/647/1 997/645/1
f 999/644/1 995/648/1 996/647/1
f 999/644/1 994/649/1 995/648/1
f 1000/650/1 994/649/1 999/644/1
f 1000/650/1 993/651/1 994/649/1
f 1000/650/1 992/652/1 993/651/1
f 1000/650/1 991/653/1 992/652/1
f 1001/654/1 991/653/1 1000/650/1
f 1001/654/1 990/655/1 991/653/1
f 1001/654/1 989/656/1 990/655/1
f 1002/657/1 989/656/1 1001/654/1
f 1002/657/1 988/658/1 989/656/1
f 1002/657/1 987/659/1 988/658/1
f 1003/660/1 987/659/1 1002/657/1
f 1003/660/1 986/661/1 987/659/1
f 1003/660/1 975/662/1 986/661/1
f 975/662/1 976/663/1 986/661/1
f 976/663/1 977/664/1 986/661/1
f 977/664/1 978/665/1 986/661/1
f 978/665/1 979/666/1 986/661/1
f 979/666/1 980/667/1 986/661/1
f 980/667/1 981/668/1 986/661/1
f 981/668/1 982/669/1 986/661/1
f 982/669/1 983/670/1 986/661/1
f 983/670/1 984/671/1 986/661/1
f 984/671/1 985/672/1 986/661/1
f 1004/673/1 973/674/1 1003/660/1
f 973/674/1 974/675/1 1003/660/1
f 974/675/1 975/662/1 1003/660/1
f 1004/673/1 972/676/1 973/674/1
f 1004/673/1 971/677/1 972/676/1
f 1004/673/1 970/678/1 971/677/1
f 1005/679/1 970/678/1 1004/673/1
f 1005/679/1 969/680/1 970/678/1
f 1005/679/1 968/681/1 969/680/1
f 1006/682/1 968/681/1 1005/679/1
f 1006/682/1 967/683/1 968/681/1
f 1006/682/1 966/684/1 967/683/1
f 1007/685/1 966/684/1 1006/682/1
f 1007/685/1 965/686/1 966/684/1
f 1008/687/1 965/686/1 1007/685/1
f 1008/687/1 964/688/1 965/686/1
f 1008/687/1 963/689/1 964/688/1
f 1009/690/1 963/689/1 1008/687/1
f 1009/690/1 962/691/1 963/689/1
f 1010/692/1 962/691/1 1009/690/1
f 1010/692/1 961/693/1 962/691/1
f 1010/692/1 960/694/1 961/693/1
f 1011/695/1 960/694/1 1010/692/1
f 935/696/1 933/77/1 934/697/1
f 935/696/1 936/698/1 933/77/1
f 936/698/1 1034/22/1 933/77/1
f 1011/695/1 959/699/1 960/694/1
f 1012/700/1 959/699/1 1011/695/1
f 1012/700/1 958/701/1 959/699/1
f 937/702/1 1034/22/1 936/698/1
f 1013/703/1 958/701/1 1012/700/1
f 1013/703/1 957/704/1 958/701/1
f 1013/703/1 956/705/1 957/704/1
f 1014/706/1 956/705/1 1013/703/1
f 1014/706/1 955/707/1 956/705/1
f 1015/708/1 955/707/1 1014/706/1
f 1015/708/1 954/709/1 955/707/1
f 1015/708/1 953/710/1 954/709/1
f 1016/711/1 953/710/1 1015/708/1
f 1016/711/1 952/712/1 953/710/1
f 938/713/1 1034/22/1 937/702/1
f 939/714/1 1034/22/1 938/713/1
f 940/715/1 1034/22/1 939/714/1
f 1016/711/1 951/716/1 952/712/1
f 941/717/1 1034/22/1 940/715/1
f 942/718/1 1034/22/1 941/717/1
f 943/719/1 1034/22/1 942/718/1
f 1016/711/1 950/720/1 951/716/1
f 1017/721/1 950/720/1 1016/711/1
f 944/722/1 1034/22/1 943/719/1
f 945/723/1 1034/22/1 944/722/1
f 946/724/1 1034/22/1 945/723/1
f 1017/721/1 949/725/1 950/720/1
f 947/726/1 1034/22/1 946/724/1
f 948/727/1 1034/22/1 947/726/1
f 949/725/1 1034/22/1 948/727/1
f 1017/721/1 1034/22/1 949/725/1
f 1018/728/1 1034/22/1 1017/721/1
f 1018/728/1 1033/729/1 1034/22/1
f 1018/728/1 1032/730/1 1033/729/1
f 1019/731/1 1032/730/1 1018/728/1
f 1019/731/1 1031/732/1 1032/730/1
f 1019/731/1 1030/733/1 1031/732/1
f 1020/734/1 1030/733/1 1019/731/1
f 1020/734/1 1029/735/1 1030/733/1
f 1020/734/1 1028/736/1 1029/735/1
f 1020/734/1 1027/737/1 1028/736/1
f 1021/738/1 1027/737/1 1020/734/1
f 1021/738/1 1026/739/1 1027/737/1
f 1021/738/1 1025/740/1 1026/739/1
f 1021/738/1 1024/741/1 1025/740/1
f 1022/742/1 1024/741/1 1021/738/1
f 1022/742/1 1023/743/1 1024/741/1
